<svg xmlns="http://www.w3.org/2000/svg" viewBox="0 0 20.56 15.78"><title>Recurso 30</title><g id="Capa_2" data-name="Capa 2"><g id="Layer_1" data-name="Layer 1"><g id="_Grupo_" data-name="&lt;Grupo&gt;"><path id="_Trazado_compuesto_" data-name="&lt;Trazado compuesto&gt;" d="M8.41,14.94h0a4.85,4.85,0,0,0-1.14-1.7A21.26,21.26,0,0,1,4.12,9C3.44,8,2.85,6.91,2.23,5.86A7.74,7.74,0,0,0,.64,4,1.31,1.31,0,0,1,0,3,2.43,2.43,0,0,1,1,.89c.37-.25.48-.22.69.19.08.16.16.43.27.44.42,0,.6.39.84.68L4.32,4c.43.51.86,1,1.31,1.53C6.38,6.38,7.15,7.19,7.9,8a5.34,5.34,0,0,1,.53.72c.45.65.88,1.31,1.32,2l0,0,.25.34c.23-.37.49-.72.75-1.07l0,0,1.31-2c.17-.24.34-.5.53-.72.75-.84,1.52-1.66,2.27-2.5.45-.5.88-1,1.31-1.53l1.52-1.81c.24-.28.42-.64.84-.68.11,0,.19-.28.27-.45.2-.4.31-.43.68-.18a2.46,2.46,0,0,1,1,2.09c0,.55-.34.8-.64,1.06a8,8,0,0,0-1.59,1.82c-.62,1-1.2,2.13-1.89,3.12a21.48,21.48,0,0,1-3.14,4.24,4.89,4.89,0,0,0-1.14,1.71,3.14,3.14,0,0,1-.28.46c.26.66-2.18.92-2.86,1H9C8.67,16,8.35,15.3,8.41,14.94Z"/></g></g></g></svg>