<svg xmlns="http://www.w3.org/2000/svg" viewBox="0 0 1.18 11.04"><title>lenguaje0</title><g id="Capa_2" data-name="Capa 2"><g id="Layer_1" data-name="Layer 1"><path d="M1.14,10A4.41,4.41,0,0,1,1.05,11H.59C.37,11,.2,10.49.17,9.81a1.11,1.11,0,0,0,0-.26A6.27,6.27,0,0,1,0,7.89v0L0,6.43c0-.18,0-.37,0-.55,0-.67.11-1.33.16-2,0-.4,0-.8.07-1.2s0-.95.07-1.42A1.05,1.05,0,0,1,.43.63s0-.2,0-.31C.39,0,.41,0,.6,0s.26.29.47.73a1.06,1.06,0,0,1,0,.74A6.9,6.9,0,0,0,1,2.92c0,.73.1,1.47.11,2.2a18.7,18.7,0,0,1,0,3.18,4.71,4.71,0,0,0,0,1.24A2.82,2.82,0,0,1,1.14,10Z"/></g></g></svg>