<?xml version="1.0" encoding="utf-8"?>
<!-- Generator: Adobe Illustrator 22.1.0, SVG Export Plug-In . SVG Version: 6.00 Build 0)  -->
<svg version="1.1" id="Capa_1" xmlns="http://www.w3.org/2000/svg" xmlns:xlink="http://www.w3.org/1999/xlink" x="0px" y="0px"
	 viewBox="0 0 133 19" style="enable-background:new 0 0 133 19;" xml:space="preserve">
<title>line-white</title>
<g id="Capa_2_1_">
	<g id="Layer_1">
		<g id="_Grupo_">
			<image style="overflow:visible;" width="133" height="19" xlink:href="FB84F36E51123FDB.png" >
			</image>
			<path d="M6.4,11.5c2.1,0.2,4.3,0.2,6.5,0c0-0.5,1.1-0.1,1.3-0.7c-2.8,0,10.7-0.2,8.5-0.5L22,10.6l0.7-0.5
				c1.4,0.1,3.2,0.6,4.1,0.3c0.2,0.2-11.6-0.1-11.2,0.1c-1-0.6,15.9-0.5,16.4-0.7l0.2,0.3c2.1-0.3,3.5-0.8,5.3-1l0.4,0.4
				c-1-0.1-2,0-3,0.3c2.3-0.1,2.7,0.2,4.5,0.1c0-0.5-1.5-0.3,0.7-0.5c0.6,0.2-0.9,0.8,1.1,0.7c2.4,0.1,1.9-0.6,4-0.6l-1.4-0.2
				c1-0.1,2,0,2.9,0.2c-0.9,0-3.1,0.2-3,0.7c0.9-0.1,2.8,0.1,3.6,0.1l-0.5,0.4c0.8,0.3,1.3-0.2,2.4,0.1c1-0.2-0.6-0.5,0-0.7
				c0.9,0.2,1.9,0.2,2.8,0.1c-0.5-0.8-2.3,0.2-3.5-0.5l1.8,0.1c1.2-0.7-3,0-2.3-0.6c1.4-0.8,2.9,0.8,4.2-0.2
				c-0.8-0.2-3.6-0.2-3.2-0.5c1,0.3,1.7-0.2,3-0.3l1.6,0.3c0.7-0.2,0.1-0.2-0.4-0.4c2.3,0.5,6.3,0,9.7,0.5c2-0.1,0.3-0.3,1.2-0.6
				C65,8.4,66.8,8,67.9,8c0.3,0,0.9-0.4,0.6-0.6l-2.8,0.3c0.1-0.2-0.2-0.6-1.2-0.6c0.7,0.9-3.9-0.6-4.1,0.4l0.1-0.4L57,7.4l0.1,0.1
				c0-0.2-3,0.3-4.9,0.1c0.6-0.1,3.8,0,1.9-0.4c1.5-0.2,4,0.2,6.7,0l-0.5-0.3C63,6.4,66.7,7,69.8,6.9l-0.9,0.4
				c1.1,0.3,2.3,0.4,3.5,0.2c-1.3,0-0.6-0.2-0.4-0.4c1.8-0.2,4.4,0.1,6.8-0.1c0,0-0.1,0.1,0,0.2l2.5-0.2c0.8,0,1.6,0.3,2.3,0.6
				c0.4-0.1,1.5,0,1.1-0.3c-0.2,0-0.4,0-0.6,0c1.3-0.4,0.9,0.1,2.5-0.1C85.3,7.4,87,7.6,86.8,8c1.9-0.2,0.2-0.7,0.4-0.9
				c2.3,0.2,2.6,0.6,4.8,0.7c0.1-0.2-1.6-0.2-1.8-0.4c0.5,0.1,1,0.1,1.5,0l-1.4-0.2c2.4,0.3,4.9,0.4,7.3,0.2l-0.2-0.1h1.6l-0.6,0.4
				c0.9-0.1,1.8,0.3,2.3-0.1h-0.3l1.1-0.1l-1.2,0.4c1.4,0.2,3.4-0.7,5.7-0.6c0.5,0.6-4,0.2-4.3,1c0.8,0.2,1.7,0.2,2.5,0.1
				c-0.1-0.2-0.6-0.2-1.2-0.2c2-0.4,5,0.3,6.3-0.4L108,7.5c1.8-0.1,2.9,0.8,3.5,0.3l-1.4,0.8c1.8-0.4,4.1-0.3,5.8-0.6
				c0-0.4-2.4,0-2.3-0.1l0.8-0.3c2.6,0.3,0.7,0.3,3.9,0.6V7.8c1,0.5,3.9-0.4,2.8,0.4L120.1,8l0.1,0.4l3.6-0.4
				c-0.4,0.3,1.4,0.2,0.9,0.6l1.3-0.3c0.6,0.5-2.5,0.6-2.6,1c0,0.2,0.7,0.2,1,0.2c-1.6,0.4-2.4-0.5-4-0.5l-0.8,0.3V8.8
				c-0.5,0.1-1,0.2-1.5,0.6c-1.6-0.6-3.3,0.1-5.7,0c2-0.2-1.3-0.4-0.9-0.6c-1.1,0-3.8,0.8-4.7,0.2c-0.6-0.2,1.3-0.3-0.2-0.4
				c-1,0.1-1.7,0.3-1,0.5c-2.2,0.1-4.8,0-7.2,0L99,8.8c-1.3-0.2-2.6,0-3.8,0.5c-0.2-0.1-0.3,0-0.1-0.2c-1.9-0.5-2.5,0.6-5.6,0.5
				c0.2,0.4,1.6,0.5,2.6,0.3l-0.3,0.5c2.7,0.1,5.3-0.1,8-0.3l-1,0.4c1.9,0.6,1.4-0.6,3.2,0.1c1.3-0.2-1-0.2,0-0.4
				c0.9,0.1-0.3,0.8,1.3,0.9C97.4,11,90.7,10.9,84.5,11c-0.1,0.1,0.2,0.1,0.5,0.2c-2.2,0.6-19.3-1.2-19.9,0.1
				c-0.3-0.2,0.7-0.4-0.6-0.4c-0.1,0.1-0.5,0.2-0.2,0.4c-3.3-0.7-7.8,0-11.8-0.5c0.1,0.2-0.8,0.3-0.8,0.5c-1.3-0.5-3.7,0-5-0.3
				l0.4,0.2h-4c-0.1,0.1,0.4,0.1,0.8,0.1c-0.9,0.1-1.1-0.2-1.2-0.4l-1.8,0.5c-5.2-0.9-11.9,0.4-17.9-0.2c-1,0.4-2.1,0.6-3.3,0.6
				l0.8,0.1c-1.6,0.3-0.1-0.2-1.4,0c-0.9,0.3-0.3,0.6,0.9,0.4c0.8,0.1,0.3,0.3-0.3,0.4C15.3,12.7,10.8,12.3,6.4,11.5"/>
		</g>
	</g>
</g>
</svg>
