<?xml version="1.0" encoding="utf-8"?>
<!-- Generator: Adobe Illustrator 19.0.0, SVG Export Plug-In . SVG Version: 6.00 Build 0)  -->
<svg version="1.1" id="AUDIO" xmlns="http://www.w3.org/2000/svg" xmlns:xlink="http://www.w3.org/1999/xlink" x="0px" y="0px"
	 viewBox="0 0 27.0316 20.2538" enable-background="new 0 0 27.0316 20.2538" xml:space="preserve">
<g id="XMLID_3_">
	<path id="XMLID_16_" d="M15.3355,13.5425c0.0208-0.0031,0.4755-0.3192,0.6428-0.4969c0.1507-0.1605,0.2812-0.3217,0.5417-0.31
		c0.0319-0.1127,0.0423-0.2132,0.0888-0.3009c0.0797-0.1562,0.1446-0.3535,0.2831-0.4424c0.1324-0.0839,0.2108-0.1869,0.3143-0.2861
		c0.375-0.3566,0.4608-0.8848,0.8493-1.2249c0.0147-0.0135,0.0239-0.0392,0.0251-0.06c0.0092-0.2426,0.1765-0.4259,0.2561-0.6385
		c0.0619-0.1636,0.1593-0.2194,0.3413-0.242c-0.1985-0.3162-0.1924-0.3162-0.1936-0.742c-0.0018-0.3192,0.1575-0.6336-0.0245-0.9589
		c-0.0888-0.1611-0.1415-0.3174-0.3597-0.3627c-0.1581-0.0331-0.307-0.1036-0.462-0.152C17.2197,7.197,16.8,7.0726,16.3802,6.9457
		c-0.0423-0.0135-0.0907-0.0196-0.1342-0.0135c-0.242,0.03-0.4828,0.0631-0.7236,0.1011c-0.152,0.0239,0.0662-1.522,0.28-1.4767
		c0.394,0.0827,0.7929,0.1219,1.1856,0.2377c0.3119,0.0919,0.6501,0.1581,0.9841,0.1985c0.0784,0.0092,0.155,0.0453,0.2273,0.0803
		c0.4596,0.2163,0.9185,0.4393,1.299,0.7629c0.2935,0.2482,0.5527,0.5343,0.799,0.8247c0.1023,0.1219,0.1569,0.2966,0.1869,0.4559
		c0.0815,0.4277,0.057,0.8597-0.0135,1.2855c-0.0453,0.2831-0.1716,0.5521-0.1489,0.8474c0.0043,0.0613-0.0349,0.1281-0.0619,0.1893
		c-0.0993,0.2408-0.2635,0.4546-0.3266,0.7181c-0.0319,0.1293-0.2016,0.2224-0.2874,0.3474
		c-0.1985,0.2953-0.3535,0.6232-0.5858,0.8909c-0.1354,0.1569-0.2439,0.3658-0.4724,0.4455
		c-0.0374,0.0135-0.087,0.0545-0.0919,0.0876c-0.027,0.2335-0.2077,0.3143-0.394,0.4167c-0.1311,0.0741-0.2273,0.2108-0.3192,0.3327
		c-0.0662,0.0858-0.125,0.1869-0.2439,0.1354c-0.25-0.1085-0.364,0.068-0.432,0.2138c-0.1201,0.2586-0.3554,0.3309-0.5796,0.462
		c-0.2543,0.1489-0.4828,0.1428-0.7537,0.1281c-0.2439-0.0165-0.4939,0.0588-0.742,0.0809L15.3355,13.5425z"/>
	<path id="XMLID_13_" d="M20.2318,15.8458c0.0283-0.0042,0.6455-0.4334,0.8726-0.6746c0.2046-0.2179,0.3818-0.4367,0.7353-0.4209
		c0.0433-0.1531,0.0574-0.2895,0.1206-0.4084c0.1081-0.2121,0.1963-0.48,0.3843-0.6006c0.1797-0.114,0.2861-0.2537,0.4267-0.3885
		c0.5091-0.4841,0.6255-1.2012,1.1529-1.6628c0.02-0.0183,0.0324-0.0532,0.0341-0.0815c0.0125-0.3294,0.2396-2.3637,0.3477-2.6524
		c0.084-0.2221,0.2163-0.2978,0.4633-0.3286c-0.2695-0.4292-0.2612-0.4292-0.2629-1.0073
		c-0.0025-0.4334-0.4114-1.4887-0.6584-1.9304c-0.1206-0.2188-0.1922-0.4309-0.4883-0.4924
		c-0.2146-0.0449-0.4167-0.1406-0.6272-0.2063c-0.5681-0.1739-1.1103-1.1665-1.6801-1.3387
		c-0.0574-0.0183-0.1231-0.0266-0.1822-0.0183c-0.3286,0.0408-0.6555,0.0857-0.9824,0.1373
		c-0.2063,0.0324,0.0898-2.0663,0.3801-2.0047c0.5349,0.1123,1.0764,0.1655,1.6096,0.3227
		c0.4234,0.1248,0.8549,1.0384,1.3083,1.0933c0.1065,0.0125,0.2105,0.0616,0.3086,0.109c0.6239,0.2936,1.2469,0.5964,1.7635,1.0356
		c0.3984,0.3369,1.3755,3.1396,1.7099,3.5339c0.1389,0.1655,0.0025,1.3279,0.0333,1.7289c0.0058,0.0832-0.0474,1.9595-0.084,2.0427
		c-0.1348,0.3269-0.3577,0.6172-0.4434,0.9749c-0.0433,0.1755-0.2737,0.302-0.3901,0.4716c-0.2695,0.4009-0.48,0.846-0.7952,1.2095
		c-0.1838,0.2129-0.3311,0.4966-0.6413,0.6047c-0.0507,0.0183-0.1181,0.074-0.1248,0.119c-0.0366,0.3169-0.282,0.4267-0.5349,0.5656
		c-0.178,0.1007-0.3086,0.2861-0.4334,0.4517c-0.0898,0.1165-0.1697,0.2537-0.3311,0.1838
		c-0.3394-0.1472-0.4941,0.0923-0.5864,0.2903c-0.163,0.351-0.4825,0.4492-0.7869,0.6272
		c-0.3452,0.2021-0.6555,0.1938-1.0231,0.1739c-0.3311-0.0225-0.6705,0.0799-1.0073,0.1098L20.2318,15.8458z"/>
	<path id="XMLID_233_" d="M13.2919,16.3075c-0.0967-0.417-0.0049-0.8799-0.0146-1.3213c-0.0195-0.9141,0.0625-1.8496-0.1035-2.7295
		l-0.4154-1.1533l-0.1265-3.1064c0.166-0.8799,0.2299-1.8154,0.2495-2.7295c0.0098-0.4414-0.009-0.9043,0.0876-1.3213
		c0.165-0.708,0.0599-1.3965,0.0453-2.0898c-0.0068-0.3193-0.0794-0.6406-0.1634-0.9521c-0.0557-0.2041-0.0915-0.5059-0.3532-0.4824
		C12.0708,0.4629,11.7873,0.2012,11.4748,0c-0.3398,0.1367-0.4479,0.4434-0.5661,0.748c-0.0859,0.2188-0.2166,0.4199-0.3035,0.6406
		c-0.165,0.4248-0.3656,0.8086-0.7787,1.0264C9.7718,2.4463,9.7476,2.5479,9.7095,2.6191C9.5172,2.9863,9.3279,3.3535,9.2077,3.5859
		c-0.3975,0.2256-0.6972,0.3574-0.954,0.5469L7.5191,5.3207L6.9096,5.7473L6.4839,6.1124c-1.6447-0.8058-4.1996-1.6578-4.722-1.7307
		c-0.285-0.0405-0.5524-0.1013-0.769-0.3832C0.9465,4.2335,0.9123,4.4141,0.875,4.6022C0.8015,4.5712,0.7286,4.542,0.5867,4.4825
		c0.0469,0.1729,0.0703,0.285,0.111,0.3877C0.7767,5.0691,0.7501,5.4055,0.5994,5.536C0.4657,5.6544,0.441,5.7786,0.4468,5.9496
		c0.0171,0.4207,0.0405,0.847,0.0062,1.2638C0.4037,7.8,0.3289,8.3879,0.22,8.9657C0.097,9.6238,0.2541,10.2852,0.128,10.9509
		c-0.1077,0.5708-0.0544,1.1777-0.0671,1.7706c-0.0063,0.2864,0.0532,0.5867-0.0095,0.8571
		c-0.1071,0.4594-0.0151,0.9059-0.0056,1.3557c0.0044,0.2072,0.0632,0.4155,0.1178,0.6177c0.0361,0.1323,0.0652,0.3281,0.235,0.3129
		c0.2769-0.0266,4.4503-1.4875,4.6531-1.3571c0.1808-0.0728,1.292-0.1787,1.7328-0.3232l0.3752,0.3218l0.6095,0.4266l0.7346,1.188
		c0.2568,0.1895,0.5566,0.3213,0.9541,0.5469c0.1201,0.2324,0.3096,0.5996,0.502,0.9668c0.0381,0.0713,0.0625,0.1729,0.1172,0.2041
		c0.4131,0.2178,0.6143,0.6016,0.7793,1.0264c0.0869,0.2207,0.2188,0.4219,0.3047,0.6406c0.1182,0.3047,0.2285,0.6113,0.5684,0.748
		c0.3125-0.2012,0.6006-0.4629,1.0273-0.4219c0.2617,0.0234,0.3066-0.2783,0.3623-0.4824c0.084-0.3115,0.1748-0.6328,0.1816-0.9521
		C13.3153,17.704,13.4569,17.0155,13.2919,16.3075z"/>
</g>
</svg>
