<?xml version="1.0" encoding="utf-8"?>
<!-- Generator: Adobe Illustrator 19.0.0, SVG Export Plug-In . SVG Version: 6.00 Build 0)  -->
<svg version="1.1" id="carac4" xmlns="http://www.w3.org/2000/svg" xmlns:xlink="http://www.w3.org/1999/xlink" x="0px" y="0px"
	 viewBox="0 0 34 24" enable-background="new 0 0 34 24" xml:space="preserve">
<g id="XMLID_229_">
	<path id="XMLID_296_" d="M27.1924,16.3672c-0.1716-0.1265-0.3783-0.2225-0.5996-0.3026c0.096-0.0576,0.1638-0.1581,0.1638-0.2767
		s-0.0677-0.2179-0.1626-0.2755c0.533-0.227,0.8548-0.6459,0.8548-1.4251c0-0.5861-0.1841-1.4669-0.5003-2.3781
		c0.0858-1.1179,0.2044-3.5413-0.3399-4.0742c-0.122-0.1197-0.2767-0.1773-0.4415-0.1603c-0.594,0.0587-1.0547,0.5522-1.3009,0.8864
		c-0.0564-0.0407-0.1107-0.0858-0.1682-0.1208V5.5131c-0.9598-0.3681-1.721,0-1.721,0v2.7271
		c-1.5775,0.9745-2.7497,4.3588-2.7497,5.8471c0,0.7792,0.3218,1.1981,0.8548,1.4251c-0.096,0.0576-0.1626,0.157-0.1626,0.2755
		c0,0.1061,0.0542,0.1965,0.1333,0.2563c-0.1412,0.0553-0.2744,0.1174-0.3896,0.1965c-1.4578,0.9858-1.9265,2.6379-1.9265,3.985
		c0,2.0665,2.2833,1.8982,5.1007,1.8982c2.8174,0,5.1018,0.1683,5.1018-1.8982C28.9393,18.9339,28.5498,17.3632,27.1924,16.3672
		 M26.1299,8.2323c0.114,0.2789,0.1592,1.0457,0.149,1.9265c-0.2575-0.4856-0.5499-0.9271-0.8684-1.2885
		C25.5652,8.6478,25.8408,8.326,26.1299,8.2323"/>
	<path id="XMLID_295_" d="M10.9372,15.5837l-1.1067-3.0986H9.3483v-0.9915c0.7995-1.0242,12.5118-8.6024,13.7415-8.8836
		c0.2755,0.0215,0.3602,0.0926,0.3794,0.1118v2.6277h0.7374l-0.0011-2.6209c0.009-0.1276-0.0339-0.3241-0.1818-0.4923
		c-0.1897-0.2168-0.498-0.3388-0.9181-0.3636c-0.0034,0-0.0068,0-0.0113,0c-1.0479,0-12.4757,7.3987-14.1119,8.9423
		c-0.2292,0.2168-0.3726,0.3918-0.3726,0.5985v1.0716H8.0102l-1.1067,3.417c-1.11,0.8458-1.8429,2.2178-1.8429,3.4441
		c0,1.9434,1.8372,2.7802,4.1025,2.7802c2.2663,0,4.1025-0.8368,4.1025-2.7802C13.2656,17.9495,12.3137,16.3652,10.9372,15.5837"/>
</g>
<rect id="XMLID_253_" fill="none" width="34" height="24"/>
</svg>
