<?xml version="1.0" encoding="utf-8"?>
<!-- Generator: Adobe Illustrator 19.0.0, SVG Export Plug-In . SVG Version: 6.00 Build 0)  -->
<svg version="1.1" id="carac2" xmlns="http://www.w3.org/2000/svg" xmlns:xlink="http://www.w3.org/1999/xlink" x="0px" y="0px"
	 viewBox="0 0 34 24" enable-background="new 0 0 34 24" xml:space="preserve">
<path id="XMLID_501_" d="M33.2178,15.4951c0.0478-0.0502,0.1013-0.1066,0.134-0.1777c0.0396-0.083,0.0684-0.1709,0.0967-0.2588
	l0.0513-0.1533l-0.0698-0.0889c-0.0024-0.0303-0.0005-0.0605,0.0005-0.0918l0.002-0.0605c0.002-0.0361,0.0063-0.1113-0.0532-0.165
	c-0.0278-0.0244-0.0615-0.0381-0.1001-0.041c-0.0068-0.0117-0.0132-0.0244-0.02-0.0361l-0.0327-0.0566
	c-0.0342-0.0596-0.0947-0.1016-0.1655-0.1143c-0.0645-0.0127-0.127,0.0029-0.1724,0.04l-0.084,0.0674l0.0532,0.0898l-0.001,0.001
	c-0.0698-0.0068-0.1392-0.0176-0.2109-0.0273l-0.0015-0.0002l0.0001-0.0486l-0.1816,0.0059l-0.0488-0.001
	c-0.0591,0-0.1104-0.001-0.1362-0.0215c-0.1167-0.0967-0.2632-0.126-0.4365-0.0908c-0.0278,0.0059-0.0547,0.0156-0.0811,0.0244
	c-0.0562,0.0186-0.0664,0.0205-0.0781,0.0146c-0.0571-0.0303-0.1157-0.0117-0.1348-0.0049c-0.021,0.0068-0.0425,0.0117-0.064,0.0176
	c-0.0786,0.0186-0.1836,0.0439-0.2622,0.1357l-0.1343,0.0264c-0.1094,0.0225-0.2197,0.0449-0.3296,0.0625
	c-0.0972,0.0156-0.1948,0.0283-0.2925,0.042c-0.0757,0.0098-0.1514,0.0205-0.2432,0.0342c-0.1138,0.0166-0.2432,0.0361-0.3569,0.125
	l-0.1411,0.0684c-0.062,0.0293-0.124,0.0596-0.1831,0.0928c-0.1455,0.0771-0.1577,0.1846-0.1436,0.2607l-0.0088,0.0508
	l-0.0322-0.0049l-0.0415,0.123c-0.0107,0.0303-0.0215,0.0615-0.0273,0.0889c-0.0039,0.0146-0.0059,0.0293-0.0088,0.0527h-0.2026
	l0.1763,0.1172c-0.0132,0.0713-0.0029,0.1367,0.0103,0.1943c0.0024,0.0098,0.0034,0.0215,0.002,0.0332l-0.0107,0.0938
	c-0.0059,0.0508-0.0122,0.1016-0.0156,0.1533c-0.0024,0.0439-0.0068,0.1162,0.0239,0.1816
	c0.0117,0.0244,0.0127,0.0361,0.0132,0.0361c-0.0024,0.0049-0.0146,0.0215-0.0884,0.0771c-0.0591,0.043-0.1479,0.1064-0.1636,0.2295
	c-0.0054,0.042-0.0088,0.085-0.0117,0.1279c-0.0029,0.04-0.0054,0.0801-0.0117,0.1211l-0.0059,0.0469
	c-0.0063,0.0537-0.0127,0.1094-0.0327,0.1396c-0.0298,0.0469-0.0845,0.0898-0.1431,0.1357l-0.0347,0.0273
	c-0.0967,0.0791-0.1953,0.1553-0.2939,0.2314l-0.1558,0.1211c-0.0212,0.0169-0.0219,0.0356-0.0309,0.0547
	c-0.051,0.0086-0.0948,0.0322-0.1263,0.0546c-0.0479,0.0332-0.1006,0.0635-0.1538,0.0938l-0.0396,0.0205
	c-0.0254,0.001-0.0635,0.0029-0.1006,0.0225c-0.0018,0.0009-0.0022,0.0031-0.004,0.004c-0.0518-0.0898-0.1252-0.1179-0.1894-0.1105
	c-0.0781,0.0107-0.1567,0.0195-0.2349,0.0283l-0.145,0.0176c-0.0269,0.0029-0.0527,0.0088-0.1016,0.0225l-0.1539,0.0398
	l-0.0145-0.0955l-0.1226,0.1328l-0.0859,0.0195l0.02,0.0508c-0.0898,0.0918-0.1694,0.1416-0.2651,0.126l-0.0791-0.0059
	l-0.0156,0.0264l-0.0161-0.0215h-0.1416c-0.0713,0-0.1475-0.001-0.2285,0.001c-0.0586,0.0049-0.1523,0.042-0.1772,0.1182
	l-0.0264,0.002c-0.0396,0.002-0.1357,0.0146-0.168,0.0977c-0.0317-0.0166-0.0952-0.0391-0.1602-0.0186
	c-0.041,0.0137-0.0811,0.0303-0.1182,0.0459l-0.0949,0.0372l-0.0858,0.0185c-0.061,0.0137-0.1206,0.0264-0.1851,0.0371
	c-0.0225,0.0049-0.0386,0.0059-0.0483,0.0059c-0.0088,0-0.0112,0-0.0107,0c-0.0366-0.0879-0.0918-0.1514-0.1401-0.208
	l-0.0371-0.0293c-0.0156-0.21-0.1929-0.2227-0.2729-0.2285c-0.0264-0.001-0.0508-0.0107-0.0527-0.0107
	c-0.0562-0.0684-0.1597-0.1963-0.3462-0.1963c-0.002,0-0.0044,0-0.0068,0l-0.1123,0.001c-0.0493,0-0.0986,0-0.1431,0.002
	c-0.0269,0-0.0576,0.0068-0.085,0.0215c-0.0503-0.0303-0.1201-0.0586-0.1938-0.0537c-0.0103-0.0283-0.0273-0.0488-0.0459-0.0635
	l-0.0112-0.042c-0.0186-0.0654-0.0356-0.126-0.0464-0.1592l-0.0117-0.0371l-0.0308-0.0234
	c-0.021-0.0166-0.0435-0.0312-0.0649-0.0439c-0.0059-0.0039-0.0117-0.0078-0.0171-0.0117c-0.0254-0.1172-0.1084-0.1787-0.165-0.2217
	c-0.0142-0.0098-0.0288-0.0205-0.0425-0.0322c-0.0063-0.0059-0.0161-0.0215-0.0225-0.041
	c-0.0073-0.0215-0.0117-0.0449-0.0161-0.0674c-0.0054-0.0273-0.0107-0.0537-0.0195-0.084c-0.0068-0.0215-0.0176-0.042-0.0391-0.082
	c-0.0083-0.0332-0.0127-0.0674-0.0176-0.1006l-0.0127-0.0791c-0.0229-0.1152-0.0835-0.2031-0.1523-0.3037
	c-0.1157-0.166-0.2437-0.3281-0.3887-0.4941c-0.0137-0.0176-0.0264-0.0352-0.0396-0.0527
	c-0.0171-0.0244-0.0347-0.0488-0.0547-0.0723L22.344,15.543c-0.0376-0.042-0.0747-0.085-0.1172-0.1348
	c0.0039-0.0889-0.0337-0.1582-0.062-0.2109l-0.0181-0.0342c-0.0093-0.0195-0.0195-0.0381-0.0298-0.0566
	c-0.0093-0.0166-0.0186-0.0332-0.0254-0.0479c-0.0403-0.0925-0.0792-0.1843-0.1185-0.2763l0.0457-0.1153
	c0.0215-0.0518,0.042-0.1006,0.0576-0.1543c0.0176-0.0654,0.0088-0.1611-0.0508-0.2178c-0.0479-0.0449-0.1011-0.0859-0.1543-0.127
	l-0.2305-0.1833c-0.0077-0.033-0.0143-0.0661-0.0234-0.0989l-0.0303-0.0967c-0.002-0.0537-0.002-0.1064-0.0015-0.1689
	l-0.0166-0.4434l-0.0566,0.082c-0.0208-0.059-0.0392-0.1082-0.023-0.1445c0.0112-0.0225,0.0146-0.0439,0.0137-0.0635
	c0.0923-0.1143,0.1445-0.3076,0.1206-0.4307c-0.0068-0.0361-0.0103-0.0732-0.0142-0.1104c-0.0029-0.0317-0.0063-0.064-0.0107-0.0942
	c-0.0093-0.0693-0.0015-0.1431,0.0068-0.2217c0.0107-0.1011,0.022-0.2061-0.001-0.3389l0.041-0.0132l-0.0015-0.1558l0.0122-0.1714
	c0.0088-0.1367,0.0181-0.2739,0.0337-0.4097c0.0132-0.1133,0.042-0.23,0.0703-0.3394c0.0146-0.0566,0.0283-0.1143,0.042-0.1719
	c0.0366-0.1528,0.0713-0.2969,0.1279-0.4307c0.0352-0.082,0.0776-0.1606,0.1201-0.2397c0.0645-0.1196,0.1309-0.2432,0.1807-0.397
	c0.0083-0.0269,0.0161-0.0537,0.021-0.0879c0.0049-0.0518,0.0093-0.1035,0.0137-0.1611l0.0239-0.291l-0.2202,0.0771
	c-0.0283,0.0103-0.0566,0.021-0.0845,0.0269c-0.0493,0.0107-0.0913,0.0312-0.1265,0.062c-0.0249-0.0156-0.0488-0.0322-0.0674-0.0508
	c-0.0708-0.0708-0.1431-0.1123-0.2422-0.1392c-0.1011-0.0269-0.1968-0.0254-0.2842-0.0225
	c-0.0547,0.001-0.1094,0.0034-0.1641-0.0049c-0.0757-0.0098-0.0991-0.0161-0.1177-0.0391
	c-0.0356-0.0464-0.1265-0.1489-0.2734-0.1538c-0.0298-0.0034-0.0728-0.0088-0.1357-0.0308
	c-0.0098-0.0083-0.0186-0.0181-0.0273-0.0273c-0.041-0.0425-0.1235-0.1162-0.2334-0.1089l-0.0864-0.0205
	c-0.0137-0.0029-0.0273-0.0059-0.04-0.0088c-0.0034-0.019-0.0088-0.0352-0.0146-0.0479c-0.0161-0.0361-0.043-0.0654-0.0786-0.0884
	c-0.001-0.0063-0.002-0.0127-0.0029-0.019c-0.0049-0.0361-0.0103-0.0771-0.0293-0.1206l-0.0254-0.0586
	c-0.0361-0.0854-0.0737-0.1738-0.1377-0.251c-0.0762-0.0918-0.106-0.1353-0.0928-0.1987c0.0181-0.0884,0.001-0.1611-0.0498-0.2207
	c0.0386-0.1167,0.001-0.2192-0.0366-0.3218c-0.0269-0.0757-0.0913-0.1333-0.1772-0.1582c-0.0225-0.0063-0.0449-0.0107-0.0679-0.0122
	c-0.0107-0.0195-0.0269-0.0391-0.0508-0.0586L19.3535,6.938l-0.0081-0.021c-0.0312-0.084-0.0698-0.1865-0.167-0.2593
	c0-0.0005,0-0.0005-0.0005-0.001L19.1643,6.627c-0.0308-0.0659-0.0723-0.1567-0.187-0.2036
	c-0.0356-0.0146-0.0732-0.0425-0.0933-0.0684c-0.0146-0.0195-0.0249-0.0581-0.0352-0.0957L18.8406,6.229
	c-0.0024-0.0083-0.0034-0.0259-0.0039-0.0425l-0.0312-0.1299l-0.0439-0.02c-0.0347-0.062-0.0674-0.1255-0.1006-0.1909
	c-0.0264-0.0498-0.0508-0.1006-0.0825-0.1655l-0.021-0.04c-0.0171-0.0317-0.0347-0.064-0.0508-0.1187
	c-0.0039-0.0298-0.0088-0.0713-0.0352-0.1133c-0.0508-0.0776-0.1113-0.167-0.1885-0.2432
	c-0.0454-0.0444-0.0981-0.0742-0.1445-0.1001C18.1228,5.0562,18.1077,5.0479,18.095,5.04c-0.0293-0.1157-0.1279-0.1528-0.167-0.1675
	c-0.0386-0.0142-0.0508-0.022-0.0522-0.0259L17.8787,4.75l-0.0928-0.0273l-0.0386-0.0078c-0.0176-0.0103-0.0376-0.0361-0.0591-0.064
	c-0.0479-0.0625-0.1201-0.1562-0.2466-0.1675L17.2825,4.438v0.0781c-0.1714-0.0249-0.3066-0.0386-0.437-0.0317
	c-0.0044,0-0.0654-0.0234-0.1001-0.0415l-0.043-0.022c-0.0742-0.0347-0.1509-0.0371-0.2109-0.0024
	c-0.0396,0.022-0.0679,0.0581-0.0811,0.1021l-0.0146,0.002c-0.0176,0.0034-0.0361,0.0049-0.0547,0.0068
	c-0.0933,0.0093-0.25,0.0244-0.3145,0.207c-0.0264,0.0723-0.0562,0.1431-0.0859,0.2139l-0.0366,0.0869
	c-0.0806,0.0537-0.083,0.1465-0.0835,0.1895l-0.0024,0.0083c-0.0581,0.0303-0.0928,0.0776-0.1177,0.1118
	c-0.0093,0.0127-0.0229,0.0317-0.0288,0.0356l-0.0654,0.042l-0.002,0.0239c-0.002-0.0005-0.0034-0.001-0.0054-0.0015
	c-0.0084-0.0021-0.0206-0.0034-0.0328-0.0049c-0.032-0.0297-0.0717-0.05-0.119-0.0415c-0.0137-0.0015-0.022,0.002-0.0615-0.0435
	c-0.0635-0.0757-0.1382-0.0957-0.2104-0.1104c-0.021-0.0039-0.0522-0.0103-0.061-0.022c-0.0234-0.0771-0.103-0.1021-0.1372-0.1099
	c-0.0347-0.0073-0.0713-0.0122-0.1118-0.0171c-0.0752-0.0088-0.1436-0.0518-0.2349-0.1562
	c-0.0381-0.0459-0.0903-0.1089-0.1782-0.1211c-0.0552-0.0088-0.0972-0.0405-0.1411-0.1074c-0.0571-0.084-0.1079-0.1782-0.147-0.2729
	c-0.0176-0.0425-0.022-0.1035-0.0234-0.1631l0.001-0.0312c0.0024-0.062,0.0078-0.1772-0.0938-0.2402l-0.022-0.0435
	c-0.0366-0.0679-0.0747-0.1406-0.0972-0.2207c-0.0439-0.1567-0.1675-0.2427-0.2671-0.3115L13.592,3.3794
	c-0.0332-0.0273-0.0796-0.064-0.1436-0.0747c-0.0542-0.0083-0.0952-0.0425-0.1577-0.0972c-0.0273-0.0244-0.0552-0.0488-0.085-0.0703
	c-0.0083-0.0063-0.022-0.0229-0.0337-0.0371l-0.1166,0.0552c-0.0001,0,0,0-0.0001,0l0.083-0.0981
	c-0.0132-0.0186-0.0298-0.0425-0.0547-0.0649c-0.0522-0.0469-0.1064-0.0918-0.1602-0.1367l-0.0352-0.0293
	c-0.0234-0.019-0.0444-0.041-0.0654-0.063c-0.062-0.064-0.1392-0.1436-0.2632-0.1743c-0.0386-0.0098-0.0864-0.0405-0.1162-0.0747
	c-0.0161-0.019-0.0308-0.0513-0.0459-0.085c-0.0176-0.0391-0.0352-0.0771-0.0576-0.1104c-0.0415-0.0635-0.1162-0.1348-0.2041-0.1455
	c-0.0698-0.0073-0.1431-0.0034-0.2148-0.0015c-0.0381,0.0024-0.0713,0.0029-0.1138,0.0034c-0.2861,0-0.5723-0.001-0.8589-0.0024
	l-0.6157-0.002c-0.0244,0-0.0488,0.002-0.103,0.0073L10.114,2.1865l-0.0005,0.2695c-0.0005,0.084-0.0005,0.166,0,0.2539
	c-0.1108-0.0005-0.2217,0-0.3335-0.0005H9.6565c-0.0026,0-0.0029,0.001-0.0054,0.001L8.7903,2.71
	c-0.4932,0-0.9844-0.001-1.4756,0.0015c-0.103,0-0.1968-0.0161-0.2944-0.0513C6.4485,2.4556,5.8752,2.2554,5.3,2.0601
	C4.9207,1.9302,4.5398,1.8027,4.1594,1.6753C3.832,1.5654,3.5043,1.4554,3.1786,1.345c0.0062-0.0245,0.0145-0.048,0.0193-0.0735
	l0.0483-0.2148L3.0002,1.0713C2.9465,1.0742,2.8884,1.0771,2.8303,1.082l-0.293,0.0254C2.4153,1.1182,2.2937,1.1289,2.1711,1.1387
	c-0.0732,0.0059-0.147,0.0103-0.2202,0.0146C1.8699,1.1587,1.7888,1.1636,1.7068,1.1704c-0.1343,0.0117-0.269,0.0264-0.4038,0.041
	L0.9885,1.2427C0.8889,1.2524,0.7893,1.2617,0.6921,1.272c-0.0283,0.0024-0.0566,0.0068-0.085,0.0112L0.4133,1.3101l0.0654,0.1807
	c0.0107,0.0337,0.0225,0.0669,0.0396,0.1011L0.533,1.6201c0.0264,0.0532,0.062,0.126,0.1367,0.1587
	c0.0405,0.0176,0.0513,0.0322,0.062,0.1548c0.0015,0.0386,0.0044,0.1099,0.064,0.1602C0.821,2.1147,0.8508,2.1279,0.884,2.1328
	L0.9158,2.165C0.9407,2.1914,0.9685,2.2202,1.01,2.249c-0.0273,0.04-0.0547,0.0977-0.0293,0.1748
	C0.9802,2.4302,0.9758,2.4492,0.9729,2.4624C0.9675,2.4839,0.9622,2.5068,0.9587,2.5312L0.9475,2.6069l0.1128,0.0796
	c0.0317,0.022,0.0674,0.0464,0.0962,0.0703l0.1063-0.0633C1.2629,2.6937,1.2629,2.6937,1.263,2.6938L1.1736,2.7876
	c0.0117,0.0239,0.0269,0.0537,0.0503,0.0801C1.275,2.9256,1.3044,2.9711,1.322,3.014v0.1656L1.3015,3.2422l0.0009,0.0007
	L1.3005,3.248L1.3054,3.251L1.304,3.2559L1.45,3.3584l0.0032-0.0026c0.0066,0.005,0.0131,0.0095,0.0202,0.0153
	c0.0107,0.0083,0.021,0.0176,0.0312,0.0269c0.019,0.0171,0.0381,0.0337,0.0571,0.0474C1.6287,3.4937,1.635,3.5088,1.6345,3.5322
	c-0.002,0.0884-0.002,0.1758-0.001,0.2627l0.0732,0.2759L1.762,4.0112L1.8518,4.02C1.8616,4.021,1.8699,4.0215,1.886,4.0762
	c0.002,0.0068,0.0005,0.0269,0,0.0405C1.884,4.1489,1.8816,4.189,1.8933,4.2339C1.9055,4.2783,1.906,4.3086,1.8958,4.3374
	C1.8679,4.417,1.9226,4.4971,1.9763,4.5308c0.0166,0.0088,0.0269,0.0171,0.0288,0.0679c0,0.0342-0.0005,0.0923,0.0454,0.146
	C2.1003,4.7964,2.1628,4.8613,2.239,4.9092c0.0645,0.04,0.1328,0.0747,0.2012,0.1094l0.0889,0.0469
	c0.0112,0.0127,0.0273,0.0312,0.0542,0.0493c0.0352,0.022,0.0791,0.0498,0.1309,0.063l0.0503,0.0122
	c0.0674,0.0156,0.0923,0.0234,0.1123,0.0522C2.9207,5.3047,2.9753,5.3599,3.0305,5.415l0.103,0.0947l0.0112,0.0029
	C3.1501,5.5161,3.1565,5.52,3.1643,5.5244C3.2126,5.647,3.2854,5.7217,3.3982,5.7671c0.0151,0.0083,0.0454,0.0542,0.0615,0.0791
	l0.0264,0.0391c0.04,0.0596,0.0986,0.1475,0.2061,0.1709C3.7151,6.0903,3.7375,6.125,3.7585,6.1597L3.7009,6.3125L3.6125,6.5088
	l0.0977,0.0486L3.6077,6.7085L3.5969,6.6777L3.4221,6.8853c-0.019,0.0264-0.0376,0.0356-0.0747,0.0376
	C3.2996,6.9214,3.2537,6.9067,3.2,6.8892L3.1633,6.8774C3.0837,6.853,3.0051,6.8496,2.9294,6.8462
	C2.9011,6.8447,2.8718,6.8438,2.8435,6.8408L2.7332,6.8306l0.0307-0.0654C2.8499,6.5845,2.7913,6.437,2.7336,6.291L2.6848,6.2075
	L2.595,6.2114L2.5842,6.3369v-0.125L2.4485,6.229l0.0112,0.1353c-0.001,0.0269-0.0015,0.0679,0.0181,0.1045
	C2.4563,6.4902,2.4343,6.5132,2.4177,6.5312L2.321,6.6372l0.3603,0.2487l0.063,0.2347l0.0269,0.0249
	C2.8196,7.1899,2.8723,7.207,2.9104,7.2197c0.0366,0.0117,0.0415,0.0146,0.0459,0.021c0.0752,0.1177,0.1675,0.1948,0.2808,0.2358
	c0.082,0.0303,0.0767,0.0835,0.0747,0.1006C3.3049,7.6431,3.3386,7.71,3.4119,7.7759c0.041,0.0371,0.1504,0.1206,0.25,0.0986
	C3.7073,7.8662,3.739,7.8662,3.7864,7.9507C3.8591,8.0815,3.9612,8.082,4.0208,8.062c0.0083,0.0005,0.0273,0.0083,0.0317,0.0122
	C4.0901,8.1079,4.1218,8.1479,4.1541,8.187c0.0225,0.0273,0.0444,0.0547,0.0679,0.0806C4.2732,8.3247,4.3142,8.3896,4.3933,8.373
	c0.0723-0.001,0.1138-0.0469,0.1689-0.1113C4.5774,8.2715,4.593,8.2832,4.6106,8.2964l0.1768,0.125L4.7898,8.415
	C4.8,8.4194,4.8113,8.4229,4.8235,8.4263c0.0054,0.0015,0.0112,0.0024,0.0171,0.0039c0.0083,0.0161,0.021,0.0327,0.0391,0.0469
	C4.9104,8.501,4.9431,8.5225,4.9763,8.5444C5.0027,8.562,5.0291,8.5796,5.0564,8.6001l0.0391,0.0273
	c0.0342,0.0234,0.0698,0.0479,0.083,0.0684c0.082,0.126,0.1958,0.1611,0.2954,0.1709C5.5032,8.8916,5.5461,8.9175,5.6096,8.918
	l0.0029,0.0166c0.0093,0.0601,0.0249,0.1606,0.1289,0.2285c0.0137,0.0083,0.0234,0.019,0.0249,0.0205
	c0.019,0.0498,0.0415,0.0981,0.0645,0.1465C5.886,9.4468,5.9333,9.5479,5.9216,9.6616c-0.0059,0.0513-0.001,0.0991,0.0039,0.1416
	c0.0029,0.0273,0.0063,0.0547,0.0044,0.0825c-0.0024,0.0479-0.0137,0.0977-0.0303,0.1367
	c-0.0009,0.0017-0.0623,0.1576-0.0251,0.2742l-0.0247-0.0154l-0.0522,0.1694c-0.0059,0.0195-0.0186,0.0601-0.0054,0.1006
	c0.0106,0.04,0.0305,0.0767,0.0547,0.1068l-0.0499,0.2927l0.0784-0.0855l0.7185,0.5025l-0.0408-0.203
	c0.0161-0.0012,0.0321-0.0024,0.0465-0.0056c0.0389,0.0292,0.0768,0.0605,0.1158,0.088c0.0698,0.0498,0.1406,0.0981,0.2168,0.1426
	l0.0308,0.0176c0.0952,0.0537,0.1777,0.1001,0.2173,0.1831c0.0186,0.04,0.0503,0.062,0.0732,0.0781
	c0.0205,0.0176,0.042,0.0342,0.0635,0.0508c0.0356,0.0273,0.0688,0.0527,0.0908,0.0815c0.0659,0.0825,0.1733,0.1978,0.3442,0.2446
	c0.0562,0.0156,0.0898,0.0493,0.1108,0.1157c0.0112,0.041,0.0269,0.0967,0.0703,0.1421c0.0605,0.063,0.0767,0.1455,0.0967,0.2505
	l0.0142,0.0693c0.0186,0.0859,0.0605,0.1621,0.1113,0.2549c0.0273,0.0518,0.0962,0.0947,0.165,0.0947
	c0.0229,0,0.0464-0.0049,0.0679-0.0156l0.0532-0.0283c0.0742-0.0371,0.1587-0.0801,0.229-0.1582
	c0.04-0.0439,0.064-0.0703,0.0942-0.083c0.0439-0.0186,0.0898-0.041,0.125-0.082c0.0967-0.1118,0.1069-0.2432,0.1152-0.3486
	c0.002-0.0249,0.0039-0.0498,0.0054-0.0659c0.0112-0.0566-0.0146-0.1006-0.0322-0.1304c-0.0537-0.085-0.1338-0.1865-0.2827-0.2173
	l-0.0253,0.1224l0,0l0.0244-0.1258c0.0186-0.0928-0.0112-0.1685-0.0879-0.2231c-0.0322-0.0234-0.0386-0.0337-0.0347-0.0381
	c0.0229-0.0488,0.0112-0.0938,0.0054-0.1152l-0.0115-0.0517l0.0813-0.0464L8.4934,11.082l-0.0732-0.103L8.3108,11.04l0.0566,0.1113
	l-0.0601-0.1099l-0.1006,0.0552l0.0282,0.0632c-0.0267-0.0197-0.053-0.0352-0.078-0.0783c-0.0151-0.0269-0.0508-0.0889-0.127-0.0991
	c-0.0283-0.0034-0.0835-0.002-0.1372,0.0503c-0.0376,0.0376-0.0498,0.0889-0.0459,0.1382l-0.0088-0.0015
	c-0.0894-0.0161-0.1577-0.062-0.2036-0.1396c-0.0044-0.0073-0.0083-0.0342-0.0112-0.0518
	c-0.0054-0.0352-0.0127-0.0786-0.0332-0.1216c-0.0195-0.04-0.0156-0.0723,0.019-0.1567c0.0119-0.0291,0.0054-0.0598,0.0104-0.0911
	l0.1951,0.2488l-0.0332-0.4131c-0.0054-0.0713-0.0229-0.2881-0.2656-0.3101l-0.1-0.0091c-0.0062-0.0182-0.0124-0.0365-0.0177-0.0549
	C7.3821,10.0132,7.363,9.9482,7.3259,9.8916c-0.019-0.0303-0.0591-0.0942-0.0566-0.1123l0.0269-0.0854L7.2239,9.6411
	C7.1995,9.6235,7.1746,9.6079,7.1511,9.5928c-0.0303-0.019-0.0615-0.0386-0.0723-0.0537C7.0513,9.5012,7.0357,9.4573,7.0135,9.416
	l0.2763-0.4673L7.0647,8.9561C6.9993,8.9583,6.9595,8.9796,6.9291,9.0067C6.9271,8.9932,6.9315,8.9813,6.9265,8.9678
	C6.9167,8.937,6.9021,8.9072,6.8875,8.8779C6.863,8.8296,6.8538,8.8081,6.8582,8.7905c0.0156-0.0542-0.0049-0.1108-0.0527-0.1528
	c-0.0103-0.0093-0.0171-0.0166-0.022-0.0205l0.1196-0.1304L6.7297,8.4214c-0.0195-0.0078-0.0352-0.0132-0.0322-0.001
	C6.6926,8.4033,6.6882,8.3472,6.6838,8.2876L6.6799,8.2334l-0.042-0.0337C6.5417,8.1221,6.4509,8.0508,6.3591,7.979L6.3282,7.9639
	L6.2919,7.7953l0.0179-0.0287L6.2839,7.7585L6.2654,7.6724L6.243,7.7457L6.1101,7.7041C6.0896,7.6982,6.0681,7.6924,6.05,7.6851
	c-0.0244-0.0103-0.0498-0.0205-0.0815-0.04C5.9612,7.5869,5.928,7.5435,5.9045,7.5127C5.8958,7.4961,5.8894,7.4722,5.884,7.4492
	L5.8801,7.4165C5.8767,7.3647,5.8699,7.2578,5.7576,7.2017L5.7102,7.1743c-0.04-0.0239-0.0854-0.0508-0.1387-0.0684
	C5.5486,7.0986,5.53,7.0776,5.4998,7.041c-0.022-0.0264-0.0439-0.0522-0.0664-0.0718c-0.0039-0.0054-0.0127-0.0229-0.019-0.0356
	C5.4114,6.9282,5.4089,6.9233,5.4065,6.918c0.0029-0.0391,0.0059-0.0845,0.0088-0.1333l0.0068-0.1318H5.3642
	c-0.0033-0.0387-0.0063-0.077-0.0119-0.1167C5.3479,6.5078,5.3308,6.4375,5.2688,6.3989c0.0239-0.0884,0.0132-0.1587-0.0322-0.209
	c-0.0693-0.0771-0.1777-0.0591-0.208-0.0552C5.0173,6.1333,4.9973,6.1143,4.9954,6.1055C4.9885,6.043,4.9724,5.981,4.9514,5.8999
	C4.9431,5.8652,4.9329,5.8306,4.9231,5.7979L4.8896,5.683l0.8499,0.4551L4.949,5.4351C4.9319,5.4194,4.9285,5.4048,4.9275,5.3374
	C4.927,5.2988,4.9265,5.2549,4.9148,5.2075L4.8923,5.1157L4.7307,5.1133H4.7302c0.0049-0.1206-0.0771-0.1938-0.1201-0.2324
	C4.5989,4.8711,4.5876,4.8613,4.5735,4.8457C4.5266,4.7988,4.467,4.8022,4.4304,4.8042L4.2971,4.7925L4.2947,4.9263
	c0,0.0117-0.0015,0.0239-0.0029,0.0361C4.288,4.9949,4.2966,5.0389,4.3043,5.0807C4.2465,5.0236,4.1887,4.966,4.1292,4.9116
	C4.0989,4.8843,4.0671,4.8599,4.0354,4.835C4.0046,4.811,3.9739,4.7871,3.9441,4.7588C3.9128,4.73,3.8855,4.6978,3.8577,4.6655
	c-0.0186-0.022-0.0376-0.0439-0.0659-0.0737C3.7351,4.542,3.6638,4.54,3.6487,4.543c-0.0098,0-0.0171-0.0005-0.022,0.0005
	c-0.001-0.0044-0.002-0.0093-0.0029-0.0156C3.6155,4.4619,3.5886,4.415,3.5535,4.396C3.4851,4.3481,3.4392,4.2871,3.3909,4.209
	C3.3513,4.147,3.3523,4.0986,3.3635,3.9956c0.0098-0.0942,0.0039-0.1875-0.0244-0.2993c-0.022-0.0806-0.041-0.1504-0.0317-0.2305
	C3.3088,3.4453,3.3103,3.4175,3.304,3.3867C3.302,3.3765,3.301,3.3643,3.2996,3.3521C3.2942,3.2949,3.2854,3.2085,3.2043,3.1646
	C3.1702,3.1475,3.1501,3.1353,3.1462,3.1118L3.1125,3.0122C3.1086,3.0015,3.1023,2.9849,3.1018,2.9814
	C3.1077,2.8452,3.1174,2.708,3.1423,2.561c0.0083-0.0137,0.0171-0.0273,0.0293-0.0513c0.0135-0.0255,0.0308-0.0794,0.015-0.1348
	c0.0302,0.0118,0.0541,0.0285,0.092,0.0298L3.49,2.5508c0.0112,0.0068,0.0225,0.0137,0.0264,0.0176
	c0.1089,0.1074,0.2305,0.1523,0.3682,0.1382C3.9294,2.7017,4.0046,2.6934,4.052,2.6265c0.0073-0.0103,0.0137-0.021,0.0186-0.0327
	C4.1272,2.6167,4.1838,2.6401,4.239,2.6587C4.2185,2.8228,4.3162,2.9058,4.4163,2.9292c0.0562,0.0122,0.1113,0.0293,0.168,0.0464
	l0.1807,0.0381l0.0024-0.0034C4.7922,3.0249,4.824,3.0356,4.866,3.0356c0.0005,0,0.0015,0,0.002,0
	c-0.0005,0.02-0.0083,0.0469-0.0166,0.0752C4.8455,3.1323,4.8391,3.1533,4.8342,3.1777c-0.0039,0.019-0.0088,0.0381-0.0137,0.0571
	C4.8064,3.2915,4.7903,3.3555,4.7961,3.4258c0.0117,0.1299,0.0625,0.2485,0.1519,0.354c0.0581,0.0674,0.105,0.1387,0.1353,0.2065
	l0.0176,0.043c0.019,0.0479,0.04,0.1021,0.0747,0.1406c0.002,0.0068,0.0029,0.0278,0.0034,0.0415
	c0.001,0.0176,0.002,0.0352,0.0029,0.0566C5.1804,4.2832,5.178,4.3066,5.1824,4.333c0.0059,0.0332,0.0127,0.0669,0.0195,0.0991
	l0.0171,0.083l0.0728,0.0552c0.0547,0.1362,0.1367,0.2656,0.2661,0.4131c0.0127,0.0142,0.0317,0.0347,0.0308,0.0361
	C5.5403,5.084,5.5559,5.1768,5.5925,5.2275c0.004,0.006,0.0101,0.0053,0.0145,0.0102c-0.0087,0.0035-0.0165,0.006-0.0252,0.0098
	C5.5217,5.2734,5.489,5.333,5.4783,5.3833L5.4719,5.4155C5.4617,5.4644,5.449,5.5244,5.4602,5.5928
	C5.4324,5.6143,5.4207,5.6396,5.4119,5.6582L5.3469,5.7715l0.2983,0.1538c0.04,0.0215,0.0811,0.043,0.126,0.043
	c0.0186,0,0.0381-0.0039,0.0581-0.0132c0.0693-0.0308,0.0845-0.0947,0.1025-0.1616l0.0127-0.0303
	c0.0038-0.0097,0.0067-0.0234,0.0108-0.0339c0.0325,0.0583,0.0737,0.1002,0.1181,0.1296c0.002,0.04,0.0161,0.0962,0.0649,0.145
	c0.0225,0.0239,0.0488,0.0464,0.0747,0.0684c0.0293,0.0254,0.0664,0.0566,0.0737,0.0757C6.3406,6.2896,6.4485,6.333,6.5481,6.373
	c0.0161,0.0068,0.0327,0.0127,0.0493,0.0186c0.0039,0.019,0.0107,0.0391,0.0234,0.0591c0.0645,0.0986,0.1304,0.1973,0.207,0.2891
	c0.0503,0.0596,0.1172,0.1162,0.1948,0.166c0.0425,0.0254,0.0869,0.0254,0.123,0.0181l0.1602,0.2163l0.0854-0.1787
	c0.0107,0.0034,0.0225,0.0063,0.0352,0.0093c0.0293,0.0073,0.0591,0.0146,0.0884,0.022L7.5012,7.123l0.0151,0.0063L7.4783,7.2095
	l0.0347,0.1079c0.019,0.0605,0.0405,0.127,0.0581,0.1797l0.0122,0.0352l0.0288,0.0229c0.0142,0.0112,0.0278,0.02,0.0479,0.0337
	C7.7341,7.7373,7.8347,7.8315,7.969,7.877l0.043,0.0146c0.061,0.0215,0.1318,0.0449,0.2056,0.043
	c0.0059,0.0005,0.019-0.0005,0.0308-0.0005c0.0015,0.0044,0.0034,0.0103,0.0054,0.0166l0.0205,0.0771
	c0.0205,0.0762,0.041,0.1523,0.0693,0.2256c0.0522,0.1353,0.2046,0.2217,0.3179,0.1792l0.127-0.0508
	c0.0181,0.0186,0.0352,0.0381,0.0513,0.0566c0.0171,0.021,0.0361,0.041,0.0547,0.061C8.9709,8.582,8.9919,8.6128,8.9807,8.6587
	L8.9436,8.813h0.0282L8.9187,8.8735C8.8401,8.9639,8.7004,9.123,8.7874,9.3086L8.7156,9.4463l0.1299,0.0503L8.887,9.5107
	C8.9124,9.5269,8.9363,9.5435,8.9607,9.562l0.0415,0.0449C9.0374,9.6323,9.074,9.6558,9.1179,9.6841L9.1531,9.707
	C9.157,9.73,9.1609,9.7534,9.1663,9.7832l0.0356,0.188l0.1553-0.1064l0.0244,0.0449L9.426,9.8918l0.2354,0.1038L9.6659,9.968
	C9.6723,9.9697,9.6814,9.9771,9.6868,9.978l0.269,0.1689l0.0337-0.0024l0.0547,0.1416l0.1035-0.0376
	c0.0066,0.009,0.0337,0.0113,0.0462,0.0199l-0.0989,0.0563l0.0322,0.0977c0.0311,0.0927,0.072,0.1996,0.1943,0.2077l-0.0004,0.0027
	c-0.0063,0.0288-0.0171,0.0776,0.0034,0.1333c0.0264,0.064,0.0869,0.0845,0.1279,0.0986l0.0449,0.02
	c0.0298,0.0132,0.0596,0.0259,0.0854,0.043c0.0211,0.0141,0.0403,0.0298,0.0605,0.045l-0.1396,0.0844l0.2922,0.0781l0.1429,0.1328
	c0.0371,0.0356,0.0728,0.0693,0.1118,0.1011c0.0474,0.0366,0.0957,0.0718,0.145,0.1069l0.0981,0.0718
	c0.1216,0.0923,0.2178,0.1724,0.2642,0.2905c0.0249,0.064,0.0596,0.1265,0.103,0.1851c0.0264,0.0356,0.0566,0.0615,0.0835,0.084
	c0.0122,0.0103,0.0249,0.0205,0.0371,0.0332c0.0093,0.0093,0.0171,0.0205,0.0249,0.0308c0.0215,0.0283,0.0479,0.0635,0.0903,0.0918
	c0.0366,0.0239,0.0586,0.0562,0.0757,0.1104c0.019,0.062,0.0435,0.127,0.0918,0.1782c0.0908,0.0928,0.1865,0.1826,0.2856,0.2705
	c0.0078,0.0059,0.02,0.0244,0.0298,0.04c0.0264,0.04,0.0703,0.1074,0.1494,0.1318c0.0327,0.043,0.0698,0.083,0.1064,0.123
	c0.0713,0.0762,0.1328,0.1426,0.1504,0.2275l0.0278,0.1318l0.0239-0.0068c0.0342,0.0966,0.034,0.127,0.0225,0.2656l-0.0015,0.0156
	c-0.0059,0.0693-0.0171,0.1973,0.0791,0.3164c0.0488,0.0615,0.1162,0.1514,0.1343,0.2334c0.0361,0.1631,0.1577,0.2139,0.2305,0.2441
	l0.0352,0.0156c-0.0205,0.0498-0.0215,0.0996-0.0225,0.1475l-0.0005,0.1035c0.0005,0.0508,0.001,0.1016-0.0122,0.1484
	c-0.0166,0.0166-0.0342,0.0322-0.0522,0.0488c-0.0308,0.0273-0.061,0.0557-0.0879,0.0859
	c-0.0317,0.0371-0.0576,0.0781-0.0854,0.1221l-0.1162,0.2129l0.1821,0.0371c0.0303,0.0107,0.0757,0.0234,0.1235,0.0098
	l0.0272,0.0518c-0.0574,0.0298-0.1162,0.0433-0.1976,0.0536c-0.085,0.0107-0.1733,0.0566-0.2275,0.1191
	c-0.0659,0.0781-0.0186,0.1758,0.0244,0.2637c0.0156,0.0322,0.0361,0.0547,0.0645,0.0938l0.0083,0.0303
	c0.0073,0.0244,0.0137,0.0488,0.02,0.0742c0.0161,0.0635,0.0347,0.1357,0.0723,0.2051c0.0708,0.125,0.1577,0.2412,0.2397,0.3486
	c0.0474,0.0645,0.1094,0.1162,0.165,0.1357l0.0146,0.0312c0.0088,0.0186,0.0156,0.0381,0.0229,0.0576
	c0.0317,0.0859,0.0796,0.2158,0.228,0.2656c0.0161,0.0059,0.0317,0.0088,0.0469,0.0117v0.2646l0.1636-0.1631
	c0.0101,0.0096,0.0222,0.0125,0.033,0.02l-0.0013,0.0035l0.0182,0.0068c0.0219,0.0125,0.043,0.0212,0.0659,0.0245l0.0574,0.0214
	c0.0239,0.0078,0.0479,0.0166,0.0737,0.0234c0.0278,0.0098,0.0605,0.0205,0.0977,0.0234l-0.0151,0.0889l0.1113,0.0293
	c0.2349,0.0605,0.415,0.1719,0.5503,0.3389l0.0975,0.1198c0.015,0.0234,0.0217,0.0532,0.0406,0.0716
	c0.0361,0.0371,0.0737,0.0742,0.0869,0.1055c0.0605,0.1465,0.1763,0.1973,0.2793,0.2324c0.0991,0.0342,0.1968,0.0703,0.2944,0.1064
	l0.2368,0.0879c0.0566,0.0215,0.1138,0.043,0.1724,0.0586c0.1172,0.0332,0.2349,0.0635,0.3545,0.0938l0.144,0.038v0.1641
	l0.1672-0.1414l0.0095,0.0008l0.0026-0.011l0.0262-0.0222c0.0386-0.0332,0.0527-0.0361,0.0522-0.0361
	c0.0146,0.001,0.0669,0.0322,0.0869,0.0449c0.0581,0.0342,0.0986,0.0918,0.146,0.1592c0.0288,0.041,0.0576,0.082,0.0903,0.1182
	c0.0239,0.0273,0.0894,0.0928,0.1782,0.1104c0.0146,0.0029,0.0161,0.0039,0.0273,0.0244c0.0264,0.0469,0.0674,0.0791,0.0938,0.0957
	c0.04,0.0273,0.082,0.0518,0.124,0.0771c0.0713,0.042,0.1387,0.082,0.1895,0.1309c0.0918,0.0908,0.1938,0.1377,0.2896,0.1758
	c0.0938,0.0371,0.189,0.0713,0.2842,0.1055c0.0723,0.0254,0.144,0.0518,0.2153,0.0791c0.0391,0.0146,0.0767,0.0332,0.1138,0.0518
	c0.041,0.0195,0.082,0.04,0.124,0.0566c0.082,0.0322,0.1655,0.0586,0.2754,0.0928c0.0005,0,0.0005,0,0.0005,0l0.0093,0.0781
	l0.1221,0.0605c0.0454,0.0244,0.0972,0.0527,0.1582,0.0684c0.0728,0.0166,0.1475,0.0293,0.2222,0.043
	c0.064,0.0107,0.1284,0.0215,0.1929,0.0361c0.0361,0.0078,0.0732,0.0146,0.1104,0.0205c0.0908,0.0146,0.1763,0.0293,0.2417,0.0723
	c0.0615,0.0439,0.1304,0.0244,0.1763,0.0146c0.04,0.0596,0.0874,0.1143,0.1255,0.1582l0.0496,0.0587l0.0051,0.0654l0.2046,0.0391
	c0.0874,0.0166,0.1758,0.0342,0.2769,0.0557c0.0107,0.0029,0.0283,0.0059,0.041,0.0098c0.0444,0.0703,0.1055,0.1025,0.1558,0.1299
	c0.0347,0.0195,0.0688,0.0439,0.1011,0.0684l0.0229,0.0215c0.0264,0.0264,0.062,0.0625,0.1094,0.0762
	c0.0522,0.0195,0.105,0.0215,0.147,0.0234c0.0151,0,0.0298,0.001,0.0469,0.002l0.3286,0.0303
	c0.0981,0.0107,0.1611,0.0332,0.2148,0.0762c0.0791,0.0674,0.1733,0.1113,0.2646,0.1504c0.0645,0.0273,0.1318,0.0459,0.2002,0.0645
	l0.063,0.0176c0.0259,0.0078,0.0674,0.0215,0.1152,0.0215c0.0396,0,0.083-0.0088,0.1245-0.0391
	c0.1592,0.0342,0.2856-0.0303,0.3906-0.084c0.0234-0.0127,0.0474-0.0244,0.0718-0.0352l0.083-0.0381
	c0.084-0.0391,0.168-0.0781,0.2534-0.1113c0.0522-0.0195,0.1064-0.0352,0.1606-0.0508c0.0439-0.0127,0.0884-0.0254,0.1289-0.0391
	c0.0522-0.0166,0.0796-0.0547,0.1147-0.0996c0.0093-0.0107,0.0186-0.0225,0.0454-0.0469c0.0112-0.0107,0.0278-0.0264,0.0356-0.0303
	c0.0269-0.0127,0.0518-0.0283,0.0762-0.0459c0.0293-0.0195,0.0386-0.0254,0.0439-0.0254c0,0,0.0005,0,0.001,0
	c0.0371,0.0078,0.0713,0.0029,0.1016-0.002h0.6448c0.0417,0.0166,0.0822,0.0234,0.1018,0.0234c0.0122,0,0.0454,0.0156,0.0674,0.0254
	c0.0205,0.0098,0.041,0.0186,0.0654,0.0273l0.0585,0.0144l0.0499,0.1018l0.0197-0.0358c0.0336,0.0266,0.0671,0.0411,0.1013,0.0469
	l0.1119,0.0787c0.0225,0.0156,0.0449,0.0303,0.0669,0.0479l0.061,0.0488c0.1147,0.0918,0.2305,0.1836,0.3413,0.2822
	c0.0703,0.0615,0.1353,0.1289,0.2012,0.1963l0.083,0.0859c0.019,0.0186,0.0381,0.0371,0.0586,0.0537
	c0.1328,0.1055,0.2329,0.2021,0.3154,0.3027c0.1211,0.1494,0.2495,0.291,0.3828,0.4375l0.27,0.3008l0.1079-0.1826
	c0.0381-0.0596,0.0962-0.1494,0.0469-0.2715c-0.0137-0.0332-0.0049-0.0723,0.0098-0.1338c0.0068-0.0283,0.0142-0.0586,0.0186-0.0918
	c0.0435-0.0264,0.0625-0.0615,0.0708-0.0889c0.0234-0.0762-0.02-0.1367-0.0386-0.1621l-0.0322-0.0439
	c-0.0195-0.0254-0.0396-0.0508-0.0605-0.0537c0.0938-0.1777,0.189-0.3555,0.2842-0.5322l0.1841-0.3535
	c0.2578,0.002,0.5146,0.001,0.7739,0.001h0.5176c0.0728,0,0.1289-0.0254,0.1636-0.0752c0.0327-0.0459,0.0391-0.1045,0.0186-0.1562
	c-0.0039-0.0098-0.0049-0.0127,0.0098-0.041c0.0225-0.043,0.0371-0.0908,0.042-0.1387c0.0039-0.04,0.0054-0.1387-0.0732-0.1963
	c-0.0635-0.0391-0.1284-0.0703-0.1919-0.0918l-0.0176-0.0195c-0.0029-0.0479-0.0132-0.0889-0.0308-0.124
	c-0.0728-0.1426-0.1714-0.2275-0.3081-0.2725c-0.0259-0.0293-0.0776-0.0869-0.1592-0.0947
	c-0.0454-0.0537-0.0908-0.1074-0.1357-0.1621l-0.022-0.0332c-0.001-0.0015-0.0029-0.0034-0.004-0.0049h0.2686v-0.6689h1.7007v-0.002
	h0.2974l-0.0132-0.1963l0.022-0.0098c0.0259,0.0225,0.0518,0.0439,0.0796,0.0645c0.0601,0.0459,0.1562,0.0342,0.2065-0.0215
	c0.0103-0.0117,0.0225-0.0234,0.0347-0.0352c0.0479-0.0469,0.1074-0.1045,0.1201-0.1865c0.0044-0.0293,0.0244-0.0547,0.0562-0.0947
	c0.0356-0.0459,0.0801-0.1016,0.1099-0.1973c0.0127-0.0205,0.0278-0.0449,0.0376-0.0762c0.0063-0.0205,0.0117-0.0312,0.0117-0.0342
	c0.0054,0.001,0.019-0.001,0.042,0.002c0.0386,0.0059,0.1279,0.0117,0.1909-0.0352l0.1279,0.0381
	c0.0767,0.0225,0.1255,0.0684,0.1494,0.1406L32.1497,18.5l0.1436-0.1426c0.1187-0.1182,0.1304-0.2559,0.1401-0.3672l0.0059-0.0674
	c0.0005-0.0137-0.0029-0.0254-0.0107-0.0127c0.0903-0.0947,0.1084-0.2051,0.1226-0.2939c0.0044-0.0273,0.0088-0.0547,0.0151-0.0791
	c0.0063-0.0234,0.0142-0.0459,0.0225-0.0684c0.0098-0.0293,0.02-0.0586,0.0283-0.0889c0.0166-0.0596,0.0312-0.1211,0.0464-0.1826
	l0.0166-0.0674l-0.001-0.1104l-0.0015-0.001c0.0449-0.0361,0.0684-0.0879,0.0845-0.123l0.0659-0.127l-0.1348-0.0479
	c-0.0645-0.0234-0.1201-0.0342-0.1689-0.0283c0.019-0.0234,0.0361-0.0527,0.0503-0.0908c0.0737-0.0205,0.1445-0.0811,0.144-0.2441
	l0.0005-0.04c0-0.0527-0.0005-0.1055,0.0093-0.1572c0.0215-0.1094,0.0908-0.2051,0.1641-0.3066l0.0474-0.0664
	c0.025-0.0356,0.0616-0.0693,0.0955-0.1033c-0.0404,0.0828-0.0665,0.189-0.0032,0.324l0.0918,0.1953l0.4629-0.6602L33.2178,15.4951z
	 M3.5906,5.8152c0.0001,0.0001,0.0001,0.0001,0.0001,0.0002L3.5901,5.8159L3.5906,5.8152z M5.906,10.8319
	c0.001,0.002,0.0029,0.0037,0.004,0.0056l-0.0114,0.0024L5.906,10.8319z M4.7493,5.6768C4.7327,5.6123,4.6892,5.5396,4.573,5.5151
	L4.5476,5.5103c0.0021-0.067-0.0229-0.1146-0.0527-0.1556C4.5336,5.3875,4.5703,5.427,4.6082,5.4717
	c0.0283,0.0342,0.0571,0.0679,0.084,0.0957C4.7239,5.603,4.7634,5.6196,4.8069,5.6387l0.0262,0.0141L4.7493,5.6768z"/>
<rect id="XMLID_251_" fill="none" width="34" height="24"/>
</svg>
