<?xml version="1.0" encoding="utf-8"?>
<!-- Generator: Adobe Illustrator 19.0.0, SVG Export Plug-In . SVG Version: 6.00 Build 0)  -->
<svg version="1.1" id="joven" xmlns="http://www.w3.org/2000/svg" xmlns:xlink="http://www.w3.org/1999/xlink" x="0px" y="0px"
	 viewBox="0 0 299.9677 72.0261" enable-background="new 0 0 299.9677 72.0261" xml:space="preserve">
<g id="XMLID_113_">
	<path id="XMLID_8329_" fill-rule="evenodd" clip-rule="evenodd" fill="#E11383" d="M76.9304,65.2334
		c-1.8231-1.7178-1.9287-1.7529-1.231-4.2797c0.6331-2.251,0.4279-4.5256,0.6097-6.7769c0.1876-2.3741,0.1348-4.766,0.2579-7.1461
		c0.17-3.4292,0.3987-6.8588,0.5921-10.2941c0.1994-3.5466-0.85-5.9035-0.6272-9.4383c0.0411-0.7095,0.1759-3.3591,0.3517-4.045
		c0.4866-1.8935,0.0352-2.9956-0.082-4.9771c-0.1056-1.7003-0.1524-4.127,0-5.8391c0.1641-1.8817,0.041-2.6964-0.1232-5.7213
		c0.3166-1.3894-0.6741-3.4063,0.4983-4.1448c0.3634-0.2226-0.6272-0.3224-0.1759-0.5746c-0.0059-0.293,0.8383-0.3163,0.8793-0.6212
		c0.1466-1.1257,2.8257-0.3811,3.9277-0.3285c0.3283,0.0118,2.9136,0.1116,3.195,0.2404c3.9981,1.8703,7.4099,0.1231,11.6953,0.4455
		c0.8618,0.0644,1.9874-0.3929,2.8549-0.2812c4.256,0.551,8.6587-0.0762,12.9264,0.4104
		c7.7207,0.8909,15.1658-0.7739,22.9041,0.0351c1.7822,0.1875,4.4964-0.1524,6.2843-0.1467
		c0.9614,0.0061,2.3978,0.2991,3.3592,0.1467c0.4279-0.0587,1.0317,1.6237,1.4656,1.6062c1.6473-0.0526,0.8148,3.3183,0.5451,4.9832
		c-0.0293,0.2107-0.1348,0.41-0.2285,0.6798c1.5887,0.8734,0.381,1.9991,0.4455,3.6582c0.0762,1.9343,0.9614,3.9863,0.6449,5.8387
		c-0.3752,2.1633-0.4982,4.3967-0.5217,6.5951c-0.047,2.8843,0.1876,5.7568,0.1876,8.6411c0,1.5361-0.2697,3.0779-0.3342,4.6254
		c-0.1348,3.1541-0.1935,6.3139-0.3341,9.4737c-0.0762,1.9286-0.2814,3.8572-0.3753,5.7861
		c-0.2051,4.4318-0.4982,8.8579,0.0117,13.2722c0.1524,1.2545-0.211,2.1633-1.2428,2.8374c-0.1349,0.088-0.2755,0.17-0.4045,0.2755
		c-1.8877,1.53-2.3742,1.53-4.1974,0.0057c-0.8207,0.4866-1.6883,0.9031-2.4563,1.4717c-0.6038,0.463-1.2193,0.4161-1.8642,0.3048
		c-1.5184-0.2816-3.0542-0.5864-4.5843-0.8852c-0.1114-0.0175-0.2169-0.0587-0.3225-0.0411
		c-3.6581,0.4984-7.2809,0.3753-10.9332,0.5392c-1.665,0.0705-3.3474-0.2401-5.0358-0.3575
		c-2.8139-0.1875-5.622-0.4337-8.4476-0.5099c-2.5384-0.0705-5.1061,0.0233-7.6562,0.1052
		c-2.7729,0.0762-5.5458,0.1585-8.3128,0.3635c-2.427,0.176-4.7837-0.5217-7.1872-0.2286
		c-0.3811,0.0469-0.7445,0.2054-1.1021,0.3048c-1.4949,0.4573-2.4446,0.1406-3.447-1.102
		c-0.2697-0.3281-0.5452-0.7561-0.9028-0.8795c-1.2897-0.4043-1.6004-1.36-1.5652-2.5734
		C76.8835,66.1948,76.9128,65.7021,76.9304,65.2334 M111.0902,34.4855c0.9027-2.6735,0.0879-4.9771-0.9146-7.1755
		c-1.3132-2.8728-3.2888-5.2998-5.2585-7.7383c-1.8701-2.3215-3.9043-4.4615-6.2668-6.2259
		c-3.3649-2.5032-6.8706-4.8129-10.2473-7.2986c-1.4831-1.0963-3.148-1.3192-4.8364-1.7354
		c-0.5745,1.1139-0.6507,2.1926-0.6449,3.3122c0.0234,1.3776,0.5686,2.5794,1.1139,3.7695c1.0142,2.251,2.0401,4.5023,3.5467,6.472
		c1.4481,1.8992,2.9722,3.7634,4.3205,5.745c1.407,2.0227,3.1891,3.6171,5.065,5.1002c1.4891,1.1668,2.9136,2.48,4.8012,3.0485
		c2.6967,0.8147,5.3758,1.6942,8.0725,2.5268C110.1932,34.4032,110.5801,34.4093,111.0902,34.4855 M144.1888,10.6666
		c-1.4421-0.3106-2.8843-0.463-4.344,0.3517c-1.7704,0.985-3.5585,1.9289-5.4109,2.7204c-2.4739,1.0491-4.7133,2.4971-6.8472,4.0919
		c-3.3239,2.4678-6.2082,5.4283-8.5355,8.899c-1.1843,1.7819-2.2629,3.6579-3.2947,5.5396
		c-0.469,0.8444-0.9672,1.7529-0.7152,3.0017c1.3366-0.293,2.597-0.7854,3.8515-0.7797c1.8349,0.0057,3.5174-0.4984,5.2702-0.9027
		c3.0367-0.7153,5.9151-1.788,8.6938-3.2185c3.3708-1.7293,6.1437-4.1155,7.8086-7.5565
		C142.5005,19.0558,144.3295,15.2451,144.1888,10.6666 M81.3681,66.7104c1.1256,0.6977,2.3333,0.5571,3.3767,0.2054
		c2.5208-0.8441,5.0709-1.7178,7.4041-2.9841c2.0987-1.1253,3.9688-2.7376,5.8447-4.25c1.6884-1.36,3.3005-2.7845,4.303-4.854
		c0.7445-1.5125,1.8701-2.8081,2.5032-4.4379c0.3752-0.9672,1.4011-1.6649,1.9052-2.6084c1.4831-2.7791,2.4622-5.716,2.0928-9.0694
		c-1.1842-0.0701-2.3566-0.1524-3.5173,0.2934c-3.4471,1.3425-6.3313,3.6171-9.0925,6.0262
		c-2.5208,2.1926-4.7133,4.7485-6.8472,7.3458c-2.5267,3.0836-4.7661,6.3486-6.7533,9.79
		C81.7844,63.5742,81.2744,65.0749,81.3681,66.7104 M139.2293,66.2531c-0.4573-1.8348-0.7328-3.5759-1.3191-5.2115
		c-1.6825-4.6841-3.7519-9.1509-7.2283-12.7916c-1.5418-1.6119-2.9371-3.3591-4.8306-4.5785
		c-0.5451-0.3574-1.1314-0.6741-1.6063-1.1078c-1.319-1.1961-2.8549-1.9758-4.5022-2.5386
		c-1.3249-0.463-2.6967-0.8147-4.0391-1.2427c-0.2931-0.0937-0.6449-0.2229-0.8383-0.463
		c-0.8207-1.0201-2.0401-1.0906-3.4002-1.6005c0.1582,0.4984,0.17,0.8323,0.3342,0.9614c0.1934,0.1406,0.5217,0.0937,0.7972,0.1349
		c1.6767,0.2462,2.0401,0.7328,2.2922,2.4152c0.1759,1.2312,0.4573,2.4975,0.9672,3.6171c1.067,2.3272,1.4656,5.0064,3.2713,6.9762
		c0.0996,0.117,0.1055,0.3167,0.1934,0.463c0.5159,0.9732,0.9966,1.9465,1.5711,2.8843c1.8525,2.9898,4.7719,4.9127,7.2458,7.2635
		c1.3132,1.2487,3.0367,2.081,4.6137,3.0485C134.6802,65.667,136.8081,66.1594,139.2293,66.2531"/>
	<path id="XMLID_8107_" fill-rule="evenodd" clip-rule="evenodd" fill="#00ADBB" d="M151.6744,65.2334
		c-1.829-1.7178-1.9287-1.7529-1.2252-4.2797c0.6273-2.251,0.4221-4.5256,0.6039-6.7769c0.1876-2.3741,0.1348-4.766,0.2579-7.1461
		c0.1642-3.4292,0.4045-6.8588,0.598-10.2941c0.1993-3.5466-0.8559-5.9035-0.6331-9.4383c0.0351-0.7095,0.1759-3.3591,0.3517-4.045
		c0.4807-1.8935,0.0352-2.9956-0.0879-4.9771c-0.0997-1.7003-0.1465-4.127,0-5.8391c0.1641-1.8817,0.0469-2.6964-0.1231-5.7213
		c0.3166-1.3894-0.6625-3.4063,0.4982-4.1448c0.3635-0.2226-0.6213-0.3224-0.1641-0.5746c-0.0117-0.293,0.8325-0.3163,0.8735-0.6212
		c0.1407-1.1257,2.8315-0.3811,3.9337-0.3285c0.3224,0.0118,2.9018,0.1116,3.1832,0.2404c4.004,1.8703,7.4158,0.1231,11.6953,0.4455
		c0.8677,0.0644,1.9933-0.3929,2.8549-0.2812c4.2502,0.551,8.6704-0.0762,12.9323,0.4104
		c7.7207,0.8909,15.1658-0.7739,22.9041,0.0351c1.7822,0.1875,4.4905-0.1524,6.2844-0.1467
		c0.9614,0.0061,2.3978,0.2991,3.3592,0.1467c0.4337-0.0587,1.0376,1.6237,1.4597,1.6062c1.6474-0.0526,0.8207,3.3183,0.551,4.9832
		c-0.0293,0.2107-0.1348,0.41-0.2345,0.6798c1.5887,0.8734,0.3869,1.9991,0.4456,3.6582c0.0762,1.9343,0.9672,3.9863,0.6449,5.8387
		c-0.3752,2.1633-0.4924,4.3967-0.5159,6.5951c-0.041,2.8843,0.1759,5.7568,0.1759,8.6411c0,1.5361-0.2521,3.0779-0.3225,4.6254
		c-0.1407,3.1541-0.1993,6.3139-0.3341,9.4737c-0.0762,1.9286-0.2873,3.8572-0.3752,5.7861
		c-0.211,4.4318-0.5042,8.8579,0.0117,13.2722c0.1466,1.2545-0.211,2.1633-1.2487,2.8374c-0.1348,0.088-0.2696,0.17-0.3986,0.2755
		c-1.8877,1.53-2.3684,1.53-4.2033,0.0057c-0.8148,0.4866-1.6883,0.9031-2.4445,1.4717c-0.6155,0.463-1.2311,0.4161-1.8701,0.3048
		c-1.5301-0.2816-3.0602-0.5864-4.5843-0.8852c-0.1114-0.0175-0.2169-0.0587-0.3283-0.0411
		c-3.6581,0.4984-7.2751,0.3753-10.9274,0.5392c-1.6767,0.0705-3.3591-0.2401-5.0358-0.3575
		c-2.8139-0.1875-5.6337-0.4337-8.4476-0.5099c-2.5443-0.0705-5.112,0.0233-7.6562,0.1052
		c-2.7787,0.0762-5.5458,0.1585-8.3187,0.3635c-2.4153,0.176-4.7836-0.5217-7.193-0.2286
		c-0.3694,0.0469-0.7328,0.2054-1.0904,0.3048c-1.489,0.4573-2.4504,0.1406-3.447-1.102c-0.2697-0.3281-0.5452-0.7561-0.8969-0.8795
		c-1.3014-0.4043-1.6063-1.36-1.577-2.5734C151.6217,66.1948,151.6569,65.7021,151.6744,65.2334 M185.8342,34.4855
		c0.9027-2.6735,0.0879-4.9771-0.9146-7.1755c-1.3191-2.8728-3.2888-5.2998-5.2585-7.7383
		c-1.8759-2.3215-3.9101-4.4615-6.2668-6.2259c-3.3708-2.5032-6.8706-4.8129-10.2532-7.2986
		c-1.4773-1.0963-3.1422-1.3192-4.8306-1.7354c-0.5804,1.1139-0.6507,2.1926-0.6449,3.3122
		c0.0176,1.3776,0.5686,2.5794,1.1138,3.7695c1.0142,2.251,2.0342,4.5023,3.5467,6.472c1.4539,1.8992,2.9664,3.7634,4.3205,5.745
		c1.3953,2.0227,3.1832,3.6171,5.065,5.1002c1.4832,1.1668,2.9077,2.48,4.7895,3.0485c2.7084,0.8147,5.3875,1.6942,8.0842,2.5268
		C184.9373,34.4032,185.3242,34.4093,185.8342,34.4855 M218.927,10.6666c-1.442-0.3106-2.8784-0.463-4.344,0.3517
		c-1.7587,0.985-3.5526,1.9289-5.405,2.7204c-2.4739,1.0491-4.7191,2.4971-6.8531,4.0919c-3.3239,2.4678-6.2023,5.4283-8.5238,8.899
		c-1.1959,1.7819-2.2687,3.6579-3.3063,5.5396c-0.4573,0.8444-0.9614,1.7529-0.7094,3.0017
		c1.3308-0.293,2.5911-0.7854,3.8515-0.7797c1.8349,0.0057,3.5115-0.4984,5.2702-0.9027c3.0425-0.7153,5.9151-1.788,8.6996-3.2185
		c3.365-1.7293,6.1379-4.1155,7.8086-7.5565C217.2387,19.0558,219.0677,15.2451,218.927,10.6666 M156.1005,66.7104
		c1.1373,0.6977,2.345,0.5571,3.3825,0.2054c2.5267-0.8441,5.0709-1.7178,7.41-2.9841c2.0987-1.1253,3.9629-2.7376,5.8447-4.25
		c1.6825-1.36,3.2947-2.7845,4.3088-4.854c0.7387-1.5125,1.8643-2.8081,2.4974-4.4379c0.3752-0.9672,1.3952-1.6649,1.9052-2.6084
		c1.4831-2.7791,2.4622-5.716,2.0987-9.0694c-1.196-0.0701-2.3684-0.1524-3.5174,0.2934c-3.4588,1.3425-6.343,3.6171-9.0983,6.0262
		c-2.5267,2.1926-4.7074,4.7485-6.8472,7.3458c-2.5267,3.0836-4.7602,6.3486-6.7534,9.79
		C156.5343,63.5742,156.0243,65.0749,156.1005,66.7104 M213.9734,66.2531c-0.4573-1.8348-0.7328-3.5759-1.3191-5.2115
		c-1.6825-4.6841-3.7578-9.1509-7.2282-12.7916c-1.5418-1.6119-2.9371-3.3591-4.8306-4.5785
		c-0.551-0.3574-1.1314-0.6741-1.6121-1.1078c-1.3191-1.1961-2.8491-1.9758-4.4964-2.5386
		c-1.3249-0.463-2.6967-0.8147-4.0391-1.2427c-0.299-0.0937-0.6508-0.2229-0.8383-0.463c-0.8266-1.0201-2.0459-1.0906-3.4061-1.6005
		c0.1583,0.4984,0.1759,0.8323,0.3342,0.9614c0.1935,0.1406,0.5218,0.0937,0.7973,0.1349c1.6766,0.2462,2.04,0.7328,2.298,2.4152
		c0.1818,1.2312,0.4514,2.4975,0.9614,3.6171c1.0787,2.3272,1.4656,5.0064,3.2771,6.9762c0.1055,0.117,0.1114,0.3167,0.1876,0.463
		c0.5159,0.9732,0.9966,1.9465,1.577,2.8843c1.8466,2.9898,4.7661,4.9127,7.2458,7.2635c1.319,1.2487,3.0367,2.081,4.6137,3.0485
		C209.4183,65.667,211.5464,66.1594,213.9734,66.2531"/>
	<path id="XMLID_7548_" fill-rule="evenodd" clip-rule="evenodd" fill="#00ADBB" d="M71.0523,5.2022
		c0.1701,0.8616,0.3987,1.448,0.3928,2.0284c-0.1231,6.1142-0.3107,12.2227-0.4279,18.343
		c-0.0469,2.7261,0.0586,5.4462,0.0117,8.1662c-0.0469,4.2855-0.1348,8.5706-0.2638,12.8621
		c-0.0645,2.2803-0.2872,4.5549-0.3869,6.8238c-0.17,4.1094-0.2873,8.2307-0.4456,12.3401
		c-0.0176,0.5804-0.1173,1.1665-0.1935,1.8935c-1.4069-0.3868-2.2511-1.1725-2.9546-2.0166
		c-1.3131-1.5711-2.7319-3.0074-4.4085-4.2325c-0.6742-0.4984-1.1724-1.2312-1.7822-1.8234c-2.04-2.0517-4.0508-4.127-6.1496-6.1142
		c-2.9253-2.7848-5.9034-5.4991-8.8756-8.2425c-2.5149-2.2982-5.0474-4.5785-7.5565-6.8942
		c-0.5804-0.5217-1.0728-1.1314-1.6941-1.7998c0.6448-0.7092,1.1724-1.3482,1.7528-1.9286c2.8432-2.8199,5.6747-5.6573,8.5648-8.43
		c1.1724-1.1257,2.5149-2.1046,3.7343-3.1891c2.2336-1.9815,4.4378-3.9981,6.6596-6.0029c0.7504-0.6802,1.4949-1.3604,2.2746-2.0052
		c2.4856-2.0578,4.8951-4.1974,7.492-6.1028c1.2429-0.9027,2.5091-1.6999,3.2771-3.0306
		C70.2023,5.6358,70.5306,5.5364,71.0523,5.2022 M50.8098,37.3802c0.7093-0.7854,1.5007-0.8086,2.3038-0.8323
		c1.618-0.0118,3.2126-0.0526,4.8247-0.0937c1.0963-0.0293,2.0812-0.7328,2.2101-1.5125c0.1466-0.8852-0.4045-1.8116-1.3366-2.0753
		c-0.5452-0.1585-1.1373-0.2816-1.6883-0.2168c-1.4304,0.1463-2.8432,0.41-4.2619,0.6036c-0.5452,0.0705-1.1021,0.088-1.6532,0.1292
		c1.1021-1.6066,2.0459-3.1659,3.6757-4.1799c0.809-0.5042,1.577-1.1139,2.216-1.7998c0.5451-0.5804,0.5334-1.325-0.0587-1.9755
		c-0.7034-0.78-1.4656-1.0144-2.2804-0.6158c-0.3987,0.1936-0.7504,0.5102-1.067,0.8208c-1.1256,1.102-2.2159,2.2334-3.3415,3.3355
		c-1.4832,1.4366-3.2536,2.5794-5.2292,3.0721c-1.6414,0.4104-2.5619,1.3776-3.4002,2.5326
		c-1.0083,1.3482-0.3517,3.0424,1.2545,3.7165c0.516,0.2168,1.0201,0.4809,1.5066,0.7621c1.0787,0.639,2.1867,1.2545,3.2009,1.9755
		c1.231,0.8913,2.5501,1.7529,3.5526,2.861c1.7294,1.9229,3.3708,2.5147,5.8036,1.6999c1.3484-0.4512,2.1515-1.3658,2.1281-2.5089
		c-0.0234-1.3017-0.8501-1.9111-2.0577-2.3569c-1.6063-0.5918-3.1657-1.3246-4.7016-2.0867
		C51.8356,38.3534,51.3725,37.8375,50.8098,37.3802"/>
	<path id="XMLID_7535_" fill-rule="evenodd" clip-rule="evenodd" fill="#00ADBB" d="M1.1289,3.8711
		c9.6494,10.9743,19.9319,21.4152,29.1709,33.011c-4.8716,4.9535-9.8077,9.8837-14.6441,14.9134
		c-4.8189,5.0064-9.538,10.0952-14.6441,15.0662c-0.0176-0.7385-0.0234-1.4831-0.0411-2.2216
		c-0.129-4.4554-0.2638-8.8933-0.4045-13.3308c-0.1524-4.5084-0.3811-8.9989-0.4573-13.4894
		c-0.0703-3.4997,0.0645-7.0112,0.0587-10.5113c-0.0176-2.5615-0.1935-5.1116-0.1641-7.6678c0.0352-3.0542,0.211-6.1028,0.34-9.157
		c0.0762-1.8817,0.1759-3.781,0.2755-5.663c0.0059-0.2576,0.0528-0.5217,0.0821-0.7854C0.8475,3.9828,0.9882,3.9298,1.1289,3.8711
		 M17.5551,39.6898c-0.2931,0.4634-0.4104,0.7857-0.639,0.9908c-1.8173,1.6005-3.6522,3.1834-5.4754,4.7778
		c-0.7562,0.6566-1.0141,2.1576-0.51,2.8786c0.6155,0.897,1.5476,1.1607,2.7319,0.6448c0.4982-0.2111,0.9614-0.5922,1.3307-0.9908
		c1.1315-1.2251,1.8584-2.7551,3.2536-3.787c1.4069-1.0376,2.4739-2.5852,4.2795-2.9956c1.8407-0.4222,3.0133-1.4423,3.9043-2.9841
		c0.8207-1.4184,0.4456-3.148-1.1549-3.6872c-1.36-0.463-2.4387-1.2427-3.5467-2.0109c-1.6297-1.1253-2.9663-2.5032-3.6757-4.3438
		c-0.258-0.6802-0.3811-1.413-0.6507-2.0814c-0.6449-1.5532-1.9111-2.3272-3.576-2.544c-0.8149-0.1056-1.5008,0.1993-1.9522,0.8441
		c-0.9966,1.4774-0.8501,3.031,0.3928,4.4436c0.3459,0.3868,0.7387,0.7271,1.0787,1.1081c1.231,1.3718,2.4445,2.7612,3.7402,4.2325
		c-1.7294,0.8033-3.3474,0.7503-4.9361,0.809c-1.4186,0.0526-2.2804,1.102-2.1749,2.5734c0.0938,1.2606,1.1139,2.1222,2.4387,2.0345
		c0.5746-0.0354,1.1549-0.0411,1.7001-0.2168C15.2277,39.0393,16.2478,39.2973,17.5551,39.6898"/>
	<path id="XMLID_7533_" fill-rule="evenodd" clip-rule="evenodd" fill="#00ADBB" d="M33.6067,1.0523
		c-1.6298,1.8939-3.0719,3.5176-4.4612,5.1943c-1.9815,2.3683-3.8926,4.7953-5.8682,7.1637
		c-1.0435,1.2427-2.1573,2.4445-3.2829,3.6289c-0.7562,0.7854-1.2546,0.8265-1.9756-0.0648
		c-2.1632-2.6907-4.8247-4.9653-6.6479-7.9197c-0.639-1.0437-1.5887-1.9053-2.4504-2.8024
		C7.3142,4.5932,5.6551,2.9931,4.0548,1.3339C3.8202,1.0877,3.7791,0.6598,3.5975,0.1675
		C13.622-0.0555,23.4356,0.4956,33.6067,1.0523"/>
	<path id="XMLID_7528_" fill-rule="evenodd" clip-rule="evenodd" fill="#00ADBB" d="M64.9016,69.7528
		c-9.2332,0.8562-18.4722,0.5045-27.8578,0.0354c2.8668-5.8391,6.132-11.2849,10.4525-16.3032
		c0.7797,0.5922,1.4832,1.067,2.0987,1.6355c2.9135,2.7143,5.7685,5.487,8.6996,8.172c1.747,1.6005,3.6054,3.0836,5.3992,4.6254
		C64.2449,68.3814,64.9425,68.7739,64.9016,69.7528"/>
	<path id="XMLID_7527_" fill-rule="evenodd" clip-rule="evenodd" fill="#00ADBB" d="M18.9362,55.1782
		c0.7035,0.7507,1.5007,1.4835,2.1397,2.31c1.9932,2.597,3.9102,5.2408,5.9092,7.826c0.6859,0.8795,1.6063,1.5947,2.3391,2.4449
		c0.4866,0.5686,0.8032,1.2663,1.4304,2.2685c-8.9811-0.0644-17.4697,1.3836-26.058,0.3342
		C5.2183,69.0193,16.902,56.5326,18.9362,55.1782"/>
	<path id="XMLID_7526_" fill-rule="evenodd" clip-rule="evenodd" fill="#00ADBB" d="M68.6323,0.3807
		c-0.4221,0.639-0.7563,1.3486-1.2722,1.9114c-3.7225,4.0744-7.4921,8.1251-11.2439,12.1819
		C56.04,14.556,55.8993,14.6028,55.7,14.7202c-2.1808-0.7797-3.8222-2.31-5.4285-3.928c-2.3333-2.3508-4.7075-4.6486-7.1286-6.9114
		c-0.8618-0.7972-1.5007-1.7003-2.5032-2.8786c1.6297-0.1757,2.8843-0.5628,4.0567-0.3986c2.3977,0.346,4.7602-0.0057,7.1286-0.0233
		c3.7694-0.0293,7.5331-0.0411,11.2908-0.1116c0.9438-0.0118,1.876-0.1818,2.8081-0.2694C66.727,0.117,67.536,0.0644,68.345,0
		C68.4389,0.1345,68.5326,0.2576,68.6323,0.3807"/>
	<path id="XMLID_7328_" fill-rule="evenodd" clip-rule="evenodd" fill="#00ADBB" d="M49.4913,18.4074
		c-0.9087,0.8562-1.7177,1.618-2.5267,2.3744c-2.7377-3.06-5.6337-5.7743-7.7323-9.1277c-0.2404-0.375-0.387-0.8029-0.598-1.1958
		c-0.7153-1.4069-1.8935-1.8291-3.2771-1.0906c-0.9497,0.5102-1.8407,1.1314-2.6849,1.7998
		c-0.3166,0.2462-0.4279,0.7503-0.6038,1.1432c-0.2286,0.5042-0.3225,1.1081-0.6567,1.5185
		c-1.9345,2.3977-3.7753,4.8716-6.5599,6.4835c-0.6214,0.3635-1.2077,0.8265-1.8994,1.3017
		c-0.1759-0.1056-0.4221-0.2229-0.6272-0.3871c-0.2169-0.17-0.3987-0.3868-0.7387-0.7267
		C26.0655,14.1574,31.1833,8.377,36.9635,2.972c0.4162,0.3517,0.8852,0.6802,1.2546,1.0788c1.5066,1.671,3.1891,3.2303,4.426,5.0709
		c1.3659,2.0227,3.1246,3.7051,4.514,5.6806C47.9613,15.9396,48.6705,17.1415,49.4913,18.4074"/>
	<path id="XMLID_7317_" fill-rule="evenodd" clip-rule="evenodd" fill="#00ADBB" d="M34.3179,68.2779
		c-0.5335-0.4455-0.8677-0.6623-1.1315-0.9435c-4.2971-4.7191-8.4535-9.5438-11.7891-15.0956
		c0.7797-0.8383,1.4245-1.5243,2.2043-2.3626c0.4573,0.3929,0.891,0.6448,1.1783,1.0083c2.0401,2.6324,4.0861,5.2408,5.7275,8.1251
		c0.2989,0.5335,0.7152,1.0144,1.1315,1.4656c0.6683,0.7095,1.4714,1.0437,2.4914,0.809c1.0553-0.2226,1.4304-0.9028,1.6767-1.8581
		c0.2404-0.95,0.7152-1.8352,1.108-2.7437c0.3986-0.9146,0.8618-1.8055,1.2018-2.7437c0.6976-1.8992,1.618-3.6697,2.937-5.229
		c0.2052-0.2404,0.5394-0.3693,0.8677-0.5979c0.3107,0.2168,0.6214,0.375,0.8676,0.5979c2.1104,1.9053,2.0401,1.993,0.6917,4.4261
		c-1.489,2.6789-3.4939,5.0472-4.7543,7.8728c-0.7915,1.8116-1.8584,3.5351-2.8609,5.2587
		C35.4844,66.924,34.9275,67.4926,34.3179,68.2779"/>
	<path id="XMLID_7276_" fill-rule="evenodd" clip-rule="evenodd" fill="#E11383" d="M299.5803,5.2022
		c0.1758,0.8616,0.3987,1.448,0.387,2.0284c-0.1173,6.1142-0.3048,12.2227-0.4221,18.343
		c-0.0528,2.7261,0.0528,5.4462,0.0234,8.1662c-0.0586,4.2855-0.1524,8.5706-0.2755,12.8621
		c-0.0762,2.2803-0.2932,4.5549-0.3869,6.8238c-0.1642,4.1094-0.2814,8.2307-0.4456,12.3401
		c-0.0176,0.5804-0.1172,1.1665-0.1876,1.8935c-1.4128-0.3868-2.2512-1.1725-2.9605-2.0166
		c-1.3131-1.5711-2.7319-3.0074-4.4026-4.2325c-0.6801-0.4984-1.1783-1.2312-1.7821-1.8234
		c-2.046-2.0517-4.0627-4.127-6.1555-6.1142c-2.9254-2.7848-5.9034-5.4991-8.8756-8.2425c-2.509-2.2982-5.0533-4.5785-7.5623-6.8942
		c-0.5746-0.5217-1.067-1.1314-1.6883-1.7998c0.6448-0.7092,1.1725-1.3482,1.7528-1.9286c2.8432-2.8199,5.6689-5.6573,8.5648-8.43
		c1.1725-1.1257,2.5149-2.1046,3.7343-3.1891c2.2394-1.9815,4.4378-3.9981,6.6596-6.0029c0.7445-0.6802,1.5007-1.3604,2.2805-2.0052
		c2.4797-2.0578,4.895-4.1974,7.4979-6.1028c1.2311-0.9027,2.4915-1.6999,3.2712-3.0306
		C298.7303,5.6358,299.0644,5.5364,299.5803,5.2022 M279.3377,37.3802c0.7093-0.7854,1.5007-0.8086,2.3097-0.8323
		c1.6063-0.0118,3.2125-0.0526,4.8247-0.0937c1.0904-0.0293,2.0694-0.7328,2.1984-1.5125c0.1524-0.8852-0.3987-1.8116-1.3308-2.0753
		c-0.5452-0.1585-1.1431-0.2816-1.6883-0.2168c-1.4304,0.1463-2.8374,0.41-4.2678,0.6036c-0.5335,0.0705-1.0963,0.088-1.6473,0.1292
		c1.1021-1.6066,2.0459-3.1659,3.6757-4.1799c0.8031-0.5042,1.5711-1.1139,2.2218-1.7998c0.5452-0.5804,0.5335-1.325-0.0645-1.9755
		c-0.7035-0.78-1.4656-1.0144-2.2804-0.6158c-0.3987,0.1936-0.7504,0.5102-1.067,0.8208c-1.1314,1.102-2.2159,2.2334-3.3415,3.3355
		c-1.4832,1.4366-3.2477,2.5794-5.2292,3.0721c-1.6357,0.4104-2.5619,1.3776-3.4002,2.5326
		c-1.0083,1.3482-0.3576,3.0424,1.2487,3.7165c0.5276,0.2168,1.0201,0.4809,1.5067,0.7621c1.0845,0.639,2.1925,1.2545,3.2008,1.9755
		c1.2428,0.8913,2.5501,1.7529,3.5585,2.861c1.7352,1.9229,3.3708,2.5147,5.8036,1.6999c1.3542-0.4512,2.1515-1.3658,2.1281-2.5089
		c-0.0293-1.3017-0.8618-1.9111-2.0576-2.3569c-1.6063-0.5918-3.1598-1.3246-4.7016-2.0867
		C280.3578,38.3534,279.9005,37.8375,279.3377,37.3802"/>
	<path id="XMLID_7039_" fill-rule="evenodd" clip-rule="evenodd" fill="#E11383" d="M229.6545,3.8711
		c9.6494,10.9743,19.9319,21.4152,29.1709,33.011c-4.8716,4.9535-9.8077,9.8837-14.6441,14.9134
		c-4.813,5.0064-9.538,10.0952-14.6383,15.0662c-0.0175-0.7385-0.0234-1.4831-0.041-2.2216
		c-0.1349-4.4554-0.258-8.8933-0.4045-13.3308c-0.1524-4.5084-0.387-8.9989-0.469-13.4894
		c-0.0645-3.4997,0.0762-7.0112,0.0703-10.5113c-0.0117-2.5615-0.1934-5.1116-0.17-7.6678c0.041-3.0542,0.2169-6.1028,0.34-9.157
		c0.082-1.8817,0.1759-3.781,0.2696-5.663c0.0176-0.2576,0.0587-0.5217,0.088-0.7854
		C229.3731,3.9828,229.5138,3.9298,229.6545,3.8711 M246.0807,39.6898c-0.2873,0.4634-0.4163,0.7857-0.639,0.9908
		c-1.8115,1.6005-3.6463,3.1834-5.4754,4.7778c-0.7503,0.6566-1.02,2.1576-0.51,2.8786c0.6097,0.897,1.5535,1.1607,2.7319,0.6448
		c0.5042-0.2111,0.9614-0.5922,1.3307-0.9908c1.1315-1.2251,1.8584-2.7551,3.2594-3.787c1.4011-1.0376,2.4681-2.5852,4.2737-2.9956
		c1.8407-0.4222,3.0191-1.4423,3.9102-2.9841c0.8207-1.4184,0.4455-3.148-1.1608-3.6872c-1.3541-0.463-2.4328-1.2427-3.5467-2.0109
		c-1.6238-1.1253-2.9605-2.5032-3.6698-4.3438c-0.2639-0.6802-0.3811-1.413-0.6625-2.0814c-0.639-1.5532-1.9052-2.3272-3.5643-2.544
		c-0.8207-0.1056-1.5007,0.1993-1.9404,0.8441c-1.0142,1.4774-0.8618,3.031,0.3811,4.4436c0.34,0.3868,0.721,0.7271,1.0669,1.1081
		c1.2369,1.3718,2.4504,2.7612,3.7519,4.2325c-1.7294,0.8033-3.3474,0.7503-4.942,0.809c-1.4128,0.0526-2.2863,1.102-2.169,2.5734
		c0.0938,1.2606,1.1079,2.1222,2.4328,2.0345c0.5746-0.0354,1.1608-0.0411,1.7001-0.2168
		C243.7534,39.0393,244.7793,39.2973,246.0807,39.6898"/>
	<path id="XMLID_7038_" fill-rule="evenodd" clip-rule="evenodd" fill="#E11383" d="M262.1324,1.0523
		c-1.6298,1.8939-3.0778,3.5176-4.4612,5.1943c-1.9756,2.3683-3.8809,4.7953-5.874,7.1637
		c-1.0376,1.2427-2.1515,2.4445-3.2771,3.6289c-0.7504,0.7854-1.2546,0.8265-1.9756-0.0648
		c-2.1573-2.6907-4.8247-4.9653-6.642-7.9197c-0.6389-1.0437-1.5887-1.9053-2.4563-2.8024
		c-1.6062-1.6592-3.2594-3.2593-4.8656-4.9184c-0.2286-0.2462-0.2697-0.6741-0.4573-1.1665
		C242.1476-0.0555,251.9612,0.4956,262.1324,1.0523"/>
	<path id="XMLID_7037_" fill-rule="evenodd" clip-rule="evenodd" fill="#E11383" d="M293.4302,69.7528
		c-9.245,0.8562-18.4722,0.5045-27.8578,0.0354c2.8668-5.8391,6.132-11.2849,10.4525-16.3032
		c0.7739,0.5922,1.4949,1.067,2.1046,1.6355c2.9076,2.7143,5.7626,5.487,8.6879,8.172c1.747,1.6005,3.6112,3.0836,5.405,4.6254
		C292.7618,68.3814,293.4711,68.7739,293.4302,69.7528"/>
	<path id="XMLID_7036_" fill-rule="evenodd" clip-rule="evenodd" fill="#E11383" d="M247.4648,55.1782
		c0.7034,0.7507,1.4948,1.4835,2.1397,2.31c1.9932,2.597,3.8985,5.2408,5.9092,7.826c0.6859,0.8795,1.6122,1.5947,2.3391,2.4449
		c0.4807,0.5686,0.809,1.2663,1.4304,2.2685c-8.9811-0.0644-17.4697,1.3836-26.058,0.3342
		C233.7469,69.0193,245.4306,56.5326,247.4648,55.1782"/>
	<path id="XMLID_7035_" fill-rule="evenodd" clip-rule="evenodd" fill="#E11383" d="M297.1633,0.3807
		c-0.4221,0.639-0.7563,1.3486-1.2722,1.9114c-3.7285,4.0744-7.4979,8.1251-11.2498,12.1819
		c-0.0821,0.0819-0.2169,0.1288-0.4162,0.2462c-2.1808-0.7797-3.8223-2.31-5.4286-3.928c-2.3332-2.3508-4.7133-4.6486-7.1344-6.9114
		c-0.8559-0.7972-1.489-1.7003-2.4973-2.8786c1.6356-0.1757,2.8842-0.5628,4.0626-0.3986c2.4036,0.346,4.7544-0.0057,7.1227-0.0233
		c3.7753-0.0293,7.5331-0.0411,11.2967-0.1116c0.938-0.0118,1.8701-0.1818,2.8081-0.2694c0.7973-0.0823,1.6063-0.1349,2.4094-0.1993
		C296.9639,0.1345,297.0635,0.2576,297.1633,0.3807"/>
	<path id="XMLID_7034_" fill-rule="evenodd" clip-rule="evenodd" fill="#E11383" d="M278.0204,18.4074
		c-0.9146,0.8562-1.7177,1.618-2.5326,2.3744c-2.726-3.06-5.6337-5.7743-7.7265-9.1277c-0.2404-0.375-0.387-0.8029-0.598-1.1958
		c-0.7211-1.4069-1.8935-1.8291-3.2829-1.0906c-0.9497,0.5102-1.8349,1.1314-2.6791,1.7998
		c-0.3166,0.2462-0.4279,0.7503-0.6097,1.1432c-0.2286,0.5042-0.3166,1.1081-0.6508,1.5185
		c-1.9345,2.3977-3.7753,4.8716-6.5541,6.4835c-0.6331,0.3635-1.2076,0.8265-1.9052,1.3017
		c-0.1759-0.1056-0.4162-0.2229-0.6331-0.3871c-0.2169-0.17-0.3986-0.3868-0.7328-0.7267
		c4.4847-6.3432,9.5967-12.1236,15.3828-17.5286c0.4103,0.3517,0.8734,0.6802,1.2427,1.0788
		c1.5067,1.671,3.2009,3.2303,4.4378,5.0709c1.3483,2.0227,3.1247,3.7051,4.5081,5.6806
		C276.4845,15.9396,277.1996,17.1415,278.0204,18.4074"/>
	<path id="XMLID_7033_" fill-rule="evenodd" clip-rule="evenodd" fill="#E11383" d="M262.8488,68.2779
		c-0.5394-0.4455-0.8735-0.6623-1.1315-0.9435c-4.3029-4.7191-8.4593-9.5438-11.7892-15.0956
		c0.7797-0.8383,1.4187-1.5243,2.1926-2.3626c0.469,0.3929,0.8969,0.6448,1.19,1.0083c2.0342,2.6324,4.0861,5.2408,5.7217,8.1251
		c0.3047,0.5335,0.7152,1.0144,1.1431,1.4656c0.6625,0.7095,1.4598,1.0437,2.4798,0.809c1.0611-0.2226,1.4362-0.9028,1.6766-1.8581
		c0.2404-0.95,0.727-1.8352,1.1138-2.7437c0.3928-0.9146,0.8618-1.8055,1.1959-2.7437c0.6976-1.8992,1.618-3.6697,2.9371-5.229
		c0.1993-0.2404,0.5452-0.3693,0.8735-0.5979c0.3107,0.2168,0.6155,0.375,0.8617,0.5979c2.1222,1.9053,2.0401,1.993,0.6859,4.4261
		c-1.4773,2.6789-3.4939,5.0472-4.7368,7.8728c-0.8031,1.8116-1.8642,3.5351-2.8667,5.2587
		C264.0153,66.924,263.4526,67.4926,262.8488,68.2779"/>
</g>
</svg>
