<?xml version="1.0" encoding="utf-8"?>
<!-- Generator: Adobe Illustrator 19.0.0, SVG Export Plug-In . SVG Version: 6.00 Build 0)  -->
<svg version="1.1" id="felchita" xmlns="http://www.w3.org/2000/svg" xmlns:xlink="http://www.w3.org/1999/xlink" x="0px" y="0px"
	 viewBox="0 0 20.5619 15.7847" enable-background="new 0 0 20.5619 15.7847" xml:space="preserve">
<g id="XMLID_467_">
	<path id="XMLID_468_" d="M8.4075,14.9383c0-0.004-0.004-0.004-0.004-0.008c-0.3004-0.6424-0.6309-1.2693-1.1389-1.7041
		c-1.3275-1.1389-2.1354-2.7893-3.1434-4.2442C3.4366,7.9936,2.8514,6.9083,2.228,5.8622C1.7972,5.1386,1.2356,4.5734,0.6393,4.0383
		c-0.2964-0.2618-0.654-0.504-0.6389-1.0541C0.0234,2.103,0.3008,1.3798,1.0008,0.8949c0.3731-0.2538,0.4769-0.2267,0.6886,0.181
		c0.0812,0.1615,0.1615,0.4348,0.2733,0.4423c0.4193,0.0421,0.6003,0.3962,0.839,0.681c0.5075,0.6003,1.0115,1.2081,1.5155,1.8084
		c0.4313,0.5115,0.8656,1.0311,1.3119,1.5276c0.7543,0.8425,1.52,1.658,2.2703,2.5005C8.0955,8.2554,8.265,8.5131,8.4341,8.7594
		c0.4428,0.6499,0.8771,1.3119,1.3119,1.9659c0.0115,0.0155,0.0306,0.0271,0.0426,0.0421c0.0843,0.1153,0.1655,0.2272,0.2497,0.3425
		c0.2312-0.3731,0.489-0.7232,0.7467-1.0732c0.0115-0.0155,0.0306-0.0231,0.0421-0.0386c0.4388-0.654,0.8731-1.3119,1.3119-1.9659
		c0.1695-0.2462,0.3385-0.504,0.5351-0.7237c0.7502-0.8385,1.5195-1.658,2.2698-2.501c0.4463-0.496,0.8771-1.0155,1.3079-1.5271
		c0.508-0.6003,1.008-1.2081,1.516-1.8084c0.2387-0.2849,0.4198-0.6424,0.839-0.685c0.1113-0.0075,0.1886-0.2808,0.2728-0.4423
		c0.2041-0.4077,0.3119-0.4348,0.681-0.1805c0.6966,0.4844,0.9734,1.2081,1.0005,2.0887c0.0155,0.5501-0.3385,0.7929-0.6384,1.0541
		c-0.5968,0.5351-1.1585,1.1008-1.5892,1.8239c-0.6274,1.0466-1.2081,2.1314-1.8932,3.1163
		c-1.008,1.4543-1.8194,3.1048-3.1434,4.2437c-0.5075,0.4348-0.8385,1.0622-1.1384,1.7046
		c-0.0772,0.169-0.1735,0.3195-0.2773,0.4694c0.2543,0.658-2.185,0.9157-2.8661,1.0351c-0.004,0-0.008-0.004-0.012-0.004
		C8.6652,16.0386,8.3533,15.3034,8.4075,14.9383z"/>
</g>
</svg>
