<?xml version="1.0" encoding="utf-8"?>
<!-- Generator: Adobe Illustrator 19.0.0, SVG Export Plug-In . SVG Version: 6.00 Build 0)  -->
<svg version="1.1" id="logo" xmlns="http://www.w3.org/2000/svg" xmlns:xlink="http://www.w3.org/1999/xlink" x="0px" y="0px"
	 viewBox="-181 348.28 248.16 96.72" enable-background="new -181 348.28 248.16 96.72" xml:space="preserve">
<metadata><?xpacket begin="﻿" id="W5M0MpCehiHzreSzNTczkc9d"?>
<x:xmpmeta xmlns:x="adobe:ns:meta/" x:xmptk="Adobe XMP Core 5.6-c067 79.157747, 2015/03/30-23:40:42        ">
   <rdf:RDF xmlns:rdf="http://www.w3.org/1999/02/22-rdf-syntax-ns#">
      <rdf:Description rdf:about=""/>
   </rdf:RDF>
</x:xmpmeta>
                                                                                                    
                                                                                                    
                                                                                                    
                                                                                                    
                                                                                                    
                                                                                                    
                                                                                                    
                                                                                                    
                                                                                                    
                                                                                                    
                                                                                                    
                                                                                                    
                                                                                                    
                                                                                                    
                                                                                                    
                                                                                                    
                                                                                                    
                                                                                                    
                                                                                                    
                                                                                                    
                           
<?xpacket end="w"?></metadata>
<g id="XMLID_60_">
	<g>
		<g>
			<path id="XMLID_373_" d="M-115.8794,393.918c-0.3154,0.2041-0.5041,0.3247-0.668,0.4345
				c-0.1376,0.1113-0.2938,0.2134-0.3541,0.351c-0.1593,0.2814-0.034,0.6308-0.4484,0.8952
				c-0.8241,0.5628-1.6606,0.5211-2.5326,0.2644c-0.3618-0.1191-0.6819-0.3417-1.022-0.4855
				c-0.4221-0.1886-0.8195-0.3927-1.3545-0.2984c-0.4097,0.0758-0.8844-0.1283-1.3328-0.2056
				c-1.2725-0.2041-2.545-0.3757-3.8222-0.5721c-0.5427-0.068-1.0746-0.1871-1.6173-0.2721c-0.1036-0.034-0.2196-0.051-0.3371-0.051
				c-0.9741,0.085-1.9667,0.1438-2.9285,0.2211c-0.8674,0.085-1.7379,0.1623-2.6007,0.2984
				c-0.7592,0.1113-1.506,0.2984-2.2559,0.419c-0.2381,0.0417-0.518-0.068-0.7808-0.0943
				c-0.2675-0.0263-0.5443-0.0433-0.8118-0.0773c-0.0603-0.017-0.1716,0.034-0.2149-0.017
				c-0.4917-0.4345-1.0359-0.2134-1.5709-0.1098c-0.5257,0.0928-1.3622-0.385-1.6173-0.9045
				c-0.0912-0.2134-0.1902-0.4438-0.3448-0.5891c-0.3618-0.3324-0.569-0.6834-0.5257-1.2292
				c0.0294-0.2984-0.2381-0.6138-0.3494-0.9385c-0.2938-0.9045-0.6138-1.8168-0.8721-2.7383
				c-0.051-0.2397,0.1546-0.5628,0.2582-0.8535c0.0959-0.2226,0.3634-0.487,0.3201-0.6741
				c-0.3108-0.9478,0.1113-1.7317,0.4824-2.5342c0.1175-0.2644,0.0526-0.6061,0.1422-0.8875
				c0.1732-0.4855,0.3711-0.9725,0.5829-1.4503c0.2551-0.5968,0.552-1.1952,0.8241-1.7998
				c0.2366-0.5303,0.4747-1.0499,0.7082-1.5787c0.0387-0.0943,0.1021-0.1794,0.0943-0.2644
				c-0.2211-1.8786,0.1902-3.7897-0.4051-5.6745c-0.4917-1.5709-0.6989-3.2331-0.9973-4.855
				c-0.1082-0.487-0.116-1.0158-0.1593-1.5106c-0.0093-0.1531,0.017-0.2984-0.0387-0.3927c-0.4747-0.6231-0.1469-1.2277,0-1.826
				c0.1639-0.6556,0.6077-1.1086,1.1952-1.4503c0.2196-0.102,0.3572-0.3061,0.5303-0.4778c1.1519-1.2107,3.8608-0.9122,4.637,0.4778
				c0.6989,1.2972,1.073,2.6192,0.8875,4.1221c-0.15,1.0483-0.1252,2.1322-0.1685,3.1991c-0.0294,1.6977-0.068,3.3784-0.1206,5.0591
				c0,0.1546-0.017,0.351-0.1067,0.4283c-0.4267,0.3572-0.3108,0.7499-0.1948,1.1674c0.0479,0.1623,0.0649,0.3417,0.0479,0.4948
				c-0.1376,1.1272-0.2721,2.2698-0.4654,3.397c-0.1252,0.6741-0.3881,1.3467-0.5443,2.0131
				c-0.2165,1.0158-0.3974,2.0564-0.6216,3.08c-0.0943,0.436-0.2489,0.8705-0.4221,1.288
				c-0.3154,0.7855-0.0912,1.2725,0.6649,1.6297c1.6683,0.7777,3.4928,0.8705,5.2787,1.1272
				c0.4097,0.051,0.8025,0.1871,1.2122,0.2644c0.6046,0.0943,1.1859,0.2474,1.7858,0.2474c1.1519,0,2.2698,0.1701,3.3738,0.4948
				c0.5566,0.1701,1.1689,0.0943,1.7379,0.2567c1.1612,0.3061,2.3085,0.6989,3.4774,1.0483
				c0.3541,0.1113,0.7252,0.2056,1.0947,0.317C-117.9404,392.4167-117.022,393.2006-115.8794,393.918"/>
			<path id="XMLID_372_" d="M-162.0388,366.3155c-0.2582,0.9478-0.6293,1.9884-0.8288,3.046
				c-0.3015,1.5957-0.4917,3.2083-0.7205,4.821c-0.0247,0.2134-0.0417,0.4345-0.0417,0.6649
				c0.0247,0.8025,0.2056,0.9911,1.0298,1.0329c0.5705,0.0093,1.1395,0.0263,1.7085,0.0263
				c2.0796-0.0263,4.0943,0.2134,6.0564,0.9123c0.6726,0.2211,1.3978,0.2907,2.2605,0.453
				c-0.0866,0.3572-0.0603,0.7252-0.2381,0.9463c-0.4345,0.5721-0.9092,1.1349-1.6776,1.288
				c-0.8581,0.1623-1.7255,0.317-2.5883,0.487c-2.4244,0.47-4.8473,0.9215-7.3799,1.4163c-0.0773,0.6819-0.2242,1.305-0.2335,1.9281
				c0,1.4673,0.0789,2.9362,0.0789,4.4113c0.0077,0.4267,0.1639,0.6911,0.4824,0.9555c0.8628,0.7082,1.8755,0.9896,2.9238,1.1859
				c2.4028,0.419,4.8272,0.8458,7.2439,1.1689c1.0004,0.1376,2.0394,0.0943,3.0491-0.0417c1.1349-0.1623,1.9018,0.3927,2.627,1.0406
				c0.2149,0.1964,0.2335,0.8025,0.1036,1.1426c-0.1902,0.47-0.5613,0.8875-0.9153,1.2802
				c-0.4391,0.5041-0.9184,0.9988-1.4179,1.4596c-0.3031,0.2551-0.6741,0.5381-1.0359,0.6061
				c-2.4105,0.4438-4.8009,0.9385-7.2764,0.6911c-2.1878-0.2227-4.3834-0.4268-6.5744-0.6834
				c-1.6219-0.1794-2.7136-1.2802-3.8083-2.3208c-0.3031-0.3154-0.5273-0.6741-0.8628-0.9123
				c-1.1086-0.8288-1.4457-1.9637-1.54-3.2686c-0.1036-1.4581-0.1778-2.9177-0.3108-4.3943
				c-0.1948-2.0812,0.034-4.1299,0.1902-6.194c0.1067-1.305,0.1979-2.6285,0.2876-3.9335c0.0649-1.0066,0.1345-2.0317,0.2041-3.046
				c0.2056-2.7739,0.4051-5.5462,0.62-8.32c0.1129-1.4163,0.467-2.7136,1.3591-3.8825c0.6046-0.7932,1.6003-1.407,2.7831-1.0236
				c0.6726,0.2304,1.3885,0.419,1.9961,0.7855c0.4654,0.2644,0.7978,0.0603,1.1689-0.0433c1.3204-0.3324,2.644-0.0077,3.9551-0.0758
				c2.2095-0.1376,4.4174-0.0943,6.6223,0.2041c0.7329,0.1191,1.4148,0.2984,1.9791,0.8102
				c0.7592,0.6664,0.9803,1.741,0.3804,2.5172c-0.518,0.6741-1.1473,1.2122-2.024,1.3823c-1.574,0.3154-3.1264,0.7514-4.7004,0.9896
				C-158.6789,366.0851-160.2838,366.1362-162.0388,366.3155"/>
			<path id="XMLID_371_" d="M-42.5878,367.0578c-0.2799,0.9648-0.6216,1.9961-0.8288,3.0553
				c-0.3015,1.5957-0.487,3.2161-0.7236,4.8117c-0.0433,0.2304-0.0603,0.4438-0.0526,0.6819
				c0.0356,0.7855,0.2072,0.9818,1.0267,1.0158c0.5876,0.0433,1.1442,0.051,1.7302,0.0433c2.075-0.0433,4.0897,0.2041,6.0564,0.9122
				c0.668,0.2227,1.3854,0.2814,2.2466,0.4438c-0.0773,0.3587-0.068,0.7252-0.2319,0.9648
				c-0.4407,0.5628-0.9061,1.1256-1.6823,1.2787c-0.8597,0.1623-1.7209,0.317-2.5837,0.4793
				c-2.4244,0.4685-4.8365,0.937-7.3892,1.4163c-0.082,0.6726-0.2196,1.322-0.2196,1.9281c0,1.4673,0.068,2.9347,0.085,4.419
				c0,0.419,0.1345,0.6911,0.47,0.9478c0.8628,0.7082,1.8817,1.0143,2.93,1.1937c2.4105,0.4097,4.804,0.8365,7.2331,1.1612
				c0.9926,0.1361,2.0533,0.1021,3.0583-0.0433c1.1179-0.1531,1.8848,0.3927,2.61,1.0591c0.2149,0.1778,0.2366,0.7932,0.1082,1.1256
				c-0.1902,0.487-0.5489,0.8782-0.9014,1.288c-0.4407,0.5041-0.9246,0.9988-1.424,1.4503
				c-0.3061,0.2567-0.6679,0.5473-1.0483,0.6154c-2.3935,0.4345-4.7963,0.9215-7.2547,0.6911
				c-2.2002-0.2227-4.3958-0.419-6.5821-0.6911c-1.6189-0.1794-2.7136-1.2632-3.8145-2.3301
				c-0.2938-0.2891-0.5257-0.6649-0.8535-0.9045c-1.1225-0.8195-1.4673-1.9714-1.54-3.2501
				c-0.1129-1.4766-0.1979-2.9439-0.3278-4.4035c-0.1902-2.0734,0.0387-4.1376,0.2072-6.2033
				c0.0943-1.305,0.1855-2.6192,0.2752-3.9242c0.0773-1.0158,0.1391-2.0394,0.2072-3.063c0.2072-2.7739,0.4098-5.5384,0.6092-8.32
				c0.1113-1.407,0.4731-2.7136,1.3715-3.8732c0.6077-0.7855,1.608-1.4086,2.7769-1.0236c0.6819,0.2211,1.3978,0.4175,1.9977,0.7762
				c0.47,0.2814,0.8148,0.068,1.1813-0.0263c1.3127-0.3324,2.627-0.0077,3.9567-0.085c2.2033-0.1113,4.4159-0.0928,6.5991,0.2304
				c0.7422,0.085,1.4147,0.2737,1.993,0.7762c0.7545,0.6834,0.971,1.7503,0.3757,2.5265c-0.5009,0.6741-1.1442,1.2107-2.0147,1.3823
				c-1.5833,0.3232-3.114,0.7499-4.702,0.9973C-39.2404,366.8367-40.8314,366.9048-42.5878,367.0578"/>
			<path id="XMLID_370_" d="M30.8682,388.8583c-0.47,0.5458-0.7716,0.9123-1.0994,1.2632c-0.3973,0.4097-0.8025,0.6649-1.424,0.7669
				c-0.7979,0.1283-1.5137,0.6231-2.2683,0.9478c-0.453,0.1964-0.9061,0.3494-1.3544,0.5551
				c-0.6602,0.2984-1.4024,0.4345-1.7565,1.2447c-0.1979,0.436-0.7762,0.6741-1.2802,1.0761
				c-0.3804-0.1886-0.8891-0.3077-1.2339-0.6154c-0.7947-0.6989-1.7997-0.8442-2.6795-0.6819
				c-1.1256,0.1964-2.0224-0.1886-2.9409-0.5798c-2.477-1.1009-4.3742-2.9702-6.2466-4.855
				c-0.3371-0.3417-0.518-0.8365-0.7515-1.2632c-0.8829-1.724-1.6513-3.4557-2.2203-5.3251
				c-0.4484-1.3993-0.6865-2.7646-0.7205-4.1979c-0.034-1.0746-0.0526-2.1662,0.3618-3.2161
				c0.1809-0.4778,0.0479-1.0576,0.1732-1.5694c0.3355-1.3823,0.7453-2.6965,1.4194-3.9938c0.62-1.2029,1.4534-2.0564,2.4275-2.8666
				c0.2675-0.2304,0.4917-0.6154,0.535-0.9385c0.0557-0.5288,0.3448-0.8025,0.7638-1.0421
				c1.0267-0.5705,1.8152-1.4581,2.9641-1.8941c0.4051-0.1438,0.8148-0.4685,1.0467-0.8179
				c0.402-0.5968,0.9277-0.9045,1.5802-0.9911c1.3235-0.1871,2.4275-0.971,3.6954-1.3467c1.1442-0.351,2.2528-0.5303,3.4604-0.2644
				c0.9231,0.1948,1.8585,0.2381,2.8295,0.3572c0.6896,1.792,0.3015,3.499-0.3881,5.2478c-1.5013,0.0603-2.7429,0.8365-4.085,1.3313
				c-0.4917,0.1871-1.0359,0.2907-1.5616,0.2984c-1.2725,0.0263-2.3935,0.3927-3.3862,1.1952
				c-0.9617,0.7932-2.0317,1.4751-2.8728,2.3796c-0.7592,0.7947-1.6482,1.5957-1.7302,2.8249
				c-0.0078,0.1453-0.116,0.2737-0.1809,0.4005c-0.603,1.0839-0.8025,2.2528-0.9231,3.4727
				c-0.1299,1.3143-0.2118,2.6022-0.1036,3.9258c0.1376,1.9528,1.0004,3.5485,2.0703,5.0761
				c0.7978,1.1272,1.6869,2.2018,2.8218,3.046c0.0866,0.068,0.1376,0.1886,0.1809,0.2907c0.4747,0.9988,0.4747,0.9988,1.5183,0.9555
				c0.9695-0.0773,1.8585,0.2474,2.7522,0.5381c1.9111,0.5798,3.8655,0.5876,5.8276,0.1438
				c1.3204-0.3061,2.627-0.6386,3.9474-0.9293C30.2343,388.764,30.4538,388.8243,30.8682,388.8583"/>
			<path id="XMLID_367_" d="M-15.6098,375.9067c0.034,0.0588,0.051,0.0928,0.0819,0.1268c0.3711-0.0588,0.7978-0.0588,1.121-0.2211
				c1.3375-0.6649,2.6703-1.3313,3.9521-2.0657c0.552-0.3061,1.1643-0.5875,1.3792-1.356c0.1732-0.5968,0.569-1.2107,1.0529-1.5864
				c0.7901-0.6324,1.1689-1.4426,1.1163-2.3378c-0.0603-1.0761-0.1809-2.2188-1.0514-3.046
				c-0.5273-0.5041-1.0483-1.0761-1.6823-1.4008c-1.3158-0.6726-2.7878-0.7932-4.2489-0.8179c-0.2412,0-0.6309,0.1453-0.6695,0.2984
				c-0.3185,1.0669-1.3189,1.8168-1.3374,2.995c-0.7236,0.6649-0.8612,1.6034-1.1689,2.4492
				c-0.133,0.3912-0.2922,0.7839-0.3185,1.1766c-0.0433,0.7514,0.0464,1.5106-0.6123,2.0734
				c-0.0696,0.051-0.0526,0.2041-0.0603,0.3247c-0.0433,0.2474-0.0433,0.5118-0.1299,0.7592
				c-0.3015,0.8442-0.2335,1.6127,0.484,2.2435c0.167,0.1453,0.3355,0.3077,0.4917,0.47
				C-16.7401,376.4865-16.0165,376.4432-15.6098,375.9067 M-24.6689,372.587c0.0819-1.271,0.1469-2.4399,0.2721-3.5841
				c0.0897-0.8102,0.2458-1.6034,0.4345-2.3718c0.1175-0.5025,0.3541-0.9896,0.1902-1.5354c-0.0727-0.1964,0-0.4778,0.099-0.6571
				c0.5009-0.7174,0.0572-1.3746-0.0897-2.0657c-0.1253-0.5365-0.4623-1.0143-0.1253-1.6977
				c0.3881-0.7159,0.3974-1.5957,0.5953-2.4476c0.3448,0.1191,0.7468,0.2721,0.7592-0.3417c0-0.0433,0.1979-0.102,0.3061-0.102
				c0.4144,0,0.8241,0.0247,1.2431,0.0247c0.1453,0,0.3015-0.0247,0.4268-0.085c0.4345-0.2227,1.0081-0.068,1.2323,0.3494
				c0.1391,0.2397,0.2551,0.6401,0.4499,0.6911c0.5087,0.1113,1.07,0.0773,1.6127,0.1113c0.1422,0,0.3804-0.0603,0.436,0.0077
				c0.484,0.5473,1.104,0.6231,1.7596,0.6834c0.3201,0.051,0.6169,0.1871,0.9277,0.2211c0.2335,0.051,0.4747-0.017,0.7066-0.0077
				c0.7514,0.0077,1.4797,0.051,2.2311,0.0943c0.3541,0.0247,0.6989,0.1608,1.0344,0.2041c0.2644,0.0433,0.5272,0.0433,0.7901,0.102
				c0.3015,0.034,0.6216,0.0943,1.0344,0.1716c0.1824,0.051,0.453,0.1098,0.7298,0.1964c0.3371,0.0588,0.6896,0.1608,1.0267,0.2118
				c1.2462,0.1964,2.2652,0.7777,3.0846,1.758c0.3881,0.453,0.8489,0.8875,1.2292,1.3576c0.2412,0.2891,0.4314,0.6308,0.5953,0.9633
				c0.535,1.0761,1.1256,2.1075,1.2416,3.3274c0.0124,0.2737-0.0294,0.5381-0.0479,0.8117
				c-0.0418,0.5288-0.099,1.0483-0.1716,1.5694c-0.0263,0.2474-0.0696,0.5041-0.1902,0.7174
				c-0.6262,1.1596-1.1256,2.4306-1.9528,3.4727c-0.7035,0.869-1.472,1.7828-2.5497,2.3378
				c-0.6339,0.3232-1.1689,0.8519-1.7565,1.288c-0.1283,0.102-0.2937,0.1453-0.4484,0.2134
				c-0.501,0.2644-0.9957,0.5025-1.4967,0.7685c-0.1732,0.0588-0.3804,0.1608-0.535,0.1191
				c-0.419-0.085-0.8365-0.2397-1.2339-0.3927c-0.1376-0.034-0.2288-0.2134-0.3572-0.2474
				c-0.2165-0.0773-0.4932-0.1794-0.6911-0.1191c-0.3139,0.1531-0.2675,0.4438-0.0603,0.6741
				c0.4268,0.4097,0.8288,0.8442,1.3158,1.1596c1.3885,0.9478,2.8171,1.809,4.2226,2.7476
				c0.7159,0.4778,1.4101,1.0066,2.0487,1.6049c1.0452,0.9633,2.041,1.9869,3.0243,3.012c0.7329,0.7669,1.3854,1.5771,2.0843,2.3626
				c0.1376,0.1453,0.3402,0.2397,0.4561,0.3927c0.2721,0.3587,0.5489,0.6649,0.5489,1.1767c0,0.402,0.3092,0.7947,0.4871,1.1705
				c0.0727,0.1438,0.1422,0.2814,0.116,0.5365c-0.4747-0.2551-0.9617-0.5195-1.608-0.8612
				c0.1283,0.8195,0.2273,1.4673,0.3402,2.2698c-0.453-0.2056-0.8674-0.2984-1.1689-0.5458
				c-0.9571-0.7777-1.8601-1.6127-2.8002-2.4074c-0.8968-0.7252-1.9451-1.3127-2.6873-2.1662
				c-0.7545-0.8705-1.8585-1.1179-2.678-1.8431c-0.6695-0.6061-1.5756-0.9215-2.3564-1.3993
				c-0.4994-0.3154-0.9401-0.7004-1.4271-1.0081c-0.3154-0.2041-0.6649-0.3324-1.0267-0.4592
				c-0.7854-0.283-1.5786-0.5211-2.3595-0.7947c-0.1716-0.051-0.3278-0.2041-0.4917-0.2814
				c-0.1113-0.068-0.2582-0.1531-0.3448-0.1191c-0.7329,0.2984-1.4318,0.068-2.1275-0.0773
				c-0.7839-0.1794-1.4612,0.1623-2.0564,0.5458c-0.2938,0.1794-0.4144,0.6664-0.569,1.0421
				c-0.3278,0.7839-0.6432,1.5616-0.518,2.4569c0.034,0.3417-0.1562,0.7422-0.2458,1.0916
				c-0.017,0.1113-0.1082,0.2397-0.0989,0.3247c0.1979,1.0746-0.1995,2.0827-0.3896,3.1063
				c-0.099,0.5628-0.3835,1.1086-0.6587,1.6204c-0.1036,0.2041-0.3881,0.3587-0.6386,0.4267
				c-0.7159,0.2056-0.7298,0.8025-0.8457,1.3746c-0.0387,0.2211-0.1639,0.4345-0.2628,0.6911
				c-0.2505-0.7947-0.4407-1.4766-0.6726-2.1337c-0.0263-0.1021-0.2334-0.2381-0.2675-0.2134
				c-0.8504,0.5798-0.92-0.4005-0.9926-0.6479c-0.1809-0.8458-0.419-1.6993-0.1562-2.6285c0.1562-0.5458,0.2381-1.1689,0.082-1.826
				c-0.1206-0.5381,0.1082-1.1519,0.1469-1.7487c0.0356-0.6741,0-1.3576,0.0186-2.0394c0-0.2567,0.034-0.5211,0.0634-0.7685
				c0.0186-0.2381,0.0696-0.4778,0.0912-0.7082c0.0093-0.4685-0.0479-0.9385,0.0093-1.39c0.0897-0.7004,0.2628-1.3993,0.3695-2.1167
				c0.0742-0.6401,0.0742-1.2973,0.1902-1.9451c0.0742-0.5118,0.2551-1.0066,0.3587-1.5276c0.034-0.2381,0.017-0.5118-0.0696-0.7499
				c-0.2412-0.5891-0.1469-1.0591,0.2335-1.5616c0.1809-0.2474,0.2505-0.6834,0.1716-0.9818
				C-25.2379,372.9967-25.0663,372.7153-24.6689,372.587"/>
			<path id="XMLID_364_" d="M39.1462,387.5188c0.5999,0.1701,1.0993,0.2907,1.6173,0.4267
				c0.5953,0.1701,1.1859,0.4267,1.7905,0.5025c0.8489,0.0943,1.7039,0.0773,2.5497,0.0696
				c0.4051-0.0093,0.8148-0.0263,1.1937-0.1716c0.8891-0.2891,1.7348-0.6571,2.6192-0.9803
				c0.1979-0.0603,0.4314-0.1036,0.6509-0.0866c0.4005,0.034,1.0916-0.4097,1.2122-0.8009c0.1376-0.453,0.2381-0.9896,0.5303-1.3143
				c0.6819-0.7004,0.8535-1.6219,1.2169-2.4492c0.2505-0.5551,0.6803-1.1519,0.4175-1.8678
				c-0.0294-0.0866,0.0263-0.2226,0.0912-0.317c0.2721-0.3402,0.6076-0.6819,0.0866-1.0823
				c-0.0433-0.0356,0.0124-0.1886,0.0294-0.2659c0.0557-0.2304,0.2211-0.4778,0.1392-0.6649
				c-0.2458-0.7252-0.3278-1.4426-0.2458-2.2095c0.0603-0.6231-0.1824-1.254-0.1732-1.8941
				c0.017-0.9045,0.1376-1.8693-0.5613-2.5512c-0.5953-0.5891-0.4747-1.5446-1.2199-2.0054
				c-0.0186-0.0093-0.0093-0.0773-0.0186-0.1191c-0.2628-0.6154-0.4345-1.288-0.7762-1.8431
				c-0.5087-0.8025-1.1117-1.5539-1.7456-2.2621c-0.4577-0.4948-1.104-0.7932-1.5539-1.288
				c-0.3711-0.4267-0.6077-0.8612-1.2725-0.4948c-0.0943,0.051-0.2845-0.0603-0.4484-0.085
				c-0.1716-0.034-0.3881-0.1206-0.5396-0.0603c-0.7885,0.3077-1.5957,0.6231-2.3502,0.9896
				c-0.487,0.2227-0.9494,0.5458-1.3978,0.8365c-0.2675,0.1701-0.5257,0.3757-0.7592,0.5968
				c-0.2628,0.2567-0.4747,0.5551-0.7113,0.8458c-0.535,0.6138-1.1565,1.1596-1.5786,1.8508
				c-0.2814,0.4608-0.4886,0.9555-0.9803,1.2462c-0.099,0.051-0.1809,0.2041-0.1886,0.3232
				c0.0247,1.6312-0.971,2.9439-1.3545,4.4546c-0.2891,1.1859-0.7251,2.4229-0.6695,3.6428
				c0.0603,1.3746,0.5783,2.7306,0.8891,4.0958c0.034,0.1036,0.099,0.2134,0.1639,0.3077c0.3401,0.6231,0.6169,1.2972,1.0529,1.8601
				c0.4948,0.6231,0.7978,1.4333,1.622,1.809C38.8787,386.7504,39.2931,387.024,39.1462,387.5188 M46.5911,394.0375
				c-0.4005,0.2227-0.7978,0.4097-1.1427,0.6308c-0.4097,0.2814-0.7561,0.3927-0.9277-0.1191
				c-0.5613,0.0093-1.104,0.051-1.6219,0.017c-0.6896-0.0417-0.8288-0.0943-0.9741-0.2814c-0.3634,0.034-0.7391,0.085-1.1102,0.1453
				c-0.0247-0.0433-0.034-0.1191-0.0603-0.1531c0.6046-0.6061,1.5787-0.5721,2.2312-1.0932c-0.2412-0.5365-0.552-0.6308-1.07-0.3077
				c-0.2196,0.1469-0.6262,0.0866-0.9184,0.0093c-0.4793-0.1361-0.9633-0.3247-1.3931-0.5721
				c-0.3293-0.1871-0.5489-0.5365-0.8288-0.8179c-0.2072,0.1191-0.4577,0.2551-0.7731,0.4252
				c0.0093-0.7499-0.4175-0.7422-0.9045-0.6046c-0.0093-0.0433-0.0093-0.1113-0.0185-0.1546
				c0.1345-0.0588,0.2768-0.1531,0.4144-0.1531c0.436-0.034,0.8767,0.0093,1.3081-0.0247c0.1639,0,0.3185-0.1113,0.4731-0.1453
				c0.1253-0.0433,0.2721-0.1036,0.3974-0.0773c1.0653,0.2984,2.0874,0.6741,3.2269,0.2644
				c0.3108-0.102,0.6463-0.0603,0.9494-0.2984c0.3015-0.2227,0.5906-0.1283,0.6246,0.1871
				c0.1639-0.1871,0.3804-0.4097,0.5736-0.6479c0.0572-0.0773,0.1422-0.2056,0.1252-0.2814
				c-0.017-0.0433-0.1732-0.1191-0.2582-0.1191c-0.3664,0.0417-0.7468,0.1871-1.1086,0.1438
				c-0.5613-0.0588-1.0916-0.2474-1.6359-0.3835c-0.1376-0.0263-0.3278-0.068-0.4484-0.017
				c-0.3958,0.1701-0.7669,0.3587-1.2509,0.2211c-0.3232-0.068-0.7159-0.068-0.9957,0.0433
				c-0.2891,0.1191-0.4654,0.4608-0.7081,0.8875c-0.3788-0.1701-0.7886-0.2984-1.1086-0.5551
				c-0.6339-0.5118-1.4225-0.9123-1.6513-1.792c-0.0386-0.1438-0.4097-0.1531-0.535-0.2984
				c-0.7252-0.8535-1.4148-1.741-2.1136-2.6022c-0.0387-0.0417-0.0742-0.0943-0.1129-0.1453
				c-0.552-1.1596-1.2462-2.2775-1.6251-3.4897c-0.2938-0.9633-0.8195-1.9281-0.552-3.0197
				c0.0681-0.2907-0.0696-0.6324-0.1515-0.9385c-0.2629-0.9308-0.3278-1.8863-0.0093-2.7568c0.2165-0.6061,0-1.1009,0-1.6374
				c-0.0216-1.1689,0.3618-2.1848,1.1782-3.0212c0.0556-0.0588,0.1639-0.1964,0.1376-0.2381
				c-0.4561-0.7004,0.6432-1.1859,0.2721-1.8771c-0.0263-0.0433,0.0649-0.1546,0.116-0.2304
				c0.2628-0.3587,0.5396-0.7004,0.7978-1.0591c0.6478-0.9122,1.2261-1.8941,1.9544-2.7553
				c0.4747-0.5288,1.1998-0.8365,1.7781-1.271c0.1716-0.1453,0.2366-0.419,0.3526-0.6231c0.0216-0.068,0.0093-0.1794,0.0479-0.2226
				c0.4608-0.5195,0.9138-1.0483,1.3808-1.5601c0.0773-0.0773,0.1979-0.1376,0.2969-0.1623
				c0.8628-0.1546,1.1906-0.8458,1.6575-1.4596c0.2582-0.3324,0.4994-0.6401,0.6463-1.0576
				c0.0387-0.1453,0.3108-0.2304,0.4824-0.3417c0.8674-0.5628,1.7905-0.3757,2.6703-0.1113
				c0.5489,0.1623,1.0406,0.5041,1.5493,0.7592c0.0557,0.0263,0.1299,0.1453,0.1639,0.1376
				c0.8752-0.3154,1.2973,0.7762,2.1353,0.6819c0.116-0.0077,0.2798,0.3417,0.436,0.5288c0.2242,0.2984,0.4607,0.6154,0.7236,0.8968
				c0.8365,0.8365,1.6792,1.6544,2.5404,2.4739c0.1299,0.1283,0.2072,0.3247,0.3634,0.419
				c1.2076,0.8179,1.9018,2.0379,2.5064,3.2934c0.5984,1.2617,1.1906,2.5172,1.7812,3.7789c0.0263,0.068,0.068,0.102,0.0866,0.1546
				c0.2675,1.0406,0.5644,2.0812,0.7839,3.148c0.1345,0.6911,0.2474,1.3993,0.2335,2.0982
				c-0.0433,1.3916,0.1376,2.7986-0.2721,4.1639c-0.051,0.2134,0.0387,0.453,0.0139,0.6741
				c-0.1129,0.8705,0.116,1.7843-0.303,2.6285c-0.051,0.0943-0.0897,0.2041-0.051,0.2737c0.6339,1.1859-0.1809,2.0904-0.5473,3.08
				c-0.1515,0.3757-0.3463,0.6061-0.8148,0.6231c-0.2474,0.0077-0.5396,0.2984-0.7221,0.5195
				c-0.4561,0.5288-0.8535,1.1009-1.2849,1.6297c-0.1206,0.1283-0.3278,0.1794-0.4824,0.2737
				c-0.1252,0.0758-0.3448,0.1701-0.385,0.2814c-0.2582,0.8875-0.9061,1.2292-1.7456,1.3483
				c-0.5922,0.0943-0.9664,0.3835-1.1658,0.9803c-0.1206,0.4097-0.2752,0.7777-0.9401,0.7252
				c-0.8504-0.068-1.7379,0.0943-2.596,0.2489C46.2246,393.4314,46.4612,393.7639,46.5911,394.0375"/>
			<path id="XMLID_363_" d="M-69.7457,396.9725c0-0.1453,0.0386-0.3154-0.034-0.4175c-0.0835-0.1546-0.2165-0.2814-0.3804-0.3417
				c-0.0649-0.0417-0.2118,0.1021-0.3278,0.1964c-0.1902,0.1453-0.3974,0.2814-0.5783,0.4267
				c-0.1716,0.1531-0.3355,0.3324-0.4731,0.5195c-0.1221,0.1546-0.2041,0.3417-0.3123,0.5133c-0.051,0-0.0897-0.0093-0.1376-0.0093
				c-0.1252-0.5968-0.1979-1.2122-0.3232-1.7998c-0.1809-0.8117-0.4005-1.5957-0.6077-2.4151
				c-0.0912-0.3587-0.2118-0.7174-0.2381-1.0916c-0.1206-1.3746-0.3355-2.7398-0.5087-4.1221
				c-0.1639-1.4843-0.2149-2.9609-0.3154-4.453c-0.0897-1.1442,0.1902-2.3038,0.3633-3.4557
				c0.0216-0.2134,0.3742-0.3757,0.5907-0.5644c0-0.034,0.017-0.085-0.0093-0.0928c-0.6726-0.4608-0.5257-1.0236-0.3355-1.69
				c0.1979-0.6911,0.116-1.4673,0.3711-2.1507c0.2891-0.7669-0.2165-1.5524,0.2582-2.3286c0.1855-0.2984-0.051-0.8612-0.0943-1.305
				c-0.0093-0.0696-0.0433-0.1283-0.0093-0.1716c0.2799-0.5628,0.3201-1.1937,0.3201-1.826
				c-0.0046-0.1794,0.2582-0.3927,0.47-0.6741c-0.0387-0.4778-0.1469-1.0746-0.1392-1.6807c0-0.2891,0.2768-0.5798,0.2768-0.8705
				c0-0.9385-0.0216-1.8848-0.1036-2.8233c-0.017-0.1191-0.3804-0.3247-0.552-0.2984c-1.1998,0.051-2.4151,0.1794-3.6243,0.2551
				c-0.2628,0.0093-0.535-0.1191-0.7886-0.1701c-0.0819-0.034-0.1809-0.085-0.2551-0.0773
				c-1.5787,0.2397-3.1666,0.436-4.7576,0.0943c-0.6216-0.1283-1.1689-0.3154-1.7116-0.7174
				c-0.4917-0.3664-1.1998-0.5118-1.8168-0.7422c-0.6989-0.2474-1.4055-0.4855-2.1044-0.7252
				c-0.3201-0.1113-0.6525-0.2134-0.9803-0.3077c-0.3015-0.1098-0.5087-0.2551-0.4484-0.6138
				c0.0696-0.3664,0.1469-0.6401,0.6123-0.6741c0.2428-0.0417,0.4963-0.2211,0.6989-0.3664
				c0.0433-0.034-0.0464-0.2814-0.1206-0.4005c-0.034-0.0773-0.1685-0.0866-0.2319-0.1376
				c-0.1036-0.068-0.1948-0.1531-0.2938-0.2474c0.8288-0.6231,3.2949-0.5721,3.8825,0.085c0.4144-0.5458,0.8488-0.5288,1.557-0.4267
				c0.9231,0.1206,1.9327-0.2118,2.8945-0.3912c0.5953-0.0943,1.1086-0.5211,1.7642-0.2984
				c0.1206,0.051,0.2752-0.0943,0.4221-0.1376c0.1036-0.034,0.2458-0.1283,0.3201-0.085c0.6169,0.3927,1.2122,0.2567,1.7858-0.0773
				c0.099-0.068,0.2706-0.0417,0.3664,0.0093c0.3355,0.1871,0.6463,0.5458,0.9834,0.5891c0.4005,0.034,0.9184-0.068,1.2632-0.2984
				c0.4669-0.283,1.0437-0.4267,1.5833-0.2319c0.2505,0.0773,0.535,0.0773,0.8025,0.0433c0.501-0.0773,1.0004-0.1964,1.5014-0.2907
				c0.0557-0.0077,0.1422-0.017,0.1592,0.0093c0.4407,0.7344,1.0004,0.068,1.4936,0.1283c0.5597,0.068,1.0993,0.1794,1.6513,0.1531
				c1.4704-0.068,2.9455-0.2134,4.4252-0.2551c0.3278-0.0186,0.6649,0.2474,1.0189,0.3324c0.2458,0.034,0.535,0,0.7808-0.0263
				c0.2056-0.017,0.3865-0.0758,0.5814-0.102v0.6231c0.5133-0.0093,1.0097,0,1.523-0.0433c0.436-0.0247,0.8751-0.1191,1.005,0.5041
				c0.0046,0.085,0.1855,0.1701,0.3015,0.2041c1.2648,0.3324,2.2435,1.1519,3.3305,1.792c0.0479,0.017,0.0603,0.102,0.0773,0.1701
				c-0.0943,0.0603-0.1732,0.0866-0.2505,0.1113c-0.5953,0.2134-0.6339,0.3757-0.2845,0.8535
				c0.2598,0.3587,0.2598,1.0576-0.0387,1.339c-0.099,0.1036-0.3108,0.1206-0.4747,0.1036c-0.7236-0.068-1.3715,0.034-1.9884,0.4948
				c-0.3062,0.2304-0.8411,0.1964-1.2601,0.1623c-0.4824-0.0263-0.8705,0-1.2756,0.3154c-0.5396,0.4005-2.1739,0.2474-2.8048-0.1794
				c-0.1639-0.102-0.3958-0.1453-0.603-0.1964c-0.2845-0.068-0.5613-0.1453-0.8411-0.2134
				c-0.0557-0.0093-0.099-0.0603-0.1469-0.0603c-0.7592,0.017-1.5354,0.0093-2.2775,0.0773
				c-0.1732,0.0093-0.3448,0.2907-0.4623,0.4778c-0.1546,0.2134-0.1886,0.4948-0.3695,0.6834
				c-0.8628,0.9725-0.7685,2.2265-0.9324,3.3861c-0.1422,1.0251,0.0216,2.0904-0.0263,3.1403
				c-0.0263,1.1102-0.1639,2.2095-0.1902,3.3274c-0.051,2.1337-0.0603,4.2922-0.0819,6.443c0,0.1531,0.0216,0.3402-0.0464,0.4345
				c-0.5133,0.7422-0.4144,1.5957-0.487,2.3981c-0.1392,1.7147-0.3804,3.3954-0.552,5.1024
				c-0.1732,1.5446-0.2768,3.097-0.4577,4.6664c-0.017,0.2737-0.1562,0.5551-0.2598,0.8117
				c-0.0294,0.1098-0.1469,0.1871-0.1639,0.2984c-0.0464,0.4685-0.0649,0.9293-0.1546,1.3823
				c-0.017,0.1701-0.1902,0.3061-0.2799,0.4685C-69.6807,397.0065-69.724,396.9895-69.7457,396.9725"/>
			<g id="XMLID_343_">
				<path id="XMLID_362_" d="M-107.1272,420.2481c0.7528-0.6115,1.544-0.9115,2.4233-1.0624
					c0.4031-0.0785,0.8084-0.2886,1.181-0.5008c0.6612-0.3898,1.3511-0.707,2.0792-0.9307
					c0.4701-0.1432,0.9096-0.1051,1.3722,0.1014c0.3839,0.172,0.8389,0.2006,1.2344,0.3229
					c0.6689,0.216,1.3186,0.4779,1.9818,0.7072c0.1395,0.0438,0.3,0.0438,0.535,0.0726c0.3994,0.5158,0.8372,1.1178,1.2824,1.6969
					c0.7205,0.929,0.8791,2.0315,1.0109,3.1399c0.0937,0.7569,0.111,1.5194,0.1607,2.2761c0.0114,0.1836-0.017,0.3728-0.017,0.5505
					c0,0.5791-0.0558,1.1638,0.0112,1.7256c0.1528,1.1753-0.0497,2.299-0.3286,3.4133c-0.0708,0.2941-0.1912,0.5847-0.2886,0.8675
					c-0.0783,0.2065-0.2446,0.235-0.4014,0.1395c-0.1299-0.0841-0.2157-0.2331-0.3325-0.3517
					c-0.2119-0.2158-0.4051-0.4892-0.6632-0.6229c-0.7452-0.3994-1.1025-1.0301-1.2192-1.8137
					c-0.0937-0.5847-0.1452-1.181-0.1949-1.7716c-0.0994-1.246-0.1892-2.4976-0.2677-3.7514
					c-0.0382-0.5791-0.1605-1.135-0.4031-1.6683c-0.2562-0.5522-0.3841-1.1581-0.707-1.6931
					c-0.2025-0.3403-0.4014-0.6115-0.7567-0.7626c-1.0931-0.4624-2.2074-0.6288-3.3655-0.2331
					c-0.3115,0.1051-0.6401,0.1489-0.9573,0.2387c-0.1912,0.0612-0.3861,0.1395-0.5675,0.2389
					c-0.3671,0.2065-0.7338,0.4338-1.1029,0.6632c-0.1605,0.0994-0.3172,0.1949-0.4605,0.3172
					c-0.2446,0.2006-0.3517,0.4395-0.2065,0.7624c0.0785,0.172,0.1223,0.3497,0.1892,0.5237
					c0.3785,0.9517,0.5791,1.9301,0.5562,2.9546c-0.0153,0.4338-0.0211,0.8695,0.0057,1.2976
					c0.0248,0.3669,0.0554,0.7452,0.172,1.0855c0.3153,0.8522,0.0346,1.6147-0.2771,2.3773
					c-0.0057,0.0209-0.0115,0.0497-0.0286,0.0554c-0.6174,0.3344-0.3841,0.8677-0.3327,1.3626
					c0.0613,0.5695-0.1509,0.753-0.7106,0.6192c-0.1914-0.0497-0.3978-0.0955-0.6004-0.0898
					c-0.3458,0.0057-0.5943-0.128-0.7415-0.4395c-0.1853-0.3785-0.4777-0.6957-0.3382-1.2021
					c0.063-0.2331-0.1491-0.5407-0.2104-0.8158c-0.189-0.8256-0.4108-1.634-0.5503-2.4634
					c-0.1339-0.8295-0.1949-1.6704-0.2887-2.5035c-0.1088-0.7855-0.4127-1.4926-0.9019-2.1213
					c-0.3096-0.4186-0.6268-0.7969-1.1006-1.0473c-0.392-0.2063-0.7761-0.3726-1.229-0.3115
					c-0.5429,0.0785-1.1008,0.1395-1.6513,0.2446c-0.411,0.0842-0.5178,0.2446-0.5734,0.6861
					c-0.2121,1.9092-0.2943,3.8127-0.3113,5.7352c-0.0115,1.1657-0.1932,2.3295-0.281,3.5049
					c-0.0284,0.3556-0.0172,0.7338-0.0172,1.1008c-0.0057,0.1681,0.0364,0.3344,0.0116,0.4969
					c-0.0305,0.4051-0.1969,0.5505-0.602,0.5065c-0.1339-0.0115-0.2867-0.0726-0.4243-0.0669
					c-0.7855,0.044-1.1581-0.4452-1.3417-1.1084c-0.2006-0.707-0.3898-1.4256-0.4853-2.1595
					c-0.1663-1.3245-0.2522-2.6544-0.3669-3.9921c-0.0076-0.172,0.0726-0.3613,0.0667-0.5505
					c-0.0342-0.9403-0.0342-1.8863-0.1335-2.8227c-0.1569-1.418-0.3558-2.8207-0.3346-4.2463
					c0.0133-0.535-0.0689-1.0626,0.0763-1.5861c0.0613-0.218,0.1415-0.4338,0.1683-0.6517
					c0.0421-0.2389,0.1012-0.5008,0.0362-0.7129c-0.2616-0.7624,0.0192-1.3912,0.4759-1.936
					c0.3726-0.4452,0.9192-0.407,1.4237-0.3172c0.281,0.0556,0.5466,0.1779,0.8143,0.3002
					c0.9517,0.4337,1.4217,1.2861,1.3702,2.4708c-0.0116,0.2333-0.0556,0.4511-0.065,0.6843
					c-0.0135,0.4681,0.0916,0.5732,0.5712,0.5904c0.3096,0.0057,0.6231,0.0172,0.9292-0.0114
					c1.3871-0.1223,2.6963,0.2464,3.9941,0.6458c0.5865,0.1892,1.0661,0.5237,1.4062,1.053
					C-107.5667,419.7207-107.3566,419.9481-107.1272,420.2481"/>
				<path id="XMLID_361_" d="M1.9564,430.8966c-0.1644,0.046-0.3039,0.0785-0.4683,0.1223
					c-0.1107-0.1223-0.2389-0.2656-0.4147-0.4661c-0.3669,0.6344,0.0669,1.1522,0.1932,1.7256
					c-0.4818-0.1014-0.6327-0.4299-0.7722-0.6957c-0.172-0.3458-0.2826-0.7127-0.5237-1.0299
					c-0.1472-0.2008-0.1834-0.5008-0.2331-0.7626c-0.1775-0.9745-0.3-1.9646-0.4166-2.9563
					c-0.0765-0.6231,0.0573-1.2135-0.0344-1.8194c-0.0229-0.1452-0.0842-0.2906-0.128-0.4299
					c-0.0192-0.0556-0.0935-0.1053-0.0935-0.1548c0.0151-0.4626,0.0515-0.925,0.0822-1.3855
					c0.017-0.2237,0.0861-0.4473,0.0552-0.6689c-0.0916-0.6174,0.0479-1.1965,0.2716-1.7507
					c0.2331-0.581,0.3249-1.183,0.3744-1.7945c0.0229-0.2294,0.0554-0.474,0.1683-0.6517c0.2331-0.3783,0.2503-0.7969,0.256-1.1963
					c0.002-0.753,0.2217-1.4601,0.4225-2.171c0.0554-0.2121,0.1051-0.4299,0.1337-0.6517c0.0669-0.4567,0.172-0.9192,0.2274-1.3759
					c0.0783-0.6059,0.1511-1.2346-0.2045-1.8078c-0.0611-0.0898-0.0955-0.2065-0.1507-0.3288
					c0.0896-0.0288,0.1507-0.0554,0.2061-0.0497c0.5065,0.0726,0.5448,0.0497,0.6708-0.4339c0.063-0.256,0.128-0.5121,0.1969-0.7683
					c0.4511,0.0211,0.516,0.3994,0.7188,0.6785c0.0877-0.0286,0.1718-0.0554,0.2883-0.1012c0.0957,0.107,0.1836,0.2407,0.302,0.3401
					c0.1892,0.1509,0.2333,0.3172,0.2045,0.5466c-0.0325,0.2217-0.0153,0.4511-0.0325,0.6785
					c-0.0229,0.3401,0.134,0.5618,0.411,0.7511c0.7471,0.5063,1.1125,1.5804,0.8293,2.4614
					c-0.1681,0.0266-0.344,0.0497-0.5828,0.0726c-0.0765,0.4663-0.1644,0.946-0.2237,1.4293
					c-0.0687,0.4683-0.1166,0.929-0.1509,1.4027c-0.0153,0.3002,0,0.6078-0.0076,0.9078c-0.0249,0.7338-0.0479,1.4753-0.0861,2.2092
					c-0.0552,1.0626-0.1166,2.1329-0.2065,3.1896c-0.0382,0.4683-0.1337,0.925-0.2006,1.3912
					c-0.0325,0.2008-0.0994,0.4129-0.0726,0.6078c0.0898,0.5389-0.1166,1.0454-0.1548,1.5747
					c-0.0288,0.2943-0.1014,0.6172-0.4452,0.7567c-0.0479,0.0229-0.1339,0.0955-0.1223,0.1166
					c0.1337,0.407-0.3344,0.7184-0.153,1.1695c0.0994,0.2503-0.0401,0.5963-0.0706,0.8963
					C2.0079,430.6138,1.9774,430.7533,1.9564,430.8966"/>
				<path id="XMLID_352_" d="M-84.0358,420.7947c-0.0667,0.1282-0.1051,0.2771-0.1949,0.3728
					c-0.5389,0.6401-0.7798,1.3969-0.9021,2.1976c-0.1106,0.6861-0.2769,1.3875-0.2636,2.0773
					c0.019,0.9804-0.2599,1.9704,0.0421,2.945c0.2885,0.9115,0.6002,1.8137,1.374,2.4385c0.5562,0.4491,1.1466,0.8618,1.7372,1.2728
					c0.3192,0.2237,0.6593,0.4127,0.9689,0.6918c-0.3153-0.0573-0.6286-0.1127-0.9515-0.1681
					c-0.0174,0.0401-0.0231,0.0669-0.0346,0.107c0.2906,0.1223,0.608,0.2102,0.8697,0.3783
					c0.6133,0.3937,1.2536,0.3994,1.9473,0.3172c0.4166-0.0497,0.8466,0.044,1.2765,0.0669c0.2982,0.0057,0.5943,0,0.9059-0.0955
					c-0.6573-0.0879-1.309-0.172-1.9646-0.2675c0-0.0211-0.0057-0.0497-0.0116-0.0765c0.69-0.2407,1.3798-0.5294,2.0984-0.6918
					c0.7243-0.1663,1.3186-0.6,2.0258-0.8237c-0.2446,0.5734-0.7338,0.8141-1.353,1.053c0.1566,0.0879,0.235,0.1661,0.3286,0.1892
					c0.3612,0.0726,0.7262,0.1108,1.0896,0.1777c0.3552,0.0611,0.6724,0.2063,1.0757,0.0955
					c0.2618-0.0726,0.6133,0.1434,0.9689,0.2503c-0.1223,0.1663-0.2065,0.2658-0.3556,0.4663
					c0.3251,0.046,0.5697,0.0841,0.862,0.1166c-0.3554,0.3802-0.6957,0.7243-1.0301,1.0644
					c-0.0172,0.0153-0.0325,0.0384-0.0552,0.0384c-0.3346,0.0554-0.7761,0.0057-0.9749,0.2006
					c-0.2751,0.2847-0.556,0.2943-0.8751,0.3288c-0.9383,0.1051-1.8882,0.1777-2.815,0.3401
					c-1.2957,0.2274-2.536,0.0765-3.7687-0.3229c-0.4108-0.1339-0.8389-0.2121-1.2268-0.4014
					c-1.6665-0.7798-2.9297-2.0047-3.9407-3.5297c-0.3229-0.5064-0.7147-0.9575-0.9153-1.5309
					c-0.111-0.3-0.3021-0.5884-0.3671-0.9019c-0.2904-1.2517-0.6211-2.4978-0.5217-3.7839c0.0748-0.9364,0.3039-1.8595,0.537-2.7786
					c0.346-1.3798,0.8791-2.6984,1.4428-4.0076c0.2446-0.5732,0.5333-1.0912,0.9575-1.5517c0.2141-0.235,0.344-0.5581,0.4663-0.8581
					c0.1949-0.4836,0.5522-0.7129,1.0033-0.5065c0.4223,0.1949,0.772,0.1605,1.1771-0.0115
					c0.625-0.2616,1.2824-0.4395,1.9207-0.6841c1.1065-0.4184,2.2053-0.3669,3.3213-0.017
					c0.5601,0.1624,1.1276,0.3783,1.7468,0.2503c0.0822-0.0211,0.2045,0.0229,0.2887,0.0669
					c0.8791,0.4949,1.8479,0.8064,2.628,1.4695c0.1106,0.1014,0.2329,0.1779,0.3284,0.2847
					c1.4047,1.592,2.6051,3.3006,3.0501,5.4313c0.2066,0.9977,0.1777,2.0047,0.0192,3.0062
					c-0.0861,0.5178-0.3401,0.8237-0.9192,0.9076c-0.6057,0.0842-1.1791,0.3613-1.7869,0.4683
					c-0.6652,0.1223-1.3436,0.1432-2.0201,0.2102c-0.8924,0.0955-1.7276-0.2655-2.6047-0.3612
					c-0.7759-0.084-1.5325-0.2732-2.3239-0.0667c-0.1836,0.0497-0.4127-0.0059-0.5961-0.0669
					c-0.5908-0.1892-1.1679-0.4223-1.7526-0.6172c-0.3076-0.0957-0.6344-0.1511-0.9517-0.2237
					c-0.1147-0.0268-0.2466-0.0268-0.3632-0.0879c-0.8008-0.3841-1.2746-1.9035-0.8293-2.7941h1.1524
					c0.0057-0.0458,0.017-0.0839,0.0229-0.1184c-0.2389-0.1166-0.4855-0.2274-0.7663-0.3669
					c0.2407-0.3172,0.5158-0.518,0.8599-0.6059c0.1339-0.0344,0.2867-0.0554,0.4245-0.0286
					c0.411,0.1051,0.8063,0.2446,1.1884,0.3573c0.5524-0.4452,1.1219-0.2904,1.5939-0.0229
					c0.8466,0.4777,1.7505,0.6401,2.6965,0.7892c1.1104,0.1796,2.1865,0.5581,3.2757,0.8466
					c0.2904,0.0841,0.5732,0.174,0.9057,0.2734c0.0937-0.4014,0-0.6957-0.1509-0.9575c-0.6536-1.1466-1.2996-2.2857-2.2953-3.1953
					c-0.4567-0.4166-0.9076-0.8237-1.4428-1.1352c-1.0853-0.646-2.3066-0.7014-3.5009-0.8638
					c-0.1415-0.0096-0.3113-0.0057-0.4282,0.0593c-0.7243,0.409-1.5804,0.5867-2.165,1.2499
					c-0.0366,0.0325-0.0957,0.0611-0.1951,0.128c0.0172-0.2333,0.0307-0.4223,0.0534-0.6689
					c-0.7491,0.2407-1.3014,0.6344-1.7237,1.202c-0.3401,0.4415-0.6517,0.9021-1.0186,1.4199
					c-0.0804-0.1949-0.1395-0.3229-0.2027-0.472c-1.0796,0.711-1.2078,1.8747-1.4789,2.9603
					c0.189-0.902,0.9247-1.4295,1.4732-2.2646c0.0994,0.4051,0.153,0.6554-0.0706,0.9059c-0.0669,0.063-0.1587,0.1701-0.1319,0.2407
					c0.1319,0.7014-0.3039,1.2632-0.4376,1.8976c-0.1472,0.7072-0.2636,1.3742-0.1319,2.0984
					c0.0955,0.4796-0.0211,0.9804-0.0495,1.5194c0.0763-0.0153,0.1566-0.0325,0.2789-0.0612
					c0.2675,0.7358,0.5313,1.4753,0.8466,2.3221c0.0763-0.1951,0.1681-0.3059,0.1528-0.39
					c-0.0918-0.4395-0.2065-0.8791-0.3153-1.3186c-0.0364-0.1395-0.1166-0.2732-0.1166-0.4127
					c0.0057-1.0742-0.3172-2.1595-0.0669-3.2775c-0.1568,0.2503-0.3209,0.5102-0.4816,0.7663
					c-0.0305-0.0096-0.0552-0.0211-0.0783-0.0211c0.128-0.5522,0.2198-1.1141,0.409-1.6415
					c0.235-0.6307,0.5847-1.2137,0.8237-1.8442c0.2562-0.6556,0.7434-1.0683,1.3149-1.4066L-84.0358,420.7947z M-87.7395,426.7287
					c-0.0342,0.0879-0.0593,0.128-0.0534,0.1605c0.2063,0.8294,0.4031,1.6646,0.6458,2.4824
					c0.0975,0.346,0.2198,0.7301,0.6976,0.9632c-0.1548-0.3172-0.3192-0.5389-0.3785-0.7853
					c-0.1337-0.5677-0.2751-1.1505-0.298-1.7411C-87.1471,427.323-87.3477,427.0171-87.7395,426.7287 M-85.1499,430.7533
					c-0.1053,0.3937,0.2293,0.472,0.3957,0.6556c0.1699,0.1834,0.3342,0.4299,0.6763,0.4395
					C-84.4429,431.4643-84.7812,431.1259-85.1499,430.7533 M-76.3095,433.274c0.5677,0.2121,1.0205,0.1834,1.4143,0H-76.3095z
					 M-72.1203,424.9303c-0.0421-0.0438-0.0898-0.0783-0.1434-0.1223c-0.1337,0.1777-0.2714,0.344-0.409,0.5237
					c0.0307,0.0209,0.0536,0.044,0.0785,0.0669C-72.4377,425.2361-72.2733,425.0907-72.1203,424.9303 M-73.5821,433.6085
					c-0.3002-0.1777-0.3499-0.0057-0.4951,0.256C-73.8385,433.748-73.7046,433.6754-73.5821,433.6085 M-82.6924,432.9071
					c-0.0192,0.0209-0.0247,0.0497-0.0458,0.0822c0.063,0.0515,0.128,0.0955,0.1836,0.1452
					c0.0323-0.0382,0.0667-0.0822,0.0877-0.1223C-82.5376,432.9797-82.6102,432.9396-82.6924,432.9071 M-86.2297,429.104
					c-0.0612-0.0497-0.107-0.0822-0.1472-0.1164c-0.0192,0.0286-0.0669,0.0667-0.0613,0.0898
					c0.0192,0.0495,0.0613,0.0935,0.0861,0.1452C-86.3158,429.1882-86.2851,429.1613-86.2297,429.104"/>
				<path id="XMLID_348_" d="M-50.6437,423.132c0.0556-0.1892,0.107-0.3403,0.1566-0.5121c-0.101-0.0115-0.1757-0.044-0.2063-0.0231
					c-0.365,0.2065-0.7626,0.39-1.0818,0.6575c-0.3515,0.3057-0.7319,0.5254-1.1675,0.663
					c-0.0881,0.0211-0.1718,0.0881-0.3059,0.1607c0.111,0.0955,0.1836,0.1566,0.2618,0.2293
					c-0.0325,0.0438-0.0554,0.1051-0.0937,0.1337c-0.4012,0.2503-0.7988,0.4836-1.1886,0.7511
					c-0.1012,0.0669-0.1184,0.2523-0.2006,0.3554c-0.4491,0.5237-0.9996,0.8849-1.6513,1.1086
					c-0.128,0.0438-0.2522,0.1051-0.3497,0.189c-0.3765,0.2887-0.7376,0.5906-1.1027,0.8906
					c-0.1356,0.111-0.3342,0.1892-0.2274,0.472c0.6976-0.0554,1.4104-0.1108,2.1252-0.1605
					c0.4243-0.0268,0.8542-0.0554,1.288-0.0554c0.4203,0,0.8256,0.0382,1.2499-0.0401c0.5123-0.0937,1.0528,0.0114,1.571,0.0229
					c0.2521,0.0172,0.5023-0.0057,0.7339,0.0458c0.1947,0.0497,0.3763,0.172,0.6209,0.2887
					c0.3477-0.2065,0.7665-0.4223,1.2689-0.2274c0.4127,0.1605,0.8581,0.2828,1.2499,0.4892
					c0.4147,0.2159,0.5618,0.6517,0.6517,1.1695c-0.1683,0.0554-0.3477,0.1262-0.5291,0.1777
					c-0.3288,0.0881-0.6671,0.1663-0.9998,0.2505c-0.2213,0.0554-0.4031,0.3229-0.6765,0.1489
					c-0.0325-0.0209-0.0935-0.0153-0.1221,0.0172c-0.3288,0.3517-0.8121,0.0975-1.162,0.2734
					c-0.4129,0.2006-0.8256,0.1949-1.2556,0.2121c-0.1816,0-0.3479,0.0994-0.5313,0.1376c-0.4738,0.0898-0.925,0.2618-1.4372,0.1892
					c-0.3-0.044-0.6268,0.1337-0.9344,0.2235c-1.0245,0.283-2.0982,0.2121-3.1266,0.4395
					c-0.1585,0.0384-0.3305,0.0728-0.4644,0.1644c-0.2215,0.1299-0.4166,0.2581-0.6517,0.0192
					c-0.0325-0.0325-0.1223-0.0382-0.1777-0.0192c-0.6211,0.153-1.2098-0.0859-1.8137-0.1585
					c-0.0822-0.0115-0.1796-0.0229-0.2407,0.0114c-0.7511,0.4014-1.592,0.3497-2.3851,0.4951
					c-0.5599,0.1108-1.0816,0.3726-1.5937,0.6172c-0.4683,0.2198-0.9002,0.4969-1.2174,0.6802
					c-0.5695-0.1223-1.0205-0.2178-1.483-0.3113c0-0.0344,0.044-0.174-0.0057-0.2562c-0.1491-0.2562-0.0172-0.4127,0.1339-0.5904
					c0.2505-0.2906,0.189-0.7186-0.1282-0.9614c-0.0898-0.0744-0.2178-0.1068-0.3-0.2198c0.4341-0.2331,0.6288-0.472,0.6842-0.8904
					c0.0286-0.1951,0.3229-0.3612,0.5293-0.5123c0.1605-0.3-0.1509-0.7338,0.2656-0.9841c0.755,0.3669,1.4315,0.2446,2.0603-0.2675
					c0.1337-0.1223,0.2904-0.2562,0.4567-0.2886c0.3898-0.0669,0.6229-0.2235,0.5006-0.6517
					c0.2352-0.0669,0.407-0.0726,0.5832-0.1624c0.7393-0.3382,1.3489-0.8562,1.9949-1.3186c0.1528-0.111,0.371-0.128,0.6421-0.2121
					c0.2123-0.4567,0.6957-0.7014,1.2385-0.8791c0.1225-0.0325,0.2235-0.1395,0.3325-0.2274
					c0.1129-0.0957,0.2254-0.2121,0.3421-0.3135c0.0822-0.0611,0.2025-0.0994,0.2331-0.1777
					c0.2847-0.7282,0.9499-1.0511,1.5289-1.4697c0.6706-0.4777,1.2155-1.0567,1.7276-1.6914
					c0.4147-0.5121,0.4567-1.1867,0.9573-1.6988c-0.1908-0.0382-0.3209-0.0994-0.4432-0.0994
					c-0.753,0.0344-1.5002-0.0325-2.2321,0.2293c-0.3383,0.1223-0.7397,0.0497-1.0951,0.126
					c-0.6497,0.1624-1.3282,0.1624-1.9513,0.4358c-0.193,0.0879-0.4624,0.0116-0.7969,0.0116
					c-0.3076,0.2884-0.7798,0.3669-1.292,0.1986c-0.4526-0.1548-0.8982-0.128-1.3509,0.1511
					c-0.1493-0.1836-0.2869-0.3344-0.4129-0.4875c-0.1836-0.2311-0.39-0.4203-0.7072-0.4528
					c-0.1108-0.0115-0.2331-0.0783-0.3057-0.1509c-0.5618-0.6115-1.1237-1.2403-1.6759-1.8653
					c-0.2638-0.2885-0.153-0.9669,0.1929-1.1562c0.1644-0.0842,0.344-0.2006,0.5121-0.2065
					c0.7701-0.0114,1.5383-0.2789,2.3066,0.0172c0.065,0.0268,0.1528,0.0039,0.2331-0.0057
					c0.9843-0.1568,1.9628-0.3076,2.9679-0.3229c0.7742-0.0231,1.5368-0.2677,2.3162-0.3689
					c0.644-0.0879,1.3301-0.2409,1.9532-0.1434c0.5904,0.0994,1.1581-0.0667,1.7333,0.0059
					c0.6039,0.0822,1.2174,0.1777,1.8174,0.2712c0.3233,0.0556,0.6652,0.0841,0.9632,0.1892
					c0.4626,0.1528,0.9288,0.3288,1.3493,0.5734c0.3286,0.1892,0.1929,0.5579,0.1147,0.8466
					c-0.0785,0.3-0.1339,0.5734-0.0994,0.9019c0.0554,0.4072,0.2006,0.7186,0.5542,0.9021
					c0.2808,0.1491,0.3554,0.3286,0.2294,0.6517c-0.128,0.3497-0.1775,0.7166-0.428,1.0511
					c-0.1605,0.2178-0.1491,0.5791-0.2333,0.8791c-0.1166,0.4358-0.2389,0.8697-0.365,1.3033
					C-50.275,423.2275-50.4238,423.2371-50.6437,423.132 M-49.2888,429.406c0.0822,0.2505,0.1546,0.4454,0.254,0.7166
					c0.2695-0.3268,0.4644-0.5771,0.774-0.9401C-48.6582,429.2664-48.9124,429.322-49.2888,429.406 M-48.0905,429.4232
					c0.3076-0.1184,0.5311-0.2065,0.7929-0.3076C-47.804,428.8594-47.8459,428.8766-48.0905,429.4232"/>
				<path id="XMLID_345_" d="M-4.1189,432.7294c-0.3689,0.0209-0.707,0.0325-1.0415,0.0667
					c-0.1816,0.0211-0.3728,0.0669-0.5313,0.1491c-0.5773,0.3344-1.0855,0.107-1.5595-0.2006
					c-0.9098-0.5791-1.6606-1.3358-2.4098-2.1098c-0.3288-0.344-0.5313-0.7454-0.5906-1.1906
					c-0.063-0.4836-0.344-0.8123-0.6059-1.2804c-0.2045,0.128-0.3765,0.2446-0.5579,0.3573
					c-0.2409,0.1376-0.4969,0.2656-0.7321,0.4223c-0.1834,0.1108-0.384,0.2331-0.5446,0.3785
					c-0.2272,0.2006-0.4031,0.3172-0.7607,0.2006c-0.4548-0.1568-0.965-0.2178-1.4485-0.2065
					c-0.4203,0.0059-0.8581,0.107-1.0702,0.5906c-0.0859,0.2065-0.2771,0.3554-0.3822,0.5562
					c-0.3209,0.6841-0.902,0.6076-1.4734,0.5065c-0.7702-0.1339-1.5231-0.3059-2.2742-0.5065
					c-0.2333-0.0669-0.4395-0.2677-0.6517-0.4225c-0.216-0.1509-0.4051-0.3726-0.6419-0.4509
					c-0.4207-0.1395-0.7608-0.3841-1.1105-0.6288c-0.7511-0.5121-1.2021-1.225-1.5976-2.0372
					c-0.3765-0.774-0.4757-1.5824-0.5734-2.3775c-0.1051-0.7681,0.0497-1.5593,0.3726-2.2875
					c0.774-1.7753,1.9207-3.2966,3.2068-4.7146c0.6728-0.7454,1.4027-1.4485,2.106-2.1595c0.2063-0.2008,0.4454-0.3573,0.665-0.5581
					c0.3881-0.3497,0.7798-0.7014,1.1524-1.0683c0.5579-0.5178,1.2174-0.472,1.8575-0.3172
					c0.365,0.0957,0.8045,0.1339,1.0033,0.6135c0.09,0.193,0.4051,0.3115,0.6325,0.4339c0.3155,0.172,0.6423,0.3726,0.9804,0.4509
					c0.5945,0.1607,1.0149,0.5389,1.4333,0.9346c0.2045,0.1949,0.3669,0.4452,0.7014,0.4567
					c0.1051,0.0113,0.2313,0.1031,0.3019,0.2006c0.5027,0.646,1.1775,1.162,1.4677,1.9646c0.0556,0.1339,0.1836,0.283,0.3172,0.344
					c0.8886,0.4624,0.9518,1.2861,0.9595,2.1213c0.0057,0.3288-0.019,0.6517-0.046,0.9804
					c-0.0532,0.4834-0.1071,0.9785-0.1585,1.4697c-0.0879,0.835-0.1988,1.6702-0.2771,2.5033
					c-0.0746,0.7417-0.0689,1.4697,0.0726,2.2055c0.1892,0.9841,0.6327,1.8041,1.4372,2.4213
					c0.5849,0.4452,1.1963,0.7855,1.9626,0.8008c0.4188,0.0057,0.4777,0.1184,0.4663,0.5466
					C-4.0674,432.1331-4.0883,432.3778-4.1189,432.7294 M-17.7254,427.3019c0.2023,0.0726,0.4125,0.1548,0.6246,0.216
					c0.1053,0.0401,0.2389,0.0842,0.346,0.0554c0.6918-0.1605,1.3835-0.3172,2.0581-0.5333
					c0.6746-0.2063,1.2843-0.5407,1.7984-1.0415c0.8082-0.7624,1.3969-1.6702,1.8593-2.6544
					c0.4683-0.9861,0.3575-1.9877-0.1605-2.9125c-0.4912-0.8849-1.2423-1.5346-2.1078-2.0372
					c-0.9442-0.5389-1.8902-0.9785-2.9354-0.1282c-0.7245,0.5963-1.5309,1.0855-2.2857,1.6436
					c-0.4759,0.3612-0.8522,0.8505-1.4828,0.9669c-0.0787,0.0172-0.1569,0.1299-0.2123,0.218
					c-0.2333,0.3249-0.4949,0.6517-0.6898,1.0127c-0.2943,0.518-0.5409,1.0683-0.5295,1.6875
					c0.0155,0.8963-0.1221,1.7927,0.1225,2.6984c0.0611,0.218,0.1489,0.3748,0.2675,0.5677
					c0.3286,0.5121,0.9135,0.5791,1.353,0.8867c0.1759,0.1223,0.3955,0.216,0.6019,0.2503
					C-18.3755,428.2862-18.06,428.0758-17.7254,427.3019"/>
				<path id="XMLID_344_" d="M-28.1525,429.2989c0.2638,0.2505,0.2581,0.474,0.1701,0.7245
					c-0.2178,0.6115-0.5847,1.1237-1.2419,1.2364c-0.5832,0.0994-1.0379,0.4567-1.5978,0.5791
					c-0.4282,0.0879-0.8677,0.1663-1.3072,0.2599c-0.1339,0.0288-0.2789,0.0573-0.4127,0.107
					c-0.7033,0.2562-1.4295,0.2562-2.2092,0.0554c-0.0937,0.1548-0.1951,0.3288-0.3288,0.5446
					c-0.8618,0.0842-1.7563,0.1949-2.5818-0.3268c-0.1395-0.0898-0.3231-0.1796-0.4626-0.1566
					c-0.4223,0.0898-0.709-0.1395-0.9957-0.3728c-0.4969-0.4243-1.0587-0.7796-1.4426-1.3301
					c-0.4779-0.6802-0.7702-1.4141-0.8869-2.2607c-0.1757-1.292-0.0534-2.5495,0.2695-3.7859
					c0.1949-0.7454,0.4014-1.4849,0.6115-2.2321c0.0288-0.0994,0.0612-0.1988,0.1127-0.2943
					c0.4166-0.7567,0.7567-1.5747,1.2652-2.2589c0.5427-0.7243,1.1886-1.3931,1.9951-1.8824
					c0.7491-0.4511,1.4544-0.9747,2.171-1.4697c0.3573-0.2446,0.6994-0.5121,1.0587-0.7454
					c0.4395-0.2847,0.9479-0.3401,1.464-0.3515c0.3955-0.0059,0.7892-0.0612,1.1963,0.0114c0.4892,0.0783,0.8677,0.3957,1.225,0.646
					c0.2618,0.1949,0.344,0.6841,0.428,1.0567c0.0842,0.3517,0.1339,0.7186-0.0609,1.0798c-0.1894,0.363-0.4168,0.6307-0.8526,0.753
					c-0.5006,0.1337-0.9881,0.4566-1.5019,0.5063c-0.6231,0.0556-1.1411,0.3002-1.6284,0.6115
					c-0.7759,0.4855-1.5841,0.9804-2.234,1.6207c-0.6382,0.6401-1.116,1.4466-1.6587,2.192
					c-0.0612,0.0955-0.0612,0.235-0.1014,0.3517c-0.0421,0.1395-0.0611,0.2943-0.1509,0.3955
					c-0.8123,0.8618-1.009,1.9417-1.1162,3.0557c-0.0094,0.1454-0.0094,0.2887,0.0364,0.4166
					c0.1243,0.3765,0.3288,0.7129,0.407,1.0798c0.1452,0.6573,0.5734,0.9746,1.1466,1.1753
					c0.6595,0.2446,1.3301,0.3898,2.0487,0.3898c0.3785,0,0.755,0.0325,1.1409,0.1339c0.3288,0.082,0.7397-0.1129,1.1182-0.1796
					c0.7241-0.111,1.4542-0.2562,2.1861-0.3174c0.3442-0.0325,0.6841-0.0076,0.9881-0.2043
					c0.0268-0.0288,0.0669-0.0517,0.1108-0.0517C-29.1824,429.924-28.5672,429.8341-28.1525,429.2989"/>
			</g>
		</g>
	</g>
</g>
</svg>
