<?xml version="1.0" encoding="utf-8"?>
<!-- Generator: Adobe Illustrator 19.0.0, SVG Export Plug-In . SVG Version: 6.00 Build 0)  -->
<svg version="1.1" id="paypal" xmlns="http://www.w3.org/2000/svg" xmlns:xlink="http://www.w3.org/1999/xlink" x="0px" y="0px"
	 viewBox="0 0 90.9956 22.078" enable-background="new 0 0 90.9956 22.078" xml:space="preserve">
<g id="XMLID_5100_">
	<g id="XMLID_5177_">
		<g id="XMLID_5178_">
			<g id="XMLID_5179_">
				<g id="XMLID_5180_">
					<path id="XMLID_5192_" fill="#A1A6AC" d="M70.0769,4.9361h-5.0038c-0.3426,0-0.6325,0.2491-0.6861,0.5878l-2.024,12.8302
						c-0.041,0.2529,0.1558,0.4829,0.4114,0.4829h2.5683c0.2389,0,0.4434-0.1738,0.4805-0.4115l0.5738-3.639
						c0.0536-0.3355,0.3437-0.5853,0.6861-0.5853h1.5844c3.2941,0,5.1954-1.5972,5.6938-4.7552
						c0.2249-1.3833,0.0077-2.4719-0.6389-3.2309C73.0118,5.382,71.7507,4.9361,70.0769,4.9361z M70.6531,9.6217
						c-0.2735,1.7966-1.6445,1.7966-2.9708,1.7966h-0.7551l0.529-3.3529c0.0331-0.2019,0.207-0.3501,0.4127-0.3501h0.3462
						c0.9022,0,1.7557,0,2.1953,0.5124C70.6735,8.5355,70.7528,8.9936,70.6531,9.6217z"/>
					<path id="XMLID_5189_" fill="#FFFFFF" d="M34.3898,4.9361H29.386c-0.3412,0-0.6325,0.2491-0.6863,0.5878l-2.0239,12.8302
						c-0.0396,0.2529,0.1571,0.4829,0.4127,0.4829h2.3895c0.3424,0,0.6325-0.2498,0.6861-0.5878l0.5456-3.4628
						c0.0536-0.3355,0.3449-0.5853,0.6875-0.5853h1.5818c3.2968,0,5.1994-1.5972,5.6964-4.7552
						c0.2223-1.3833,0.0076-2.4719-0.6389-3.2309C37.3248,5.382,36.0637,4.9361,34.3898,4.9361z M34.9673,9.6217
						c-0.2735,1.7966-1.6446,1.7966-2.9721,1.7966h-0.7539l0.529-3.3529c0.0319-0.2019,0.207-0.3501,0.4115-0.3501h0.3462
						c0.9034,0,1.757,0,2.1965,0.5124C34.9878,8.5355,35.0669,8.9936,34.9673,9.6217z"/>
					<path id="XMLID_5186_" fill="#FFFFFF" d="M49.3449,9.5655h-2.3972c-0.2044,0-0.3781,0.1494-0.4114,0.35l-0.1048,0.6721
						l-0.1673-0.2427c-0.5188-0.7539-1.6752-1.0044-2.8303-1.0044c-2.6476,0-4.9067,2.0048-5.3475,4.8178
						c-0.2287,1.4049,0.0958,2.7454,0.8905,3.6793c0.7322,0.8638,1.7762,1.2191,3.0182,1.2191c2.1338,0,3.317-1.3698,3.317-1.3698
						l-0.1073,0.667c-0.0396,0.2529,0.1558,0.4829,0.4127,0.4829h2.157c0.3424,0,0.6337-0.2498,0.6875-0.5878l1.2943-8.204
						C49.7973,9.7929,49.6005,9.5655,49.3449,9.5655z M46.006,14.2293c-0.2313,1.3685-1.3173,2.2885-2.7051,2.2885
						c-0.6939,0-1.2509-0.2261-1.6074-0.6478c-0.3552-0.4191-0.488-1.0164-0.3757-1.6841c0.2147-1.357,1.32-2.3051,2.6845-2.3051
						c0.6812,0,1.2331,0.2281,1.596,0.6542C45.9664,12.9643,46.1108,13.5649,46.006,14.2293z"/>
					<path id="XMLID_5183_" fill="#A1A6AC" d="M85.0307,9.5655h-2.3959c-0.2044,0-0.3794,0.1494-0.4114,0.35l-0.1048,0.6721
						l-0.1674-0.2427c-0.5201-0.7539-1.6752-1.0044-2.8316-1.0044c-2.645,0-4.9067,2.0048-5.3488,4.8178
						c-0.2274,1.4049,0.0984,2.7454,0.8931,3.6793c0.7322,0.8638,1.7749,1.2191,3.0182,1.2191c2.1326,0,3.3159-1.3698,3.3159-1.3698
						l-0.1048,0.667c-0.041,0.2529,0.1545,0.4829,0.4102,0.4829h2.1581c0.3424,0,0.6338-0.2498,0.6861-0.5878l1.2956-8.204
						C85.483,9.7929,85.2862,9.5655,85.0307,9.5655z M81.6931,14.2293c-0.2325,1.3685-1.3186,2.2885-2.7063,2.2885
						c-0.6939,0-1.2497-0.2261-1.6076-0.6478c-0.3551-0.4191-0.4881-1.0164-0.3757-1.6841c0.2172-1.357,1.32-2.3051,2.686-2.3051
						c0.6797,0,1.2318,0.2281,1.5972,0.6542C81.6535,12.9643,81.7979,13.5649,81.6931,14.2293z"/>
					<path id="XMLID_5182_" fill="#FFFFFF" d="M62.1061,9.5655h-2.4086c-0.23,0-0.4472,0.1149-0.5751,0.3041l-3.3221,4.8925
						l-1.4081-4.7009c-0.0869-0.2939-0.3579-0.4958-0.6657-0.4958h-2.3678c-0.2862,0-0.4869,0.2811-0.3961,0.5519l2.6526,7.7843
						l-2.4929,3.5189c-0.1956,0.2759,0.0012,0.6574,0.3398,0.6574h2.4061c0.2274,0,0.4395-0.1131,0.5711-0.2996l8.0091-11.5587
						C62.6402,9.9437,62.4421,9.5655,62.1061,9.5655z"/>
					<path id="XMLID_5181_" fill="#A1A6AC" d="M87.8546,5.2887l-2.0522,13.0653c-0.0408,0.2529,0.1547,0.4829,0.4115,0.4829h2.0648
						c0.3424,0,0.6338-0.2498,0.6875-0.5878l2.024-12.8302c0.0408-0.2517-0.156-0.4829-0.4115-0.4829h-2.3115
						C88.0616,4.9361,87.8878,5.0849,87.8546,5.2887z"/>
				</g>
			</g>
		</g>
	</g>
	<g id="XMLID_5101_">
		<path id="XMLID_5172_" fill="#A1A6AC" d="M16.8612,5.6094c0.2695-1.7173-0.0013-2.8853-0.9303-3.9451
			C14.9074,0.4984,13.0598,0,10.696,0H3.8342C3.3513,0,2.9386,0.3515,2.8644,0.828l-2.8571,18.119
			c-0.0561,0.3584,0.2198,0.6797,0.5802,0.6797h4.2371l-0.2914,1.8541c-0.0499,0.3143,0.1917,0.5973,0.5086,0.5973h3.5701
			c0.4242,0,0.7832-0.3085,0.8484-0.7257l0.0359-0.1821l0.6721-4.2653l0.0434-0.2351c0.0663-0.4178,0.4267-0.7251,0.8484-0.7251
			h0.5328c3.4602,0,6.1679-1.4036,6.9601-5.4683c0.3309-1.6994,0.1609-3.1165-0.7156-4.1131
			C17.5742,6.0618,17.2446,5.8113,16.8612,5.6094L16.8612,5.6094"/>
		<path id="XMLID_5168_" fill="#FFFFFF" d="M16.8612,5.6094c0.2695-1.7173-0.0013-2.8853-0.9303-3.9451
			C14.9074,0.4984,13.0598,0,10.696,0H3.8342C3.3513,0,2.9386,0.3515,2.8644,0.828l-2.8571,18.119
			c-0.0561,0.3584,0.2198,0.6797,0.5802,0.6797h4.2371l1.0643-6.7459l-0.0319,0.2126c0.0742-0.4778,0.4831-0.8305,0.966-0.8305
			h2.0125c3.9548,0,7.0508-1.6062,7.9555-6.2521C16.8178,5.8734,16.8408,5.7391,16.8612,5.6094"/>
		<path id="XMLID_5164_" fill="#FFFFFF" d="M7.0326,5.6325C7.076,5.345,7.2625,5.1099,7.5104,4.9911
			C7.6228,4.9361,7.748,4.9067,7.881,4.9067h5.3782c0.6376,0,1.2305,0.041,1.7748,0.1303c0.1547,0.023,0.3067,0.0525,0.4523,0.0844
			c0.1469,0.0344,0.2888,0.069,0.4281,0.1099c0.0676,0.0204,0.1366,0.0408,0.2031,0.0639c0.2659,0.0894,0.515,0.1929,0.7437,0.3143
			c0.2695-1.7173-0.0013-2.8853-0.9303-3.9451C14.9074,0.4984,13.0598,0,10.696,0H3.8342C3.3513,0,2.9386,0.3515,2.8644,0.828
			l-2.8571,18.119c-0.0561,0.3584,0.2198,0.6797,0.5802,0.6797h4.2371l1.0643-6.7459L7.0326,5.6325z"/>
	</g>
</g>
</svg>
