<?xml version="1.0" encoding="utf-8"?>
<!-- Generator: Adobe Illustrator 19.0.0, SVG Export Plug-In . SVG Version: 6.00 Build 0)  -->
<svg version="1.1" id="premium" xmlns="http://www.w3.org/2000/svg" xmlns:xlink="http://www.w3.org/1999/xlink" x="0px" y="0px"
	 viewBox="0 0 69.1667 102.7428" enable-background="new 0 0 69.1667 102.7428" xml:space="preserve">
<g id="XMLID_59_">
	<path id="XMLID_30_" fill-rule="evenodd" clip-rule="evenodd" fill="#3B3A3C" d="M1.9913,32.0326
		c-0.0472-0.1819-0.1483-0.3504-0.1011-0.4178c0.1145-0.1415,0.283-0.2493,0.4447-0.3572c0.1281-0.0876,0.3033-0.1145,0.4111-0.2224
		c0.8086-0.8154,1.597-1.651,2.3922-2.4663c0.5122-0.5121,1.0445-1.0108,1.5634-1.5229c0.465-0.4582,0.9097-0.9434,1.3747-1.3949
		c0.438-0.4313,0.9029-0.8356,1.3342-1.2669c0.3774-0.3841,0.7345-0.7817,1.0917-1.1927c0.6065-0.7076,1.186-1.4151,1.8598-2.0688
		c0.6806-0.6604,1.2669-1.4084,1.9003-2.1227c0.3302-0.3706,0.6671-0.7412,0.9905-1.1186c0.0876-0.0943,0.1483-0.2156,0.2089-0.3235
		c0.1752-0.2898,0.3774-0.31,0.6671-0.1213c0.5054,0.3167,0.8423,0.8019,1.2803,1.186c0.566,0.5054,1.0984,1.0445,1.6375,1.5836
		c0.5391,0.5324,1.0714,1.0849,1.6173,1.624c0.5526,0.5458,1.1119,1.0714,1.6645,1.6173c0.2561,0.2628,0.4919,0.5458,0.7413,0.8221
		c0.5256,0.5728,1.0647,1.1456,1.5971,1.7251c0.5121,0.566,1.0175,1.1388,1.5296,1.7049c0.6065,0.6739,1.2197,1.341,1.8464,1.9946
		c0.7345,0.7682,1.4825,1.5229,2.217,2.2844c0.0943,0.1011,0.155,0.2426,0.2089,0.3706c0.0943,0.2359-0.0337,0.31-0.2426,0.3167
		c-0.0337,0.0067-0.0741,0.0135-0.1482,0.0135c0.2156,0.2291,0.1213,0.3504-0.0741,0.5189
		c-0.4043,0.3504-0.7615,0.7413-1.1456,1.1119c-0.4313,0.4043-0.8693,0.7884-1.2938,1.1995
		c-0.4448,0.4313-0.8693,0.876-1.3208,1.314c-0.721,0.7008-1.4488,1.3814-2.1631,2.089c-0.4448,0.4515-0.8761,0.9299-1.314,1.3882
		c-0.7952,0.8423-1.6038,1.6712-2.399,2.5135c-0.6873,0.7278-1.3612,1.4555-2.0216,2.1968
		c-0.8289,0.9367-1.6375,1.8801-2.4528,2.8167c-0.0202,0.0202-0.0404,0.0539-0.0674,0.0741
		c-0.1078,0.0943-0.2156,0.2763-0.3167,0.2696c-0.2224-0.0067-0.438-0.1146-0.5256-0.3639
		c-0.0067-0.0202-0.0067-0.0606-0.0269-0.0674c-0.4448-0.1685-0.465-0.6536-0.7278-0.9569
		c-0.3234-0.3706-0.5862-0.7817-0.8895-1.1523c-0.465-0.5593-0.9501-1.1051-1.4218-1.651
		c-0.3841-0.4245-0.7817-0.8491-1.1591-1.2938c-0.2628-0.3032-0.4919-0.6402-0.748-0.9569
		c-0.1078-0.1415-0.2426-0.2628-0.3639-0.3908c-0.2022-0.2089-0.4178-0.3976-0.6065-0.6132
		c-0.2763-0.3369-0.5324-0.6873-0.8019-1.0243c-0.3504-0.4313-0.7143-0.8626-1.0714-1.2938
		c-0.5593-0.6604-1.1119-1.3275-1.6712-1.9811c-0.3234-0.3706-0.6402-0.7547-1.0243-1.0647
		c-0.6671-0.5458-1.1658-1.2467-1.7385-1.8801c-0.2022-0.2224-0.4178-0.4515-0.6536-0.6267
		c-0.3302-0.2291-0.337-0.5054-0.1146-0.7884C1.9845,32.0394,2.0047,32.0192,1.9913,32.0326 M16.1154,22.4166
		c-0.0607,0.0472-0.1079,0.0809-0.155,0.128c-0.3572,0.4178-0.7008,0.8356-1.0715,1.2332c-0.4043,0.438-0.8356,0.8558-1.2668,1.2736
		c-1.0782,1.0782-2.1631,2.1631-3.2548,3.2345c-0.8154,0.7952-1.6577,1.5566-2.4528,2.3652
		c-0.6065,0.62-1.1591,1.3006-1.7251,1.9273c0.5189,0.6334,0.9839,1.2399,1.469,1.8194c0.4043,0.4986,0.8221,0.9771,1.2399,1.4623
		c0.5593,0.6402,1.1186,1.2938,1.6914,1.9272c0.8558,0.9569,1.7319,1.9003,2.6011,2.837c0.31,0.3504,0.6469,0.6671,0.9501,1.0175
		c0.465,0.5256,0.903,1.0782,1.3545,1.6105c0.0943,0.1145,0.1819,0.1348,0.3032,0.0202c0.1483-0.1482,0.3302-0.2696,0.4784-0.4245
		c0.7143-0.7615,1.4084-1.5499,2.1429-2.2911c0.9367-0.9434,1.9071-1.8531,2.8572-2.783c0.6671-0.6604,1.3208-1.3343,1.9744-2.0081
		c0.2763-0.2898,0.5188-0.6065,0.7951-0.8895c0.566-0.5593,1.1388-1.1119,1.7184-1.6645c0.1145-0.1145,0.1145-0.1819-0.0067-0.2965
		c-0.3639-0.3841-0.7076-0.7884-1.0782-1.1725c-0.1011-0.1078-0.2763-0.1348-0.2156-0.3369c0-0.0202-0.0472-0.0472-0.0607-0.0741
		c-0.2426-0.2426-0.4986-0.4784-0.7143-0.7345c-0.2965-0.3437-0.5525-0.7345-0.8423-1.0782
		c-0.5458-0.6402-1.0984-1.2803-1.6644-1.9003c-0.4717-0.5121-0.9704-1.0108-1.4556-1.5229
		c-0.6536-0.6941-1.2871-1.4016-1.9542-2.0822C17.2475,23.4746,16.6882,22.9625,16.1154,22.4166"/>
	<path id="XMLID_27_" fill-rule="evenodd" clip-rule="evenodd" fill="#3B3A3C" d="M16.0911,25.7185
		c0.1483-0.0067,0.3235-0.0606,0.4448-0.0135c0.1685,0.0741,0.3235,0.2156,0.4515,0.3571c0.9367,0.9569,1.8531,1.9273,2.7898,2.8774
		c0.5256,0.5391,1.0782,1.0445,1.6173,1.5701c0.4313,0.4246,0.8491,0.8558,1.2871,1.2804c0.128,0.128,0.2628,0.2696,0.4312,0.3571
		c0.2561,0.1415,0.337,0.3841,0.4313,0.6402c0.0607,0.155-0.0471,0.1685-0.155,0.2089c-0.1415,0.0539-0.3167,0.0943-0.4178,0.1954
		c-0.5121,0.4986-1.0108,1.0175-1.5094,1.5297c-0.6402,0.6402-1.2804,1.2871-1.9205,1.9273
		c-0.2089,0.2156-0.3841,0.4986-0.6334,0.6536c-0.4246,0.2628-0.5796,0.721-0.8963,1.0579
		c-0.4448,0.4987-0.8963,0.9906-1.3275,1.5027c-0.1887,0.2156-0.3572,0.4515-0.4044,0.7615
		c-0.0404,0.2426-0.2493,0.3437-0.4649,0.4178c-0.0539,0.0202-0.1617-0.0202-0.2089-0.0674
		c-0.438-0.4784-0.8827-0.9501-1.3006-1.4488c-0.4178-0.4919-0.7884-1.0175-1.1994-1.5229
		c-0.4987-0.6065-1.0175-1.1995-1.5095-1.806c-0.2695-0.3235-0.5188-0.6604-0.7817-0.9771
		c-0.3167-0.3908-0.6334-0.7749-0.9569-1.1523c-0.2965-0.3437-0.3235-0.6536-0.0539-1.0175
		c0.1954-0.2561,0.3908-0.4919,0.5998-0.7278c0.7817-0.903,1.5633-1.7925,2.345-2.6887c0.5256-0.593,1.0647-1.1793,1.5633-1.7925
		c0.5054-0.6199,0.9704-1.2669,1.4623-1.907c0.0741-0.0943,0.1819-0.1819,0.2763-0.2763
		C16.0574,25.6849,16.0709,25.7051,16.0911,25.7185 M15.7205,37.4842c0.2358-0.2561,0.4245-0.4582,0.6132-0.6604
		c0.4582-0.4784,0.9232-0.9434,1.368-1.4353c0.539-0.5795,1.0647-1.186,1.597-1.779c0.2493-0.283,0.4919-0.566,0.7345-0.8491
		c0.1078-0.1213,0.0943-0.2291-0.027-0.3437c-0.6873-0.6469-1.3612-1.3073-2.062-1.9407c-0.4043-0.3639-0.8693-0.6671-1.2668-1.031
		c-0.1954-0.1685-0.283-0.1213-0.4111,0.0337c-0.1887,0.2156-0.3908,0.4178-0.5795,0.6334c-0.3639,0.438-0.7075,0.8895-1.0984,1.314
		c-0.566,0.6065-1.159,1.1927-1.7385,1.7925c-0.2224,0.2291-0.2089,0.2696-0.0067,0.5256l2.1496,2.7965
		C15.2218,36.844,15.4577,37.1472,15.7205,37.4842"/>
	<path id="XMLID_8_" fill-rule="evenodd" clip-rule="evenodd" fill="#404041" d="M67.4118,67.8848
		c0.1213,0.4245,0.3572,0.8221,0.2493,0.9771c-0.256,0.3504-0.6536,0.5997-1.0243,0.8491c-0.3032,0.2022-0.721,0.283-0.9636,0.5323
		c-1.8733,1.934-3.6995,3.9017-5.5661,5.8424c-1.186,1.2264-2.4192,2.4057-3.6187,3.6119
		c-1.0714,1.0984-2.1159,2.2238-3.1941,3.3087c-1.0108,1.0175-2.089,1.9677-3.0863,2.9987c-0.876,0.9097-1.7116,1.8599-2.527,2.8235
		c-1.3949,1.6644-2.7493,3.3558-4.306,4.899c-1.5768,1.5566-2.9448,3.3289-4.4071,5.0135c-0.7682,0.8828-1.5499,1.7588-2.3046,2.655
		c-0.1954,0.2291-0.3369,0.5054-0.4919,0.7682c-0.3908,0.6873-0.8693,0.7278-1.5566,0.3032
		c-1.186-0.7345-1.9946-1.8599-3.0256-2.7628c-1.341-1.1658-2.5944-2.4259-3.8747-3.6591c-1.2871-1.2467-2.5472-2.527-3.8275-3.7736
		c-1.3073-1.2601-2.6483-2.4865-3.9421-3.7601c-0.62-0.5997-1.1725-1.2601-1.7655-1.8868c-1.2534-1.341-2.5202-2.6685-3.7737-4.0162
		c-1.2197-1.314-2.4124-2.655-3.6389-3.9758c-1.4488-1.5499-2.8976-3.0998-4.3801-4.6227
		c-1.7319-1.7857-3.5108-3.5243-5.2494-5.2966c-0.2291-0.2358-0.3774-0.5593-0.5054-0.8693
		c-0.2358-0.5391,0.0741-0.7278,0.566-0.7615c0.0876-0.0067,0.1752-0.0135,0.337-0.027c-0.5054-0.5323-0.283-0.8221,0.1685-1.2197
		c0.9367-0.8221,1.7655-1.752,2.6617-2.6281c0.9839-0.9569,2.0081-1.8801,2.9919-2.8437c1.0377-1.0243,2.0351-2.0755,3.0661-3.1065
		c1.6712-1.6577,3.3693-3.2884,5.0202-4.9664c1.0513-1.058,2.0351-2.1901,3.0459-3.2817c1.8599-1.9879,3.7399-3.9556,5.5796-5.957
		c1.5836-1.7183,3.1536-3.4502,4.6833-5.2022c1.9205-2.2035,3.7938-4.434,5.6806-6.6577c0.0472-0.0539,0.0943-0.1213,0.155-0.1752
		c0.2426-0.2291,0.4986-0.6604,0.7278-0.6402c0.5188,0.0202,1.031,0.2628,1.2466,0.8423c0.0135,0.0539,0.0202,0.1415,0.0539,0.155
		c1.0512,0.3774,1.1186,1.5229,1.752,2.2305c0.748,0.8558,1.3747,1.8194,2.1159,2.6887c1.0984,1.2938,2.2372,2.5539,3.376,3.814
		c0.9097,1.0041,1.8464,1.9879,2.7359,3.0054c0.62,0.721,1.1725,1.5027,1.7723,2.2372c0.2628,0.3302,0.5728,0.6132,0.8693,0.9097
		c0.4784,0.4784,0.9973,0.9232,1.4353,1.4286c0.6604,0.7682,1.2601,1.5903,1.907,2.372c0.8356,1.0108,1.6914,2.0014,2.5405,2.9987
		c1.3276,1.5431,2.6348,3.0863,3.9825,4.6025c0.7615,0.8625,1.5094,1.7655,2.4057,2.4798c1.5903,1.2669,2.7763,2.8976,4.1375,4.3734
		c0.4784,0.5121,0.9771,1.0445,1.5499,1.4421c0.775,0.5458,0.8019,1.186,0.283,1.8531
		C67.432,67.8646,67.3848,67.9252,67.4118,67.8848 M34.5408,90.7894c0.128-0.1145,0.256-0.2021,0.3504-0.3167
		c0.8289-0.9704,1.624-1.9744,2.4798-2.9246c0.9434-1.031,1.9475-2.0148,2.9313-3.0122c2.5202-2.5539,5.0338-5.1214,7.5742-7.6551
		c1.8801-1.8868,3.841-3.6928,5.6807-5.6133c1.4151-1.469,2.6887-3.0661,3.9892-4.5553c-1.213-1.4892-2.3316-2.8774-3.4771-4.2386
		c-0.9569-1.1456-1.9609-2.2574-2.9448-3.376c-1.3343-1.5094-2.6551-3.0189-4.0162-4.5014
		c-2.0351-2.2103-4.0971-4.4003-6.1591-6.5904c-0.7413-0.7952-1.5432-1.5364-2.2574-2.3518c-1.0984-1.2264-2.1496-2.5-3.2143-3.7467
		c-0.2291-0.2696-0.4448-0.31-0.7143-0.0337c-0.3504,0.3504-0.7749,0.6402-1.1051,1.0041
		c-1.6644,1.8059-3.2682,3.6658-4.9731,5.4246c-2.1698,2.2439-4.4273,4.3936-6.6308,6.6038
		c-1.5431,1.5634-3.0661,3.1469-4.5755,4.7507c-0.6469,0.6739-1.2062,1.4421-1.8599,2.1092
		c-1.3006,1.3343-2.6415,2.6416-3.9758,3.9489c-0.2763,0.2628-0.2628,0.4178,0.0135,0.6873
		c0.876,0.8895,1.6847,1.8397,2.5674,2.7224c0.2359,0.2426,0.6536,0.31,0.5189,0.7884c-0.0135,0.0404,0.0943,0.1078,0.1483,0.1617
		c0.5593,0.5728,1.1658,1.1051,1.6847,1.7049c0.6941,0.8086,1.2938,1.7116,1.9946,2.5135c1.2938,1.496,2.6079,2.9717,3.9556,4.4138
		c1.1186,1.2062,2.3046,2.3518,3.4434,3.5311c1.5499,1.6173,3.0593,3.2615,4.6361,4.8451
		C31.8588,88.3365,33.1863,89.5158,34.5408,90.7894"/>
	<path id="XMLID_4_" fill-rule="evenodd" clip-rule="evenodd" fill="#404041" d="M34.5098,83.0366
		c-0.3504,0.0202-0.748,0.1617-1.0377,0.0472c-0.411-0.1685-0.7615-0.4987-1.0782-0.8154
		c-2.2103-2.2305-4.3869-4.4879-6.6106-6.6982c-1.2399-1.2466-2.5607-2.4192-3.8343-3.6321
		c-1.0175-0.9838-2.0081-1.9946-3.0324-2.9717c-0.3167-0.3032-0.6402-0.6199-1.0243-0.8288
		c-0.6132-0.3302-0.8087-0.903-1.031-1.4825c-0.1415-0.3639,0.1078-0.4043,0.3572-0.4987c0.3369-0.128,0.7345-0.2224,0.9771-0.465
		c1.1927-1.1793,2.3316-2.4192,3.4973-3.6186c1.4825-1.5364,2.9717-3.0526,4.4475-4.5823c0.4986-0.5121,0.8895-1.1793,1.469-1.5431
		c0.9905-0.6267,1.3612-1.6981,2.0755-2.5068c1.0377-1.1725,2.0822-2.3383,3.0863-3.5378c0.438-0.5256,0.8221-1.0849,0.9232-1.806
		c0.0943-0.5728,0.5862-0.8154,1.0714-0.9906c0.1415-0.0472,0.4043,0.0472,0.5122,0.1617c1.0377,1.0984,2.089,2.1968,3.0728,3.3491
		c0.9839,1.1523,1.8801,2.3787,2.8505,3.5445c1.186,1.4084,2.4057,2.783,3.5984,4.1914c0.6334,0.748,1.213,1.5364,1.8464,2.2911
		c0.7413,0.8962,1.5027,1.7925,2.2709,2.6685c0.7076,0.8019,0.7817,1.5364,0.1483,2.3922c-0.4313,0.593-0.9097,1.1523-1.3882,1.7116
		c-1.8059,2.1227-3.6254,4.2453-5.4381,6.368c-1.1995,1.4084-2.4529,2.7831-3.6119,4.2386c-1.1658,1.4555-2.244,2.9987-3.376,4.5014
		c-0.1819,0.2358-0.4245,0.4313-0.6402,0.6469C34.5772,83.1242,34.5435,83.077,34.5098,83.0366 M35.0893,55.4487
		c-0.5526,0.5997-0.9839,1.0849-1.4286,1.5566c-1.0512,1.1321-2.1294,2.2372-3.1672,3.3895
		c-1.2601,1.3949-2.4731,2.81-3.7062,4.2251c-0.5795,0.6671-1.1321,1.341-1.6981,2.0149c-0.2359,0.283-0.2089,0.5323,0.0741,0.7884
		c1.6308,1.5027,3.2211,3.0459,4.8788,4.5149c0.9569,0.8423,2.0553,1.5297,3.0122,2.3787c0.4515,0.3976,0.6536,0.2695,0.9569-0.0809
		c0.4313-0.5121,0.8963-0.9906,1.3275-1.5027c0.8558-1.031,1.6577-2.1159,2.5539-3.1065c1.314-1.4488,2.6955-2.8302,4.0365-4.2588
		c0.5121-0.5391,0.4852-0.6199,0.0067-1.2264c-1.7184-2.1698-3.4165-4.3397-5.1214-6.5028
		C36.2618,56.9312,35.7092,56.2371,35.0893,55.4487"/>
	<path id="XMLID_55_" fill="#3B3A3C" d="M0.4872,30.5852c0.027-0.0202,0.0472-0.0472,0.0674-0.0741
		c0.8154-0.9367,1.624-1.8801,2.4596-2.8101c0.6537-0.7412,1.3343-1.469,2.0149-2.1967c0.8019-0.8423,1.6038-1.6779,2.4057-2.5135
		c0.438-0.4582,0.8625-0.9434,1.314-1.3881c0.7142-0.7076,1.442-1.3949,2.1631-2.0958c0.4448-0.4313,0.8693-0.8828,1.3207-1.314
		c0.4246-0.4043,0.8625-0.7884,1.2938-1.1927c0.3841-0.3707,0.7413-0.7682,1.1456-1.1119c0.1887-0.1685,0.2898-0.2898,0.0742-0.5189
		l0.1415-0.0134c0.2156-0.0135,0.3437-0.0876,0.2493-0.3235c-0.0539-0.1281-0.1213-0.2695-0.2156-0.3639
		c-0.7345-0.7682-1.4825-1.5229-2.217-2.2844c-0.6267-0.6604-1.2332-1.3275-1.8397-1.9946
		C10.3458,9.8167,9.8404,9.244,9.3283,8.6779C8.8027,8.0984,8.2635,7.5324,7.738,6.9528C7.4886,6.6833,7.2528,6.3935,6.9967,6.1375
		c-0.5526-0.5458-1.1186-1.0782-1.6644-1.624c-0.5458-0.5323-1.0782-1.0849-1.624-1.624C3.1692,2.3571,2.6435,1.818,2.0775,1.3059
		c-0.438-0.3841-0.775-0.8693-1.2803-1.186C0.5074-0.062,0.3052-0.0486,0.1301,0.2412C0.0923,0.3125,0.0446,0.3762,0,0.4426v5.5155
		c0.2084-0.2423,0.4191-0.4824,0.6287-0.7236C0.6691,5.1806,0.7231,5.1469,0.777,5.0997c0.5728,0.5526,1.1321,1.058,1.6577,1.5971
		c0.6671,0.6873,1.3073,1.3948,1.961,2.0889c0.4784,0.5121,0.9838,1.0041,1.4555,1.5229c0.5661,0.6199,1.1187,1.2534,1.6645,1.9003
		c0.2897,0.3437,0.5458,0.7278,0.8423,1.0782c0.2156,0.2561,0.4717,0.4919,0.7075,0.7345c0.0202,0.0203,0.0674,0.0472,0.0607,0.0674
		c-0.054,0.2089,0.1145,0.2358,0.2156,0.3369c0.3774,0.3841,0.7211,0.7952,1.085,1.1725c0.1146,0.1213,0.1213,0.1887,0.0067,0.2965
		c-0.5795,0.5526-1.1523,1.1052-1.7184,1.6644c-0.283,0.2898-0.5256,0.6065-0.7951,0.8895
		c-0.6536,0.6806-1.314,1.3544-1.9811,2.0081c-0.9434,0.9299-1.9138,1.8396-2.8572,2.783c-0.7278,0.748-1.4218,1.5364-2.1429,2.2911
		c-0.1415,0.155-0.3234,0.2763-0.4784,0.4246c-0.1146,0.1213-0.2021,0.1011-0.3032-0.0135C0.1052,25.8795,0.0518,25.8175,0,25.7546
		v5.0526c0.0591,0.0198,0.1144,0.0505,0.1772,0.0543C0.2783,30.8682,0.3861,30.6862,0.4872,30.5852z"/>
	<path id="XMLID_56_" fill="#3B3A3C" d="M0.4858,23.7253c0.2089-0.0674,0.4178-0.1685,0.4582-0.4178
		c0.0472-0.3032,0.2157-0.5458,0.4044-0.7615c0.438-0.5121,0.8828-1.004,1.3275-1.496c0.3167-0.3436,0.4784-0.8019,0.903-1.0647
		c0.2493-0.1483,0.4178-0.4313,0.6334-0.6469c0.6334-0.6469,1.2736-1.287,1.9138-1.934c0.4987-0.5121,0.9974-1.031,1.5095-1.5297
		c0.1078-0.1011,0.2763-0.1415,0.4178-0.1887c0.1078-0.0405,0.2156-0.0607,0.155-0.2157c-0.0944-0.2493-0.1685-0.4987-0.4313-0.6401
		c-0.1617-0.0876-0.3032-0.2224-0.4312-0.3571c-0.438-0.4178-0.8491-0.8558-1.2871-1.2736
		c-0.5323-0.5256-1.0917-1.031-1.6172-1.5701c-0.9366-0.9501-1.8531-1.9272-2.7898-2.8841c-0.128-0.1348-0.283-0.2763-0.4515-0.3504
		c-0.1213-0.0539-0.2965,0-0.4448,0.0134C0.7419,8.3882,0.7284,8.3679,0.715,8.3477C0.6206,8.4421,0.5195,8.523,0.4386,8.6241
		C0.2901,8.8154,0.1456,9.0096,0,9.2032v4.0267c0.1185-0.1453,0.2361-0.2908,0.3578-0.4346
		c0.1819-0.2157,0.3841-0.4178,0.5728-0.6335c0.1281-0.1483,0.2157-0.2021,0.4111-0.0337c0.3975,0.3707,0.8625,0.6672,1.2736,1.0311
		c0.6941,0.6334,1.3679,1.3005,2.0552,1.9474c0.1213,0.1146,0.1348,0.2224,0.027,0.337c-0.2426,0.2897-0.4785,0.5728-0.7346,0.8558
		c-0.5256,0.593-1.058,1.1927-1.5903,1.7791c-0.4515,0.4852-0.9165,0.9568-1.3747,1.4285
		c-0.1887,0.2022-0.3774,0.4044-0.6132,0.6604C0.2445,19.9875,0.1261,19.8296,0,19.6638v3.6989
		c0.0891,0.0972,0.1738,0.1986,0.2634,0.2952C0.3174,23.705,0.4252,23.7455,0.4858,23.7253z"/>
	<path id="XMLID_57_" fill="#3B3A3C" d="M4.3679,59.1516c0.8019-0.8423,1.6105-1.6779,2.4057-2.5203
		c0.438-0.4515,0.8693-0.9367,1.314-1.3815c0.721-0.7075,1.4488-1.3949,2.1631-2.0957c0.4515-0.438,0.876-0.8828,1.3275-1.314
		c0.4178-0.4043,0.8625-0.7952,1.2871-1.1927c0.3841-0.3707,0.7413-0.7682,1.1456-1.1119c0.1954-0.1685,0.2964-0.2898,0.0741-0.5189
		c0.0741-0.0067,0.1078-0.0134,0.1483-0.0134c0.2089-0.0135,0.3437-0.0876,0.2426-0.3235c-0.054-0.1281-0.1146-0.2695-0.2089-0.3706
		c-0.7345-0.7615-1.4825-1.5162-2.217-2.2844c-0.6267-0.6536-1.2399-1.3207-1.8464-1.9879
		c-0.5189-0.5728-1.0175-1.1456-1.5297-1.7116c-0.5323-0.5795-1.0714-1.1523-1.597-1.7251
		c-0.2493-0.2696-0.4784-0.5593-0.7412-0.8221c-0.5526-0.5458-1.1187-1.0715-1.6645-1.6173
		c-0.5391-0.5323-1.0781-1.0849-1.6172-1.624c-0.5391-0.5323-1.0647-1.0714-1.6375-1.5836
		c-0.4379-0.3841-0.7749-0.8693-1.2803-1.186C0.0872,33.7365,0.0441,33.7199,0,33.7007v5.1529
		c0.0362-0.0371,0.0746-0.0693,0.1226-0.1066c0.5728,0.5526,1.1321,1.058,1.6577,1.5971c0.6671,0.6873,1.3006,1.3948,1.9542,2.0889
		c0.4785,0.5054,0.9839,1.0041,1.4556,1.5162c0.566,0.6266,1.1254,1.2601,1.6712,1.9003c0.2897,0.3504,0.5391,0.7345,0.8355,1.0782
		c0.2157,0.2628,0.4717,0.4987,0.7144,0.7412c0.0202,0.0203,0.0606,0.0472,0.0539,0.0674
		c-0.0539,0.2089,0.1213,0.2291,0.2224,0.3369c0.3707,0.3841,0.7143,0.7884,1.085,1.1725c0.1146,0.1146,0.1146,0.1819,0,0.2965
		c-0.5796,0.5526-1.1523,1.1052-1.7184,1.6644c-0.2763,0.283-0.5189,0.6065-0.7952,0.8895
		c-0.6536,0.6806-1.3073,1.3544-1.9744,2.0081c-0.9501,0.9299-1.9205,1.8396-2.8572,2.783
		c-0.7345,0.748-1.4285,1.5297-2.1429,2.2911C0.1962,59.2706,0.0978,59.3497,0,59.4308v4.6132
		c0.7818-0.899,1.5579-1.8036,2.3531-2.6957C3.0134,60.6003,3.6874,59.8793,4.3679,59.1516z"/>
	<path id="XMLID_58_" fill="#3B3A3C" d="M0.287,56.9547c0.0539-0.3032,0.2156-0.5458,0.4044-0.7615
		c0.4312-0.5121,0.8828-1.004,1.3275-1.496c0.3167-0.3436,0.4717-0.8019,0.903-1.0647c0.2493-0.1483,0.4178-0.438,0.6266-0.6536
		c0.6402-0.6402,1.2871-1.2803,1.9205-1.9272c0.4987-0.5121,0.9974-1.031,1.5095-1.5297c0.1011-0.1011,0.2763-0.1415,0.4178-0.1954
		c0.1078-0.0404,0.2156-0.0539,0.155-0.2089C7.4637,48.8684,7.3828,48.619,7.12,48.4776c-0.1684-0.0876-0.3032-0.2291-0.438-0.3571
		c-0.4313-0.4246-0.8423-0.8558-1.2803-1.2804c-0.5391-0.5189-1.0917-1.0242-1.6172-1.5634
		c-0.9366-0.9501-1.8531-1.9272-2.7898-2.8841c-0.1281-0.1415-0.283-0.283-0.4515-0.3504c-0.1213-0.054-0.2965,0.0067-0.4448,0.0134
		c-0.0135-0.0202-0.0337-0.0404-0.0405-0.0606C0.0381,42.0134,0.0205,42.0345,0,42.0529v4.0551
		c0.0922-0.0986,0.1845-0.1972,0.2736-0.299c0.1281-0.1483,0.2157-0.2021,0.4044-0.0337c0.4043,0.3707,0.8693,0.6671,1.2736,1.031
		c0.7009,0.6334,1.3747,1.2938,2.062,1.9474c0.1213,0.1078,0.1348,0.2157,0.027,0.337c-0.2426,0.2897-0.4852,0.566-0.7346,0.8491
		c-0.5256,0.593-1.058,1.1995-1.597,1.7857c-0.4448,0.4852-0.9097,0.9502-1.368,1.4286C0.2314,53.2715,0.1187,53.3925,0,53.5204
		v3.7789C0.1388,57.2302,0.2582,57.1328,0.287,56.9547z"/>
	<g id="XMLID_67_">
		<path id="XMLID_72_" fill-rule="evenodd" clip-rule="evenodd" fill="#3B3A3C" d="M39.8099,31.8059
			c-0.0539-0.1752-0.1483-0.3437-0.1011-0.4111c0.1078-0.1482,0.283-0.2561,0.438-0.3639c0.1281-0.0808,0.3033-0.1145,0.4111-0.2156
			c0.8086-0.8221,1.597-1.651,2.3989-2.4731c0.5122-0.5121,1.0445-1.0108,1.5566-1.5229c0.465-0.4582,0.9165-0.9367,1.3814-1.3881
			c0.438-0.4313,0.8962-0.8356,1.3275-1.2669c0.3774-0.3909,0.7413-0.7884,1.0917-1.1995c0.5997-0.7008,1.186-1.4151,1.8598-2.062
			c0.6806-0.6671,1.2736-1.4151,1.9003-2.1227c0.3369-0.3774,0.6671-0.7413,0.9973-1.1253
			c0.0809-0.0943,0.1483-0.2089,0.2089-0.3235c0.1684-0.2898,0.3706-0.3033,0.6671-0.1213c0.4986,0.3167,0.8423,0.8019,1.2803,1.186
			c0.566,0.5121,1.0917,1.0512,1.6308,1.5836c0.5458,0.5391,1.0782,1.0917,1.6173,1.624c0.5526,0.5458,1.1186,1.0782,1.6712,1.624
			c0.2561,0.2561,0.4852,0.5458,0.7345,0.8154c0.5323,0.5795,1.0714,1.1456,1.5971,1.7251c0.5121,0.566,1.0175,1.1456,1.5364,1.7116
			c0.6065,0.6739,1.213,1.341,1.8397,1.9879c0.7345,0.7682,1.4825,1.5229,2.217,2.2844c0.0943,0.1011,0.1617,0.2426,0.2156,0.3706
			c0.0943,0.2359-0.0404,0.31-0.2493,0.3235c-0.0337,0-0.0741,0.0067-0.1415,0.0135c0.2156,0.2291,0.1145,0.3437-0.0809,0.5189
			c-0.4043,0.3437-0.7615,0.7413-1.1388,1.1119c-0.4313,0.4043-0.8693,0.7884-1.2938,1.1927
			c-0.4515,0.4313-0.876,0.876-1.3208,1.314c-0.7211,0.7008-1.4556,1.3882-2.1698,2.0957
			c-0.4448,0.4448-0.8693,0.9299-1.3073,1.3882c-0.8019,0.8356-1.6106,1.6712-2.4057,2.5135
			c-0.6873,0.7278-1.3612,1.4488-2.0216,2.1968c-0.8289,0.9299-1.6375,1.8733-2.4528,2.81
			c-0.0202,0.027-0.0404,0.0539-0.0674,0.0809c-0.1011,0.0943-0.2089,0.2763-0.31,0.2696c-0.2224-0.0135-0.438-0.1213-0.5256-0.3706
			c-0.0135-0.0202-0.0135-0.0606-0.0269-0.0674c-0.4448-0.1617-0.4717-0.6536-0.7345-0.9569
			c-0.3167-0.3706-0.5795-0.7817-0.8895-1.1523c-0.465-0.5593-0.9434-1.1051-1.4218-1.6442
			c-0.3841-0.4313-0.7817-0.8558-1.1523-1.2938c-0.2628-0.31-0.4986-0.6469-0.7547-0.9636
			c-0.1078-0.1348-0.2358-0.2628-0.3572-0.3908c-0.2089-0.2021-0.4245-0.3909-0.6132-0.6132
			c-0.2763-0.3302-0.5256-0.6873-0.8019-1.0175c-0.3504-0.438-0.7075-0.8693-1.0714-1.2938
			c-0.5526-0.6671-1.1051-1.3342-1.6712-1.9811c-0.3234-0.3706-0.6402-0.7615-1.0175-1.0714
			c-0.6739-0.5391-1.1725-1.2399-1.7453-1.8801c-0.2022-0.2224-0.4111-0.4515-0.6536-0.6199
			c-0.3302-0.2359-0.3369-0.5121-0.1146-0.7884C39.8031,31.8194,39.8166,31.7925,39.8099,31.8059 M53.9273,22.1899
			c-0.0607,0.0472-0.1079,0.0876-0.1483,0.1348c-0.3639,0.4111-0.7008,0.8356-1.0715,1.2332
			c-0.411,0.438-0.8423,0.8491-1.2668,1.2736c-1.0849,1.0782-2.1698,2.1631-3.2615,3.2278
			c-0.8154,0.7952-1.6577,1.5566-2.4461,2.372c-0.6132,0.6199-1.1658,1.2938-1.7251,1.9272
			c0.5121,0.6334,0.9771,1.2332,1.4622,1.8194c0.4111,0.4919,0.8289,0.9703,1.2399,1.4555c0.566,0.6402,1.1186,1.2938,1.6982,1.934
			c0.8558,0.9501,1.7251,1.8936,2.5943,2.837c0.31,0.3437,0.6469,0.6604,0.9569,1.0175c0.4582,0.5189,0.8963,1.0714,1.3478,1.6105
			c0.1011,0.1145,0.1887,0.1348,0.3032,0.0135c0.155-0.1482,0.3302-0.2696,0.4784-0.4245c0.7143-0.7547,1.4084-1.5431,2.1429-2.2844
			c0.9367-0.9501,1.9071-1.8598,2.8572-2.7898c0.6671-0.6604,1.3208-1.3275,1.9744-2.0014
			c0.2763-0.2898,0.5188-0.6065,0.8019-0.8962c0.5593-0.5593,1.1388-1.1119,1.7184-1.6645
			c0.1145-0.1078,0.1078-0.1819-0.0067-0.2965c-0.3639-0.3841-0.7076-0.7884-1.0849-1.1725
			c-0.1011-0.1011-0.2763-0.128-0.2156-0.3369c0-0.0135-0.0405-0.0472-0.0607-0.0674c-0.2426-0.2426-0.4986-0.4784-0.7143-0.7413
			c-0.2898-0.3437-0.5458-0.7278-0.8355-1.0714c-0.5458-0.6469-1.1051-1.2803-1.6645-1.907
			c-0.4784-0.5121-0.9771-1.0041-1.4556-1.5162c-0.6536-0.6941-1.2938-1.4016-1.9609-2.0822
			C55.0594,23.2479,54.5001,22.7425,53.9273,22.1899"/>
		<path id="XMLID_68_" fill-rule="evenodd" clip-rule="evenodd" fill="#3B3A3C" d="M53.903,25.4986
			c0.1483-0.0135,0.3235-0.0674,0.4448-0.0135c0.1752,0.0674,0.3235,0.2156,0.4582,0.3504
			c0.9299,0.9569,1.8531,1.9273,2.7831,2.8841c0.5256,0.5391,1.0849,1.0445,1.6173,1.5633c0.438,0.4246,0.8491,0.8626,1.2871,1.2871
			c0.1348,0.128,0.2696,0.2628,0.4312,0.3504c0.2628,0.1415,0.3437,0.3909,0.4313,0.6402c0.0607,0.155-0.0471,0.1685-0.155,0.2089
			c-0.1415,0.0539-0.31,0.0943-0.4178,0.1954c-0.5121,0.4986-1.0041,1.0243-1.5094,1.5297
			c-0.6402,0.6469-1.2804,1.2871-1.9138,1.9273c-0.2156,0.2224-0.3841,0.5054-0.6334,0.6536
			c-0.4313,0.2628-0.5863,0.721-0.8963,1.0647c-0.4448,0.4919-0.8963,0.9838-1.3342,1.496
			c-0.1887,0.2156-0.3504,0.4582-0.3976,0.7615c-0.0472,0.2493-0.2561,0.3504-0.465,0.4178
			c-0.0607,0.0202-0.1685-0.0202-0.2157-0.0674c-0.438-0.4784-0.876-0.9501-1.2938-1.4421
			c-0.4178-0.4986-0.7951-1.0243-1.2062-1.5229c-0.492-0.6065-1.0108-1.2062-1.5095-1.806
			c-0.2695-0.3235-0.5188-0.6671-0.7749-0.9838c-0.3167-0.3908-0.6334-0.7682-0.9569-1.1523
			c-0.2965-0.3437-0.3302-0.6536-0.0607-1.0175c0.1954-0.2493,0.3976-0.4919,0.6065-0.7278
			c0.7817-0.8962,1.5566-1.7925,2.345-2.6887c0.5188-0.593,1.0579-1.1793,1.5634-1.7857c0.4986-0.62,0.9636-1.2736,1.4555-1.907
			c0.0809-0.1011,0.1819-0.1887,0.2763-0.2763C53.876,25.4582,53.8895,25.4784,53.903,25.4986 M53.5324,37.2575
			c0.2426-0.2561,0.4245-0.4515,0.6199-0.6604c0.4515-0.4717,0.9165-0.9434,1.368-1.4286c0.5391-0.5863,1.0647-1.186,1.5903-1.779
			c0.256-0.283,0.4919-0.5728,0.7345-0.8558c0.1078-0.1213,0.1011-0.2224-0.0203-0.3369c-0.6941-0.6536-1.3679-1.314-2.062-1.9474
			c-0.4043-0.3639-0.8693-0.6604-1.2736-1.031c-0.1954-0.1685-0.283-0.1146-0.4111,0.0337
			c-0.1887,0.2156-0.3908,0.4178-0.5728,0.6334c-0.3706,0.438-0.7143,0.8962-1.1051,1.314c-0.566,0.6132-1.159,1.1995-1.7385,1.7925
			c-0.2224,0.2291-0.2089,0.2696-0.0067,0.5324c0.721,0.9299,1.4353,1.8598,2.1564,2.7965
			C53.0404,36.6173,53.2763,36.9206,53.5324,37.2575"/>
	</g>
	<path id="XMLID_39_" fill="none" d="M68.0695,40.1082c-0.4111,0.4448-0.8423,0.8558-1.2736,1.2736
		c-1.0782,1.0849-2.1699,2.1631-3.2548,3.2346c-0.8087,0.8019-1.6577,1.5566-2.4529,2.3652
		c-0.6065,0.6267-1.1591,1.3005-1.7183,1.9272c0.5121,0.6401,0.9771,1.2399,1.4623,1.8262
		c0.4043,0.4919,0.8221,0.9703,1.2399,1.4556c0.566,0.6401,1.1186,1.2938,1.6914,1.9272c0.8558,0.9569,1.7318,1.9003,2.6011,2.8438
		c0.3101,0.3436,0.6469,0.6603,0.9502,1.0175c0.465,0.5189,0.903,1.0714,1.3544,1.6105c0.0944,0.1145,0.1819,0.1348,0.3033,0.0134
		c0.0601-0.0601,0.1273-0.1169,0.1941-0.1722v-2.1315c-0.0556,0.0276-0.1133,0.0521-0.1711,0.0733
		c-0.0607,0.0202-0.1752-0.0203-0.2224-0.0674c-0.438-0.4717-0.876-0.9501-1.2871-1.4421
		c-0.4177-0.4986-0.7951-1.0242-1.2061-1.5229c-0.492-0.6065-1.0108-1.1995-1.5162-1.806
		c-0.2628-0.3234-0.5121-0.6604-0.7682-0.9838c-0.3167-0.3909-0.6402-0.7682-0.9636-1.1523
		c-0.2965-0.3436-0.3235-0.6536-0.054-1.0175c0.1954-0.256,0.3976-0.4919,0.5998-0.7278c0.7817-0.8962,1.5633-1.7924,2.345-2.6887
		c0.5256-0.593,1.0579-1.1793,1.5633-1.7858c0.5054-0.6267,0.9704-1.2736,1.4623-1.907c0.0585-0.0799,0.141-0.1486,0.2183-0.2183
		v-3.1993c-0.0095,0.0098-0.0239,0.0169-0.0323,0.0281C68.7771,39.2928,68.4401,39.7174,68.0695,40.1082z"/>
	<path id="XMLID_26_" fill="none" d="M67.7623,47.7566c-0.566,0.6064-1.159,1.1927-1.7452,1.7924
		c-0.2157,0.2291-0.2021,0.2696,0,0.5324c0.7209,0.9299,1.4353,1.8598,2.1496,2.7897c0.2358,0.3033,0.465,0.6065,0.7278,0.9434
		c0.099-0.1075,0.1864-0.2017,0.2722-0.2941v-7.4124c-0.1032,0.1103-0.2064,0.2206-0.306,0.3344
		C68.4968,46.8805,68.1532,47.332,67.7623,47.7566z"/>
	<path id="XMLID_25_" fill="none" d="M67.4571,7.7412c-1.0849,1.0782-2.1698,2.1631-3.2615,3.2278
		c-0.8087,0.8019-1.6577,1.5566-2.4461,2.372c-0.6133,0.6199-1.1658,1.2938-1.7251,1.9205c0.5121,0.6401,0.9771,1.2399,1.469,1.8262
		c0.4044,0.4919,0.8221,0.9703,1.2332,1.4556c0.566,0.6401,1.1254,1.2938,1.6982,1.934c0.8558,0.9501,1.7251,1.8936,2.5944,2.837
		c0.31,0.3436,0.6536,0.6671,0.9568,1.0175c0.4048,0.4644,0.7976,0.9455,1.1907,1.4229v-2.3919
		c-0.3459-0.3776-0.6913-0.7557-1.0236-1.1469c-0.4178-0.4986-0.7952-1.0242-1.2062-1.5229
		c-0.4919-0.6065-1.0108-1.1995-1.5095-1.806c-0.2695-0.3234-0.5189-0.6604-0.7749-0.9838
		c-0.3167-0.3908-0.6402-0.7682-0.9636-1.1456c-0.2965-0.3504-0.3235-0.6604-0.054-1.0243
		c0.1954-0.2493,0.3976-0.4852,0.5998-0.7278c0.7817-0.8962,1.5633-1.7924,2.345-2.6887c0.5256-0.593,1.0647-1.1793,1.5634-1.7858
		c0.3528-0.4327,0.6874-0.8807,1.0236-1.3279V5.9581c-0.1468,0.1707-0.2896,0.3453-0.4427,0.5096
		C68.3196,6.9057,67.8816,7.3167,67.4571,7.7412z"/>
	<path id="XMLID_24_" fill="none" d="M66.6807,15.9017c-0.2224,0.2359-0.2089,0.2696-0.0067,0.5324
		c0.721,0.9299,1.4353,1.8598,2.1564,2.7897c0.1068,0.1414,0.226,0.2951,0.3362,0.4399v-6.4339
		c-0.2424,0.2972-0.4848,0.5942-0.7474,0.8794C67.8532,14.7224,67.2603,15.3087,66.6807,15.9017z"/>
	<path id="XMLID_23_" fill="#3B3A3C" d="M67.9759,24.3318c-0.3032-0.3504-0.6469-0.6739-0.9568-1.0175
		c-0.8693-0.9434-1.7386-1.8868-2.5944-2.837c-0.5728-0.6402-1.1321-1.2938-1.6982-1.934c-0.411-0.4852-0.8288-0.9637-1.2332-1.4556
		c-0.4919-0.5862-0.9568-1.186-1.469-1.8262c0.5593-0.6267,1.1118-1.3005,1.7251-1.9205c0.7884-0.8154,1.6375-1.5701,2.4461-2.372
		c1.0917-1.0648,2.1766-2.1497,3.2615-3.2278c0.4245-0.4245,0.8625-0.8356,1.2668-1.2736c0.1531-0.1643,0.296-0.3389,0.4427-0.5096
		V0.4426c-0.027,0.0403-0.0483,0.0864-0.0789,0.1221c-0.3301,0.3773-0.6604,0.748-0.9973,1.1253
		c-0.6267,0.7076-1.2197,1.4556-1.9003,2.1227c-0.6671,0.6469-1.2534,1.3612-1.8531,2.062
		c-0.3572,0.4111-0.7144,0.8087-1.0984,1.1995c-0.4313,0.4246-0.8895,0.8289-1.3275,1.2669
		c-0.465,0.4514-0.9097,0.9299-1.3747,1.3881c-0.5189,0.5121-1.0512,1.0108-1.5634,1.5229
		c-0.8018,0.8221-1.5903,1.6577-2.3989,2.4731c-0.1011,0.1011-0.283,0.1348-0.4111,0.2156c-0.155,0.1078-0.3301,0.2156-0.438,0.3639
		c-0.0472,0.0607,0.0472,0.2358,0.1011,0.4178c0.0135-0.0202-0.0067,0.0068-0.027,0.0338
		c-0.2291,0.2762-0.2224,0.5526,0.1078,0.7884c0.2426,0.1685,0.4582,0.3976,0.6537,0.6199
		c0.5795,0.6402,1.0714,1.3342,1.7452,1.8868c0.3841,0.3032,0.6942,0.6941,1.0176,1.0647c0.566,0.6536,1.1186,1.314,1.6779,1.9811
		c0.3571,0.4246,0.721,0.8558,1.0714,1.2938c0.2695,0.3302,0.5189,0.6874,0.8019,1.0175c0.1819,0.2224,0.4043,0.4111,0.6065,0.6132
		c0.1213,0.1281,0.256,0.256,0.3639,0.3909c0.2493,0.3167,0.4852,0.6536,0.748,0.9636c0.3706,0.438,0.7682,0.8625,1.1523,1.2938
		c0.4785,0.5458,0.9569,1.085,1.4219,1.6443c0.3099,0.3706,0.5728,0.7816,0.8895,1.1523c0.2695,0.3032,0.2897,0.7952,0.7345,0.9636
		c0.0135,0,0.0202,0.0404,0.027,0.0674c0.0628,0.174,0.1986,0.2593,0.3484,0.3096v-5.0526
		C68.7735,25.2772,68.3808,24.7962,67.9759,24.3318z"/>
	<path id="XMLID_22_" fill="#3B3A3C" d="M68.8304,19.2238c-0.7211-0.9299-1.4354-1.8598-2.1564-2.7897
		c-0.2021-0.2628-0.2157-0.2965,0.0067-0.5324c0.5795-0.593,1.1725-1.1793,1.7385-1.7924c0.2626-0.2852,0.5049-0.5822,0.7474-0.8794
		V9.2032c-0.3362,0.4471-0.6708,0.8952-1.0236,1.3279c-0.4987,0.6065-1.0378,1.1927-1.5634,1.7858
		c-0.7817,0.8962-1.5634,1.7925-2.345,2.6887c-0.2021,0.2426-0.4044,0.4785-0.5998,0.7278
		c-0.2695,0.3639-0.2426,0.6739,0.054,1.0243c0.3234,0.3774,0.6469,0.7548,0.9636,1.1456c0.256,0.3234,0.5054,0.6604,0.7749,0.9838
		c0.4987,0.6065,1.0176,1.1995,1.5095,1.806c0.411,0.4987,0.7884,1.0243,1.2062,1.5229c0.3323,0.3912,0.6777,0.7693,1.0236,1.1469
		v-3.6989C69.0564,19.5189,68.9372,19.3653,68.8304,19.2238z"/>
	<path id="XMLID_21_" fill="#3B3A3C" d="M68.9726,59.603c-0.1213,0.1213-0.2089,0.1011-0.3033-0.0134
		c-0.4515-0.5391-0.8895-1.0917-1.3544-1.6105c-0.3033-0.3572-0.6401-0.6739-0.9502-1.0175
		c-0.8693-0.9434-1.7452-1.8868-2.6011-2.8438c-0.5728-0.6334-1.1254-1.287-1.6914-1.9272
		c-0.4178-0.4852-0.8356-0.9637-1.2399-1.4556c-0.4852-0.5863-0.9501-1.186-1.4623-1.8262
		c0.5593-0.6267,1.1118-1.3005,1.7183-1.9272c0.7952-0.8087,1.6442-1.5634,2.4529-2.3652c1.0849-1.0715,2.1765-2.1497,3.2548-3.2346
		c0.4312-0.4178,0.8625-0.8289,1.2736-1.2736c0.3706-0.3908,0.7076-0.8154,1.0648-1.2264c0.0084-0.0112,0.0228-0.0183,0.0323-0.0281
		v-5.1529c-0.2177-0.0945-0.3842-0.0532-0.5243,0.1877c-0.0674,0.1078-0.1281,0.2291-0.2156,0.3235
		c-0.3235,0.3773-0.6604,0.748-0.9906,1.1253c-0.6334,0.7076-1.2197,1.4556-1.9003,2.1159
		c-0.6738,0.6537-1.2601,1.368-1.8598,2.0688c-0.3571,0.4111-0.7143,0.8086-1.0917,1.1927
		c-0.438,0.4313-0.8962,0.8356-1.3275,1.2668c-0.4717,0.4582-0.9165,0.9366-1.3815,1.3949
		c-0.5189,0.5121-1.0512,1.0108-1.5566,1.5229c-0.8019,0.8221-1.597,1.6509-2.3989,2.4731
		c-0.1078,0.1011-0.283,0.1348-0.4111,0.2156c-0.1617,0.1078-0.3369,0.2156-0.4447,0.3639
		c-0.0472,0.0607,0.0539,0.2358,0.1011,0.4111c0.0135-0.0135-0.0067,0.0067-0.027,0.0405
		c-0.2224,0.2762-0.2156,0.5526,0.1146,0.7817c0.2426,0.1752,0.4515,0.4043,0.6537,0.6266
		c0.5728,0.6334,1.0714,1.3342,1.7385,1.8801c0.3841,0.31,0.7008,0.7009,1.0242,1.0715c0.5593,0.6469,1.1119,1.314,1.6712,1.9811
		c0.3639,0.4246,0.7211,0.8558,1.0714,1.2938c0.2696,0.3302,0.5189,0.6873,0.8019,1.0175c0.1887,0.2156,0.4043,0.4043,0.6064,0.6132
		c0.1281,0.1281,0.2561,0.2493,0.3639,0.3909c0.2561,0.3167,0.4919,0.6536,0.7547,0.9636c0.3707,0.438,0.7682,0.8625,1.1523,1.2938
		c0.4785,0.5391,0.9569,1.085,1.4219,1.6443c0.3032,0.3706,0.566,0.7816,0.8895,1.1523c0.2695,0.3032,0.283,0.7952,0.7345,0.9569
		c0.0135,0.0067,0.0135,0.0471,0.0202,0.0673c0.0876,0.2493,0.3033,0.3572,0.5256,0.3707c0.1011,0.0067,0.2089-0.1819,0.3167-0.2763
		c0.027-0.0202,0.0405-0.0472,0.0674-0.0742c0.0332-0.0381,0.0667-0.0762,0.0998-0.1143v-4.6132
		C69.0999,59.486,69.0327,59.5429,68.9726,59.603z"/>
	<path id="XMLID_20_" fill="#3B3A3C" d="M68.8944,53.8145c-0.2628-0.3369-0.4919-0.6401-0.7278-0.9434
		c-0.7143-0.9299-1.4286-1.8598-2.1496-2.7897c-0.2021-0.2628-0.2157-0.3033,0-0.5324c0.5862-0.5997,1.1792-1.186,1.7452-1.7924
		c0.3909-0.4246,0.7345-0.876,1.0984-1.3141c0.0996-0.1138,0.2028-0.2241,0.306-0.3344v-4.0551
		c-0.0773,0.0697-0.1598,0.1384-0.2183,0.2183c-0.4919,0.6334-0.9569,1.2803-1.4623,1.907
		c-0.5054,0.6065-1.0377,1.1927-1.5633,1.7858c-0.7817,0.8962-1.5634,1.7925-2.345,2.6887
		c-0.2021,0.2359-0.4044,0.4717-0.5998,0.7278c-0.2695,0.3639-0.2426,0.6739,0.054,1.0175
		c0.3234,0.3842,0.6469,0.7615,0.9636,1.1523c0.256,0.3234,0.5054,0.6604,0.7682,0.9838c0.5054,0.6065,1.0242,1.1995,1.5162,1.806
		c0.411,0.4987,0.7884,1.0243,1.2061,1.5229c0.4111,0.4919,0.8491,0.9704,1.2871,1.4421c0.0472,0.0472,0.1617,0.0876,0.2224,0.0674
		c0.0578-0.0212,0.1155-0.0457,0.1711-0.0733v-3.7789C69.0808,53.6129,68.9934,53.7071,68.8944,53.8145z"/>
</g>
</svg>
