<?xml version="1.0" encoding="utf-8"?>
<!-- Generator: Adobe Illustrator 19.0.0, SVG Export Plug-In . SVG Version: 6.00 Build 0)  -->
<svg version="1.1" id="reposado" xmlns="http://www.w3.org/2000/svg" xmlns:xlink="http://www.w3.org/1999/xlink" x="0px" y="0px"
	 viewBox="0 0 417.7443 85.5662" enable-background="new 0 0 417.7443 85.5662" xml:space="preserve">
<g id="XMLID_407_">
	<path id="XMLID_2_" fill-rule="evenodd" clip-rule="evenodd" fill="#7B6F4F" d="M0,3.5338V0.2399
		c0.8154,0.0334,3.1345,0.0056,3.9558,0c1.3395-0.0056,2.679-0.0389,4.0244-0.0389c3.0577-0.0056,6.1269-0.0445,9.1845,0.0612
		c1.6074,0.0612,3.2382,0.0389,4.8572,0.0779c0.2738,0.0056,0.5649,0.0111,0.8329-0.0056c1.7997-0.1001,3.6109-0.0668,5.4105-0.0835
		c0.5009-0.0056,1.0134,0.0389,1.5142,0.0612c0.4135,0.0167,0.8212,0.0556,1.2347,0.0612c1.4793,0.0334,2.9644,0.0389,4.4379,0.0779
		c0.6582,0.0167,1.2929,0.0056,1.9394-0.039c0.3553-0.0222,0.7572-0.0445,1.1066-0.0111c0.9842,0.0835,2.0034,0.0835,2.9877,0.128
		c1.7239,0.0668,3.4186,0.0946,5.1367,0.0334c0.8794-0.0334,1.7705-0.0612,2.6383-0.0334c1.2056,0.0445,2.4054,0.0111,3.6051,0
		c0.332-0.0056,0.6523,0,0.9727,0.0111c0.1864,0.0056,0.3843,0.0389,0.5533,0.0222c1.6365-0.1669,3.3021,0.0445,4.9679-0.0668
		c1.3977-0.089,2.8712-0.0389,4.3097-0.0389c1.9452,0,3.8963,0.0111,5.8415,0.0111c0.1398,0,0.2853,0.0056,0.4194,0
		c1.8811-0.1335,3.7914-0.0223,5.6784-0.0612c0.5533-0.0111,1.1124-0.0111,1.6656-0.0111c0.4718,0,0.9261,0,1.392,0.0056
		c1.9394,0.0389,3.9508-0.2015,5.8902-0.1626c0.4659,0.0056,7.6741,0.0723,9.2116,0.0946c3.6319,0.0816,2.5454-0.2138,6.1093-0.1439
		c0.7921,0.0111,1.5783,0.0111,2.3704,0.0111c2.4985,0.0056,5.0087,0.0278,7.5188,0.0334c1.9452,0.0056,3.8904,0.0056,5.8473,0.0056
		c0.1398,0,0.2796-0.0056,0.4135,0c1.9336,0.1447,3.8904,0.0668,5.8357,0.1113c1.7705,0.0334,3.5177,0.0334,5.2707-0.0445
		c0.4077-0.0167,0.8329,0,1.2521,0c1.8055-0.0111,3.6167-0.0167,5.4222-0.0334c0.0991,0,0.1864-0.0056,0.2854-0.0056
		c1.8928-0.0111,3.7972,0,5.69-0.0501c1.8987-0.0389,3.8031,0,5.7017-0.1001c0.9027-0.0501,1.8404-0.0111,2.7722-0.0445
		c0.728-0.0278,1.4793,0.0278,2.2015-0.0612c0.1689-0.0223,0.3611-0.0056,0.5533,0c2.0791,0.089,4.1642,0.0835,6.2492,0.0278
		c0.5533-0.0111,1.1124-0.0111,1.6656,0.0056c0.7397,0.0278,1.4793,0.0222,2.2189,0.0222c0.961,0,1.9278,0.0723,2.8887,0.1335
		c0.8562,0.0612,1.7181,0.1113,2.5917,0.0946c0.0931-0.0056,0.198-0.0056,0.2854-0.0056c1.4852,0.0946,2.9586-0.0111,4.4379,0
		c1.2988,0.0056,2.5976,0.0223,3.8963,0.0056c2.3587-0.0334,4.735,0.0389,7.0994-0.0612c0.6814-0.0278,1.392-0.0056,2.0792,0
		c1.0192,0.0111,2.05-0.0334,3.0459,0c1.0717,0.0389,2.1258,0.0111,3.1916,0.0056c0.3669,0,0.7513,0,1.1066-0.0334
		c0.7513-0.0612,1.4734,0.0556,2.2073,0.0556c0.7338,0.0056,1.4734-0.0445,2.2073-0.0389c0.5474,0.0056,1.1007,0.0668,1.654,0.089
		c0.2679,0.0167,0.5533,0.0389,0.8329,0.0278c3.6109-0.0445,7.2276,0.0911,10.8443,0.08c1.8579,0,3.7099,0.0389,5.562,0.0389
		c1.7646,0,3.5177-0.0334,5.2824-0.0389c0.1398-0.0056,0.2796-0.0056,0.4194,0c1.9452,0.0723,3.9021,0.0056,5.8473,0.0056
		c0.8328,0,1.6656,0.0389,2.4985,0.0501c0.7862,0.0056,1.5724,0.0056,2.3645,0.0223c2.1375,0.0501,4.2574-0.0056,6.3948-0.0167
		c0.594,0,1.1939,0.0557,1.7938,0.0723c2.3238,0.089,4.6417,0.0668,6.9597,0.0668c2.0384,0,4.0826,0.0278,6.1268,0.0389
		c1.625,0.0056,3.2498-0.0056,4.8747,0.0056c1.4735,0.0111,2.9528-0.0167,4.4262,0.0946c0.7688,0.0557,1.5725,0.0557,2.3529,0.0779
		c1.8986,0.0389,3.7972,0.0779,5.6901,0.1057c0.827,0.0056,1.6656-0.0445,2.4927-0.0668c0.3145-0.0056,0.6697-0.0278,0.9493,0.0167
		c0.6232,0.0946,1.2697,0.0946,1.9103,0.1001c2.9236,0.0111,5.8531,0.0167,8.7709,0.0111c1.3395-0.0111,2.6907-0.0501,4.0302-0.0946
		c1.5725-0.0389,3.1449-0.0501,4.7291-0.0501c0.8212,0,1.654-0.0723,2.4927-0.0835c1.3395-0.0278,2.6848-0.0223,4.0301-0.0334
		c2.9644-0.0445,5.9231-0.0946,8.8933-0.1391c0.2796-0.0056,0.5649-0.0167,0.8329,0.0056c0.792,0.0501,1.5608,0.0167,2.3412-0.0334
		c0.5941-0.0334,1.2056-0.0445,1.8054-0.0389c2.4985,0.0334,5.0029-0.0056,7.5072-0.0557c1.7123-0.0334,3.4245-0.0278,5.1426-0.0334
		c1.8171,0,3.6284,0.0056,5.4397,0.0167c0.5009,0,1.0192,0.0056,1.5084,0.0501c0.7862,0.0612,1.555,0.0668,2.3529,0.0501
		c2.5975-0.0334,5.1892-0.0668,7.7867-0.089c0.8794-0.0111,1.7646,0.0334,2.6441,0.0223c1.9452-0.0167,3.8904-0.0557,5.8415-0.0835
		c1.0076-0.0111,2.0326-0.0111,3.0459-0.0278c0.3204-0.0056,0.6639-0.0167,0.9494-0.0557c0.8678-0.1335,1.7355-0.1057,2.58-0.0167
		c0.4718,0.0501,0.8969,0.0556,1.3629,0.0222c0.8677-0.0556,1.7414-0.1001,2.6149-0.0167c0.1398,0.0167,0.2971,0.0222,0.4194,0.0111
		c1.4385-0.1447,2.8596-0.0167,4.2807,0.0389c0.4543,0.0167,0.926,0.0167,1.3803,0.0167c0.1805,0.0056,0.3786-0.0111,0.5591,0
		c1.555,0.128,3.1334,0.0723,4.7117,0.0946c0.3203,0,0.6407,0,0.9726,0.0111c2.1724,0.0389,4.3564,0.1168,6.5346,0.1168
		c2.2714,0.0111,4.5252,0.0557,6.7908,0.089c1.4385,0.0111,2.8771-0.0167,4.3097-0.0056c0.8853,0.0056,1.7415,0,2.6209-0.0501
		c0.6348-0.0389,1.2987-0.0167,1.9452-0.0111c1.9452,0.0111,3.8962-0.0223,5.8415-0.0501c2.184-0.0278,4.3622-0.0056,6.5462-0.0056
		c1.0599,0,7.6096-0.32,8.6697-0.3367v3.289c-1.7006,0.0167-9.0074,0.386-10.7373,0.297c-1.0774,0.089-2.2247-0.0612-3.3022,0.089
		c-0.1864,0.0167-0.4542,0-0.6639-0.0278c-0.594-0.0723-1.1939-0.0668-1.7646,0.0111c-0.5358,0.0835-1.0717,0.089-1.6424,0.0723
		c-1.1474-0.0278-2.3122-0.0278-3.4653-0.0389h-0.2796c-2.2946,0.1224-4.6301,0-6.9306,0.0779
		c-0.2271,0.0111-0.4717,0-0.6989-0.0056c-1.4793-0.0334-2.9586-0.089-4.4438-0.0612c-0.8794,0.0111-1.7589-0.0111-2.6383-0.0445
		c-2.4985-0.1001-4.997-0.1335-7.5072-0.1502c-0.7862,0-1.5724-0.0445-2.3529-0.0612c-1.1998-0.0278-2.4111-0.0334-3.6167-0.0612
		c-0.5941-0.0056-1.1939-0.0445-1.7938-0.0445c-1.06-0.0111-2.1258,0-3.1857,0c-0.6057,0-1.2115-0.0222-1.8172-0.0278
		c-0.3611,0-0.7571-0.0278-1.1124-0.0056c-1.4268,0.0779-2.8538,0.0612-4.2982,0.0389c-0.3144-0.0056-0.6581-0.0111-0.9726,0.0056
		c-1.4095,0.1446-2.8538,0.0501-4.2865,0.1001c-0.5009,0.0278-1.0075,0.0167-1.52,0.0278c-0.3204,0-0.6465,0.0056-0.9727,0
		c-0.8736-0.0445-1.7064-0.0445-2.5916,0.0668c-0.6581,0.089-1.4619,0.0723-2.1957,0.0556
		c-1.6248-0.0223-3.2614-0.0389-4.8689,0.0334c-2.0093,0.0779-3.9778-0.0278-5.9637-0.0612
		c-2.8189-0.0668-5.6377-0.0445-8.4565,0.0056c-0.5009,0.0111-1.0134-0.0056-1.5142-0.0222c-0.4135,0-0.8329-0.0167-1.2521-0.0167
		c-3.8498,0.0167-7.6994,0.0167-11.5549,0.0779c-1.2463,0.0167-2.4868,0.0111-3.739,0.0167c-0.2737,0-0.5591,0-0.8329,0.0111
		c-0.8619,0.0612-1.7238,0.0723-2.6149,0c-0.4776-0.0389-1.0133,0-1.5143,0.0111c-0.6407,0.0223-1.2755,0.0723-1.9277,0.0779
		c-2.2655,0.0445-4.537,0.0723-6.8025,0.1113c-0.6115,0.0111-1.2114,0.0111-1.817,0.0167c-0.5475,0-1.1066,0.0111-1.654,0.0222
		c-1.7531,0.0389-3.5061,0.0612-5.2417,0.0445c-1.9394-0.0278-3.8846,0.0556-5.8123-0.0445
		c-0.5009-0.0278-1.0425-0.0222-1.5259,0.0167c-1.1066,0.089-2.2015,0.0612-3.3255,0.0445
		c-1.9977-0.0389-3.9836-0.0389-5.9871-0.0612c-0.5009-0.0056-1.0017-0.0445-1.5084-0.0612
		c-0.233-0.0167-0.4659-0.0278-0.693-0.0223c-1.8113,0.0835-3.6109,0-5.4047-0.0612c-1.1531-0.0389-2.2947-0.0501-3.4595,0.0111
		c-1.1357,0.0445-2.3121-0.0223-3.4711-0.0445c-0.3669,0-0.7338-0.0056-1.1007,0c-0.5999,0-1.2231,0.0445-1.8055,0.0111
		c-2.0326-0.1002-4.0768-0.0723-6.1211-0.1002c-1.7122-0.0222-3.4245-0.0389-5.1367-0.0556c-0.134-0.0056-0.2912,0-0.4194-0.0167
		c-1.6307-0.1947-3.3197-0.1113-4.9854-0.1391c-1.7589-0.0223-3.5235-0.0111-5.2824-0.0056
		c-1.4385,0.0056-2.8829,0.0167-4.3214,0.0222c-0.2737,0.0056-0.5533-0.0111-0.8211-0.0111
		c-0.3261-0.0111-0.6582-0.0334-0.9727-0.0222c-0.9668,0.0501-1.9161,0.1168-2.8945,0.0334
		c-0.2563-0.0167-0.5592,0.0445-0.8212,0.0445c-0.926,0.0056-1.8695,0.0389-2.7722-0.0167
		c-1.0192-0.0612-2.0267-0.0723-3.0518-0.0723c-1.0192-0.0056-2.0384-0.0278-3.0576-0.0278c-0.8387,0-1.6657,0-2.5044,0.0167
		c-0.693,0.0056-1.3803,0.0334-2.085-0.0167c-0.5358-0.0278-1.1181-0.0389-1.6656-0.0111c-2.0501,0.0946-4.071-0.0355-6.1094-0.0522
		c-2.7315-0.0056-5.4805-0.0223-8.2177-0.0334c-0.1806,0-0.3728,0.0111-0.5475,0.0056c-2.5916-0.1502-5.1775,0.0334-7.7809-0.0167
		c-1.9393-0.0334-3.8962-0.0167-5.8415,0c-0.7338,0.0056-1.4618,0.0668-2.1956,0.1001c-0.1747,0.0056-0.3611,0.0389-0.5416,0.0278
		c-0.9377-0.0389-1.8462,0.0334-2.7723,0.0612c-0.8328,0.0334-1.6656,0.0445-2.5043,0.0501c-0.3611,0.0111-0.7572,0-1.1007,0.0334
		c-1.0658,0.1057-2.1199,0-3.1741-0.0111c-0.2854-0.0056-0.5999-0.0835-0.8445-0.1558c-0.3844-0.1113-0.7921-0.1502-1.2872-0.1335
		c-0.5533,0.0111-1.1124,0-1.6656-0.0167c-0.3261,0-0.6582-0.0278-0.9668-0.0167c-1.6307,0.0557-3.2498-0.0445-4.8689-0.0389
		c-0.6057,0-1.1939-0.0779-1.7822-0.0723c-1.4444,0-2.8771,0.0445-4.3098,0.0501c-1.5317,0-3.0576,0.0389-4.5835,0.0501
		c-1.654,0.0167-3.3197,0.0223-4.9679,0.0556c-1.1589,0.0278-2.3063,0.089-3.4653,0.1113
		c-0.7862,0.0111-1.5724,0.0056-2.3587,0.0056c-0.2854-0.0056-0.5591-0.0056-0.8444,0c-1.3862,0.0278-2.7607,0.0557-4.1526,0.0835
		c-0.0874,0-0.1921,0.0167-0.2737,0.0056c-1.5142-0.1725-3.0459,0.0167-4.5601-0.0278c-0.8737-0.0278-1.7589-0.0278-2.6383-0.0223
		c-0.8329,0.0056-1.6715,0.0668-2.4869,0.0501c-0.7863-0.0223-1.5376-0.1224-2.3413-0.1168
		c-0.693,0.0056-1.3861-0.0445-2.0733,0.0222c-0.2097,0.0111-0.4659,0.0056-0.6931,0.0056
		c-1.0541-0.0222-2.1258-0.0556-3.1741-0.0612c-0.8329,0-1.6657,0.0334-2.4985,0.0556c-0.2796,0-0.5708,0.0111-0.827-0.0056
		c-1.2813-0.1502-2.5859-0.0835-3.8788-0.1113c-0.7804-0.0222-1.5784-0.0278-2.3529-0.0723
		c-1.7414-0.1001-3.4917,0.0667-5.2389,0.0054c-1.2929-0.0501-7.4945,0.1615-7.6867,0.1337
		c-0.8095-0.1168-1.7335,0.2286-2.5721,0.2286c-1.4735-0.0111-2.9644,0.0278-4.4321-0.089
		c-0.3494-0.0278-0.7396-0.0167-1.1066,0.0111c-2.1258,0.1002-4.269,0.0445-6.4006,0.0501
		c-2.5975,0.0167-5.2009,0.0278-7.7925,0.0334c-0.0932,0.0056-0.1922,0.0223-0.2796,0.0111
		c-2.3704-0.1669-4.7058,0.0557-7.0587,0.0835c-0.2271,0-0.4601-0.0111-0.6872-0.0278c-0.594-0.0389-1.1881-0.0445-1.7938,0.0056
		c-0.2621,0.0223-0.5591,0.0334-0.8211,0.0167c-1.0251-0.0612-2.0327-0.0222-3.0518,0c-1.9394,0.0445-3.8904,0.0445-5.8299,0.0111
		c-2.8712-0.0445-5.7367-0.1057-8.6021-0.1558c-0.5009-0.0111-1.0134,0.0222-1.52,0.0222c-2.219-0.0056-4.4437-0.0167-6.6685-0.0167
		c-0.8329,0-1.6656,0.0167-2.4927,0.0334c-0.1864,0-0.3901,0.0167-0.5416,0c-0.8911-0.128-1.8346-0.0946-2.7489-0.1113
		c-1.1066-0.0334-2.219,0-3.3255,0.0167c-0.4659,0.0056-0.9261,0.0334-1.357-0.0556c-0.7339-0.1558-1.5317-0.1335-2.3122-0.0779
		c-0.7863,0.0501-1.5492,0.0222-2.3354,0.0167C9.4769,3.5171,8.1024,3.4113,6.7047,3.5171c-0.7921,0.0668-1.6657-0.0056-2.4927,0"/>
	<path id="XMLID_3_" fill-rule="evenodd" clip-rule="evenodd" fill="#7B6F4F" d="M0,84.896v-3.2939
		c0.8154,0.0334,3.1345,0.0056,3.9558,0c1.3395-0.0056,2.679-0.0389,4.0244-0.0389c3.0577-0.0056,6.1269-0.0445,9.1845,0.0612
		c1.6074,0.0612,3.2382,0.0389,4.8572,0.0779c0.2738,0.0056,0.5649,0.0111,0.8329-0.0056c1.7997-0.1001,3.6109-0.0668,5.4105-0.0835
		c0.5009-0.0056,1.0134,0.0389,1.5142,0.0612c0.4135,0.0167,0.8212,0.0556,1.2347,0.0612c1.4793,0.0334,2.9644,0.0389,4.4379,0.0779
		c0.6582,0.0167,1.2929,0.0056,1.9394-0.039c0.3553-0.0222,0.7572-0.0445,1.1066-0.0111c0.9842,0.0835,2.0034,0.0835,2.9877,0.128
		c1.7239,0.0667,3.4186,0.0946,5.1367,0.0334c0.8794-0.0334,1.7705-0.0612,2.6383-0.0334c1.2056,0.0445,2.4054,0.0111,3.6051,0
		c0.332-0.0056,0.6523,0,0.9727,0.0111c0.1864,0.0056,0.3843,0.0389,0.5533,0.0222c1.6365-0.1669,3.3021,0.0445,4.9679-0.0667
		c1.3977-0.089,2.8712-0.0389,4.3097-0.0389c1.9452,0,3.8963,0.0111,5.8415,0.0111c0.1398,0,0.2853,0.0056,0.4194,0
		c1.8811-0.1335,3.7914-0.0223,5.6784-0.0612c0.5533-0.0111,1.1124-0.0111,1.6656-0.0111c0.4718,0,0.9261,0,1.392,0.0056
		c1.9394,0.0389,3.9508-0.2015,5.8902-0.1626c0.4659,0.0056,7.6741,0.0723,9.2116,0.0946c3.6319,0.0816,2.5454-0.2138,6.1093-0.1439
		c0.7921,0.0111,1.5783,0.0111,2.3704,0.0111c2.4985,0.0056,5.0087,0.0278,7.5188,0.0334c1.9452,0.0056,3.8904,0.0056,5.8473,0.0056
		c0.1398,0,0.2796-0.0056,0.4135,0c1.9336,0.1447,3.8904,0.0668,5.8357,0.1113c1.7705,0.0334,3.5177,0.0334,5.2707-0.0445
		c0.4077-0.0167,0.8329,0,1.2521,0c1.8055-0.0111,3.6167-0.0167,5.4222-0.0334c0.0991,0,0.1864-0.0056,0.2854-0.0056
		c1.8928-0.0111,3.7972,0,5.69-0.0501c1.8987-0.0389,3.8031,0,5.7017-0.1001c0.9027-0.0501,1.8404-0.0111,2.7722-0.0445
		c0.728-0.0278,1.4793,0.0278,2.2015-0.0612c0.1689-0.0223,0.3611-0.0056,0.5533,0c2.0791,0.089,4.1642,0.0835,6.2492,0.0278
		c0.5533-0.0111,1.1124-0.0111,1.6656,0.0056c0.7397,0.0278,1.4793,0.0222,2.2189,0.0222c0.961,0,1.9278,0.0723,2.8887,0.1336
		c0.8562,0.0612,1.7181,0.1113,2.5917,0.0946c0.0931-0.0056,0.198-0.0056,0.2854-0.0056c1.4852,0.0946,2.9586-0.0111,4.4379,0
		c1.2988,0.0056,2.5976,0.0223,3.8963,0.0056c2.3587-0.0334,4.735,0.0389,7.0994-0.0612c0.6814-0.0278,1.392-0.0056,2.0792,0
		c1.0192,0.0111,2.05-0.0334,3.0459,0c1.0717,0.0389,2.1258,0.0111,3.1916,0.0056c0.3669,0,0.7513,0,1.1066-0.0334
		c0.7513-0.0612,1.4734,0.0556,2.2073,0.0556c0.7338,0.0056,1.4734-0.0445,2.2073-0.0389c0.5474,0.0056,1.1007,0.0668,1.654,0.089
		c0.2679,0.0167,0.5533,0.0389,0.8329,0.0278c3.6109-0.0445,7.2276,0.0911,10.8443,0.08c1.8579,0,3.7099,0.0389,5.562,0.0389
		c1.7646,0,3.5177-0.0334,5.2824-0.0389c0.1398-0.0056,0.2796-0.0056,0.4194,0c1.9452,0.0723,3.9021,0.0056,5.8473,0.0056
		c0.8328,0,1.6656,0.0389,2.4985,0.0501c0.7862,0.0056,1.5724,0.0056,2.3645,0.0223c2.1375,0.0501,4.2574-0.0056,6.3948-0.0167
		c0.594,0,1.1939,0.0557,1.7938,0.0723c2.3238,0.089,4.6417,0.0668,6.9597,0.0668c2.0384,0,4.0826,0.0278,6.1268,0.0389
		c1.625,0.0056,3.2498-0.0056,4.8747,0.0056c1.4735,0.0111,2.9528-0.0167,4.4262,0.0946c0.7688,0.0556,1.5725,0.0556,2.3529,0.0779
		c1.8986,0.0389,3.7972,0.0779,5.6901,0.1057c0.827,0.0056,1.6656-0.0445,2.4927-0.0668c0.3145-0.0056,0.6697-0.0278,0.9493,0.0167
		c0.6232,0.0946,1.2697,0.0946,1.9103,0.1001c2.9236,0.0111,5.8531,0.0167,8.7709,0.0111c1.3395-0.0111,2.6907-0.0501,4.0302-0.0946
		c1.5725-0.0389,3.1449-0.0501,4.7291-0.0501c0.8212,0,1.654-0.0723,2.4927-0.0835c1.3395-0.0278,2.6848-0.0223,4.0301-0.0334
		c2.9644-0.0445,5.9231-0.0946,8.8933-0.1391c0.2796-0.0056,0.5649-0.0167,0.8329,0.0056c0.792,0.0501,1.5608,0.0167,2.3412-0.0334
		c0.5941-0.0334,1.2056-0.0445,1.8054-0.0389c2.4985,0.0334,5.0029-0.0056,7.5072-0.0557c1.7123-0.0334,3.4245-0.0278,5.1426-0.0334
		c1.8171,0,3.6284,0.0056,5.4397,0.0167c0.5009,0,1.0192,0.0056,1.5084,0.0501c0.7862,0.0612,1.555,0.0668,2.3529,0.0501
		c2.5975-0.0334,5.1892-0.0667,7.7867-0.089c0.8794-0.0111,1.7646,0.0334,2.6441,0.0223c1.9452-0.0167,3.8904-0.0557,5.8415-0.0835
		c1.0076-0.0111,2.0326-0.0111,3.0459-0.0278c0.3204-0.0056,0.6639-0.0167,0.9494-0.0557c0.8678-0.1335,1.7355-0.1057,2.58-0.0167
		c0.4718,0.0501,0.8969,0.0556,1.3629,0.0222c0.8677-0.0556,1.7414-0.1001,2.6149-0.0167c0.1398,0.0167,0.2971,0.0222,0.4194,0.0111
		c1.4385-0.1447,2.8596-0.0167,4.2807,0.0389c0.4543,0.0167,0.926,0.0167,1.3803,0.0167c0.1805,0.0056,0.3786-0.0111,0.5591,0
		c1.555,0.128,3.1334,0.0723,4.7117,0.0946c0.3203,0,0.6407,0,0.9726,0.0111c2.1724,0.0389,4.3564,0.1168,6.5346,0.1168
		c2.2714,0.0111,4.5252,0.0556,6.7908,0.089c1.4385,0.0111,2.8771-0.0167,4.3097-0.0056c0.8853,0.0056,1.7415,0,2.6209-0.0501
		c0.6348-0.0389,1.2987-0.0167,1.9452-0.0111c1.9452,0.0111,3.8962-0.0223,5.8415-0.0501c2.184-0.0278,4.3622-0.0056,6.5462-0.0056
		c1.0599,0,7.6096-0.32,8.6697-0.3367v3.289c-1.7006,0.0167-9.0074,0.386-10.7373,0.297c-1.0774,0.089-2.2247-0.0612-3.3022,0.089
		c-0.1864,0.0167-0.4542,0-0.6639-0.0278c-0.594-0.0723-1.1939-0.0668-1.7646,0.0111c-0.5358,0.0835-1.0717,0.089-1.6424,0.0723
		c-1.1474-0.0278-2.3122-0.0278-3.4653-0.0389h-0.2796c-2.2946,0.1224-4.6301,0-6.9306,0.0779
		c-0.2271,0.0111-0.4717,0-0.6989-0.0056c-1.4793-0.0334-2.9586-0.089-4.4438-0.0612c-0.8794,0.0111-1.7589-0.0111-2.6383-0.0445
		c-2.4985-0.1001-4.997-0.1335-7.5072-0.1502c-0.7862,0-1.5724-0.0445-2.3529-0.0612c-1.1998-0.0278-2.4111-0.0334-3.6167-0.0612
		c-0.5941-0.0056-1.1939-0.0445-1.7938-0.0445c-1.06-0.0111-2.1258,0-3.1857,0c-0.6057,0-1.2115-0.0222-1.8172-0.0278
		c-0.3611,0-0.7571-0.0278-1.1124-0.0056c-1.4268,0.0779-2.8538,0.0612-4.2982,0.0389c-0.3144-0.0056-0.6581-0.0111-0.9726,0.0056
		c-1.4095,0.1446-2.8538,0.0501-4.2865,0.1001c-0.5009,0.0278-1.0075,0.0167-1.52,0.0278c-0.3204,0-0.6465,0.0056-0.9727,0
		c-0.8736-0.0445-1.7064-0.0445-2.5916,0.0668c-0.6581,0.089-1.4619,0.0723-2.1957,0.0556
		c-1.6248-0.0223-3.2614-0.0389-4.8689,0.0334c-2.0093,0.0779-3.9778-0.0278-5.9637-0.0612
		c-2.8189-0.0667-5.6377-0.0445-8.4565,0.0056c-0.5009,0.0111-1.0134-0.0056-1.5142-0.0222c-0.4135,0-0.8329-0.0167-1.2521-0.0167
		c-3.8498,0.0167-7.6994,0.0167-11.5549,0.0779c-1.2463,0.0167-2.4868,0.0111-3.739,0.0167c-0.2737,0-0.5591,0-0.8329,0.0111
		c-0.8619,0.0612-1.7238,0.0723-2.6149,0c-0.4776-0.0389-1.0133,0-1.5143,0.0111c-0.6407,0.0223-1.2755,0.0723-1.9277,0.0779
		c-2.2655,0.0445-4.537,0.0723-6.8025,0.1113c-0.6115,0.0111-1.2114,0.0111-1.817,0.0167c-0.5475,0-1.1066,0.0111-1.654,0.0222
		c-1.7531,0.0389-3.5061,0.0612-5.2417,0.0445c-1.9394-0.0278-3.8846,0.0556-5.8123-0.0445
		c-0.5009-0.0278-1.0425-0.0222-1.5259,0.0167c-1.1066,0.089-2.2015,0.0612-3.3255,0.0445
		c-1.9977-0.0389-3.9836-0.0389-5.9871-0.0612c-0.5009-0.0056-1.0017-0.0445-1.5084-0.0612
		c-0.233-0.0167-0.4659-0.0278-0.693-0.0223c-1.8113,0.0835-3.6109,0-5.4047-0.0612c-1.1531-0.0389-2.2947-0.0501-3.4595,0.0111
		c-1.1357,0.0445-2.3121-0.0223-3.4711-0.0445c-0.3669,0-0.7338-0.0056-1.1007,0c-0.5999,0-1.2231,0.0445-1.8055,0.0111
		c-2.0326-0.1002-4.0768-0.0723-6.1211-0.1002c-1.7122-0.0222-3.4245-0.0389-5.1367-0.0556c-0.134-0.0056-0.2912,0-0.4194-0.0167
		c-1.6307-0.1947-3.3197-0.1113-4.9854-0.1391c-1.7589-0.0223-3.5235-0.0111-5.2824-0.0056
		c-1.4385,0.0056-2.8829,0.0167-4.3214,0.0222c-0.2737,0.0056-0.5533-0.0111-0.8211-0.0111
		c-0.3261-0.0111-0.6582-0.0334-0.9727-0.0222c-0.9668,0.0501-1.9161,0.1168-2.8945,0.0334
		c-0.2563-0.0167-0.5592,0.0445-0.8212,0.0445c-0.926,0.0056-1.8695,0.0389-2.7722-0.0167
		c-1.0192-0.0612-2.0267-0.0723-3.0518-0.0723c-1.0192-0.0056-2.0384-0.0278-3.0576-0.0278c-0.8387,0-1.6657,0-2.5044,0.0167
		c-0.693,0.0056-1.3803,0.0334-2.085-0.0167c-0.5358-0.0278-1.1181-0.0389-1.6656-0.0111c-2.0501,0.0946-4.071-0.0355-6.1094-0.0522
		c-2.7315-0.0056-5.4805-0.0223-8.2177-0.0334c-0.1806,0-0.3728,0.0111-0.5475,0.0056c-2.5916-0.1502-5.1775,0.0334-7.7809-0.0167
		c-1.9393-0.0334-3.8962-0.0167-5.8415,0c-0.7338,0.0056-1.4618,0.0668-2.1956,0.1001c-0.1747,0.0056-0.3611,0.0389-0.5416,0.0278
		c-0.9377-0.0389-1.8462,0.0334-2.7723,0.0612c-0.8328,0.0334-1.6656,0.0445-2.5043,0.0501c-0.3611,0.0111-0.7572,0-1.1007,0.0334
		c-1.0658,0.1057-2.1199,0-3.1741-0.0111c-0.2854-0.0056-0.5999-0.0835-0.8445-0.1558c-0.3844-0.1113-0.7921-0.1502-1.2872-0.1336
		c-0.5533,0.0111-1.1124,0-1.6656-0.0167c-0.3261,0-0.6582-0.0278-0.9668-0.0167c-1.6307,0.0557-3.2498-0.0445-4.8689-0.0389
		c-0.6057,0-1.1939-0.0779-1.7822-0.0723c-1.4444,0-2.8771,0.0445-4.3098,0.0501c-1.5317,0-3.0576,0.0389-4.5835,0.0501
		c-1.654,0.0167-3.3197,0.0223-4.9679,0.0556c-1.1589,0.0278-2.3063,0.089-3.4653,0.1113
		c-0.7862,0.0111-1.5724,0.0056-2.3587,0.0056c-0.2854-0.0056-0.5591-0.0056-0.8444,0c-1.3862,0.0278-2.7607,0.0556-4.1526,0.0835
		c-0.0874,0-0.1921,0.0167-0.2737,0.0056c-1.5142-0.1725-3.0459,0.0167-4.5601-0.0278c-0.8737-0.0278-1.7589-0.0278-2.6383-0.0223
		c-0.8329,0.0056-1.6715,0.0668-2.4869,0.0501c-0.7863-0.0223-1.5376-0.1224-2.3413-0.1168
		c-0.693,0.0056-1.3861-0.0445-2.0733,0.0222c-0.2097,0.0111-0.4659,0.0056-0.6931,0.0056
		c-1.0541-0.0222-2.1258-0.0556-3.1741-0.0612c-0.8329,0-1.6657,0.0334-2.4985,0.0556c-0.2796,0-0.5708,0.0111-0.827-0.0056
		c-1.2813-0.1502-2.5859-0.0835-3.8788-0.1113c-0.7804-0.0222-1.5784-0.0278-2.3529-0.0723
		c-1.7414-0.1001-3.4917,0.0667-5.2389,0.0054c-1.2929-0.0501-7.4945,0.1615-7.6867,0.1337
		c-0.8095-0.1168-1.7335,0.2286-2.5721,0.2286c-1.4735-0.0111-2.9644,0.0278-4.4321-0.089
		c-0.3494-0.0278-0.7396-0.0167-1.1066,0.0111c-2.1258,0.1002-4.269,0.0445-6.4006,0.0501
		c-2.5975,0.0167-5.2009,0.0278-7.7925,0.0334c-0.0932,0.0056-0.1922,0.0223-0.2796,0.0111
		c-2.3704-0.1669-4.7058,0.0557-7.0587,0.0835c-0.2271,0-0.4601-0.0111-0.6872-0.0278c-0.594-0.0389-1.1881-0.0445-1.7938,0.0056
		c-0.2621,0.0223-0.5591,0.0334-0.8211,0.0167c-1.0251-0.0612-2.0327-0.0222-3.0518,0c-1.9394,0.0445-3.8904,0.0445-5.8299,0.0111
		c-2.8712-0.0445-5.7367-0.1057-8.6021-0.1558c-0.5009-0.0111-1.0134,0.0222-1.52,0.0222c-2.219-0.0056-4.4437-0.0167-6.6685-0.0167
		c-0.8329,0-1.6656,0.0167-2.4927,0.0334c-0.1864,0-0.3901,0.0167-0.5416,0c-0.8911-0.128-1.8346-0.0946-2.7489-0.1113
		c-1.1066-0.0334-2.219,0-3.3255,0.0167c-0.4659,0.0056-0.9261,0.0334-1.357-0.0556c-0.7339-0.1558-1.5317-0.1335-2.3122-0.0779
		c-0.7863,0.0501-1.5492,0.0222-2.3354,0.0167c-1.3803-0.0167-2.7548-0.1224-4.1525-0.0167c-0.7921,0.0668-1.6657-0.0056-2.4927,0"
		/>
	<path id="XMLID_10577_" fill-rule="evenodd" clip-rule="evenodd" fill="#7B6F4F" d="M38.9615,24.4117
		c0.0182,3.6055,0.2057,4.2292,0.1949,6.1988c-0.003,1.1128-0.0244,2.8598-0.0106,3.956c0.0714,4.5126-0.1746,9.1134-0.0976,13.6037
		c0.0217,2.2813-0.025,5.1856,0.0375,8.8747c0.1033,5.0691-0.3207,9.6527-0.2064,14.7273c0.0149,0.6677,0.2358,1.2859,0.1284,1.9366
		c-0.1301,0.8009,0.6626,1.9102-0.2946,1.9689c-0.2894,0.0215-1.3404-0.1761-1.469,0.0517
		c-1.4309,0.3801-2.5488,0.1935-3.3334,0.197c-2.8767,0.0424-5.3475,0.2082-8.2239,0.1171
		c-1.7692-0.0659-3.5166,0.0351-5.2913-0.042c-4.6453-0.2239-9.2412-0.2139-13.8873-0.1429
		c-0.4897,0.0098-0.7731-0.1022-1.4577-0.0428c-0.8238,0.1313-0.8962,0.1423-1.5246,0.0126
		c-0.9342-0.1917-1.481,0.3744-1.5357,0.0293c-0.0548-0.3173-0.0783-3.9951-0.0218-4.3121c0.0858-5.0408,0.1227-6.3593,0.1301-11.2
		c-0.0062-1.8306,0.1601-3.6774,0.1761-5.5135c0.018-2.5816-0.0362-5.1635-0.0516-7.7452
		c-0.0143-0.9014,0.0271-1.7915-0.0095-2.6819c-0.0424-0.7846-0.1739-1.5306-0.2331-2.3041
		c-0.0697-0.985-0.1949-2.0147-0.1367-2.9771c0.296-4.5784,0.4392-8.1723,0.3848-10.7041c-0.0395-1.8696-0.4152-2.8888,0.0851-4.757
		c-0.0685-1.4301-0.0835-2.0478-0.1366-3.016c-0.101-1.7863,0.186-2.9762,0.1574-4.7512c-0.0299-1.3243-0.1764-2.7046-0.0615-4.0341
		c0.0287-0.3282,0.13-0.7564,0.0752-1.0792C2.1563,9.6354,3.2355,9.7217,4.5763,9.781c0.7344,0.0298,2.0806,0.1113,2.8094,0.1522
		c4.7511,0.2075,9.2536-0.2312,14.0048-0.0794c1.8749,0.0606,3.7786-0.2292,5.6421-0.0851c2.7091,0.2076,5.4212-0.7033,8.1065,0.094
		c0.1779,0.0561,1.0792,0.0697,1.2686,0.0034c1.2185,0.0033,2.1758-0.0721,2.4447,1.3029c0.258,1.3027,0.0939,2.3483,0.1348,3.6726
		c0.0765,2.6097,0.2815,5.0084,0.2634,7.629C39.1782,22.476,39.0394,24.4119,38.9615,24.4117 M27.829,71.8428
		c2.4872-0.0323,4.8964-0.0425,7.2948-0.1474c0.306-0.0103,0.7244-0.4265,0.8589-0.7544c0.2016-0.4947,0.2644-1.0843,0.2659-1.6351
		c0.0389-2.0586,0.0389-4.1228,0.0333-6.1815c-0.0072-3.5721,0.0358-7.1329-0.0436-10.7219
		c-0.0837-4.0619-0.1896-8.1462-0.4793-12.1976c-0.2303-3.3279-0.7445-6.6231-1.1196-9.9347
		c-0.4729-4.1798-3.1975-6.8857-5.6827-9.6966c-1.0817-1.227-2.5986-1.9822-4.1045-2.7151c-2.8729-1.3875-5.6173-0.8774-8.38,0.2558
		c-0.3342,0.1271-0.6353,0.3655-0.9363,0.5928c-0.6245,0.4991-1.2158,1.0762-1.8791,1.5139
		c-1.9229,1.2301-3.5794,2.7223-4.5646,4.9342c-0.1567,0.3445-0.3746,0.6945-0.6424,0.9386
		c-0.6469,0.5491-0.7934,1.2331-0.8512,2.062c-0.1273,1.8358-0.3103,3.6658-0.5488,5.4791
		C6.641,36.6161,6.01,39.5633,5.7571,42.5616c-0.4945,5.9967-0.8835,12.027-1.1444,18.041c-0.1422,3.2323,0.105,6.4935,0.152,9.7263
		c0.0329,2.2813,0.0162,2.2534,2.1582,2.3148c2.4312,0.0733,4.7859-0.3322,7.3027-1.0321c0.093-1.4575,0.247-2.8815,0.2787-4.328
		c0.0338-2.2311-0.0659-4.4681-0.0099-6.6879c0.087-3.3882,0.2518-6.7763,0.3888-10.1588c0.1376-3.5828,1.1142-6.7684,3.8524-9.1091
		c0.2063-0.1664,0.3849-0.3829,0.5413-0.6106c0.5195-0.7776,1.2434-0.9815,2.0777-0.8791c1.0902,0.1253,2.2975,0.1341,3.0573,1.0765
		c1.1756,1.4887,2.3232,3.0386,2.6183,5.0202c0.3991,2.644,0.7871,5.2823,0.7354,7.9752c-0.0565,2.4091,0.065,4.8019,0.0364,7.1944
		c-0.0137,0.9458-0.3278,1.8853-0.3136,2.8312C27.5374,66.4728,27.6975,68.9937,27.829,71.8428"/>
	<path id="XMLID_10574_" fill-rule="evenodd" clip-rule="evenodd" fill="#7B6F4F" d="M20.6915,37.3492
		c-1.3305,0.2524-2.3072-0.7128-3.2117-1.5832c-1.071-1.0489-1.93-2.3365-2.8727-3.5241c-0.1054-0.1227-0.2163-0.2788-0.2325-0.429
		c-0.2979-3.0443-0.8182-6.117,1.6977-8.5529c0.8814-0.8656,1.613-1.8596,2.6998-2.5355c0.875-0.5429,1.7157-0.7354,2.656-0.7607
		c2.8267-0.0647,5.3647,1.6947,6.4145,4.435c0.3923,1.0304,0.7902,2.0608,1.1323,3.1189c0.596,1.8377,0.6359,3.5682-0.8371,5.0777
		c-0.742,0.7603-1.2789,1.7826-2.0154,2.554C24.3423,37.0362,23.2897,37.4229,20.6915,37.3492 M18.871,33.5997
		c0.8239-0.1536,1.5816-0.5466,2.1876-0.3502c1.6179,0.4717,2.8829-0.2927,3.8538-1.3083c0.9932-1.0545,1.9095-2.4931,1.4466-4.1524
		c-0.3196-1.1637-0.8619-2.278-1.5046-3.2645c-0.8866-1.3544-3.3719-2.051-4.5202-1.264c-1.1036,0.7259-2.1131,1.6357-3.0893,2.5734
		c-0.3905,0.3884-0.676,1.0108-0.8221,1.5835C15.8434,29.7135,16.9658,32.3539,18.871,33.5997"/>
	<path id="XMLID_10573_" fill-rule="evenodd" clip-rule="evenodd" fill="#7B6F4F" d="M21.4907,30.62
		c-1.7912-0.1661-2.7509-1.2259-2.5741-2.8445c0.1484-1.3962,1.5592-2.5553,2.9443-2.4291c1.4017,0.1484,2.5944,1.4758,2.4464,2.744
		C24.1364,29.5644,22.8257,30.7348,21.4907,30.62"/>
	<path id="XMLID_10567_" fill-rule="evenodd" clip-rule="evenodd" fill="#006072" d="M107.1214,9.7387
		c-0.8573,0.1535-1.2301,0.1692-2.0982,0.2114c-0.9683,0.0475-2.2143-0.056-3.1881-0.0085
		c-0.6121,0.0206-1.1236-0.131-1.7412-0.1326c-2.5761-0.0069-4.5906,0.1157-7.161,0.0643
		c-4.6346-0.0847-9.9933,0.1123-14.6275-0.0837c-6.6427-0.2793-13.5324,0.2754-20.1691-0.1375
		c-4.3058-0.273-8.5471,0.3165-12.8352-0.3459c-0.3448-0.0454-1.0287-0.2309-1.3131-0.0035
		c-0.5465,0.4437-0.4844,0.1267-0.9532,0.654c-0.2009,0.222-0.2699,1.0564-0.2706,1.3124
		c-0.0077,0.8123-0.1649,1.3349,0.1281,2.0479c0.2131,1.4472,0.0592,2.8211,0.1001,4.1955
		c0.0963,3.5223,0.1425,7.0555,0.1775,10.5721c0.0408,3.4776,0.0425,6.9718,0.0722,10.4382
		c0.0266,2.515,0.1256,5.0135,0.1078,7.5284c-0.0254,5.3191-0.1119,10.6325-0.1762,15.9626
		c-0.0373,3.5275-0.0801,7.0661-0.1452,10.5823c-0.014,1.0738-0.0848,2.5814,0.9383,2.8401
		c1.2399,0.3093,2.7936-0.1873,4.0675-0.067c1.9413,0.1833,3.1602,0.0697,5.1184,0.1584c-0.9126,0.0421,0.9398,0.1973,1.3909,0.0482
		c3.7554,0.1325,6.8045,0.085,10.5654,0.223c3.3437,0.1035,6.6927,0.2739,10.0478,0.3051c3.5442,0.0206,7.1-0.1257,10.6499-0.1384
		c2.732-0.0316,5.4582,0.0313,8.1901,0.0386c3.1492,0.0084,5.7217-0.708,8.774,0.1459c0.3836,0.1123,1.647-0.0178,2.0366-0.0557
		c0.8516-0.0923,1.9645-0.1339,2.8105-0.254c1.1744-0.1693,1.908,0.1665,1.7054-1.0415c-0.1588-0.9574-0.4002-2.2434-0.3809-3.217
		c0.0761-3.4717,0.0845-6.6154,0.2217-10.0814c0.1313-3.3102-0.3126-7.9351-0.1297-13.8881
		c0.0936-3.7832,0.0926-7.5612,0.1583-11.339c0.0449-2.2422,0.2123-4.5007,0.2128-6.743c-0.006-3.9838-0.1345-7.968-0.1238-11.9462
		c-0.0011-1.6748,0.1536-3.3547,0.3529-5.0233C109.8392,10.881,108.8082,9.4316,107.1214,9.7387 M54.8294,12.4475
		c1.3409,0.0203,2.676,0.1017,4.0112,0.1665c1.2295,0.0534,2.459,0.0956,3.6829,0.1601c4.7231,0.2575,9.4517,0.5706,14.1806,0.7613
		c4.3228,0.1729,8.6515,0.1956,12.98,0.3129c2.8764,0.0856,5.7525,0.2268,8.8625,0.352c-0.971,1.0657-2.002,1.6861-3.0052,2.3344
		c-2.1069,1.3742-4.2581,2.6871-6.2929,4.1562c-1.2376,0.898-2.3367,1.9968-3.419,3.0789c-1.523,1.4982-3.0738,2.9908-4.4026,4.6954
		c-1.809,2.332-3.2234,4.871-4.4602,7.5161c-0.1007,0.2223-0.2182,0.4445-0.3189,0.6724c-0.1002,0.0109-0.2115,0.0161-0.3061,0.0214
		c-0.2427-0.774-0.5245-1.5315-0.7227-2.3221c-0.3633-1.4365-0.6209-2.9172-1.0289-4.3204
		c-0.2095-0.7294-0.6584-1.3816-1.0127-2.067c-0.8248-1.5768-1.4992-3.2311-2.6917-4.6364c-2.4516-2.8665-5.294-5.2666-8.745-6.8449
		c-1.1114-0.526-2.3795-0.6963-3.5077-1.1834c-1.734-0.7502-3.4063-1.6394-5.3456-2.6016
		C53.9666,12.5787,54.4009,12.4408,54.8294,12.4475 M47.5259,61.5747c-0.1237,0.467-0.3641,0.9171-0.7381,1.3445
		c-0.3407-3.6509-0.2197-7.2839-0.2156-10.9004c-0.0012-3.6889-0.1027-7.367,0.0797-11.0443
		c0.1766-3.6273-0.4369-7.2344-0.1824-10.8503c0.2657-3.6604,0.2421-7.2938-0.0541-10.9723c0.7421,1.2984,1.5513,2.469,1.8478,3.961
		c0.2414,1.2804,0.8556,2.5395,1.5816,3.6264c1.3523,1.9788,2.8216,3.9024,4.397,5.6982c1.6807,1.9352,3.4004,3.8483,5.3378,5.5171
		c1.4933,1.267,3.3326,2.1678,5.0492,3.1627c1.1388,0.6763,2.3392,1.2359,3.8227,2.0077c-0.7579,0.4542-1.1315,0.7425-1.5492,0.8917
		c-1.6318,0.5854-3.2857,1.1096-4.9176,1.695c-0.5235,0.1989-1.0583,0.4367-1.4988,0.7749
		c-1.6114,1.2587-3.2283,2.5285-4.7564,3.8709c-1.4836,1.3203-3.0616,2.5958-4.2509,4.1505
		C49.837,56.6568,48.2675,58.8949,47.5259,61.5747 M94.0111,72.7103c-5.0021,0.0256-9.9986,0.0344-15.0009,0.1435
		c-4.6295,0.0933-9.2529-0.0081-13.8756-0.371c-2.609-0.1962-5.2465-0.1309-7.8612-0.2658
		c-1.6801-0.088-3.3431-0.3094-5.3067-0.4927c1.6996-0.9469,3.0931-1.8835,4.6138-2.5415c3.2532-1.4324,6.3901-3.0431,9.178-5.2501
		c1.6003-1.2866,3.0174-2.7071,4.1071-4.5014c1.6878-2.7775,3.1423-5.7336,5.6531-8.3309c0.6023,1.5484,1.0214,2.9795,1.6967,4.2721
		c0.952,1.8442,1.9041,3.7051,3.5807,5.0784c0.7884,0.6364,1.2921,1.6281,2.0749,2.2645c1.5767,1.3118,3.2036,2.5736,4.8975,3.7132
		c2.1327,1.4357,4.3492,2.7436,6.5434,4.0792c1.1332,0.6985,2.3,1.3248,3.4327,2.1903
		C96.4982,72.6947,95.2519,72.6914,94.0111,72.7103 M104.9073,67.8097c-0.8329-0.6421-1.215-1.3275-1.5748-2.0184
		c-0.6255-1.2257-1.2565-2.4348-1.8318-3.6938c-0.6363-1.3371-1.6013-2.497-2.2934-3.7785
		c-1.2236-2.2456-2.5866-4.3802-3.9886-6.515c-1.7455-2.6809-4.0436-4.7124-6.922-6.0833
		c-1.5171-0.7218-3.0621-1.3658-4.6071-2.0488c-0.0219-0.1225-0.0438-0.256-0.0713-0.3785
		c1.4151-0.6861,2.7805-1.5115,4.2674-2.0083c1.5426-0.5078,2.8027-1.467,4.1734-2.2367c1.304-0.7476,2.2973-1.8467,3.3406-2.8899
		c1.5064-1.5149,3.2291-2.8012,4.4358-4.6229c1.4133-2.105,2.282-4.4451,3.2118-6.7628c0.1568-0.3835,0.2025-0.8062,0.3759-1.1674
		c0.5985-1.1835,1.2303-2.3392,1.8566-3.5004c0.0839-0.1611,0.2345-0.2998,0.5303-0.6329
		C105.9059,35.6637,105.9634,51.6102,104.9073,67.8097"/>
	<path id="XMLID_1295_" fill-rule="evenodd" clip-rule="evenodd" fill="#7B6F4F" d="M151.085,24.7118
		c0.0182,3.6055,0.2057,4.2292,0.1949,6.1988c-0.003,1.1128-0.0244,2.8598-0.0106,3.956c0.0714,4.5126-0.1746,9.1134-0.0976,13.6037
		c0.0217,2.2813-0.025,5.1856,0.0375,8.8747c0.1033,5.0691-0.3207,9.6527-0.2064,14.7273c0.0149,0.6677,0.2358,1.2859,0.1284,1.9366
		c-0.1301,0.8009,0.6626,1.9102-0.2946,1.9689c-0.2894,0.0215-1.3404-0.1761-1.469,0.0517
		c-1.4309,0.3801-2.5488,0.1935-3.3334,0.197c-2.8767,0.0424-5.3475,0.2083-8.2239,0.1171
		c-1.7692-0.0659-3.5166,0.0351-5.2913-0.042c-4.6453-0.2239-9.2412-0.2139-13.8873-0.1429
		c-0.4897,0.0098-0.7731-0.1022-1.4577-0.0429c-0.8238,0.1313-0.8962,0.1423-1.5246,0.0126
		c-0.9342-0.1917-1.481,0.3744-1.5357,0.0293c-0.0548-0.3173-0.0783-3.9951-0.0218-4.3121c0.0858-5.0408,0.1227-6.3593,0.1301-11.2
		c-0.0062-1.8306,0.1601-3.6774,0.1761-5.5135c0.018-2.5816-0.0362-5.1635-0.0516-7.7452
		c-0.0143-0.9014,0.0271-1.7915-0.0095-2.6819c-0.0424-0.7846-0.1739-1.5305-0.2331-2.3041
		c-0.0697-0.985-0.1949-2.0147-0.1367-2.9771c0.296-4.5784,0.4392-8.1723,0.3848-10.7041c-0.0395-1.8696-0.4152-2.8888,0.0851-4.757
		c-0.0685-1.4301-0.0835-2.0478-0.1366-3.016c-0.101-1.7863,0.186-2.9762,0.1574-4.7512c-0.0299-1.3243-0.1764-2.7046-0.0615-4.0341
		c0.0287-0.3282,0.13-0.7564,0.0752-1.0792c-0.1917-1.1467,0.8875-1.0604,2.2282-1.0011c0.7344,0.0298,2.0806,0.1113,2.8094,0.1522
		c4.7511,0.2075,9.2535-0.2312,14.0048-0.0794c1.8749,0.0606,3.7786-0.2292,5.6421-0.0851c2.7091,0.2076,5.4212-0.7033,8.1065,0.094
		c0.1779,0.0561,1.0792,0.0697,1.2686,0.0034c1.2185,0.0033,2.1758-0.0721,2.4447,1.3029c0.258,1.3027,0.0939,2.3483,0.1348,3.6726
		c0.0765,2.6097,0.2815,5.0084,0.2634,7.629C151.3016,22.7762,151.1629,24.7121,151.085,24.7118 M139.9525,72.1429
		c2.4872-0.0323,4.8964-0.0425,7.2948-0.1474c0.3061-0.0103,0.7245-0.4265,0.8589-0.7544c0.2016-0.4947,0.2644-1.0843,0.2659-1.6351
		c0.0389-2.0586,0.0389-4.1228,0.0333-6.1815c-0.0072-3.5721,0.0358-7.1329-0.0436-10.7219
		c-0.0837-4.0619-0.1896-8.1462-0.4792-12.1976c-0.2303-3.3279-0.7446-6.6231-1.1196-9.9347
		c-0.4729-4.1798-3.1975-6.8857-5.6827-9.6966c-1.0817-1.227-2.5986-1.9822-4.1045-2.7151
		c-2.8729-1.3875-5.6173-0.8774-8.3801,0.2558c-0.3342,0.1271-0.6353,0.3655-0.9363,0.5928
		c-0.6245,0.4991-1.2158,1.0762-1.8792,1.5139c-1.9229,1.2301-3.5794,2.7223-4.5646,4.9342
		c-0.1567,0.3446-0.3746,0.6945-0.6424,0.9386c-0.6469,0.5491-0.7934,1.2331-0.8512,2.062
		c-0.1273,1.8358-0.3103,3.6658-0.5488,5.4791c-0.4086,2.9812-1.0396,5.9284-1.2925,8.9267
		c-0.4945,5.9967-0.8835,12.027-1.1444,18.041c-0.1422,3.2323,0.105,6.4935,0.152,9.7263c0.0329,2.2813,0.0162,2.2535,2.1582,2.3148
		c2.4313,0.0733,4.7859-0.3322,7.3027-1.0321c0.093-1.4575,0.247-2.8815,0.2787-4.328c0.0338-2.2311-0.0659-4.4681-0.0099-6.6879
		c0.087-3.3882,0.2518-6.7763,0.3888-10.1588c0.1376-3.5828,1.1142-6.7684,3.8524-9.1091c0.2063-0.1664,0.3849-0.3829,0.5414-0.6106
		c0.5195-0.7776,1.2434-0.9815,2.0777-0.8791c1.0902,0.1253,2.2975,0.1341,3.0573,1.0765c1.1756,1.4887,2.3232,3.0386,2.6183,5.0202
		c0.3991,2.644,0.7871,5.2823,0.7354,7.9752c-0.0565,2.4091,0.065,4.8019,0.0364,7.1944c-0.0137,0.9458-0.3278,1.8853-0.3136,2.8312
		C139.6608,66.7729,139.821,69.2938,139.9525,72.1429"/>
	<path id="XMLID_1280_" fill-rule="evenodd" clip-rule="evenodd" fill="#7B6F4F" d="M132.8149,37.6493
		c-1.3305,0.2524-2.3072-0.7128-3.2117-1.5832c-1.071-1.0489-1.93-2.3365-2.8727-3.5241c-0.1054-0.1227-0.2163-0.2788-0.2325-0.4291
		c-0.2979-3.0443-0.8182-6.117,1.6977-8.5529c0.8814-0.8656,1.613-1.8596,2.6998-2.5355c0.875-0.5429,1.7157-0.7354,2.656-0.7607
		c2.8267-0.0647,5.3647,1.6947,6.4145,4.435c0.3923,1.0304,0.7902,2.0608,1.1323,3.1189c0.596,1.8377,0.6359,3.5682-0.8371,5.0777
		c-0.742,0.7603-1.2789,1.7826-2.0154,2.554C136.4657,37.3364,135.4131,37.723,132.8149,37.6493 M130.9944,33.8999
		c0.8239-0.1536,1.5816-0.5466,2.1876-0.3502c1.6179,0.4717,2.8829-0.2927,3.8538-1.3083c0.9932-1.0545,1.9095-2.4931,1.4466-4.1524
		c-0.3196-1.1637-0.8619-2.278-1.5047-3.2645c-0.8866-1.3544-3.3719-2.051-4.5202-1.264c-1.1036,0.7259-2.1131,1.6357-3.0893,2.5734
		c-0.3905,0.3884-0.676,1.0108-0.8221,1.5835C127.9669,30.0137,129.0893,32.654,130.9944,33.8999"/>
	<path id="XMLID_1277_" fill-rule="evenodd" clip-rule="evenodd" fill="#7B6F4F" d="M133.6141,30.9201
		c-1.7912-0.1661-2.7509-1.2259-2.5741-2.8445c0.1484-1.3962,1.5592-2.5553,2.9443-2.4291c1.4017,0.1484,2.5945,1.4758,2.4464,2.744
		C136.2598,29.8645,134.9492,31.035,133.6141,30.9201"/>
	<path id="XMLID_1265_" fill-rule="evenodd" clip-rule="evenodd" fill="#006072" d="M219.2449,10.0388
		c-0.8573,0.1535-1.2301,0.1692-2.0982,0.2114c-0.9683,0.0475-2.2143-0.056-3.1881-0.0085
		c-0.6121,0.0206-1.1236-0.131-1.7412-0.1326c-2.5761-0.0069-4.5906,0.1157-7.161,0.0643
		c-4.6346-0.0847-9.9933,0.1123-14.6275-0.0837c-6.6427-0.2793-13.5324,0.2754-20.1691-0.1375
		c-4.3058-0.273-8.5471,0.3165-12.8352-0.3459c-0.3448-0.0454-1.0287-0.2309-1.3131-0.0035
		c-0.5465,0.4437-0.4844,0.1267-0.9532,0.654c-0.2009,0.222-0.2699,1.0564-0.2706,1.3124
		c-0.0077,0.8123-0.1649,1.3349,0.1281,2.0479c0.2131,1.4472,0.0592,2.8211,0.1001,4.1955
		c0.0963,3.5223,0.1425,7.0555,0.1775,10.5721c0.0408,3.4776,0.0426,6.9718,0.0723,10.4382
		c0.0266,2.515,0.1256,5.0135,0.1078,7.5284c-0.0254,5.3191-0.1119,10.6325-0.1762,15.9626
		c-0.0373,3.5275-0.0801,7.0661-0.1452,10.5823c-0.014,1.0738-0.0848,2.5815,0.9383,2.8401
		c1.2399,0.3093,2.7936-0.1873,4.0675-0.067c1.9413,0.1833,3.1602,0.0697,5.1184,0.1584c-0.9126,0.0421,0.9398,0.1973,1.3909,0.0482
		c3.7554,0.1325,6.8045,0.085,10.5654,0.223c3.3437,0.1035,6.6927,0.2739,10.0477,0.3051c3.5442,0.0206,7.1-0.1257,10.6499-0.1384
		c2.732-0.0316,5.4582,0.0313,8.1901,0.0386c3.1492,0.0084,5.7217-0.708,8.774,0.1459c0.3836,0.1123,1.647-0.0178,2.0366-0.0557
		c0.8516-0.0923,1.9645-0.1339,2.8105-0.254c1.1745-0.1693,1.908,0.1665,1.7054-1.0415c-0.1588-0.9574-0.4002-2.2434-0.3809-3.217
		c0.0761-3.4717,0.0845-6.6154,0.2217-10.0814c0.1313-3.3102-0.3126-7.9351-0.1297-13.8881
		c0.0936-3.7832,0.0926-7.5612,0.1583-11.339c0.0449-2.2422,0.2123-4.5007,0.2128-6.743c-0.006-3.9838-0.1345-7.968-0.1238-11.9462
		c-0.0011-1.6748,0.1537-3.3547,0.3529-5.0233C221.9626,11.1812,220.9316,9.7318,219.2449,10.0388 M166.9528,12.7476
		c1.3409,0.0203,2.676,0.1017,4.0112,0.1665c1.2295,0.0534,2.459,0.0956,3.6829,0.1601c4.7231,0.2575,9.4517,0.5706,14.1806,0.7613
		c4.3228,0.1729,8.6515,0.1956,12.98,0.3129c2.8763,0.0856,5.7525,0.2268,8.8625,0.352c-0.971,1.0657-2.002,1.6861-3.0052,2.3344
		c-2.1069,1.3742-4.2581,2.6871-6.2929,4.1561c-1.2376,0.898-2.3367,1.9968-3.419,3.0789c-1.523,1.4982-3.0738,2.9908-4.4026,4.6954
		c-1.809,2.332-3.2234,4.871-4.4602,7.5161c-0.1007,0.2223-0.2182,0.4445-0.3189,0.6724c-0.1002,0.0109-0.2115,0.0161-0.3061,0.0214
		c-0.2427-0.774-0.5245-1.5315-0.7227-2.3221c-0.3634-1.4365-0.6209-2.9172-1.0289-4.3204
		c-0.2095-0.7294-0.6584-1.3816-1.0127-2.067c-0.8248-1.5768-1.4992-3.2311-2.6917-4.6364c-2.4516-2.8665-5.294-5.2666-8.745-6.8449
		c-1.1114-0.526-2.3795-0.6963-3.5077-1.1834c-1.734-0.7502-3.4063-1.6394-5.3456-2.6016
		C166.09,12.8788,166.5244,12.7409,166.9528,12.7476 M159.6493,61.8748c-0.1237,0.467-0.3641,0.9171-0.7381,1.3445
		c-0.3407-3.6509-0.2197-7.2839-0.2156-10.9004c-0.0013-3.6889-0.1027-7.367,0.0797-11.0443
		c0.1766-3.6273-0.4369-7.2344-0.1824-10.8503c0.2657-3.6604,0.2421-7.2938-0.0541-10.9723c0.7421,1.2984,1.5513,2.469,1.8478,3.961
		c0.2414,1.2804,0.8556,2.5395,1.5816,3.6264c1.3523,1.9788,2.8216,3.9024,4.397,5.6982c1.6807,1.9352,3.4004,3.8483,5.3378,5.5171
		c1.4933,1.267,3.3326,2.1678,5.0492,3.1627c1.1388,0.6763,2.3392,1.2359,3.8227,2.0077c-0.7579,0.4542-1.1315,0.7425-1.5492,0.8917
		c-1.6318,0.5854-3.2858,1.1096-4.9176,1.695c-0.5235,0.1989-1.0583,0.4367-1.4988,0.7749
		c-1.6114,1.2587-3.2283,2.5285-4.7564,3.8709c-1.4836,1.3203-3.0616,2.5958-4.2509,4.1505
		C161.9604,56.9569,160.3909,59.195,159.6493,61.8748 M206.1345,73.0104c-5.0021,0.0256-9.9986,0.0344-15.0009,0.1435
		c-4.6295,0.0933-9.2529-0.0081-13.8756-0.371c-2.609-0.1962-5.2465-0.1309-7.8612-0.2659
		c-1.6801-0.088-3.3431-0.3094-5.3067-0.4927c1.6996-0.9469,3.0931-1.8835,4.6138-2.5415c3.2532-1.4324,6.3901-3.0431,9.178-5.2501
		c1.6003-1.2866,3.0174-2.7071,4.1071-4.5014c1.6878-2.7775,3.1423-5.7336,5.6531-8.3309c0.6023,1.5484,1.0213,2.9795,1.6967,4.2721
		c0.9521,1.8442,1.9041,3.7051,3.5807,5.0784c0.7884,0.6364,1.2921,1.6281,2.0749,2.2645c1.5767,1.3118,3.2036,2.5736,4.8975,3.7132
		c2.1327,1.4357,4.3492,2.7436,6.5434,4.0792c1.1332,0.6985,2.3,1.3248,3.4327,2.1903
		C208.6216,72.9948,207.3753,72.9915,206.1345,73.0104 M217.0308,68.1099c-0.8329-0.6421-1.215-1.3275-1.5748-2.0184
		c-0.6254-1.2257-1.2565-2.4348-1.8318-3.6938c-0.6363-1.3371-1.6013-2.497-2.2934-3.7785
		c-1.2236-2.2456-2.5866-4.3802-3.9886-6.515c-1.7455-2.6809-4.0436-4.7124-6.922-6.0833
		c-1.5171-0.7218-3.0621-1.3658-4.6071-2.0488c-0.0219-0.1225-0.0438-0.256-0.0713-0.3785
		c1.4151-0.6861,2.7805-1.5115,4.2674-2.0083c1.5426-0.5078,2.8026-1.467,4.1734-2.2367c1.304-0.7476,2.2973-1.8467,3.3406-2.8899
		c1.5064-1.5149,3.2291-2.8012,4.4358-4.6229c1.4133-2.105,2.282-4.4451,3.2118-6.7628c0.1568-0.3835,0.2025-0.8062,0.3759-1.1674
		c0.5985-1.1835,1.2303-2.3392,1.8566-3.5004c0.0839-0.1611,0.2345-0.2998,0.5303-0.6329
		C218.0293,35.9638,218.0868,51.9104,217.0308,68.1099"/>
	<g id="XMLID_5_">
		<path id="XMLID_1374_" fill-rule="evenodd" clip-rule="evenodd" fill="#006072" d="M318.3904,48.6735
			c-0.1667-0.0672-0.2391-0.0729-0.2501-0.1064c-0.4422-1.0695-0.8455-2.1555-1.3323-3.2084
			c-0.2103-0.4402-0.5487-0.8083-0.8537-1.193c-1.0147-1.3047-1.9737-2.6537-3.0833-3.8641
			c-1.3647-1.5004-3.0143-2.5786-4.8819-3.2958c-0.4558-0.1681-0.8444-0.5141-1.3002-0.6656
			c-0.8005-0.2748-1.6288-0.5441-2.4686-0.6854c-1.4738-0.2488-2.9861-0.6645-4.4442-0.5572
			c-2.9383,0.2091-5.7944,0.847-8.4414,2.3867c-2.0508,1.1963-3.8241,2.6883-5.2314,4.643c-0.4524,0.622-0.816,1.3498-1.1017,2.0835
			c-0.5883,1.5062-1.1599,3.0404-1.6203,4.5971c-0.5896,2.0015-1.1681,4.0308-1.0625,6.1566
			c0.0477,0.9015,0.4014,1.7871,0.4713,2.6887c0.1239,1.5249,0.6656,2.8505,1.4413,4.0934
			c0.2604,0.4124,0.5598,0.8082,0.8704,1.1874c0.9539,1.1598,1.8911,2.3363,2.884,3.4518c1.6087,1.8015,3.6309,2.9586,5.7482,3.9268
			c0.9225,0.4142,1.8283,0.8507,2.7621,1.1981c0.9727,0.3643,1.9909,0.3781,3.0317,0.2362c1.1633-0.1582,2.343-0.1996,3.5116-0.2632
			c1.6639-0.0901,3.0679-0.8041,4.5001-1.646c1.4099-0.8197,2.6921-1.7566,3.8137-2.9498c0.3125-0.333,0.5529-0.7552,0.7932-1.1607
			c0.5812-0.9833,1.2237-1.933,1.6772-2.9778c0.543-1.2171,0.8525-2.5405,1.351-3.7799c0.521-1.3284,0.4022-2.653,0.1219-3.9835
			c-0.313-1.5309-0.6539-3.0675-1.0894-4.5653c-0.1819-0.657-0.5808-1.2535-0.9409-1.8442
			c-0.6924-1.1369-1.3793-2.2793-2.1443-3.3552c-0.4934-0.6857-1.1819-1.2161-1.6641-1.9129
			c-0.8923-1.2932-2.3268-1.681-3.5322-2.4409c-0.3943-0.2514-0.9621-0.1806-1.4347-0.3154
			c-1.5901-0.4494-3.2197-0.6819-4.7958-0.1409c-1.2976,0.4361-2.5068,1.1339-3.7271,1.7649
			c-0.7021,0.3709-1.4097,0.7697-2.012,1.2744c-0.8755,0.7209-1.7233,1.5143-2.4823,2.3691
			c-1.3338,1.5043-1.8507,3.3668-1.9396,5.3864c-0.041,0.7566-0.2155,1.5128-0.2564,2.2694
			c-0.146,2.5646,0.8885,4.7929,1.9566,6.9602c0.404,0.8245,1.0305,1.6719,1.7692,2.1412c1.1109,0.7041,2.0818,1.7527,3.5784,1.7845
			c0.918,0.0247,1.8294,0.4278,2.7527,0.5693c1.2292,0.1869,2.3815-0.0381,3.5294-0.6972c1.6495-0.9637,2.9108-2.368,4.2219-3.711
			c1.2553-1.2875,1.4546-2.9729,1.3702-4.6979c-0.0996-2.2815-1.3302-3.9874-2.795-5.5103
			c-1.6035-1.6624-3.5336-1.9123-5.7545-1.6012c-1.5418,0.2184-1.9845,1.3857-2.7771,2.335
			c-1.0047,1.1879-1.1311,2.6955-0.9567,4.048c0.1798,1.4137,0.7825,2.8397,1.9037,3.8554c0.9214,0.8315,2.6069,0.9807,3.421,0.3096
			c0.6914-0.5657,0.9052-1.4275,0.434-2.0798c-0.1441-0.2118-0.511-0.3518-0.778-0.3638c-0.7288-0.0242-1.4972,0.1908-2.1357-0.3451
			c-0.2221-0.1731-0.4551-0.4352-0.5044-0.7025c-0.3571-1.7147,0.4101-3.5542,1.9367-4.318
			c0.8413-0.4206,1.7653-0.574,2.7039,0.0796c0.7719,0.5362,1.544,1.0446,2.0871,1.8417c0.9033,1.3377,1.4336,2.797,0.6282,4.3527
			c-0.3915,0.7612-1.0387,1.4105-1.68,1.9652c-0.7585,0.66-1.6167,1.1808-2.4584,1.7349c-0.8918,0.5819-1.9265,0.5068-2.8888,0.4152
			c-1.0346-0.0973-2.0688-0.3839-3.047-0.7649c-0.617-0.2353-1.1776-0.7153-1.6771-1.1841c-0.9712-0.9317-1.7974-1.9966-2.122-3.383
			c-0.1429-0.6458-0.2803-1.3027-0.2674-1.9648c0.02-1.2296,0.0345-2.5037,0.2937-3.6937c0.1747-0.8063,0.7941-1.4946,1.1411-2.2726
			c0.5989-1.3227,1.9135-1.8755,2.8008-2.8858c0.2847-0.3331,0.7415-0.5711,1.1703-0.7035c1.0803-0.3254,2.1715-0.5617,3.2572-0.837
			c0.4622-0.1212,0.9078-0.3315,1.3753-0.3691c2.1649-0.1723,4.1217,0.4394,5.8149,1.8683c0.5718,0.4689,1.2606,0.9103,1.6039,1.54
			c0.6255,1.1813,1.7417,2.0133,2.0048,3.4829c0.1699,0.9742,0.8742,1.8385,1.1053,2.8128c0.319,1.3807,0.8494,2.7954,0.3837,4.2464
			c-0.4995,1.6011-0.8935,3.2859-1.6819,4.7304c-1.1574,2.1279-2.87,3.7703-5.0981,4.7268
			c-0.5682,0.2378-1.0922,0.6258-1.6658,0.8191c-0.8298,0.276-1.6819,0.5686-2.5332,0.5941
			c-1.7249,0.0343-3.455-0.0705-5.1796-0.1808c-0.4506-0.0291-0.9397-0.2195-1.3453-0.4487
			c-1.7555-1.0174-3.5278-1.9902-5.1883-3.1464c-0.8053-0.553-1.4038-1.4504-2.0248-2.2533c-0.61-0.775-1.1808-1.5944-1.657-2.4581
			c-0.8527-1.5435-1.3657-3.2029-1.4388-5.0225c-0.0773-2.2982,0.4737-4.4222,1.3972-6.4728
			c0.6661-1.4894,1.1989-3.0626,1.9706-4.4904c1.0903-1.9946,2.9019-3.2305,4.791-4.2937c1.6773-0.9414,3.5364-1.2146,5.4011-1.5101
			c2.0707-0.3394,4.0564-0.0893,6.0247,0.4279c1.0342,0.2698,1.9784,0.9066,2.9956,1.2766
			c1.8455,0.6615,3.1327,2.0058,4.4308,3.4448c1.6032,1.7737,2.7606,3.8354,3.6561,6.0245
			c0.5859,1.4649,0.7706,3.1124,1.1003,4.6823c0.1758,0.835,0.4128,1.6758,0.3883,2.5048c-0.0377,1.619-0.2034,3.2432-0.3746,4.8508
			c-0.131,1.1236-0.2121,2.3085-0.6209,3.32c-0.4426,1.1283-0.8241,2.3124-1.7168,3.2337
			c-0.9318,0.9823-1.4973,2.3051-2.6291,3.1422c-1.6168,1.1919-3.3108,2.1611-5.2871,2.562
			c-1.1468,0.2306-2.2664,0.6838-3.4241,0.831c-1.514,0.2017-3.061,0.3089-4.591,0.277c-2.4926-0.0512-4.7937-0.9309-7.0443-1.9719
			c-0.8781-0.3974-1.812-0.7059-2.6453-1.1977c-1.1055-0.6484-2.1606-1.4246-3.2101-2.173
			c-0.6831-0.4858-1.3996-0.944-1.9599-1.5743c-0.699-0.7752-1.3198-1.6616-1.8459-2.5755c-0.6369-1.12-1.1288-2.3343-1.7099-3.4932
			c-0.4206-0.8302-0.9694-1.605-1.2842-2.4739c-0.4584-1.2698-0.7497-2.6059-1.1302-3.9089
			c-0.441-1.5201-0.4981-3.0782-0.3659-4.6525c0.1494-1.7578,0.2431-3.5269,0.4648-5.279c0.1702-1.2348,0.4462-2.4636,0.8221-3.6477
			c0.2805-0.8728,0.8279-1.6559,1.2252-2.5005c0.6547-1.3781,1.2038-2.8066,1.9362-4.1289
			c0.7212-1.2889,1.5313-2.5442,2.4747-3.6711c1.7806-2.1373,3.6612-4.2022,5.5474-6.2558
			c0.9598-1.0379,1.9695-2.0479,3.0347-2.9575c1.5336-1.309,3.0562-2.6848,4.7449-3.7374c2.9706-1.8449,5.8693-3.8679,9.1609-5.0943
			c1.8992-0.7183,3.7819-1.4699,5.753-2.0155c1.2083-0.3417,2.4442-0.6166,3.647-0.9584c0.1336-0.0386,0.2784-0.0716,0.4063-0.0601
			c0.6342,0.0462,1.4302-0.0964,1.8243,0.2497c0.3164,0.279,0.1861,1.1634,0.1844,1.7865
			c-0.0224,2.1253-0.1115,4.2394-0.0838,6.3594c0.0233,1.6749,0.2025,3.3501,0.2481,5.0194
			c0.0364,0.9571-0.0552,1.9138-0.0633,2.8708c-0.0136,0.9292-0.283,1.802-0.0075,2.8043c0.2591,0.9076-0.0776,1.9861-0.0581,2.9876
			c0.0497,2.2035,0.1885,4.4016,0.2438,6.5996c0.0301,1.2297-0.0566,2.4591-0.071,3.6832c-0.003,1.1184,0.0608,2.2425,0.0355,3.3663
			C318.6339,47.0829,318.8821,47.9182,318.3904,48.6735 M307.4052,18.198c-0.5845,0.0986-1.3915,0.191-2.1765,0.3726
			c-1.5366,0.3576-2.8241,1.1832-3.4625,2.706c-0.6104,1.4561-1.0818,2.946-1.0918,4.6207
			c-0.0097,1.5468,0.5378,2.7723,1.2635,3.965c0.3712,0.6074,0.8812,1.2987,1.4815,1.5229
			c1.0172,0.3866,2.1519,0.5232,3.2589,0.5985c0.7621,0.0521,1.5306-0.2018,2.3153-0.2776
			c1.8088-0.1898,3.2632-1.0095,4.2024-2.6594c0.3689-0.6277,0.7769-1.2943,0.9067-1.995c0.1864-1.0456,0.3452-2.1802,0.1532-3.1934
			c-0.2361-1.1746-0.7672-2.3278-1.3653-3.3698c-0.3821-0.6632-0.8475-1.4155-1.7596-1.5682
			C309.9688,18.739,308.8233,18.48,307.4052,18.198"/>
		<path id="XMLID_1373_" fill-rule="evenodd" clip-rule="evenodd" fill="#006072" d="M310.2916,10.7899
			c-0.1505,0.1165-0.2845,0.2775-0.4572,0.3438c-2.278,0.8674-4.6223,1.5789-6.8285,2.6134
			c-3.181,1.4938-6.3567,3.071-9.2444,5.1387c-1.4438,1.0366-2.86,2.1233-4.1819,3.316c-2.4875,2.2468-4.9251,4.5326-7.2962,6.9021
			c-0.9763,0.9711-1.7529,2.1764-2.5517,3.3316c-0.9831,1.444-0.6888,3.7427-1.7839,5.4312
			c0.0691-0.8789-0.3553-2.3934-0.3144-3.0944c0.0576-0.7621,0.061-2.0029,0.1187-2.765c0.0867-1.2071-0.077-2.4261,0.0097-3.6277
			c0.0807-1.0681,0.2455-2.3417,0.3318-3.4098c0.1389-1.9804-0.2305-3.2611-0.0917-5.2415
			c0.0809-1.1014,0.1116-2.2086,0.1758-3.3157c0.076-1.3852,0.1465-2.7816,0.2782-4.161c0.0402-0.4674,0.225-0.9286,0.4209-1.351
			c0.0839-0.1722,0.3459-0.344,0.5351-0.3546c3.2888-0.1692,6.5831-0.3441,9.8829-0.452c1.9531-0.0505,3.917,0.0105,5.8644,0.0212
			c1.3242,0.0091,2.6373,0.0015,3.967,0.0329c2.5259,0.0456,5.0574,0.0803,7.5944,0.1649c1.1628,0.0366,2.3252,0.1899,3.4879,0.2876
			C310.2363,10.6618,310.264,10.7287,310.2916,10.7899"/>
		<path id="XMLID_1372_" fill-rule="evenodd" clip-rule="evenodd" fill="#006072" d="M278.3647,65.1287
			c0.1659,0.3844,0.3763,0.7466,0.4921,1.1476c0.4298,1.5591,1.1492,3.0187,2.1086,4.2287
			c0.8705,1.1151,2.1092,1.9252,3.2196,2.8184c0.9161,0.7369,1.8824,1.396,2.8321,2.0663c0.311,0.229,0.661,0.4135,0.9943,0.6091
			c-0.028,0.0667-0.0449,0.1334-0.0784,0.2057c-0.2559-0.0118-0.5118-0.0236-0.7733-0.0299
			c-2.1866-0.0447-4.3675-0.1063-6.554-0.1288c-0.5174-0.007-1.0298,0.1808-1.5417,0.1628
			c-0.5953-0.0127-0.939-0.4921-0.8427-1.1151c0.1815-1.2792,0.2182-2.5366-0.0399-3.8169
			c-0.1208-0.5957-0.0301-1.2298-0.0507-1.8474c-0.0246-1.2186-0.0602-2.4427-0.0848-3.6614
			c0.0005-0.2003,0.0511-0.4004,0.0795-0.6007C278.2032,65.1506,278.2867,65.1397,278.3647,65.1287"/>
		<path id="XMLID_1371_" fill-rule="evenodd" clip-rule="evenodd" fill="#006072" d="M317.386,70.327
			c-0.1211,1.5966-0.2144,3.1932-0.3633,4.7785c-0.0401,0.4394-0.2138,0.8952-0.4263,1.2785
			c-0.0895,0.1723-0.4458,0.2492-0.6795,0.2542c-1.4523,0.0462-2.9102,0.0812-4.3568,0.0607
			c-0.5731-0.0127-1.1345-0.2145-1.7293-0.4219c2.7753-1.6451,5.5504-3.2345,7.3442-6.123
			C317.2473,70.2098,317.3139,70.2712,317.386,70.327"/>
		<path id="XMLID_1370_" fill-rule="evenodd" clip-rule="evenodd" fill="#006072" d="M308.6964,22.4406
			c1.0683-0.0083,2.0135,0.2391,2.5338,1.2698c0.5535,1.092,0.4005,2.1488-0.1866,3.2155
			c-0.7269,1.3223-1.8354,1.8145-3.2264,1.8108c-0.1168-0.0003-0.2393,0.0105-0.3449-0.0343
			c-0.828-0.3861-1.6559-0.789-2.4784-1.1806c-0.1-0.0504-0.2056-0.1007-0.3168-0.1344c-1.1398-0.309-1.5827-1.1226-1.2624-2.3347
			c0.1405-0.5059,0.292-1.0118,0.4659-1.5066c0.2467-0.7171,1.5457-1.6539,2.269-1.6408c0.5675,0.0126,1.1404,0.0587,1.7078,0.1158
			c0.1112,0.017,0.211,0.162,0.4276,0.3295c-0.8127,0.1425-1.503,0.2631-2.1933,0.3892c-0.8294,0.1424-1.3987,0.8142-1.5619,1.4814
			c-0.1912,0.7451,0.0122,1.6804,0.5836,2.3218c0.1775,0.2008,0.6059,0.2019,0.9175,0.2139
			c1.1851,0.0143,2.4027,0.3347,3.5121-0.4525c0.6411-0.4657,1.2614-1.4599,0.9123-1.9894
			c-0.4045-0.6131-0.5411-1.5594-1.4643-1.7232C308.8908,22.5692,308.7909,22.491,308.6964,22.4406"/>
	</g>
	<path id="XMLID_1366_" fill-rule="evenodd" clip-rule="evenodd" fill="#7B6F4F" d="M323.9365,9.2612
		c0.9288,0.1639,1.6293,0.3605,2.3413,0.4069c2.1084,0.1336,4.2512-0.1054,6.3541-0.0164c2.0028,0.0888,3.8779,0.0604,5.8808,0.1158
		c1.5856,0.0432,3.2223-0.2807,4.8078-0.2097c2.0863,0.089,4.3285,0.1006,6.4203,0.1896c1.8582,0.0773,3.6276,0.0654,5.4859,0.0648
		c1.2909-0.0021,2.3645,0.0731,3.6444,0.0098c0.3896-0.0212,1.0793,0.0251,1.4691-0.0962c0.5346-0.1711,0.9397,0.225,1.4799,0.0484
		c0.8966-0.2925,1.8964,0.3556,2.0217,1.3519c0.0928,0.6512,0.4305,1.292-0.0053,1.9807c-0.1062,0.1667,0.121,0.5345,0.1536,0.8183
		c0.1248,1.1854,0.3775,2.3825,0.3187,3.5563c-0.0638,0.9568,0.3677,1.8927-0.0077,2.8654c-0.1512,0.3779,0.07,0.8848,0.002,1.3131
		c-0.1928,1.3571,0.104,2.7434-0.3448,4.0886c-0.1291,0.4114-0.0024,0.8959-0.0482,1.3464
		c-0.1204,1.3295-0.2908,2.6533-0.4113,3.9883c-0.0345,0.4228,0.0422,0.8681,0.0466,1.2965
		c-0.0008,0.3061-0.0461,0.6119-0.0525,0.9124c-0.0565,2.4258-0.1521,4.8458-0.1586,7.2661
		c-0.0109,1.9919,0.1173,3.9842,0.1342,5.9761c0.0082,1.0738-0.1003,2.153-0.131,3.2268c-0.029,0.4227,0.0089,0.8457,0.0022,1.263
		c-0.0185,0.6843-0.0927,1.3685-0.0611,2.0474c0.0566,1.7083,0.1856,3.4112,0.2256,5.1139c0.0348,1.558,0.0028,3.1103,0.0042,4.6682
		c0.0139,1.0683,0.0667,2.12,0.0805,3.1884c0.0144,0.8402-0.0713,1.6801,0.0545,2.5039c0.1254,0.9684,0.5457,1.9155,0.6266,2.8783
		c0.0589,0.8626-0.0046,1.736,0.1712,2.5543c0.1098,0.5289-0.0126,0.5619-0.6373,1.1167c-0.5131,0.4549-1.1314,0.6981-1.8156,0.6405
		c-1.1848-0.0977-2.3812-0.0676-3.5663-0.093c-0.2059-0.0117-0.3951-0.0011-0.5898-0.0127
		c-1.2462-0.0478-2.4867-0.1513-3.7219-0.1546c-2.0308-0.0054-4.0619,0.0782-6.0816,0.0839
		c-1.7749,0.0064-3.5498-0.0206-5.3246-0.0755c-1.9695-0.0609-3.3106,0.0301-5.2912-0.0698
		c-1.4186-0.0706-2.5316-0.0068-4.2066,0.0833c-2.3916-0.3347-4.7896-0.3579-7.2044-0.3587
		c-0.6399-0.0017-1.2799,0.0745-1.9198,0.0894c-1.0739,0.025-2.083-1.3242-1.852-2.3752c0.2815-1.2456,0.6687-2.4742,0.4608-3.7934
		c-0.0928-0.6512,0.1094-1.3573,0.1334-2.0304c0.0179-0.4618-0.0643-0.9127-0.0631-1.3745c0.003-1.1239,0.0172-2.2478,0.0369-3.3772
		c0.0003-0.1113,0.0228-0.2225,0.0176-0.3338c-0.0559-1.9865-0.1174-3.9674-0.1788-5.9595
		c-0.0345-1.6359-0.0635-3.2774-0.1426-4.9078c-0.063-1.419-0.2261-2.8216-0.2891-4.235c-0.0528-1.0406-0.0111-2.0809-0.0194-3.127
		c0.0006-0.2226-0.0266-0.4397-0.0594-0.6623c-0.0435-0.3784-0.2929-0.7519,0.0753-1.1237c0.067-0.061,0.0007-0.2504-0.0157-0.384
		c-0.1244-1.3412-0.2933-2.666-0.362-4.0182c-0.0683-1.5192-0.0252-3.0492-0.0601-4.5738
		c-0.0293-1.5079-0.1422-3.0105-0.1158-4.5183c0.0027-0.9904,0.2278-1.9746,0.2806-2.976c0.0529-1.057-0.011-2.1144,0.0196-3.177
		c0.0065-0.3449,0.152-0.6784,0.1864-1.0288c0.1673-2.2196,0.4181-4.439,0.1013-6.671c-0.1638-1.1577-0.3221-2.3155-0.5081-3.4733
		c-0.1698-1.0187,0.0872-1.4186,1.1172-1.6384C323.2797,9.3763,323.7194,9.2996,323.9365,9.2612 M335.1933,52.6015
		c0.0447-0.0778,0.0838-0.1389,0.1285-0.2111c-0.0721-0.078-0.1498-0.1562-0.2108-0.2398
		c-0.6541-0.9476-0.6787-2.1162,0.2354-2.7202c0.6466-0.4267,1.2641-0.4028,1.9032-0.1396
		c0.5613,0.2296,0.5266,0.7581,0.5753,1.2479c0.0758,0.7792-0.254,1.3347-0.8839,1.767c-0.8529,0.5819-0.8589,0.7488,0.0077,1.2852
		c0.6333,0.3967,1.3279,0.7047,1.9667,1.1014c0.3944,0.2347,0.7162,0.5806,1.105,0.8209c0.8889,0.531,1.8335,0.9897,2.7,1.5484
		c2.4218,1.5421,4.8212,3.1176,7.5673,4.0542c0.4336,0.1402,0.8336,0.3917,1.2447,0.6098c1.1613,0.5929,2.317,1.1969,3.4894,1.7899
		c0.2722,0.1398,0.5668,0.2463,0.8335,0.3861c1.4891,0.7829,2.967,1.5659,4.4616,2.3543c0.6112,0.3188,0.8071-0.0924,0.8083-0.5487
		c-0.0007-1.8305-0.0514-3.6612-0.0911-5.4808c0.0004-0.1502-0.0659-0.334-0.1713-0.4289c-0.6272-0.5748-0.2804-1.2693-0.2175-1.909
		c0.046-0.5285,0.2699-1.0564,0.2434-1.5684c-0.0801-1.2521-0.2381-2.4989-0.4017-3.7401
		c-0.1582-1.1855-0.3275-2.3656-0.5469-3.5402c-0.2085-1.0911-0.4727-2.1601-0.7369-3.2346
		c-0.2641-1.0912-0.5227-2.1881-0.8426-3.2572c-0.2426-0.8186-0.5911-1.5929-0.8671-2.4115
		c-0.2428-0.7351-0.3687-1.5255-0.6951-2.2274c-0.5033-1.1365-1.1291-2.2342-1.6992-3.3486
		c-0.2713-0.5015-0.4925-1.0306-0.8084-1.4989c-0.6817-1.0033-1.408-1.9734-2.1398-2.949
		c-0.7762-1.0426-1.5579-2.0795-2.3731-3.0944c-0.3938-0.4851-0.8656-0.9092-1.3039-1.3666
		c-0.283-0.3012-0.5269-0.6302-0.8377-0.9091c-0.6384-0.5749-1.3324-1.1108-1.9819-1.6801
		c-0.7605-0.6642-1.4819-1.3727-2.2591-2.0146c-0.4997-0.402-1.0607-0.7596-1.6218-1.0894
		c-1.6444-0.9614-3.2775-1.9728-4.9833-2.8287c-1.5058-0.7607-3.0674-1.4604-4.6796-1.9766
		c-1.7678-0.5667-3.6142-0.8999-5.4325-1.3166c-0.228-0.0506-0.4673-0.0124-0.8735-0.019c0.7877,0.8868,1.4422,1.6507,2.1134,2.3981
		c0.4937,0.5522,1.0209,1.0766,1.5314,1.6066c0.3551,0.3793,0.6823,0.7863,1.0764,1.1157c1.2546,1.0717,1.4135,1.9957,0.7039,3.101
		c-0.7543,1.2054-2.5731,0.9557-3.2874-0.3204c-0.4596-0.8191-0.9137-1.6438-1.4736-2.402c-0.3992-0.5352-0.9656-0.954-1.4762-1.445
		c-0.1651,1.4129-0.3581,2.8311-0.4788,4.2497c-0.0921,1.1737-0.1064,2.3422-0.1373,3.5161
		c-0.061,1.9806-0.1275,3.9612-0.155,5.9419c-0.0133,0.8179,0.068,1.6249,0.0714,2.4428c0.0127,1.4857,0.0254,2.9713,0.0048,4.4568
		c-0.0093,1.4021,0.5324,2.7277,0.4952,4.1632c-0.0372,1.4299,0.0479,2.8822,0.4391,4.3132c0.1652,0.6459,0.3641,1.136,0.9533,1.388
		c0.7836,0.347,1.5952,0.6386,2.4011,0.9467c1.0226,0.4145,2.0621,0.8012,3.0736,1.2379c0.2723,0.1176,0.4551,0.4407,0.7217,0.5973
		c0.4389,0.2515,0.9058,0.4308,1.3559,0.6658C334.2267,52.0425,334.7155,52.3275,335.1933,52.6015 M360.7867,71.6765
		c-0.6887-0.4747-1.1996-0.8322-1.705-1.1897c-0.6664-0.4524-1.3161-0.9494-1.9994-1.3796c-0.25-0.1565-0.6173-0.1241-0.8839-0.2695
		c-1.0723-0.5815-2.1222-1.2075-3.1889-1.7946c-0.5889-0.3243-1.1779-0.6207-1.7725-0.9228
		c-1.6281-0.8056-3.2618-1.5834-4.8843-2.4168c-0.7835-0.3915-1.511-0.9054-2.2888-1.3025c-1.178-0.593-2.384-1.1136-3.5564-1.6954
		c-1.4337-0.7049-2.8338-1.4431-4.2506-2.1758c-1.1835-0.6152-2.3726-1.2192-3.5393-1.8567
		c-0.6167-0.3355-1.211-0.7265-1.8165-1.0843c-0.5333-0.313-1.0778-0.6037-1.6111-0.9112c-0.7611-0.4304-1.511-0.8887-2.2665-1.3247
		c-0.3722-0.2235-0.7556-0.4193-1.111-0.654c-0.2722-0.1788-0.5219-0.402-0.8828-0.6979c0.0331,2.1812,0.0667,4.1899,0.117,6.1986
		c0.0044,0.4396,0.0811,0.885,0.0688,1.3245c-0.0148,1.3742-0.1075,2.7372-0.1056,4.106c0.0086,0.9403,0.1841,1.8755,0.1761,2.8102
		c-0.0147,1.3298-0.1128,2.6593-0.2221,3.9888c-0.1158,1.6855,0.1451,1.9033,1.8199,1.9244
		c1.914,0.0163,3.8331,0.1605,5.7413,0.2825c1.8303,0.1106,3.5387-0.0128,5.3802,0.0534c2.0417,0.0889,4.2234-0.1501,6.2654-0.1279
		c2.3869,0.0342,4.8063,0.3578,7.1934,0.3141c1.8584-0.0284,4.384,0.1453,7.8174-0.0124c0.4341-0.0211,0.8681-0.0478,1.5637-0.0904
		C359.9229,72.2028,360.8195,71.9048,360.7867,71.6765"/>
	<path id="XMLID_1363_" fill-rule="evenodd" clip-rule="evenodd" fill="#7B6F4F" d="M334.2083,34.4761
		c0.0135-0.8957-0.0512-1.6693,0.0732-2.4146c0.0734-0.3781,0.5193-0.683,0.7595-1.044c1.0168-1.5774,2.4551-2.6029,4.2205-3.1935
		c0.2785-0.0994,0.6011-0.0652,0.9016-0.081c0.1781-0.0218,0.3949,0.0511,0.5175-0.032c0.7468-0.4599,1.4137-0.1354,2.0805,0.1725
		c0.2223,0.1063,0.4614,0.157,0.6725,0.2799c0.6889,0.3858,1.3666,0.7882,2.05,1.1907c0.0388,0.0223,0.061,0.0669,0.0943,0.0892
		c1.3055,0.7491,1.9756,1.9305,2.2333,3.3555c0.1261,0.7125,0.1129,1.4636,0.1221,2.1925c0.0101,0.3839,0.0312,0.7958-0.0921,1.1459
		c-0.3421,0.995-0.7008,1.99-1.1818,2.918c-0.2349,0.4611-0.7256,0.8437-1.1714,1.1319c-1.3766,0.8698-2.985,1.0102-4.5323,1.173
		c-0.8292,0.0868-1.6515-0.3883-2.284-1.0521c-0.2608-0.2678-0.6219-0.469-0.9552-0.6703c-1.522-0.9499-2.7596-2.1384-3.2276-3.9479
		C334.3788,35.2444,334.291,34.799,334.2083,34.4761 M342.3595,38.6876c1.3745-0.0742,2.9184-1.0771,3.0775-2.3063
		c0.1422-1.1459,0.3232-2.2749,0.0537-3.4162c-0.0496-0.1948-0.0767-0.4397-0.1933-0.5625
		c-0.5439-0.5244-1.0653-1.0989-1.693-1.5012c-1.6886-1.0672-3.4916-0.9719-5.1799-0.0584
		c-0.6797,0.371-1.2769,1.0482-1.7071,1.7035c-0.419,0.6499-0.4601,1.4232-0.0783,2.2198c0.3265,0.6797,0.2629,1.5753,1.1856,1.8949
		c0.1167,0.0393,0.1887,0.1897,0.2942,0.2568c0.3221,0.2123,0.633,0.4636,0.9776,0.6091c0.7893,0.297,1.5954,0.5384,2.3903,0.8131
		C341.7815,38.4412,342.0705,38.57,342.3595,38.6876"/>
	<path id="XMLID_1362_" fill-rule="evenodd" clip-rule="evenodd" fill="#7B6F4F" d="M345.2919,55.2366
		c0.6064,0.024,1.2224,0.632,1.2041,1.2051c-0.0475,1.135-0.8965,2.3568-1.6532,2.3436c-0.7789-0.0243-1.7279-0.9282-1.6982-1.6237
		C343.1977,56.0489,344.1458,55.2002,345.2919,55.2366"/>
	<path id="XMLID_1361_" fill-rule="evenodd" clip-rule="evenodd" fill="#7B6F4F" d="M348.5941,57.7359
		c1.4688,0.0485,1.649,1.312,1.2348,2.2345c-0.2743,0.5947-0.5869,0.9944-1.1884,1.2043c-0.7518,0.265-1.3298,0.002-1.5782-0.7498
		c-0.4418-1.2531-0.3123-1.8202,0.6241-2.402C347.9539,57.8622,348.2879,57.8297,348.5941,57.7359"/>
	<path id="XMLID_1360_" fill-rule="evenodd" clip-rule="evenodd" fill="#7B6F4F" d="M342.0357,54.8958
		c-0.0023,0.868-1.0677,1.8556-1.9969,1.8475c-0.4785-0.0013-1.1437-0.9211-1.1254-1.5498
		c0.0373-1.4632,0.5339-1.9849,1.9082-1.9979C341.6563,53.1922,342.0388,53.7218,342.0357,54.8958"/>
	<path id="XMLID_1359_" fill-rule="evenodd" clip-rule="evenodd" fill="#7B6F4F" d="M330.4599,50.7007
		c-0.041-1.3132,1.1632-2.2336,2.375-1.7797c0.5447,0.1962,0.8163,0.5865,0.8202,1.2152c-0.0019,0.6955-0.773,1.9398-1.3854,2.0773
		C331.262,52.4333,330.4903,51.7969,330.4599,50.7007"/>
	<path id="XMLID_1358_" fill-rule="evenodd" clip-rule="evenodd" fill="#7B6F4F" d="M329.1116,48.265
		c-0.1682,0.4781-0.2476,1.0343-0.538,1.4174c-0.2457,0.3054-0.747,0.5322-1.1477,0.5645
		c-0.7847,0.0646-1.6276-0.9892-1.5808-1.8348c0.0351-0.6343,1.0889-1.4771,1.8234-1.4641c0.8067,0.0189,1.2784,0.493,1.2486,1.2497
		C328.9837,48.2202,329.0504,48.2426,329.1116,48.265"/>
	<path id="XMLID_1357_" fill-rule="evenodd" clip-rule="evenodd" fill="#7B6F4F" d="M352.3448,63.3711
		c-0.779-0.0076-1.2889-0.7267-1.3026-1.8507c-0.0036-0.7122,0.9167-1.5667,1.7012-1.5646
		c0.5063,0.0014,1.3109,0.8159,1.3095,1.3222C354.0667,62.3965,353.2628,63.3792,352.3448,63.3711"/>
	<path id="XMLID_1356_" fill-rule="evenodd" clip-rule="evenodd" fill="#7B6F4F" d="M341.353,35.988
		c-0.8123-0.0467-1.5887-0.9724-1.5418-1.8791c0.0415-0.9514,1.3292-1.8548,2.1249-1.8749
		c0.7957-0.0146,1.6165,0.9892,1.5919,1.8626C343.5027,35.226,342.549,36.0636,341.353,35.988"/>
	<path id="XMLID_1346_" fill-rule="evenodd" clip-rule="evenodd" fill="#7B6F4F" d="M274.1698,73.5401
		c-0.223,0.1719-0.4403,0.2603-0.4739,0.377c-0.1468,0.7842-0.7423,0.8438-1.321,0.8534c-0.996,0.0307-1.9919,0.0002-2.9934-0.0191
		c-0.7232-0.0242-1.4408-0.1096-2.1585-0.1226c-1.5356-0.032-3.0768-0.0583-4.6013-0.0402
		c-2.7153,0.0428-5.4196,0.1079-8.1406,0.173c-1.6804,0.0456-3.3666,0.1523-5.0526,0.1756
		c-1.7861,0.0286-3.5721-0.0096-5.3581-0.0143c-2.1922-0.0115-4.3788-0.0173-6.5821-0.051
		c-0.7011-0.0075-1.413-0.0928-2.1084-0.1281c-1.452-0.0762-2.9039-0.1747-4.3449-0.2064c-0.6955-0.013-1.4024,0.1076-2.0981,0.1558
		c-0.6122,0.0485-1.1569-0.1478-1.6288-0.5552c-0.2221-0.1898-0.433-0.3851-0.6718-0.5471
		c-0.9387-0.6201-1.2146-1.4499-0.9391-2.5341c0.1462-0.5727,0.2146-1.1623,0.2439-1.7464
		c0.0816-1.3741,0.1186-2.7483,0.1557-4.1114c0.0014-0.5286-0.0194-1.0516-0.057-1.5692c-0.0803-1.1853-0.2218-2.3598-0.252-3.5394
		c-0.0467-1.2521,0.0401-2.5093,0.0212-3.7557c-0.0295-1.4467-0.098-2.8824-0.1442-4.3236
		c-0.0153-0.5175,0.0028-1.0405-0.0125-1.5635c-0.0524-1.2131-0.1382-2.4263-0.146-3.6448
		c-0.0071-1.5023,0.0247-2.9989,0.0732-4.5011c0.0427-1.3853,0.1577-2.7705,0.178-4.1558c0.0314-1.3464-0.0429-2.6931-0.0226-4.0395
		c0.013-0.7177,0.1596-1.4351,0.1949-2.1639c0.0769-1.6968-0.1141-3.105-0.0205-4.7962c0.0527-1.0013-0.0493-2.3815,0.0091-3.3884
		c0.0875-1.5077,0.1361-3.0209,0.0844-4.5178c-0.0619-1.8084,0.0204-3.4718-0.1417-5.275c-0.043-0.5787,0.159-1.1958,0.0771-1.7747
		c-0.0382-0.2838-0.1543-0.5624-0.1758-0.8406c-0.1027-1.1297,0.6165-1.6842,1.5734-1.626c0.6676,0.0352,1.3349,0.1705,2.008,0.2169
		c1.0903,0.0864,2.1806,0.1894,3.2656,0.1923c1.2853,0.0034,2.5653-0.0988,3.8506-0.1288c1.3077-0.0466,2.6153-0.0987,3.9228-0.0786
		c0.9347,0.0081,1.869,0.172,2.8093,0.2023c0.9736,0.036,1.953-0.017,2.9267-0.0088c1.3965,0.0149,2.9272-0.1814,4.3181-0.1554
		c2.3757,0.0341,4.629,0.0958,7.0048,0.0966c1.7693-0.0064,3.6556-0.0403,5.4308-0.1413c1.7918-0.0954,3.4499-0.0965,5.2418-0.1919
		c1.4691-0.0739,2.9546-0.0477,4.4236-0.0939c0.4341-0.0211,0.807-0.0813,1.2515,0.1535c0.6779,0.3524,0.8376,0.9482,0.9361,1.5827
		c0.0438,0.2782-0.1351,0.5838-0.2138,0.8785c-0.0169,0.0668-0.0671,0.1334-0.0673,0.1946
		c0.0248,1.1128,0.0218,2.2368,0.0968,3.3387c0.1128,1.5025-0.0413,2.971-0.2567,4.4449c-0.0964,0.673-0.0481,1.3519-0.0833,2.0307
		c-0.0645,1.2183-0.179,2.431-0.2157,3.655c-0.0317,1.4521-0.0467,2.9154-0.0117,4.3677c0.03,1.2853,0.1656,2.5654,0.2067,3.8564
		c0.0369,0.7679-0.0431,1.5523-0.0229,2.3257c0.0082,1.085,0.0776,2.1758,0.0858,3.2607c0.0031,0.9125-0.0606,1.8416-0.063,2.754
		c-0.0156,1.6803,0.0021,3.3552,0.0032,5.0299c0.0044,0.4395,0.0032,0.8735,0.0132,1.3187c0.0186,1.3688,0.0817,2.7432,0.0446,4.123
		c-0.0306,1.0404,0.0279,2.0588-0.0473,3.1046c-0.0805,0.9902-0.066,1.7915-0.0853,2.7818
		c-0.0267,1.658,0.1082,3.2385,0.1427,4.9023c0.0286,1.7972,0.0596,4.7462,0.1327,6.5491
		C274.4363,71.6824,274.1176,72.2268,274.1698,73.5401 M229.0097,12.2042c0.1102,0.4176,0.1591,0.8572,0.3417,1.2194
		c0.5646,1.0865,1.0401,2.2228,1.861,3.1654c0.9319,1.0763,1.78,2.2526,2.6226,3.4122c1.1308,1.5999,2.5238,2.9278,3.9223,4.267
		c2.1866,2.1146,4.5853,3.9571,6.9282,5.8719c1.0548,0.8652,2.1766,1.6638,3.3264,2.3959c1.3664,0.8772,2.7887,1.6655,4.1942,2.4705
		c0.8944,0.5198,1.8112,1.0007,2.7112,1.4928c0.2667,0.1509,0.5277,0.313,0.8112,0.4138c0.9561,0.342,1.9122,0.6729,2.874,0.9814
		c1.3954,0.4433,2.785,0.9478,4.2141,1.2743c1.3401,0.2984,2.7196,0.4413,4.088,0.584c1.602,0.1768,3.1985,0.2868,4.8117,0.4246
		c0.2837,0.023,0.501-0.0821,0.5131-0.4326c0.0129-0.6621,0.0592-1.3185,0.0443-1.9807c-0.0251-1.0071-0.0892-2.0088-0.1199-3.0216
		c-0.0309-0.9237-0.0396-1.8474-0.0594-2.771c-0.0258-0.7401-0.0906-1.4858-0.0886-2.2203c0.008-0.9125,0.0661-1.8192,0.1019-2.726
		c0.0479-1.2574,0.0735-2.5259,0.1214-3.7888c0.0354-0.7455,0.132-1.4853,0.1451-2.2253c0.0083-1.0349-0.0279-2.0643-0.0196-3.0936
		c0.0064-0.3283,0.1519-0.6395,0.1695-0.9621c0.064-1.0458,0.1447-2.0861,0.1141-3.1322c-0.0207-0.5732,0.1646-1.2236-0.1903-1.6697
		c-0.8233-0.0412-1.5354-0.082-2.2364-0.1173c-0.1803,0.8508-0.3493,1.6404-0.5072,2.419
		c-0.1411,0.7508-0.3156,1.5015-0.3788,2.2635c-0.1261,1.3851-0.2188,2.7759-0.2393,4.1724
		c-0.0322,1.619,0.008,3.2494,0.0648,4.8743c0.0416,1.0795,0.1333,2.1592,0.2528,3.2333c0.1361,1.141,0.3668,2.2656,0.4805,3.4064
		c0.0756,0.8682,0.6187,1.6654,0.3158,2.5937c-0.1346,0.4169-0.414,0.8502-0.8203,0.8769c-0.473,0.0266-0.9684,0.1198-1.4077,0.0074
		c-1.0843-0.2755-2.2143-0.0894-3.3094-0.4317c-2.1737-0.6791-4.426-1.1135-6.5772-1.8481
		c-1.6232-0.5552-3.2687-1.1104-4.7964-1.9825c-1.2167-0.6876-2.5564-1.1196-3.8067-1.7295
		c-0.5446-0.2629-0.9829-0.7148-1.4884-1.0388c-0.7832-0.5084-1.5999-0.9502-2.3775-1.4586
		c-0.8609-0.5643-1.7107-1.1452-2.5213-1.7817c-0.6996-0.5472-1.3098-1.2387-2.0261-1.7748
		c-0.8329-0.6254-1.638-1.2785-2.3146-2.0871c-0.4105-0.4796-0.8376-0.9592-1.2704-1.4222
		c-0.2053-0.2231-0.4719-0.3852-0.6493-0.6304c-0.8705-1.143-1.674-2.3525-2.5835-3.4622c-0.9484-1.1488-1.724-2.3805-2.1207-3.8671
		C231.1348,12.3156,230.1334,12.2684,229.0097,12.2042 M229.7229,72.1025c0.2836,0.0564,0.4726,0.1237,0.6395,0.1297
		c1.0236,0.0528,2.0473,0.0778,3.0709,0.1529c0.7399,0.0409,0.8179,0.0022,1.0313-0.7261c0.0337-0.1167,0.062-0.2724,0.14-0.3335
		c0.6856-0.4655,0.6546-1.3559,1.1125-1.9722c0.5304-0.6941,0.9332-1.4887,1.4025-2.2274c0.1732-0.2666,0.3908-0.4887,0.5584-0.7386
		c0.3966-0.572,0.7321-1.1832,1.1675-1.7106c0.5024-0.6051,1.0935-1.121,1.6348-1.6982c0.6194-0.666,1.1944-1.3656,1.8248-2.0259
		c0.8537-0.8936,1.724-1.7648,2.5999-2.6304c0.3961-0.3885,0.7533-0.8215,1.2104-1.1151c0.9977-0.6483,1.9787-1.319,2.7824-2.2293
		c0.3237-0.3719,0.6585-0.7438,1.0544-1.0265c0.3568-0.2494,0.7966-0.3595,1.1866-0.5588c0.8413-0.4095,1.6826-0.8579,2.535-1.2618
		c0.7743-0.3485,1.5763-0.6245,2.334-1.0176c0.9862-0.5037,1.9668-1.0073,3.0579-1.2159c0.3173-0.0604,0.6346-0.1151,0.9353-0.1978
		c1.225-0.3584,2.4501-0.739,3.6807-1.0807c1.2807-0.3694,2.5613-0.6886,3.8475-1.0413c0.941-0.2646,2.0511,0.7677,1.7703,1.7407
		c-0.3764,1.3288-0.2241,2.659-0.0997,3.9891c0.1026,1.152,0.3388,2.2989,0.4859,3.4566c0.0654,0.5176,0.1752,1.0688,0.0959,1.5749
		c-0.2657,1.5516,0.0474,3.077,0.0656,4.6183c0.0098,0.4952-0.0249,1.0014-0.0096,1.5022c0.0262,0.5899,0.0803,1.1742,0.1288,1.7586
		c0.0214,0.3116,0.0539,0.6288,0.0865,0.935c0.0429,0.6066,0.1637,1.2078,0.1454,1.8087c-0.036,0.9736-0.1499,1.9358-0.2415,2.9038
		c-0.0286,0.2725,0.0042,0.484,0.3216,0.4125c0.412-0.0879,0.8185-0.2092,1.2139-0.3528c0.1058-0.0331,0.2008-0.1831,0.2289-0.2887
		c0.0792-0.5005,0.1863-0.9955,0.2099-1.4961c0.0472-1.0014,0.0666-2.0029,0.0692-3.0043c0.0001-2.1255-0.0331-4.251-0.0275-6.3709
		c-0.0023-1.1907,0.0064-2.3758,0.054-3.5608c0.0479-1.2573,0.1402-2.4979,0.2048-3.7552c0.0654-1.58,0.1364-3.1655,0.1574-4.7513
		c0.0152-1.5356-0.0307-3.0769-0.0544-4.6127c0.0008-0.3172-0.1379-0.4511-0.4272-0.4407
		c-0.3283,0.0158-0.6677,0.0205-0.9961,0.0585c-1.308,0.1579-2.627,0.2823-3.935,0.4903c-0.8628,0.1424-1.7147,0.3737-2.5611,0.6163
		c-1.7373,0.5017-3.5022,0.9198-5.1843,1.5941c-2.0052,0.8014-3.9607,1.7643-5.8941,2.7551
		c-1.2536,0.6532-2.4742,1.4066-3.6393,2.2325c-1.9009,1.3413-3.7464,2.7496-5.5752,4.1803
		c-1.2991,1.0091-2.5483,2.0741-3.7864,3.1613c-0.9704,0.8598-1.8466,1.8423-2.8392,2.6687
		c-1.277,1.0705-2.2598,2.392-3.2038,3.7471c-0.3631,0.5276-0.8039,0.9993-1.1503,1.527c-0.6313,0.9442-1.2236,1.9052-1.8215,2.8606
		C230.7903,70.3694,230.2873,71.1971,229.7229,72.1025 M266.6363,50.6297c-0.5845,0.093-1.1799,0.1304-1.7479,0.2847
		c-1.0913,0.2864-2.1606,0.6451-3.2408,0.9706c-1.5146,0.4689-3.0458,0.8765-4.5439,1.4011
		c-1.0693,0.3699-2.1166,0.8567-3.1528,1.3381c-0.6017,0.2821-1.1868,0.6255-1.7387,1.0135
		c-0.8529,0.5986-1.6837,1.2529-2.5089,1.8906c-0.7025,0.5433-1.4106,1.0756-2.0742,1.6637
		c-0.6637,0.6047-1.272,1.2763-1.908,1.9145c-0.212,0.2164-0.4296,0.4328-0.6583,0.6436c-0.5467,0.516-1.1322,0.9929-1.64,1.5535
		c-0.9096,0.999-1.8081,2.0204-2.6456,3.0865c-0.9659,1.227-1.904,2.482-2.7977,3.7705c-0.4636,0.6775-0.7328,1.4558-0.8017,2.2735
		c1.3686,0.0704,2.6815,0.1407,4.0166,0.211c-0.124-1.4803,0.0551-1.8749,0.7858-2.574c0.1618-0.1498,0.3235-0.3051,0.4575-0.4717
		c0.843-1.0383,1.6693-2.1044,2.5233-3.1369c0.5303-0.6273,1.0994-1.2211,1.6463-1.8373c1.1943-1.3321,2.2775-2.7481,3.8767-3.6396
		c1.3206-0.7309,2.5028-1.707,3.8234-2.4435c1.6606-0.9303,3.3709-1.7436,5.0756-2.5569c0.741-0.3597,1.5594-0.5467,2.2893-0.9231
		c1.0976-0.5757,2.1253,0.0558,2.2277,1.2857c0.0645,0.8515-0.0491,1.7303-0.007,2.5928c0.0579,1.241,0.1881,2.4876,0.2849,3.7342
		c0.0434,0.4285,0.0812,0.8515,0.1413,1.2801c0.0764,0.5344,0.2697,1.0801,0.2294,1.6086
		c-0.0746,0.8622-0.0991,1.6856,0.2103,2.4988c0.0442,0.1169-0.0175,0.2726,0.0044,0.4173c0.1137,1.1743,0.2329,2.3542,0.3466,3.534
		c0.038,0.3563,0.2493,0.4124,0.5331,0.3742c0.5343-0.0653,1.0686-0.1251,1.5584-0.1795c0.0897-0.239,0.1626-0.4502,0.2466-0.6559
		c0.2297-0.5836,0.5484-1.1558,0.6724-1.762c0.2201-1.1623-0.1441-2.3039-0.2578-3.4559c-0.065-0.6622-0.0966-1.3356-0.106-1.9866
		c-0.0192-1.1296,0.0005-2.2478-0.0299-3.3719c-0.0046-0.3617-0.1428-0.7125-0.1919-1.0688
		c-0.0656-0.4397-0.1089-0.8905-0.1467-1.3413c-0.0432-0.4897-0.0808-0.9795-0.0795-1.4747
		c0.0081-0.9402,0.1052-1.8803,0.0854-2.8151C267.3587,53.0519,267.2117,51.8386,266.6363,50.6297 M264.1071,12.2759
		c0.0358,1.1852,0.0383,2.3202,0.0798,3.4555c0.0414,1.1685,0.1106,2.3316,0.1353,3.4945c0.0157,0.3896-0.0632,0.7677-0.0587,1.1572
		c0.0247,1.1685,0.1161,2.3483,0.113,3.5223c0.0034,0.8012,0.1238,1.5471,0.4056,2.2823c0.1934,0.5124,0.4701,1.0696,0.4297,1.5813
		c-0.0463,0.662-0.3485,1.3345-0.8784,1.8059c-0.145,0.1276-0.3958,0.266-0.557,0.2211c-1.1122-0.2367-2.2132-0.4844-3.2973-0.8156
		c-0.5059-0.1571-0.9445-0.52-1.4336-0.6993c-0.8171-0.3026-1.6567-0.5219-2.4849-0.8079c-0.328-0.1122-0.6111-0.3467-0.9448-0.4199
		c-0.6394-0.1519-1.1841-0.3926-1.7282-0.8281c-0.7052-0.5527-1.5721-0.9334-2.4115-1.2472
		c-0.8838-0.3196-1.6113-0.839-2.3443-1.3973c-0.5386-0.4132-1.0828-0.8153-1.627-1.2173
		c-0.4942-0.3741-1.0275-0.7094-1.4881-1.1224c-0.5772-0.5301-1.0484-1.1824-1.6536-1.668
		c-0.6829-0.5471-1.1094-1.2827-1.586-1.9739c-0.3547-0.5184-0.6648-1.0701-0.9693-1.6217
		c-0.5814-1.042-1.1405-2.1007-1.7164-3.1594c-0.1661-0.3064-0.282-0.6629-0.7327-0.6585c-1.4467,0.024-2.8989,0.0312-4.3456,0.0496
		c-0.1836,0.005-0.373,0.0769-0.5511,0.1209c0.0551,0.1948,0.0824,0.4064,0.1876,0.5791c0.3323,0.574,0.6869,1.1425,1.0582,1.6943
		c0.2605,0.3791,0.56,0.736,0.8539,1.0984c0.1997,0.2287,0.4273,0.4352,0.6158,0.6749c0.5214,0.6078,0.9367,1.3434,1.5419,1.8235
		c1.0993,0.871,2.0425,1.8861,2.9243,2.979c0.0776,0.1004,0.1553,0.1952,0.2441,0.2733c0.7216,0.6418,1.4264,1.317,2.1815,1.9254
		c0.7551,0.6029,1.5381,1.167,2.3435,1.6977c1.8328,1.2401,3.6712,2.4747,5.6773,3.4092c0.9336,0.4421,1.8224,0.9675,2.7784,1.3539
		c1.4228,0.5825,2.8681,1.1038,4.3078,1.6139c0.7338,0.2579,1.49,0.4436,2.2294,0.6681c1.9513,0.6061,3.9535,0.9342,5.9897,1.0398
		c0.6509,0.0351,0.8352-0.2481,0.7091-0.9162c-0.1426-0.7626-0.2574-1.5308-0.3889-2.2933
		c-0.1207-0.6458-0.3249-1.2806-0.3732-1.9373c-0.1237-1.6027-0.1972-3.2165-0.2542-4.8302
		c-0.0313-0.7735-0.0125-1.5579,0.0508-2.3312c0.0981-1.2962,0.2406-2.5922,0.3721-3.8938c0.0914-0.8733,0.2272-1.7521,0.2852-2.631
		c0.035-0.5952,0.0088-1.2017-0.0787-1.7862c-0.033-0.167-0.394-0.385-0.6055-0.3855c-0.8123-0.0077-1.6304,0.068-2.454,0.1047
		C264.48,12.2713,264.2908,12.2764,264.1071,12.2759 M242.2467,12.0838c-0.0224,0.0778-0.0393,0.139-0.0673,0.2168
		c0.4801,1.4869,1.4673,2.6691,2.3543,3.89c0.5987,0.825,1.4037,1.4949,2.0749,2.2646c0.9762,1.1432,2.2205,1.9088,3.4257,2.7132
		c1.1885,0.8044,2.4721,1.4588,3.7277,2.1354c1.0278,0.5591,2.0836,1.0961,3.1449,1.6053c0.5612,0.263,1.2008,0.3648,1.7509,0.6501
		c0.9835,0.5034,2.0121,0.7732,3.0914,0.8095c0.3283,0.0064,0.6458-0.1485,0.6637-0.5824c0.0126-0.5342,0.0418-1.0738,0.0377-1.6135
		c-0.0142-0.9348-0.0618-1.8641-0.0593-2.8044c-0.0078-1.2241,0.0177-2.4481,0.0098-3.6666
		c0.0008-0.3061-0.1263-0.6124-0.1255-0.9296c-0.0188-1.302-0.0264-2.6039-0.0229-3.9115c0.0011-0.4006-0.2045-0.5125-0.5327-0.5189
		c-0.3672-0.0177-0.74-0.0242-1.1015-0.0586c-0.6064-0.0405-0.9463,0.131-1.0589,0.6482c-0.0844,0.3503-0.0798,0.7231-0.0808,1.0848
		c-0.002,0.7289,0.0128,1.4522,0.0387,2.1756c0.026,0.6622,0.052,1.341,0.1282,2.0034c0.0707,0.6067,0.6704,1.0422,0.4961,1.7429
		c-0.1013,0.417-0.0969,0.851-0.1537,1.2793c-0.0169,0.089-0.084,0.1945-0.1454,0.25c-0.5687,0.4492-1.1807,0.442-1.7974,0.0786
		c-1.1443-0.6874-2.2999-1.3359-3.4611-1.9789c-0.3333-0.1901-0.7561-0.2301-1.067-0.4536c-1.0829-0.793-2.1712-1.6027-3.215-2.4568
		c-0.7495-0.614-1.4599-1.278-2.1424-1.9642c-0.3496-0.3515-0.6155-0.8029-0.8925-1.2321
		c-0.1385-0.2063-0.2492-0.4513-0.3153-0.6963c-0.077-0.3284-0.2547-0.4513-0.5607-0.4689
		C245.0061,12.2247,243.6264,12.1487,242.2467,12.0838 M262.7502,72.3077c0.0513-0.4728,0.1805-0.9231,0.1538-1.3516
		c-0.1024-1.2355-0.266-2.4711-0.4074-3.7067c-0.0326-0.2894,0.0016-0.6176-0.1034-0.8738c-0.2654-0.6072-0.2359-1.2414-0.2064-1.87
		c0.0591-1.2907,0.1237-2.5703-0.1678-3.8452c-0.1485-0.6513-0.258-1.3138-0.3786-1.9706
		c-0.0713-0.3841-0.2822-0.5683-0.6498-0.4357c-0.5792,0.1932-1.1472,0.392-1.6987,0.6297
		c-0.9024,0.3981-1.8048,0.7685-2.6685,1.2503c-1.2984,0.7254-2.5746,1.5121-3.8454,2.3155
		c-0.7524,0.4654-1.5103,0.9363-2.1796,1.5242c-0.7697,0.6823-1.3896,1.5487-2.1593,2.2477
		c-1.478,1.3425-2.6786,2.9361-3.9457,4.4851c-0.307,0.372-0.4087,0.9392-0.5547,1.4284c-0.101,0.3224,0.0375,0.5398,0.4103,0.5242
		c1.0294-0.0195,2.0532-0.0335,3.0881-0.0251c0.306,0.0063,0.4953-0.0376,0.5798-0.4102c0.0452-0.2559,0.2295-0.5001,0.3969-0.7112
		c0.642-0.7772,1.2895-1.5656,1.9536-2.3205c0.8986-1.0324,1.7805-2.0928,2.7401-3.0584c0.7029-0.6992,1.4504-1.3982,2.2974-1.8856
		c0.8471-0.493,1.5719-1.0752,2.2304-1.7968c0.1674-0.1943,0.5127-0.3158,0.7631-0.3095c1.096,0.0419,1.9092,1.7911,1.3501,2.7967
		c-0.1398,0.2445-0.213,0.5892-0.1804,0.873c0.1245,1.3024,0.2823,2.6158,0.4736,3.9184c0.0983,0.6846,0.269,1.3583,0.4341,2.032
		c0.0825,0.3564,0.3157,0.5517,0.7052,0.5472C261.682,72.2882,262.1771,72.3062,262.7502,72.3077 M257.7534,18.3903
		c-0.0199-0.8902-0.0401-1.6415-0.0771-2.3983c-0.0312-0.8346-0.1346-1.6695-0.1212-2.5152
		c0.0192-0.9291-0.0639-1.0907-0.9819-1.0987c-1.6969-0.0269-3.3995-0.0369-5.0965-0.0582
		c-0.5619-0.007-1.1182-0.0642-1.6745-0.0768c-0.1169-0.0003-0.2451,0.0939-0.3676,0.1437c0.0498,0.1114,0.0605,0.2617,0.1493,0.351
		c0.588,0.6748,1.187,1.3663,1.814,2.0134c0.4772,0.4743,0.9543,1.0041,1.521,1.3283c1.2166,0.6988,2.4892,1.2864,3.745,1.9074
		C256.964,18.1378,257.292,18.2278,257.7534,18.3903 M250.5531,72.6311c0.2393-0.0105,0.3172-0.0103,0.4062-0.0155
		c2.1646-0.0721,4.3403-0.1609,6.516-0.2218c0.9348-0.0253,1.08-0.203,0.9323-1.166c-0.2518-1.5419-0.4702-3.0892-0.6942-4.6311
		c-0.0873-0.6234-0.2373-0.7184-0.7224-0.3524c-0.0836,0.0609-0.1894,0.0885-0.2675,0.1495
		c-0.8585,0.632-1.7837,1.1915-2.559,1.9295c-0.8925,0.86-1.6575,1.8651-2.4724,2.8199
		C251.3237,71.5816,250.9886,72.0537,250.5531,72.6311"/>
	<path id="XMLID_1263_" fill-rule="evenodd" clip-rule="evenodd" fill="#006072" d="M415.9705,73.9197
		c-0.2286,0.1719-0.4458,0.2603-0.4739,0.377c-0.1523,0.7841-0.7479,0.8438-1.321,0.8534c-1.0016,0.0307-1.9919,0.0002-2.999-0.0191
		c-0.7177-0.0242-1.4352-0.1095-2.1585-0.1226c-1.53-0.0319-3.0656-0.0583-4.6013-0.0402c-2.7098,0.0428-5.414,0.1079-8.135,0.173
		c-1.686,0.0456-3.3777,0.1523-5.0581,0.1756c-1.7861,0.0286-3.572-0.0096-5.3581-0.0143c-2.1922-0.0115-4.3788-0.0173-6.5709-0.051
		c-0.7067-0.0075-1.4131-0.0928-2.1196-0.1281c-1.4464-0.0762-2.8928-0.1747-4.3394-0.2064
		c-0.701-0.013-1.3969,0.1076-2.0981,0.1558c-0.6177,0.0484-1.1625-0.1478-1.6288-0.5552c-0.222-0.1898-0.4385-0.3851-0.6718-0.5471
		c-0.9442-0.6201-1.2202-1.4499-0.9391-2.5341c0.1407-0.5727,0.2145-1.1623,0.2439-1.7464c0.076-1.3741,0.1186-2.7483,0.1446-4.1114
		c0.0181-0.5285-0.0139-1.0516-0.0403-1.5691c-0.0858-1.1853-0.2218-2.3598-0.2576-3.5394
		c-0.0412-1.252,0.0345-2.5093,0.0156-3.7557c-0.0184-1.4467-0.098-2.8824-0.1442-4.3236
		c-0.0154-0.5175,0.0028-1.0405-0.0125-1.5635c-0.0413-1.2131-0.1326-2.4263-0.1404-3.6448
		c-0.0071-1.5023,0.0303-2.9989,0.0732-4.5011c0.0371-1.3853,0.1577-2.7705,0.1837-4.1558
		c0.0203-1.3465-0.0485-2.6932-0.0282-4.0395c0.0075-0.7177,0.1652-1.4351,0.1949-2.1639c0.0713-1.6968-0.1085-3.105-0.0261-4.7962
		c0.0583-1.0013-0.0493-2.3815,0.0091-3.3884c0.0875-1.5077,0.1416-3.0209,0.09-4.5178c-0.0619-1.8084,0.0204-3.4718-0.1361-5.275
		c-0.0541-0.5787,0.1423-1.1959,0.0715-1.7747c-0.0382-0.2838-0.1543-0.5624-0.1758-0.8406
		c-0.1138-1.1297,0.6109-1.6842,1.5678-1.626c0.6732,0.0353,1.3349,0.1705,2.008,0.2169c1.0959,0.0864,2.1861,0.1894,3.2711,0.1923
		c1.2797,0.0034,2.5597-0.0988,3.8451-0.1288c1.3077-0.0466,2.6154-0.0987,3.9228-0.0786c0.9348,0.0081,1.8746,0.172,2.8148,0.2023
		c0.968,0.036,1.9474-0.017,2.9322-0.0088c1.3854,0.0148,2.9216-0.1814,4.3125-0.1554c2.3758,0.0341,4.629,0.0958,6.9992,0.0966
		c1.7693-0.0064,3.6612-0.0403,5.4253-0.1413c1.7974-0.0954,3.4555-0.0965,5.2529-0.1918c1.4691-0.0739,2.949-0.0477,4.4236-0.0939
		c0.4285-0.0211,0.8014-0.0813,1.2515,0.1535c0.6723,0.3524,0.8432,0.9482,0.9361,1.5827c0.0382,0.2782-0.1407,0.5838-0.2193,0.8785
		c-0.0169,0.0668-0.0671,0.1334-0.0673,0.1946c0.0304,1.1129,0.0163,2.2368,0.1023,3.3387
		c0.1017,1.5025-0.0358,2.9711-0.2567,4.4449c-0.1019,0.673-0.0482,1.3519-0.0889,2.0307c-0.0589,1.2183-0.179,2.431-0.2045,3.655
		c-0.0484,1.4521-0.0523,2.9154-0.0228,4.3677c0.0299,1.2853,0.1656,2.5654,0.2122,3.8564c0.0258,0.7679-0.0375,1.5523-0.034,2.3257
		c0.0138,1.0851,0.0832,2.1758,0.0914,3.2607c0.0031,0.9125-0.0661,1.8416-0.0686,2.754c-0.0101,1.6803,0.0077,3.3552,0.0143,5.0299
		c-0.0012,0.4395,0.0033,0.8735,0.0132,1.3187c0.0186,1.3688,0.0706,2.7432,0.0446,4.123
		c-0.0306,1.0404,0.0168,2.0588-0.0472,3.1046c-0.075,0.9902-0.0716,1.7915-0.0909,2.7818
		c-0.0267,1.658,0.1137,3.2386,0.1427,4.9023c0.0341,1.7972,0.0652,4.7462,0.1271,6.5491
		C416.237,72.062,415.9183,72.6064,415.9705,73.9197 M370.7992,12.5837c0.1213,0.4176,0.1591,0.8572,0.3529,1.2194
		c0.5646,1.0865,1.0401,2.2228,1.8554,3.1654c0.9374,1.0763,1.7856,2.2526,2.6227,3.4122c1.1364,1.5999,2.5238,2.9278,3.9167,4.2669
		c2.1977,2.1146,4.5964,3.9572,6.9337,5.8719c1.0549,0.8652,2.1822,1.6639,3.332,2.3959c1.3608,0.8772,2.7887,1.6655,4.1887,2.4705
		c0.8944,0.5198,1.8112,1.0007,2.7112,1.4928c0.2722,0.1509,0.5277,0.313,0.8112,0.4138c0.9617,0.342,1.9178,0.6729,2.8851,0.9814
		c1.3954,0.4433,2.7739,0.9478,4.2029,1.2743c1.3401,0.2984,2.7141,0.4413,4.0935,0.584c1.5964,0.1768,3.2041,0.2868,4.8062,0.4246
		c0.2893,0.023,0.501-0.0821,0.5131-0.4326c0.0185-0.6621,0.0592-1.3185,0.0442-1.9807c-0.0195-1.0071-0.0836-2.0088-0.1198-3.0216
		c-0.0309-0.9237-0.0285-1.8473-0.0594-2.771c-0.0203-0.74-0.0851-1.4858-0.0831-2.2203c0.0024-0.9125,0.0716-1.8192,0.0963-2.726
		c0.0479-1.2574,0.0791-2.5259,0.1325-3.7887c0.0243-0.7455,0.1264-1.4853,0.134-2.2253c0.0194-1.0349-0.0279-2.0643-0.014-3.0936
		c0.0009-0.3283,0.1464-0.6395,0.1639-0.9622c0.0584-1.0458,0.1447-2.0861,0.1141-3.1322
		c-0.0151-0.5732,0.1758-1.2236-0.1902-1.6697c-0.8123-0.0411-1.5355-0.082-2.2309-0.1173
		c-0.1804,0.8508-0.3549,1.6404-0.5017,2.419c-0.1466,0.7508-0.3212,1.5014-0.39,2.2635c-0.1261,1.3851-0.2188,2.7759-0.2393,4.1724
		c-0.0321,1.619,0.008,3.2494,0.0704,4.8743c0.036,1.0795,0.1333,2.1592,0.2528,3.2333c0.1305,1.141,0.3723,2.2656,0.4749,3.4064
		c0.0811,0.8682,0.6187,1.6654,0.3213,2.5937c-0.1346,0.4169-0.4196,0.8502-0.8258,0.8769
		c-0.4675,0.0266-0.9685,0.1198-1.4077,0.0074c-1.0898-0.2755-2.2142-0.0894-3.3094-0.4317
		c-2.1682-0.6791-4.4204-1.1135-6.5773-1.8481c-1.6232-0.5552-3.2631-1.1104-4.7964-1.9825
		c-1.2111-0.6876-2.5564-1.1196-3.8123-1.7295c-0.5279-0.2629-0.9718-0.7147-1.4828-1.0388
		c-0.7776-0.5084-1.5943-0.9501-2.3719-1.4586c-0.8609-0.5643-1.7107-1.1452-2.5213-1.7817
		c-0.7052-0.5472-1.3154-1.2387-2.0317-1.7748c-0.8385-0.6254-1.6268-1.2784-2.309-2.0871
		c-0.4104-0.4796-0.8432-0.9592-1.2703-1.4222c-0.2053-0.2231-0.472-0.3852-0.6493-0.6304c-0.876-1.143-1.674-2.3525-2.5891-3.4622
		c-0.9484-1.1488-1.724-2.3805-2.1207-3.8671C372.9355,12.6951,371.9286,12.6479,370.7992,12.5837 M371.518,72.482
		c0.2948,0.0564,0.467,0.1237,0.6506,0.1297c1.0237,0.0528,2.0418,0.0778,3.0542,0.1528c0.7455,0.041,0.829,0.0022,1.0424-0.7261
		c0.0393-0.1167,0.062-0.2724,0.14-0.3335c0.6856-0.4655,0.649-1.3559,1.1125-1.9722c0.5249-0.6941,0.9221-1.4887,1.4081-2.2274
		c0.162-0.2667,0.3741-0.4887,0.5528-0.7386c0.391-0.572,0.732-1.1832,1.1619-1.7106c0.5079-0.6051,1.0991-1.121,1.6292-1.6982
		c0.625-0.666,1.1999-1.3655,1.8304-2.0259c0.8537-0.8936,1.7296-1.7648,2.5999-2.6304c0.3961-0.3885,0.7645-0.8215,1.2104-1.1151
		c0.9977-0.6483,1.9843-1.319,2.7824-2.2293c0.3293-0.3719,0.6641-0.7438,1.0599-1.0265c0.3457-0.2494,0.7855-0.3596,1.1755-0.5588
		c0.8524-0.4095,1.6938-0.8579,2.5517-1.2617c0.7632-0.3485,1.5708-0.6246,2.3229-1.0176c0.9862-0.5037,1.9668-1.0073,3.069-1.2159
		c0.3062-0.0604,0.6235-0.1152,0.9242-0.1978c1.2306-0.3584,2.4557-0.739,3.6807-1.0807c1.2752-0.3694,2.5613-0.6886,3.8475-1.0413
		c0.9522-0.2645,2.0511,0.7677,1.7758,1.7407c-0.3819,1.3288-0.2185,2.659-0.0997,3.9891c0.1027,1.152,0.3333,2.2989,0.486,3.4566
		c0.0598,0.5176,0.1752,1.0688,0.0904,1.5749c-0.2712,1.5516,0.053,3.077,0.0711,4.6183c0.0042,0.4951-0.0249,1.0014-0.0152,1.5022
		c0.0318,0.5899,0.0803,1.1742,0.1288,1.7586c0.027,0.3117,0.054,0.6288,0.0865,0.935c0.054,0.6066,0.1637,1.2078,0.1509,1.8087
		c-0.036,0.9736-0.1443,1.9358-0.2415,2.9038c-0.0286,0.2725,0.0043,0.484,0.3272,0.4126c0.4064-0.0879,0.8129-0.2092,1.2139-0.3528
		c0.0947-0.0331,0.2008-0.1831,0.2177-0.2888c0.0904-0.5005,0.1807-0.9955,0.2043-1.4962c0.0528-1.0013,0.0833-2.0028,0.0748-3.0043
		c-0.0054-2.1255-0.0276-4.251-0.0219-6.3709c-0.0079-1.1907,0.0119-2.3758,0.0485-3.5608
		c0.0534-1.2573,0.1513-2.4979,0.2048-3.7552c0.071-1.58,0.1364-3.1656,0.1574-4.7513c0.0152-1.5356-0.0307-3.0769-0.0489-4.6127
		c0.0009-0.3172-0.1379-0.4511-0.4217-0.4407c-0.3339,0.0157-0.6733,0.0204-1.0017,0.0584
		c-1.3135,0.1579-2.6325,0.2823-3.9351,0.4903c-0.8628,0.1424-1.7203,0.3737-2.5611,0.6163
		c-1.7373,0.5017-3.5078,0.9198-5.1843,1.5941c-2.0108,0.8013-3.9607,1.7643-5.8941,2.7551
		c-1.2537,0.6532-2.4853,1.4066-3.6448,2.2325c-1.8954,1.3414-3.7464,2.7496-5.5752,4.1803
		c-1.2936,1.0091-2.5483,2.0741-3.7809,3.1613c-0.976,0.8598-1.8466,1.8423-2.8392,2.6687
		c-1.2825,1.0705-2.2598,2.392-3.2093,3.7471c-0.3575,0.5276-0.7928,0.9994-1.1559,1.527c-0.6257,0.9442-1.2125,1.9052-1.816,2.8606
		C372.5909,70.7489,372.0768,71.5766,371.518,72.482 M408.4314,51.0092c-0.5845,0.093-1.1799,0.1304-1.7534,0.2846
		c-1.0802,0.2864-2.1494,0.6452-3.2408,0.9706c-1.5035,0.469-3.0347,0.8765-4.5328,1.4011
		c-1.0749,0.3699-2.1222,0.8567-3.1584,1.3381c-0.6017,0.2821-1.1868,0.6255-1.7331,1.0136
		c-0.864,0.5986-1.6837,1.2529-2.5144,1.8906c-0.697,0.5434-1.4161,1.0756-2.0687,1.6637
		c-0.6637,0.6047-1.2775,1.2763-1.9135,1.9145c-0.212,0.2164-0.4296,0.4328-0.6583,0.6436c-0.5466,0.516-1.1322,0.9929-1.64,1.5535
		c-0.9041,0.9991-1.797,2.0205-2.64,3.0865c-0.977,1.227-1.9151,2.4819-2.8032,3.7705c-0.4636,0.6775-0.7328,1.4558-0.8018,2.2735
		c1.3741,0.0704,2.687,0.1407,4.0111,0.211c-0.1184-1.4803,0.0663-1.8748,0.797-2.574c0.1562-0.1498,0.318-0.3051,0.4575-0.4717
		c0.8374-1.0383,1.6637-2.1044,2.5178-3.1369c0.5303-0.6273,1.1049-1.2211,1.6519-1.8373c1.1887-1.3321,2.2775-2.7481,3.8767-3.6396
		c1.3095-0.731,2.5028-1.707,3.8235-2.4435c1.655-0.9303,3.3709-1.7436,5.0756-2.5569c0.741-0.3597,1.5538-0.5467,2.2782-0.9231
		c1.1032-0.5757,2.1364,0.0558,2.2333,1.2857c0.0701,0.8515-0.0492,1.7303-0.0125,2.5928c0.0634,1.241,0.1992,2.4877,0.3016,3.7343
		c0.0322,0.4285,0.0756,0.8515,0.1357,1.2801c0.0709,0.5344,0.2697,1.0801,0.2238,1.6086
		c-0.0802,0.8622-0.1046,1.6856,0.2103,2.4988c0.0498,0.117-0.0063,0.2726,0.01,0.4173c0.1082,1.1743,0.2274,2.3542,0.3466,3.534
		c0.0324,0.3562,0.2549,0.4124,0.5332,0.3742c0.5287-0.0653,1.0686-0.1251,1.5584-0.1795c0.0841-0.239,0.1626-0.4502,0.241-0.6559
		c0.2297-0.5836,0.5484-1.1558,0.6724-1.762c0.2201-1.1623-0.1441-2.3039-0.2523-3.4559c-0.065-0.6622-0.1021-1.3356-0.106-1.9866
		c-0.0192-1.1296,0.0005-2.2478-0.0355-3.3719c-0.0046-0.3617-0.1372-0.7125-0.1863-1.0688
		c-0.0656-0.4397-0.1089-0.8905-0.1466-1.3413c-0.0377-0.4897-0.0919-0.9795-0.0795-1.4747
		c0.0136-0.9402,0.1052-1.8803,0.0854-2.8151C409.1538,53.4315,409.0123,52.2181,408.4314,51.0092 M405.9078,12.6554
		c0.0302,1.1852,0.0439,2.3203,0.0798,3.4555c0.0414,1.1685,0.1106,2.3316,0.1353,3.4945c0.0157,0.3896-0.0744,0.7676-0.0643,1.1572
		c0.0302,1.1685,0.1217,2.3483,0.1186,3.5223c-0.0022,0.8012,0.1238,1.5471,0.4112,2.2824
		c0.1822,0.5123,0.4534,1.0695,0.4242,1.5813c-0.0463,0.662-0.343,1.3345-0.884,1.8059c-0.145,0.1276-0.3846,0.2661-0.5626,0.2211
		c-1.101-0.2367-2.2076-0.4844-3.2917-0.8156c-0.5059-0.1571-0.9389-0.52-1.4336-0.6993c-0.8227-0.3027-1.6567-0.5219-2.485-0.8079
		c-0.3224-0.1122-0.6056-0.3467-0.9448-0.4199c-0.6394-0.1519-1.1841-0.3926-1.7281-0.8281
		c-0.7051-0.5527-1.5721-0.9334-2.417-1.2472c-0.8783-0.3195-1.6057-0.8389-2.3332-1.3972
		c-0.5442-0.4132-1.0828-0.8153-1.627-1.2173c-0.4942-0.3741-1.033-0.7094-1.4937-1.1224c-0.5772-0.5301-1.0484-1.1824-1.6536-1.668
		c-0.6773-0.5471-1.1149-1.2827-1.586-1.9739c-0.3547-0.5184-0.6537-1.07-0.9638-1.6217c-0.5814-1.042-1.1461-2.1007-1.7219-3.1594
		c-0.1717-0.3064-0.2765-0.6629-0.7271-0.6585c-1.4523,0.024-2.8989,0.0312-4.3456,0.0496c-0.1892,0.005-0.373,0.0769-0.5623,0.1209
		c0.0662,0.1949,0.099,0.4064,0.1932,0.5791c0.3323,0.574,0.6869,1.1425,1.0581,1.6943c0.2605,0.3791,0.56,0.736,0.8595,1.0984
		c0.1942,0.2286,0.4217,0.4351,0.6158,0.6749c0.5158,0.6078,0.9367,1.3434,1.5419,1.8235c1.0994,0.871,2.037,1.8861,2.9243,2.979
		c0.0721,0.1004,0.1497,0.1952,0.2441,0.2733c0.716,0.6418,1.432,1.317,2.1759,1.9254c0.7551,0.6029,1.5381,1.167,2.3434,1.6977
		c1.8384,1.2401,3.6712,2.4747,5.6773,3.4092c0.928,0.4421,1.8336,0.9675,2.7784,1.3539c1.4228,0.5825,2.8736,1.1038,4.3134,1.6139
		c0.7282,0.2579,1.49,0.4436,2.2238,0.6681c1.9514,0.6061,3.9591,0.9342,5.9897,1.0398c0.662,0.0351,0.8353-0.2481,0.709-0.9162
		c-0.1426-0.7626-0.2518-1.5307-0.3889-2.2933c-0.1207-0.6458-0.3248-1.2806-0.3787-1.9373
		c-0.1181-1.6027-0.1917-3.2165-0.243-4.8302c-0.0313-0.7735-0.0181-1.558,0.0452-2.3312c0.0981-1.2962,0.2406-2.5922,0.3777-3.8938
		c0.0858-0.8733,0.2273-1.7521,0.2797-2.6311c0.035-0.5952,0.0088-1.2017-0.0787-1.7862c-0.0274-0.167-0.3885-0.385-0.5943-0.3855
		c-0.8235-0.0077-1.6472,0.0679-2.454,0.1047C406.2751,12.6508,406.0914,12.6559,405.9078,12.6554 M384.0474,12.4634
		c-0.0225,0.0778-0.0449,0.1389-0.0729,0.2168c0.4856,1.4869,1.4617,2.6691,2.3543,3.89c0.5987,0.825,1.4092,1.495,2.0749,2.2646
		c0.9817,1.1432,2.226,1.9088,3.4257,2.7132c1.183,0.8044,2.4665,1.4588,3.7277,2.1354c1.0334,0.5591,2.0836,1.0961,3.1449,1.6053
		c0.5668,0.263,1.2009,0.3648,1.7509,0.6501c0.9834,0.5034,2.0121,0.7732,3.097,0.8095c0.3282,0.0064,0.6403-0.1486,0.6581-0.5824
		c0.0181-0.5341,0.0418-1.0738,0.0322-1.6135c-0.0086-0.9348-0.0507-1.864-0.0537-2.8044
		c-0.0078-1.2241,0.0121-2.4481,0.0098-3.6666c0.0008-0.3061-0.1208-0.6124-0.1255-0.9296
		c-0.0243-1.302-0.0264-2.6039-0.0229-3.9115c0.0011-0.4006-0.1934-0.5125-0.5383-0.5189
		c-0.3616-0.0177-0.7289-0.0242-1.0959-0.0586c-0.6008-0.0405-0.9407,0.131-1.0533,0.6482
		c-0.0899,0.3503-0.0854,0.7231-0.0864,1.0848c-0.002,0.7289,0.0128,1.4522,0.0443,2.1756c0.0205,0.6622,0.052,1.341,0.1226,2.0034
		c0.0652,0.6067,0.6704,1.0422,0.5017,1.7429c-0.1013,0.417-0.1025,0.851-0.1592,1.2793c-0.0169,0.089-0.0728,0.1946-0.1453,0.25
		c-0.5631,0.4492-1.1807,0.442-1.7918,0.0787c-1.1499-0.6875-2.3055-1.336-3.4722-1.9789c-0.3278-0.1901-0.745-0.2301-1.0504-0.4535
		c-1.0995-0.793-2.1824-1.6027-3.2261-2.4568c-0.7495-0.614-1.4599-1.278-2.1368-1.9642c-0.3496-0.3515-0.6211-0.8029-0.8925-1.2321
		c-0.1385-0.2063-0.2492-0.4513-0.3153-0.6963c-0.0826-0.3284-0.2603-0.4513-0.5663-0.4689
		C386.8068,12.6043,385.4216,12.5283,384.0474,12.4634 M404.5453,72.6872c0.0625-0.4727,0.1917-0.9231,0.1483-1.3516
		c-0.1024-1.2355-0.2604-2.4711-0.4018-3.7067c-0.0327-0.2894,0.0128-0.6176-0.1034-0.8738
		c-0.2654-0.6072-0.2359-1.2414-0.2008-1.87c0.0647-1.2907,0.1126-2.5703-0.1678-3.8452c-0.154-0.6513-0.2635-1.3138-0.3842-1.9706
		c-0.0713-0.3841-0.2767-0.5683-0.6443-0.4357c-0.5736,0.1932-1.1472,0.392-1.7043,0.6297
		c-0.8913,0.3982-1.7992,0.7685-2.6573,1.2503c-1.3095,0.7254-2.5913,1.512-3.8565,2.3154
		c-0.7524,0.4654-1.5159,0.9363-2.174,1.5242c-0.7752,0.6823-1.3951,1.5487-2.1593,2.2477
		c-1.4781,1.3425-2.6842,2.9361-3.9458,4.4851c-0.3015,0.372-0.4087,0.9392-0.5602,1.4284
		c-0.101,0.3224,0.0375,0.5398,0.4159,0.5242c1.0294-0.0195,2.0532-0.0335,3.0825-0.0251c0.3116,0.0063,0.4953-0.0376,0.5798-0.4102
		c0.0563-0.2558,0.235-0.5001,0.4081-0.7111c0.6364-0.7773,1.2839-1.5656,1.9425-2.3205c0.8986-1.0324,1.7861-2.0928,2.7401-3.0584
		c0.7029-0.6992,1.4615-1.3982,2.2974-1.8856c0.8526-0.4929,1.5775-1.0752,2.2415-1.7968c0.1619-0.1943,0.5016-0.3158,0.752-0.3096
		c1.1071,0.0419,1.9147,1.7912,1.3557,2.7967c-0.1342,0.2445-0.213,0.5892-0.1859,0.873c0.1357,1.3024,0.2823,2.6158,0.4792,3.9184
		c0.0927,0.6845,0.269,1.3583,0.4286,2.032c0.0881,0.3564,0.3212,0.5517,0.6996,0.5472
		C403.4827,72.6678,403.9834,72.6857,404.5453,72.6872 M399.5597,18.7699c-0.031-0.8903-0.0402-1.6415-0.0771-2.3983
		c-0.0312-0.8346-0.1402-1.6695-0.1268-2.5152c0.0247-0.9291-0.0583-1.0907-0.9875-1.0987c-1.697-0.0269-3.394-0.0369-5.102-0.0582
		c-0.5508-0.007-1.1126-0.0642-1.669-0.0768c-0.1169-0.0003-0.2395,0.0939-0.3565,0.1437c0.0387,0.1114,0.055,0.2616,0.1326,0.3509
		c0.5991,0.6749,1.1926,1.3663,1.8252,2.0134c0.4661,0.4742,0.9432,1.0041,1.521,1.3283c1.2167,0.6988,2.4837,1.2863,3.7451,1.9074
		C398.7647,18.5174,399.0927,18.6074,399.5597,18.7699 M392.3538,73.0107c0.2337-0.0105,0.3172-0.0103,0.3951-0.0156
		c2.1757-0.0721,4.3459-0.1609,6.5271-0.2218c0.9404-0.0253,1.08-0.203,0.9268-1.166c-0.2462-1.5418-0.4702-3.0892-0.6942-4.6311
		c-0.0762-0.6234-0.2318-0.7184-0.7224-0.3524c-0.078,0.0609-0.1783,0.0885-0.2675,0.1495c-0.853,0.632-1.7781,1.1915-2.5535,1.9295
		c-0.8981,0.86-1.6686,1.865-2.4835,2.8198C393.1188,71.9612,392.7837,72.4332,392.3538,73.0107"/>
</g>
</svg>
