<?xml version="1.0" encoding="utf-8"?>
<!-- Generator: Adobe Illustrator 19.0.0, SVG Export Plug-In . SVG Version: 6.00 Build 0)  -->
<svg version="1.1" id="subrayado-blanco-footer" xmlns="http://www.w3.org/2000/svg" xmlns:xlink="http://www.w3.org/1999/xlink"
	 x="0px" y="0px" viewBox="0 0 138.9362 5.7317" enable-background="new 0 0 138.9362 5.7317" xml:space="preserve">
<path id="XMLID_2158_" fill="#FFFFFF" d="M0,4.5944c2.2034,0.1334,4.2931,0.2751,7.4994,0.0418
	C7.4535,4.1499,8.79,4.5091,9.0052,3.9985c-3.3109,0.0453,12.4741-0.2201,9.8469-0.4533l-0.8022,0.2192l0.8481-0.5035
	C20.4752,3.4,22.6215,3.819,23.7141,3.5338c0.2872,0.1615-13.5096-0.059-12.9956,0.0867
	C9.5293,3.0272,29.2274,3.1733,29.7478,2.9124l0.2034,0.3112c2.466-0.3138,4.0598-0.7513,6.1271-0.955l0.4468,0.3759
	c-1.5031-0.1316-1.9264,0.1202-3.4753,0.2724c2.6731-0.0533,3.146,0.18,5.1861,0.118c-0.048-0.485-1.7363-0.2478,0.8423-0.503
	c0.7291,0.2082-1.0035,0.7292,1.2949,0.6421c2.7686,0.147,2.2482-0.573,4.6672-0.6021l-1.62-0.1901
	c0.8919-0.0181,2.5583-0.1135,3.4038,0.1527c-1.0088-0.0396-3.5901,0.2165-3.5399,0.702c1.0302-0.1025,3.2848,0.0937,4.1778,0.0757
	l-0.561,0.3354c0.9629,0.3248,1.5474-0.1532,2.7697,0.1457c1.1732-0.1862-0.6837-0.4925-0.0272-0.628
	c0.2354,0.1166,2.4884,0.3134,3.2843,0.0942c-0.5194-0.7187-2.6955,0.1976-4.1073-0.5026l2.1361,0.1382
	c1.3782-0.698-3.4268-0.0101-2.704-0.5721c1.6408-0.7231,3.3168,0.7218,4.8541-0.2024c-0.9837-0.1818-4.1516-0.2174-3.7332-0.47
	c1.106,0.2707,1.9306-0.2266,3.4775-0.309l1.8511,0.3411c0.7985-0.2192,0.1628-0.2262-0.4484-0.3758
	c2.7243,0.4291,7.3654-0.0335,11.2181,0.4934c2.2984-0.0889,0.3016-0.3107,1.3552-0.5554c1.202,0.4405,3.2832,0.0929,4.5493,0.1052
	c0.3763,0.0326,1.0766-0.3877,0.7216-0.5625l-3.209,0.2513c0.1633-0.2262-0.2893-0.6016-1.4348-0.5581
	c0.7569,0.8362-4.4858-0.5334-4.758,0.4053l0.0646-0.4273l-4.1025,0.2693l0.119,0.0581c0.0219-0.1422-3.4711,0.2773-5.723,0.0797
	c0.656-0.1351,4.4313,0.0497,2.2253-0.4313c1.6867-0.2381,4.6683,0.165,7.7359-0.0013l-0.585-0.2922
	c3.232-0.3917,7.4594,0.1677,11.0217,0.0898L72.3786,0.619c1.2458,0.1554,2.8434,0.4859,4.0353,0.1562
	c-1.5234,0.0123-0.7307-0.2077-0.4505-0.3759c2.0625-0.2064,5.0681,0.0537,7.8811-0.0889c0,0-0.1398,0.0841-0.0224,0.143
	l2.9501-0.228c1.3878,0.0709,1.8575,0.3041,2.7051,0.5695c0.5162-0.0524,1.7865-0.0396,1.3109-0.2724
	c-0.2728-0.0238-0.5461-0.0462-0.727-0.0246c1.502-0.4243,1.0355,0.1312,2.9063-0.1246c-1.4502,0.3561,0.4297,0.5184,0.2466,0.8873
	c2.1826-0.1501,0.2247-0.654,0.5028-0.8226c2.6347,0.2253,2.9635,0.5431,5.6163,0.6254c0.1607-0.2267-1.8778-0.1611-2.0934-0.419
	c0.7526,0.0638,1.6408,0.0444,1.7807-0.0401l-1.6216-0.1866c2.7494,0.2825,5.4022,0.3653,8.4719,0.195l-0.237-0.1166l1.8997,0.0189
	l-0.696,0.4207c1.0275-0.1043,2.1164,0.2768,2.6747-0.0594l-0.3763-0.033l1.2874-0.1294l-1.3328,0.4141
	c1.6258,0.1879,3.9056-0.6764,6.5562-0.5946c0.5551,0.5752-4.5883,0.1853-4.9512,0.9238c0.8727,0.1219,2.3736,0.2504,2.9122,0.0555
	c-0.1003-0.2011-0.7328-0.2068-1.3686-0.2126c2.3374-0.3772,5.7999,0.2531,7.288-0.3891l-1.7406-0.2438
	c2.0363-0.0669,3.3222,0.7147,4.0171,0.2936l-1.6242,0.7262c2.0779-0.3512,4.7297-0.2698,6.6705-0.5387
	c0.0608-0.426-2.7905,0.004-2.6534-0.0805l0.9309-0.3054c3.0072,0.2544,0.853,0.2641,4.4943,0.5242l0.0406-0.2852
	c1.2079,0.4383,4.4906-0.3877,3.2437,0.371l-0.9864-0.1791l0.0763,0.3424l4.22-0.2201c-0.4169,0.2535,1.621,0.1857,1.0681,0.5228
	l1.5623-0.3006c0.696,0.4903-2.87,0.5743-3.0451,0.9436c0.0496,0.224,0.7825,0.1985,1.1422,0.1681
	c-1.8826,0.3547-2.7841-0.4964-4.6459-0.5123l-0.9346,0.305l0.0614-0.4269c-0.7729,0.0783-1.4444,0.3578-1.7214,0.5264
	c-1.8233-0.5862-3.8207,0.11-6.5947-0.029c2.3139-0.2359-1.4647-0.4133-1.0681-0.5233c-1.2661-0.0114-4.4196,0.7292-5.4855,0.2055
	c-0.7329-0.206,1.5629-0.2988-0.1986-0.4005c-1.1487,0.0467-1.9435,0.2676-1.2084,0.4736
	c-2.5562,0.1193-5.5859,0.0066-8.3759,0.0075l0.6747-0.279c-1.7406-0.2447-3.4476,0.1382-4.3785,0.4432
	c-0.237-0.1162-0.3763-0.0326-0.0998-0.1998c-2.2125-0.4784-2.8743,0.5699-6.5349,0.4493c0.1938,0.4014,1.8372,0.4458,3.004,0.257
	l-0.3181,0.4533c3.1695,0.0299,6.735-0.0497,9.3105-0.3098l-1.1908,0.3305c2.1981,0.6201,1.6098-0.5827,3.667,0.1206
	c1.5474-0.1567-1.1087-0.2381,0.0603-0.4269c1.0873,0.1342-0.3037,0.7856,1.5223,0.8208
	c-6.8642,0.2033-14.6711,0.1377-21.8534,0.1796C90.4951,4.1983,90.873,4.23,91.2467,4.2626
	c-2.5028,0.6047-22.4155-1.1377-23.1083,0.0519c-0.3518-0.1756,0.8188-0.3626-0.7062-0.3503
	c-0.142,0.0841-0.5375,0.1941-0.1857,0.3684c-3.8324-0.669-9.0148-0.0114-13.6409-0.4621c0.0945,0.2002-0.9373,0.3032-0.9608,0.4454
	c-1.5735-0.4744-4.3171,0.0079-5.7988-0.2649l0.4724,0.2337l-4.6977-0.0251c-0.1425,0.0841,0.4943,0.0907,0.8695,0.1237
	c-1.0307,0.103-1.2458-0.1567-1.3371-0.3565l-2.1137,0.4876c-6.0807-0.8692-13.7797,0.3816-20.7998-0.1906
	c-1.0798,0.3864-1.9957,0.5471-3.7823,0.5818l0.869,0.1254c-1.833,0.32-0.0945-0.2007-1.6451-0.0488
	c-1.0595,0.2443-0.3517,0.595,1.0814,0.3838c0.8807,0.14,0.3251,0.2737-0.316,0.3657C9.7914,5.6533,4.5386,5.3497,0,4.5944"/>
</svg>
