<?xml version="1.0" encoding="utf-8"?>
<!-- Generator: Adobe Illustrator 19.0.0, SVG Export Plug-In . SVG Version: 6.00 Build 0)  -->
<svg version="1.1" id="subrayado_x5F_rosa" xmlns="http://www.w3.org/2000/svg" xmlns:xlink="http://www.w3.org/1999/xlink" x="0px"
	 y="0px" viewBox="-239 388 131.76 18" enable-background="new -239 388 131.76 18" xml:space="preserve">
<metadata><?xpacket begin="﻿" id="W5M0MpCehiHzreSzNTczkc9d"?>
<x:xmpmeta xmlns:x="adobe:ns:meta/" x:xmptk="Adobe XMP Core 5.6-c067 79.157747, 2015/03/30-23:40:42        ">
   <rdf:RDF xmlns:rdf="http://www.w3.org/1999/02/22-rdf-syntax-ns#">
      <rdf:Description rdf:about=""/>
   </rdf:RDF>
</x:xmpmeta>
                                                                                                    
                                                                                                    
                                                                                                    
                                                                                                    
                                                                                                    
                                                                                                    
                                                                                                    
                                                                                                    
                                                                                                    
                                                                                                    
                                                                                                    
                                                                                                    
                                                                                                    
                                                                                                    
                                                                                                    
                                                                                                    
                                                                                                    
                                                                                                    
                                                                                                    
                                                                                                    
                           
<?xpacket end="w"?></metadata>
<g id="XMLID_602_">
	<g>
		<path fill="#E11383" d="M-233,398.7997c1.8979,0.1393,3.6979,0.2874,6.4597,0.0437c-0.0395-0.508,1.1117-0.1329,1.297-0.6662
			c-2.8519,0.0474,10.7446-0.2299,8.4817-0.4736l-0.691,0.229l0.7306-0.526c1.3586,0.1453,3.2073,0.583,4.1484,0.2851
			c0.2473,0.1687-11.6367-0.0617-11.1939,0.0905c-1.0244-0.6198,15.9427-0.4671,16.391-0.7398l0.1752,0.3251
			c2.1241-0.3278,3.497-0.7848,5.2776-0.9977l0.3848,0.3926c-1.2947-0.1374-1.6593,0.1256-2.9936,0.2846
			c2.3025-0.0556,2.7098,0.188,4.467,0.1232c-0.0414-0.5067-1.4956-0.2589,0.7255-0.5255c0.628,0.2175-0.8643,0.7618,1.1154,0.6708
			c2.3848,0.1536,1.9365-0.5986,4.0201-0.6289l-1.3953-0.1986c0.7683-0.0189,2.2036-0.1186,2.9319,0.1595
			c-0.869-0.0414-3.0924,0.2262-3.0491,0.7333c0.8873-0.1071,2.8294,0.0979,3.5986,0.0791l-0.4832,0.3503
			c0.8294,0.3393,1.3329-0.16,2.3857,0.1522c1.0106-0.1945-0.5889-0.5145-0.0234-0.6561c0.2028,0.1218,2.1434,0.3274,2.8289,0.0984
			c-0.4474-0.7508-2.3218,0.2064-3.5379-0.525l1.84,0.1444c1.1871-0.7292-2.9517-0.0106-2.3291-0.5977
			c1.4133-0.7554,2.857,0.754,4.1811-0.2115c-0.8473-0.1899-3.576-0.2271-3.2156-0.491c0.9526,0.2828,1.6629-0.2368,2.9953-0.3228
			l1.5945,0.3563c0.6878-0.229,0.1402-0.2363-0.3862-0.3926c2.3466,0.4483,6.3443-0.035,9.6628,0.5154
			c1.9797-0.0929,0.2598-0.3246,1.1673-0.5802c1.0354,0.4602,2.828,0.097,3.9186,0.1099c0.3241,0.034,0.9273-0.4051,0.6216-0.5876
			l-2.7641,0.2625c0.1407-0.2363-0.2492-0.6285-1.2358-0.583c0.6519,0.8735-3.8638-0.5572-4.0983,0.4234l0.0556-0.4464
			l-3.5337,0.2814l0.1025,0.0607c0.0189-0.1485-2.9898,0.2897-4.9296,0.0832c0.5651-0.1412,3.8169,0.052,1.9167-0.4506
			c1.4529-0.2487,4.0211,0.1724,6.6633-0.0014l-0.5039-0.3053c2.7839-0.4092,6.4252,0.1752,9.4936,0.0938l-0.9246,0.406
			c1.0731,0.1623,2.4492,0.5076,3.4758,0.1632c-1.3121,0.0129-0.6294-0.217-0.388-0.3926c1.7765-0.2156,4.3654,0.0561,6.7884-0.0929
			c0,0-0.1205,0.0878-0.0193,0.1494l2.5411-0.2382c1.1954,0.074,1.6,0.3177,2.3301,0.5949
			c0.4446-0.0547,1.5388-0.0414,1.1292-0.2846c-0.2349-0.0248-0.4703-0.0483-0.6262-0.0257
			c1.2938-0.4432,0.8919,0.137,2.5034-0.1301c-1.2492,0.372,0.3701,0.5416,0.2124,0.9269c1.88-0.1568,0.1936-0.6832,0.4331-0.8593
			c2.2694,0.2354,2.5526,0.5673,4.8376,0.6533c0.1384-0.2368-1.6174-0.1683-1.8032-0.4377
			c0.6483,0.0667,1.4133,0.0464,1.5338-0.0418l-1.3969-0.1949c2.3682,0.2952,4.6533,0.3816,7.2973,0.2037l-0.2041-0.1218
			l1.6363,0.0198l-0.5995,0.4395c0.885-0.109,1.823,0.2892,2.3039-0.0621l-0.3241-0.0345l1.1089-0.1352l-1.148,0.4326
			c1.4004,0.1963,3.3641-0.7067,5.6472-0.6211c0.4782,0.6009-3.9521,0.1936-4.2647,0.965c0.7517,0.1274,2.0446,0.2616,2.5085,0.0579
			c-0.0864-0.2101-0.6312-0.2161-1.1788-0.2221c2.0133-0.394,4.9958,0.2644,6.2776-0.4064l-1.4993-0.2547
			c1.754-0.0699,2.8616,0.7467,3.4602,0.3067l-1.3991,0.7586c1.7899-0.3669,4.0739-0.2818,5.7456-0.5627
			c0.0524-0.4451-2.4036,0.0041-2.2855-0.0841l0.8018-0.3191c2.5903,0.2657,0.7347,0.2759,3.8712,0.5476l0.0349-0.2979
			c1.0404,0.4579,3.868-0.405,2.794,0.3876l-0.8496-0.1871l0.0658,0.3577l3.6349-0.2299c-0.3591,0.2648,1.3963,0.194,0.92,0.5462
			l1.3457-0.314c0.5995,0.5122-2.4721,0.6-2.6229,0.9857c0.0428,0.234,0.674,0.2074,0.9839,0.1756
			c-1.6216,0.3706-2.3981-0.5186-4.0018-0.5352l-0.805,0.3186l0.0529-0.446c-0.6657,0.0818-1.2441,0.3738-1.4827,0.5499
			c-1.5705-0.6124-3.291,0.1149-5.6803-0.0303c1.9931-0.2464-1.2616-0.4317-0.92-0.5467c-1.0906-0.012-3.8068,0.7618-4.725,0.2147
			c-0.6312-0.2152,1.3462-0.3122-0.171-0.4184c-0.9894,0.0487-1.674,0.2795-1.0409,0.4947
			c-2.2018,0.1246-4.8114,0.0069-7.2146,0.0078l0.5811-0.2915c-1.4995-0.2555-2.9698,0.1444-3.7716,0.4631
			c-0.2041-0.1214-0.3241-0.034-0.086-0.2087c-1.9057-0.4998-2.4758,0.5954-5.6289,0.4694
			c0.1669,0.4193,1.5825,0.4657,2.5875,0.2685l-0.274,0.4736c2.7301,0.0313,5.8013-0.052,8.0196-0.3237l-1.0257,0.3452
			c1.8933,0.6478,1.3867-0.6087,3.1586,0.126c1.3328-0.1637-0.9549-0.2487,0.0519-0.446c0.9365,0.1402-0.2616,0.8207,1.3112,0.8575
			c-5.9125,0.2124-12.637,0.1439-18.8236,0.1876c-0.1205,0.0878,0.2051,0.1209,0.5269,0.1549
			c-2.1558,0.6317-19.3077-1.1885-19.9045,0.0543c-0.303-0.1835,0.7053-0.3788-0.6083-0.366
			c-0.1223,0.0878-0.463,0.2027-0.16,0.3848c-3.3011-0.6988-7.7649-0.012-11.7497-0.4827c0.0814,0.2092-0.8073,0.3168-0.8276,0.4653
			c-1.3554-0.4956-3.7186,0.0083-4.9949-0.2768l0.4069,0.2441l-4.0464-0.0262c-0.1228,0.0878,0.4257,0.0947,0.749,0.1292
			c-0.8878,0.1076-1.0731-0.1637-1.1517-0.3724l-1.8207,0.5094c-5.2376-0.908-11.8692,0.3986-17.916-0.1991
			c-0.9301,0.4037-1.719,0.5715-3.2579,0.6078l0.7485,0.131c-1.5788,0.3343-0.0814-0.2096-1.417-0.051
			c-0.9126,0.2552-0.303,0.6216,0.9315,0.4009c0.7586,0.1462,0.28,0.286-0.2722,0.3821
			C-224.5661,399.9058-229.0906,399.5886-233,398.7997"/>
	</g>
</g>
</svg>
