<?xml version="1.0" encoding="utf-8"?>
<!-- Generator: Adobe Illustrator 19.0.0, SVG Export Plug-In . SVG Version: 6.00 Build 0)  -->
<svg version="1.1" id="tortuga" xmlns="http://www.w3.org/2000/svg" xmlns:xlink="http://www.w3.org/1999/xlink" x="0px" y="0px"
	 viewBox="0 0 200.908 175.5129" enable-background="new 0 0 200.908 175.5129" xml:space="preserve">
<g id="XMLID_51_">
	<g id="XMLID_64_">
		<path id="XMLID_3485_" d="M100.454,87.7565"/>
		<path id="XMLID_3483_" d="M100.454,87.7565"/>
		<g id="XMLID_70_">
			<g id="XMLID_2690_">
				<path id="XMLID_2850_" d="M196.3372,111.1696c0.5417,0.18,0.5417,0.18,0.6397-0.319
					C196.7484,110.9569,196.5842,111.049,196.3372,111.1696 M97.4458,3.7295c-0.5534,0.3885-0.9411,0.7351-1.2216,1.1689
					C95.9044,5.3789,97.2851,4.8063,97.4458,3.7295C96.8924,4.118,97.3336,4.4554,97.4458,3.7295 M103.3813,3.794
					c-0.0603,0.0419-0.1147,0.0929-0.1725,0.1348c0.077,0.9838,0.4856,1.4318,1.2283,1.3346c0-0.1524,0.0586-0.3558-0.0209-0.4429
					C104.0964,4.4554,103.7271,4.1314,103.3813,3.794C103.321,3.8358,103.7271,4.1314,103.3813,3.794 M119.8046,7.2645
					c-0.0276,0.0461-0.0469,0.0921-0.0695,0.1474c0.705,0.7762,2.125,1.5113,2.8216,1.3681c-0.108-0.18-0.1591-0.4111-0.2947-0.4764
					C121.4516,7.9343,120.6226,7.6061,119.8046,7.2645C119.777,7.3106,120.6226,7.6061,119.8046,7.2645 M78.1004,8.7566
					c0.0561,0.0553,0.1097,0.1114,0.1683,0.1708c1.1094-0.1566,1.8496-0.9888,2.7421-1.5523
					c-0.9713,0.1248-1.8144,0.5869-2.6768,0.9754C78.2151,8.4057,78.1749,8.6134,78.1004,8.7566
					C78.1565,8.8118,78.1749,8.6134,78.1004,8.7566 M109.681,2.5464c0.6104,0.6238,1.6235,0.9244,2.434,1.2249
					c0.5936,0.2311,0.9579,0.0695,1.3715-0.5124C112.2883,2.8286,111.0709,2.7315,109.681,2.5464
					C109.8728,2.7356,111.0709,2.7315,109.681,2.5464 M87.1355,3.3552c0.4111,0.5266,0.8875,0.6472,1.4343,0.4295
					c0.7636-0.2956,1.7097-0.5585,2.2774-1.1638C89.8123,2.6025,87.7007,3.0136,87.1355,3.3552
					C87.5466,3.8819,87.7007,3.0136,87.1355,3.3552 M134.2821,75.5868c0.5568,1.086,2.2732,1.95,2.9765,0.5367
					C136.3049,75.7115,135.2893,75.6797,134.2821,75.5868C134.5718,76.1461,135.2893,75.6797,134.2821,75.5868 M66.5124,75.6797
					c-0.0327-0.0695-0.0703-0.139-0.108-0.2127c-0.8808,0.1616-1.77,0.314-2.6483,0.4898
					c-0.3014,0.0645-0.3718,0.3282-0.1917,0.5777C64.3774,77.6615,65.8887,76.1461,66.5124,75.6797
					C66.4798,75.6102,66.1825,75.9242,66.5124,75.6797 M98.0227,2.2324c-1.4711,0.2587-3.2394,1.6218-4.003,2.8367
					c0.7192,0.278,1.235,0.2177,1.6838-0.3458C96.4109,3.8501,97.2641,3.0546,98.0227,2.2324
					C97.1938,2.3756,97.6652,2.6117,98.0227,2.2324 M106.6375,5.0692c-0.1398-0.2395-0.201-0.4521-0.3408-0.5543
					c-1.0399-0.7946-2.2983-2.13-3.6648-2.2548c0.7377,0.8364,1.5741,1.5716,2.2866,2.4357
					C105.3808,5.2592,105.8714,5.3471,106.6375,5.0692C106.4977,4.8297,105.8714,5.3471,106.6375,5.0692 M190.2284,105.3848
					c0.7829,0.1105,3.8942-0.777,4.3656-1.2342C192.4707,103.6424,191.3102,103.8827,190.2284,105.3848 M109.0388,4.5291
					c-0.5769-0.7628-3.1063-1.9827-4.0106-1.9082C106.0045,3.526,107.6397,5.7122,109.0388,4.5291
					C108.4619,3.7663,108.3238,5.1294,109.0388,4.5291 M95.5218,2.6996c-0.026-0.0511-0.0469-0.1114-0.0754-0.1624
					c-1.2727,0.3282-2.4172,1.0123-3.5668,1.6453c-0.808,0.4387,0.6054,1.1412,1.3991,0.4756
					C94.0004,4.0393,94.9089,3.4289,95.5218,2.6996C95.4958,2.6486,95.4556,2.7733,95.5218,2.6996 M6.095,104.2151
					c0.5702,0.4119,3.6372,1.2944,4.3003,1.2383C9.7179,103.9338,7.7821,103.5545,6.095,104.2151 M95.5218,6.9179
					c-1.024,0.36-3.6773,4.0056-3.1306,4.8512C93.5851,11.0298,95.6147,7.9251,95.5218,6.9179
					C94.872,7.149,95.6147,7.9251,95.5218,6.9179 M108.338,11.7833c-0.0092-0.1993,0.0352-0.3835-0.0377-0.504
					c-0.355-0.5677-2.3896-4.703-3.1792-4.2735C105.0517,7.9712,107.1633,11.1453,108.338,11.7833
					C108.3288,11.5841,107.1633,11.1453,108.338,11.7833 M95.227,11.6535c0.432-0.6238,3.046-3.9361,2.1066-4.6938
					c-0.2311-0.1942-0.4622,0.0092-0.6372,0.1984C95.8391,8.1051,94.8302,10.3742,95.227,11.6535
					C95.5025,11.2609,94.9557,10.7803,95.227,11.6535 M105.3322,11.5062c0.072-0.0234,0.1398-0.0469,0.2194-0.0837
					c-0.0469-0.5961-1.1236-5.2163-2.2498-4.4585C102.3724,7.5927,104.9722,10.9837,105.3322,11.5062
					C105.4042,11.4827,105.112,11.1738,105.3322,11.5062 M93.73,6.6592c-1.8571-0.5827-3.3198,2.6014-3.9788,3.9411
					c-0.0695,0.134-0.0695,0.3006-0.1097,0.4848C90.7417,10.8079,93.3791,7.9569,93.73,6.6592
					C93.1899,6.4976,93.3791,7.9569,93.73,6.6592 M111.0852,11.1361c-0.5585-1.5615-1.6495-2.8367-2.6533-4.1353
					c-0.4513-0.5819-0.7268-0.6422-1.4652-0.2679C107.1583,7.8096,109.9473,10.8456,111.0852,11.1361
					C111.0056,10.9142,109.9473,10.8456,111.0852,11.1361 M123.5866,47.0371c0.1306-0.1013,0.2194-0.1382,0.2478-0.1892
					c0.2872-0.6054,0.5811-1.2107,0.8524-1.8161c0.1214-0.3006-0.0234-0.4898-0.4111-0.5359
					c-0.916-0.1013-1.8504-0.1758-2.7722-0.2169c-0.1968,0.0042-0.3885,0.1474-0.5819,0.2311
					C121.4608,45.6514,122.5802,46.3304,123.5866,47.0371C123.7172,46.9358,123.1939,46.7692,123.5866,47.0371 M76.9349,47.0555
					c1.2308-0.5961,2.0413-1.5197,2.9899-2.5177c-1.2618-0.4806-2.5998-0.1114-3.9126,0.0134
					c-0.0184,0.1666-0.0888,0.3006-0.0494,0.4027C76.2735,45.6372,76.5941,46.3254,76.9349,47.0555
					C78.1657,46.4594,76.5941,46.3254,76.9349,47.0555 M108.2911,13.6086c0.7803,1.5431,2.2891,2.6935,3.504,3.9084
					c0.1214-0.273,0.1423-0.4898,0.0812-0.679c-0.3173-1.0165-0.6372-2.0329-0.983-3.0402
					C110.6205,12.9982,108.7726,13.5525,108.2911,13.6086C108.4779,13.9778,109.0573,13.5249,108.2911,13.6086 M92.3401,13.5944
					c-0.638-0.0695-2.3595-0.638-2.6492,0.4019c-0.2847,1.0441-0.6774,2.0656-0.9696,3.1046
					c-0.0327,0.1206,0.0377,0.2688,0.0611,0.3927c0.1122-0.0134,0.1725-0.0092,0.201-0.0318
					C90.1958,16.2285,91.5522,15.1375,92.3401,13.5944C91.543,13.5157,92.1157,14.0197,92.3401,13.5944 M81.9059,9.2606
					c1.8914-0.7946,4.6385-1.8948,6.1683-3.2671c0.8507-0.7577-1.2233-0.9193-1.6461-0.5861
					C85.636,6.0119,81.7183,8.1562,81.9059,9.2606C82.1135,9.1677,81.8447,8.8863,81.9059,9.2606 M118.7655,9.0756
					c-0.1197-1.1873-3.7301-3.0494-4.6201-3.7242c-0.4865-0.3692-1.0005-0.2914-1.4954-0.0553
					C111.7299,5.7582,118.0413,9.6441,118.7655,9.0756C118.7187,8.6368,118.5035,9.279,118.7655,9.0756 M42.5276,91.4633
					c0.0184,0.0594,0.0276,0.1289,0.0419,0.18c2.5411-0.1984,5.0153-0.8783,7.5523-1.086c0.1122-0.005,0.2587-0.0829,0.3031-0.18
					c0.0377-0.0787,0-0.2679-0.0695-0.314c-0.6146-0.4622-1.2643-0.8364-2.0882-0.6054
					C46.3071,89.9939,44.3822,90.6361,42.5276,91.4633C42.5461,91.5228,44.3822,90.6361,42.5276,91.4633 M150.1846,90.2199
					c0,0.0737,0.0075,0.1482,0.0075,0.2269c1.693,0.3927,6.4379,1.8479,7.9467,1.0943c-1.4694-1.0993-4.0014-1.626-5.7647-2.079
					C151.4698,89.2269,150.7807,89.6104,150.1846,90.2199C150.1846,90.2936,150.7807,89.6104,150.1846,90.2199 M100.2306,1.5902
					c-1.019,0.8406-1.1236,2.0329-1.3765,3.1699c-0.1959,0.8498,2.0187,0.499,2.182,0.5216
					c0.638,0.0971,0.8691-0.0594,0.7309-0.7016C101.5879,3.6558,101.3442,1.9134,100.2306,1.5902
					C99.2117,2.4309,100.8284,1.7661,100.2306,1.5902 M115.2146,10.4386c0.0586-0.0645,0.1147-0.1206,0.1683-0.1892
					c-0.5442-0.7628-3.5601-4.5054-4.5272-4.353c-0.53,0.0921-1.1044,0.0695-1.6109,0.5501
					C110.9236,8.1512,113.18,9.2003,115.2146,10.4386C115.2732,10.3742,114.7968,10.1799,115.2146,10.4386 M85.3044,10.3281
					c0.0419,0.046,0.0888,0.0829,0.1306,0.134c1.7617-1.1186,4.4384-2.084,5.758-3.715c0.2102-0.2495,0.1775-0.4806-0.1356-0.5869
					c-0.5166-0.3232-1.0207-0.3793-1.5138-0.1432C88.1285,7.2461,86.0638,8.5397,85.3044,10.3281
					C85.3463,10.3742,85.5472,9.7546,85.3044,10.3281 M122.1641,16.9209c0.0603-0.0695,0.1172-0.1248,0.1775-0.1942
					c-0.7753-1.0575-2.9338-4.8646-4.4711-4.7868c-0.803,0.0368-1.5347,0.319-2.2514,0.6422
					c0.0327,0.1021,0.0352,0.1624,0.0678,0.185C117.4594,14.1629,120.1646,15.7571,122.1641,16.9209
					C122.2244,16.8514,121.9397,16.7961,122.1641,16.9209 M85.0147,12.7303v-0.2445c-0.5819-0.1432-1.9668-0.8415-2.5604-0.4345
					c-1.3053,0.8967-3.8423,3.4002-4.0968,4.9626C80.7027,15.6876,82.4308,13.6915,85.0147,12.7303
					C85.0147,12.6474,84.7183,12.8316,85.0147,12.7303 M20.374,105.5188c-2.0061-1.6268-4.945-2.8694-7.3137-1.2065
					c2.0446,0.7812,4.0859,1.3129,6.2721,1.5389C19.6665,105.8838,20.0382,105.9667,20.374,105.5188
					C19.7695,105.029,20.0382,105.9667,20.374,105.5188 M180.2824,105.5322c0.4764,0.3701,0.4764,0.3793,1.0298,0.3282
					c2.0162-0.2127,3.9687-0.6472,5.861-1.3539c0.1172-0.0511,0.201-0.1758,0.3525-0.3006
					c-1.0324-0.2956-2.3143-0.8867-3.401-0.8591C183.5452,103.3653,180.7588,105.1118,180.2824,105.5322
					C180.7588,105.9022,180.8358,105.0382,180.2824,105.5322 M146.1648,92.9135c1.8127,0.6891,3.7653,0.952,5.6743,1.317
					c0.0795,0.0142,0.1775-0.0553,0.3215-0.1105c-0.7519-1.1186-2.7748-2.0103-3.0804-3.2855
					C147.9984,91.398,147.0548,91.9992,146.1648,92.9135C146.6111,93.0801,147.0548,91.9992,146.1648,92.9135 M48.5234,94.12
					c0.8532,0.2035,5.2774-0.8138,5.8702-1.3723c-0.8381-0.7351-1.7424-1.3447-2.7982-1.9224
					C51.2613,92.221,49.2033,92.8122,48.5234,94.12C49.3766,94.3235,48.9655,93.2651,48.5234,94.12 M85.5145,4.5986
					c-0.0611-0.1022-0.0795-0.2269-0.1499-0.273c-0.3358-0.2127-0.6908-0.4479-1.1144-0.3324
					c-2.7513,0.7343-5.2925,2.0003-7.8529,3.211c-1.0625,0.494,0.839,0.4898,1.2568,0.2956
					c2.4223-1.0952,5.2489-1.4602,7.6034-2.6199C85.3513,4.8297,85.4158,4.6999,85.5145,4.5986
					C85.4534,4.4964,85.4158,4.6999,85.5145,4.5986 M116.2755,3.9656c-0.2102,0-1.1747,0.1934-1.096,0.6053
					c0.1683,0.854,7.482,2.9104,8.5989,3.3173c0.2336-0.0653,0.4764-0.1155,0.7125-0.1809
					c-0.1147-0.1892-0.2361-0.3835-0.3508-0.5677C121.5663,5.9014,119.0293,4.7368,116.2755,3.9656
					C116.1725,3.9656,116.8616,4.1314,116.2755,3.9656 M147.9356,97.8903c0.201-0.3048,0.0142-0.4622-0.1289-0.633
					c-0.2704-0.3332-2.604-3.849-3.2746-3.3182c-0.7125,0.5643-1.5465,1.0307-1.7281,2.0338
					C143.2962,96.4719,144.5555,96.9425,147.9356,97.8903C148.1366,97.5855,144.5555,96.9425,147.9356,97.8903 M57.8507,96.1111
					c-0.103-1.1136-0.9151-1.5247-1.5506-2.0656c-0.3902-0.3366-0.6054-0.2587-0.9093,0.1809
					c-0.3852,0.5451-3.2696,3.1599-2.6207,3.6773C54.4807,97.3544,56.239,96.8922,57.8507,96.1111
					C57.7478,94.9975,56.239,96.8922,57.8507,96.1111 M132.5263,70.126c0.4789,0.8222,2.8258,4.3522,3.854,2.7949
					c0.5694-0.8683,1.2141-1.7323,1.5389-2.717C136.135,70.1026,134.4177,69.992,132.5263,70.126
					C132.713,70.44,134.4177,69.992,132.5263,70.126 M67.986,70.2734c-0.7803-0.319-4.2819-0.2771-5.2087,0.0461
					c0.3039,0.9428,1.5908,2.8694,2.1024,3.1423C65.9213,72.9208,67.6687,71.1425,67.986,70.2734
					C67.2057,69.9544,67.6687,71.1425,67.986,70.2734 M96.2803,13.5944c-1.1655,0-3.473-0.4295-3.4831,1.3765
					c-0.0042,0.4806-0.422,4.2283,0.7829,3.3918C94.5614,17.6836,96.5047,14.9616,96.2803,13.5944
					C95.9136,13.5944,96.3976,14.2918,96.2803,13.5944 M107.5652,18.7922c0.9905-3.6179,0.453-5.202-3.2126-5.202
					C104.1801,15.392,106.4131,17.6326,107.5652,18.7922C107.6724,18.4046,107.247,18.469,107.5652,18.7922 M59.2055,95.1499
					c2.5487-0.2905,5.0413-0.7527,7.6008-0.9704c1.1982-0.1055-0.4622-2.0832-1.2216-1.9358
					c-1.9132,0.3743-3.5107,0.8691-5.2506,1.7516C59.9113,94.2171,59.5002,94.5219,59.2055,95.1499
					C59.6492,95.0996,59.5002,94.5219,59.2055,95.1499 M133.2145,94.0647c2.6165,0.3182,5.5922,1.122,8.2179,0.9972
					c-0.1541-0.221-0.2219-0.3416-0.3199-0.4429c-1.4811-1.5573-4.0106-1.9174-5.9916-2.3754
					c-0.4279-0.0971-0.7217,0.1206-0.9486,0.4488C133.8031,93.1169,133.4816,93.5699,133.2145,94.0647
					C133.6826,94.1242,133.4155,93.7407,133.2145,94.0647 M63.8775,90.6637c0.0184-0.0737,0.0444-0.1524,0.0611-0.2261
					c-0.7644-0.7628-1.6729-1.2434-2.7287-1.4326c-1.8923-0.0234-6.5827,0.041-7.7624,1.9408
					C56.851,91.0514,60.4321,90.6637,63.8775,90.6637C63.8959,90.59,63.3843,90.6637,63.8775,90.6637 M136.7052,90.4418
					c0.0226,0.0461,0.0486,0.1105,0.077,0.1574c3.4756,0,6.8649,0.0276,10.3287,0.3785c-0.0092-0.4203-0.2964-0.4622-0.5091-0.5685
					C143.2267,88.7739,139.8232,88.506,136.7052,90.4418C136.7278,90.4879,137.6463,89.8507,136.7052,90.4418 M80.9078,11.5748
					c-0.0134-0.0779-0.0352-0.1524-0.0536-0.2219c-0.782-0.2679-2.7957-1.4962-3.5157-0.4337
					c-0.9411,1.3765-1.9333,2.7212-2.8451,4.1211c-0.1139,0.1758-0.3709,0.3743-0.072,0.7259
					C76.5422,14.3982,78.9997,13.2201,80.9078,11.5748C80.8944,11.497,80.7496,11.7138,80.9078,11.5748 M126.348,15.7194
					c0.0393-0.0553,0.0795-0.1063,0.1139-0.1566c-0.6891-1.59-2.0463-3.0636-3.0343-4.4962
					c-0.8013-1.1546-2.7865-0.1658-3.6414,0.4161c0.0327,0.0829,0.0469,0.2035,0.1072,0.2453
					C121.9397,13.0535,124.0773,14.8277,126.348,15.7194C126.3873,15.6641,126.1562,15.6457,126.348,15.7194 M94.718,20.3353
					c-1.0299-0.1105-2.0606-0.1155-3.0904-0.1474c-0.9043-0.0327-1.0516,0.1197-1.096,1.0022
					c-0.0578,1.1647,0.4044,2.1945,0.8339,3.221c0.0896,0.2445,0.2755,0.5677,0.4764,0.6187
					C92.6951,25.2518,94.4492,21.0102,94.718,20.3353C94.3554,20.3035,94.5865,20.6502,94.718,20.3353 M108.6981,25.1455
					c0.1633-0.0829,0.2286-0.0879,0.252-0.1298c0.7636-1.2794,1.2727-2.6425,1.1471-4.1671
					c-0.0377-0.4948-0.1968-0.6606-0.71-0.6606c-0.9553,0-1.9132,0.0276-2.871,0.0695c-0.5275,0.0226-0.6146,0.1984-0.355,0.6606
					C106.9716,22.3406,107.7327,23.8243,108.6981,25.1455C108.8613,25.0626,108.539,24.9328,108.6981,25.1455 M116.5417,17.9935
					c0.0695-0.0142,0.1382-0.0285,0.2076-0.0377c0.0285-0.2076,0.098-0.4153,0.0846-0.6187
					c-0.0561-1.3631-0.6003-2.5596-1.3296-3.6874c-0.2311-0.3508-0.638-0.6095-0.988-0.8917
					c-0.6095-0.4898-2.5646,0.3282-3.1256,0.6748C113.1566,14.9993,114.8479,16.4914,116.5417,17.9935
					C116.6112,17.9792,114.8479,16.4914,116.5417,17.9935 M83.8768,18.104c0.9646-0.6883,5.2749-3.5811,5.2046-4.7826
					c-0.0142-0.355-2.6299-0.8172-2.9104-0.5861c-0.3927,0.3182-0.8298,0.6095-1.091,1.0165
					C84.2201,15.0956,83.7177,16.5148,83.8768,18.104C84.2084,17.8679,83.8375,17.6836,83.8768,18.104 M84.6689,25.6027
					c0.0678,0.0276,0.1264,0.046,0.1917,0.0653c1.5347-1.1789,2.8803-2.9297,4.1228-4.4175
					c0.1959-0.2353,0.5066-0.5409,0.2796-0.8498c-0.7117-0.3659-1.4736-0.499-2.2958-0.4119c-0.8833-0.0502-1.0742,0-1.3363,0.8507
					C85.1688,22.3917,84.7811,23.9951,84.6689,25.6027C84.7367,25.6303,84.6923,25.2703,84.6689,25.6027 M115.7756,25.6445
					c0.0578-0.0276,0.1122-0.0511,0.1633-0.0787c0.1072-1.6218-0.4387-3.6087-1.0625-5.1057
					c-0.4019-0.952-2.4063-0.3877-3.0929-0.309C110.3986,20.3169,115.2356,25.1313,115.7756,25.6445
					C115.8334,25.6169,115.5437,25.4277,115.7756,25.6445 M31.6731,72.9074c0.0159-0.0653,0.0352-0.1248,0.0578-0.1901
					c-0.628-0.6832-4.5456-2.5085-5.552-1.9634c-1.24,0.6749-2.1912,1.2894-3.2277,2.2548c0.1164,0.1114,0.175,0.2035,0.2236,0.2035
					C26.0156,73.1888,28.8414,73.1335,31.6731,72.9074C31.689,72.8421,30.7295,72.9862,31.6731,72.9074 M177.6357,73.1059
					c0-0.0461,0.0168-0.1155-0.0092-0.139c-0.9344-1.0441-2.058-1.806-3.3818-2.2774c-1.199-0.4161-4.0533,1.2936-5.0555,1.7466
					c-0.1164,0.0603-0.1959,0.1943-0.3014,0.3098C169.9344,73.1427,176.888,73.4157,177.6357,73.1059
					C177.6357,73.0598,176.888,73.4157,177.6357,73.1059 M113.6966,36.5392c-2.2657-0.1381-4.3447-0.2721-6.4144-0.4061
					c-0.1566,0.4714,0.0352,0.7159,0.2596,0.9654c0.9461,1.0533,1.8496,2.1066,2.892,3.0728
					C111.5825,39.0025,112.7974,38.0413,113.6966,36.5392C111.431,36.4011,112.7974,38.0413,113.6966,36.5392 M86.984,36.53
					c0.7075,1.1973,1.77,2.1719,2.7371,3.17c0.4421,0.4664,0.5911,0.4714,1.0424-0.005c0.8406-0.8867,1.6654-1.8018,2.4658-2.7253
					c0.1499-0.1758,0.1499-0.4714,0.2621-0.8415C91.2767,36.2671,89.2095,36.3961,86.984,36.53
					C87.1707,36.8398,89.2095,36.3961,86.984,36.53 M81.91,33.4765c1.4158-0.8046,3.931-3.5769,4.6645-5.0321
					c0.3249-0.6514-3.5476-0.6146-3.849-0.6187c-0.5442-0.0092-0.6522,0.0971-0.6774,0.6422
					C81.9661,30.1449,81.91,31.7986,81.91,33.4765C82.1864,33.314,81.91,32.5663,81.91,33.4765 M118.6768,33.453
					c0.1658-1.4971-0.0234-3.036-0.0753-4.533c-0.0553-1.6302-2.8074-0.9327-4.0642-1.0022
					c-0.1683-0.0142-0.3784,0.1013-0.4973,0.2403C113.71,28.5231,118.1485,33.134,118.6768,33.453
					C118.7094,33.1667,118.4524,33.314,118.6768,33.453 M194.9934,107.5651c-2.0882-0.3282-4.2325-0.3835-6.3466-0.494
					c-0.2001-0.005-0.4672,0.0879-0.6045,0.2219c-0.5652,0.5727-2.3503,2.1945-2.506,3.0402
					C186.5586,110.4529,194.0197,108.3044,194.9934,107.5651C194.5455,107.4914,194.0197,108.3044,194.9934,107.5651
					 M5.6721,107.6254c1.369,0.9244,7.8604,3.4102,9.4605,2.7078c0-0.0971,0.0285-0.1758,0-0.1892
					c-0.8381-0.911-1.7541-1.7424-2.4365-2.7915c-0.1658-0.2587-0.4597-0.3324-0.8055-0.2863
					C9.8862,107.3482,7.6063,106.9874,5.6721,107.6254C5.8806,107.7593,5.8806,107.5559,5.6721,107.6254 M68.8577,49.1764
					c0.1959-0.0603,0.3081-0.0603,0.3784-0.1197c1.446-1.2065,4.0005-2.7078,4.9701-4.302
					c-0.6305-0.7904-6.108-0.8591-5.9397,0.4948C68.4256,46.5473,68.6492,47.8417,68.8577,49.1764
					C69.0536,49.1161,68.6492,47.8417,68.8577,49.1764 M126.4568,44.6349c0.0285,0.1524,0.0193,0.2537,0.0636,0.2905
					c1.6352,1.3957,3.2771,2.7865,4.919,4.1772c0.0494,0.0368,0.1423,0.0234,0.206,0.0327
					c0.0444-0.0419,0.1047-0.0745,0.1097-0.1063c0.2244-1.2568,0.4764-2.5001,0.6489-3.7519c0.103-0.7812-0.0561-0.8917-0.88-0.9193
					C129.9474,44.2975,127.9941,44.2607,126.4568,44.6349C126.4853,44.7873,126.6394,44.5839,126.4568,44.6349 M56.2834,77.0059
					c-0.6355-0.8925-5.1057-0.6012-6.1431-0.7209c-2.1493-0.2453-0.0938,2.6291,0.3224,3.5484
					c0.257,0.5635,0.3366,0.5961,0.885,0.2813C53.0272,79.1586,54.7654,78.184,56.2834,77.0059
					C56.0313,76.6543,56.0263,77.1994,56.2834,77.0059 M149.956,80.3785c0.5258-1.2057,1.0416-2.3335,1.5138-3.4789
					c0.2571-0.6238,0.1398-0.7301-0.535-0.6799c-0.9068,0.0787-5.7321-0.1658-6.5383,0.7301
					c0.0377,0.0879,0.0519,0.1708,0.0988,0.2085C146.2351,78.23,148.0428,79.6626,149.956,80.3785
					C150.4818,79.1728,149.6847,80.2772,149.956,80.3785 M68.7965,13.9502c0.0561,0.0461,0.1122,0.0921,0.1683,0.1432
					c2.2657-0.952,4.6252-3.5116,7.1102-3.7427c0.5794-0.0553,0.6774-0.4664,0.257-0.9009c-0.53-0.5501-1.1982-0.9009-1.9617-1.0399
					c-0.1641-0.0226-0.3785,0-0.5141,0.0837C71.7212,9.8149,69.6866,11.5338,68.7965,13.9502
					C68.8526,13.9963,68.8853,13.7049,68.7965,13.9502 M131.7786,14.0884c0.0486-0.0502,0.0929-0.1055,0.1499-0.1616
					c-0.6757-1.4644-3.5065-5.8492-5.5805-5.521c-0.8456,0.1432-1.5774,0.5082-2.1233,1.1822
					c-0.0988,0.1206-0.1222,0.3056-0.2127,0.5685C126.8939,10.9603,129.0013,13.0861,131.7786,14.0884
					C131.8271,14.0381,131.5475,14.0105,131.7786,14.0884 M15.892,109.1132c3.2587,0.5451,6.3324,0.6464,9.5023,0.0419
					c-0.5677-1.1462-2.3712-2.084-3.5065-2.6199C20.4092,108.1286,17.5666,107.4772,15.892,109.1132
					C19.1507,109.6583,16.5275,108.4936,15.892,109.1132 M175.2093,109.1643c3.1792,0.5869,6.2461,0.5082,9.4621-0.0511
					c-1.2635-1.3355-5.1811-1.0717-5.835-2.537C177.9045,106.8768,175.5785,108.4986,175.2093,109.1643
					C178.3884,109.7512,175.5785,108.4986,175.2093,109.1643 M79.2986,25.8338c1.7709-1.6218,3.5107-3.5576,4.9852-5.4524
					c0.4672-0.5861-3.679-1.9952-4.0667-0.3416C79.7541,21.9622,78.9812,23.8377,79.2986,25.8338
					C79.5606,25.5935,79.2374,25.4779,79.2986,25.8338 M121.3117,25.8061c0.6564-1.5799-0.4304-3.9042-0.7971-5.4474
					c-0.2219-0.9562-0.5133-1.1504-1.4803-0.9562c-0.8197,0.1708-1.5984,0.1381-2.4181,0.2679
					c-0.4245,0.0645-0.5141,0.3642-0.2311,0.7209C117.8496,22.2527,119.5501,24.2027,121.3117,25.8061
					C121.4047,25.575,121.0915,25.5985,121.3117,25.8061 M161.4628,100.1401c-1.0726-1.3539-2.9062-2.6475-3.5903-4.214
					c-0.2504-0.5819-0.4069-0.6975-0.9419-0.494c-1.0533,0.4253-2.0807,0.8733-3.113,1.3304
					c-0.1122,0.0419-0.1775,0.1892-0.2738,0.2914C155.7048,98.643,160.1239,100.3854,161.4628,100.1401
					C161.2057,99.8169,160.1239,100.3854,161.4628,100.1401 M39.1735,100.1493c1.4318,0.2495,6.9603-2.0053,7.9182-3.1875
					c-0.607-0.6799-3.7912-2.218-4.2651-1.1462C42.1023,97.4608,40.2854,98.7267,39.1735,100.1493
					C40.6052,100.3988,39.4071,99.8495,39.1735,100.1493 M20.5917,115.6507c0.0419-0.0779,0.0887-0.1566,0.1306-0.2353
					c-0.962-0.9244-2.0086-1.765-2.943-2.717c-0.4463-0.4622-0.9135-0.5124-1.4954-0.4061
					c-2.3075,0.4019-4.6243,0.7201-6.9536,1.0114C13.0302,114.4685,16.8842,114.6904,20.5917,115.6507
					C20.6335,115.5728,16.8842,114.6904,20.5917,115.6507 M161.6679,66.8866c0.103,0.1248,0.1357,0.2085,0.1917,0.2403
					c2.1275,1.0165,4.4334,2.2138,6.8205,2.4072c-0.4178-1.3539-0.7921-2.6793-1.4108-3.9687
					c-0.3366-0.6933-0.5325-0.7536-1.261-0.4898C164.5649,65.6206,162.964,66.0367,161.6679,66.8866
					C161.7709,67.0113,161.8831,66.7484,161.6679,66.8866 M180.0069,102.4644c-1.5297-0.5635-5.8091-3.401-7.3204-2.7588
					c-1.0634,0.4488-2.4993,0.7954-3.3341,1.6084C171.0697,102.2885,178.3926,103.0973,180.0069,102.4644
					C179.579,102.3028,178.3926,103.0973,180.0069,102.4644 M138.9893,21.1768c0.0494-0.0184,0.1122-0.0469,0.1683-0.0695
					c-0.36-2.0237-1.7541-4.1998-3.1255-5.7387c-0.6255-0.7025-0.7477-0.7393-1.5766-0.2311c0.8825-0.54-2.1962,1.0952-2.1351,1.405
					c0.0469,0.2261,0.2847,0.4479,0.4814,0.6146C134.6094,18.6767,137.0669,19.6982,138.9893,21.1768
					C139.0387,21.1584,138.4425,20.7607,138.9893,21.1768 M179.9181,115.4431c0.0486,0.0695,0.0888,0.1482,0.1264,0.2169
					c3.7016-0.998,7.5682-1.1688,11.2422-2.3142c-0.7829-0.453-7.2944-1.6863-8.2062-0.8415
					C182.0323,113.493,180.8944,114.3806,179.9181,115.4431C179.9667,115.5126,180.0957,115.2488,179.9181,115.4431
					 M31.4529,101.3876c-3.3215-2.583-7.4602-1.0441-10.7005,1.0952c0.0586,0.0787,0.0871,0.1298,0.1239,0.1432
					C23.9668,103.5319,28.463,102.2977,31.4529,101.3876C31.1306,101.1381,30.5193,101.6648,31.4529,101.3876 M31.998,69.4696
					c1.0575,0.0829,6.159-1.8161,7.0281-2.6106c-1.3941-0.679-2.8543-1.2241-4.3095-1.76
					C32.9223,64.4283,32.3295,68.3836,31.998,69.4696C33.0555,69.5525,32.1939,68.8131,31.998,69.4696 M61.5649,21.1207
					c0.1633-0.0318,0.252-0.0226,0.2989-0.0594c1.3547-0.9939,6.113-3.0494,6.5844-4.6067
					c-0.4337-0.2537-2.8216-2.2824-3.489-1.4694C63.8281,16.4035,61.1748,19.0928,61.5649,21.1207
					C61.7282,21.0889,61.4385,20.4835,61.5649,21.1207 M134.0954,68.1483c1.1236-1.7608,2.2355-4.0524,2.4716-6.1222
					c-1.4904-0.2587-2.7538-0.3701-4.2559-0.2914c-0.36,0.0234-0.4722,0.2453-0.3969,0.5777
					C132.3295,64.1009,132.9625,66.6739,134.0954,68.1483C134.2728,67.8712,134.0091,68.037,134.0954,68.1483 M139.4213,49.3338
					c0.4203-1.6587,1.0391-3.4144,1.1303-5.1384c0.026-0.4664-0.1281-0.5082-0.5928-0.5124
					c-1.6193-0.0327-3.4504,0.1984-5.0245,0.5777C135.5505,46.0575,137.915,48.2713,139.4213,49.3338
					C139.7529,48.0443,139.1877,49.1722,139.4213,49.3338 M68.7965,61.8922c-1.3899-0.4295-2.8493-0.1206-4.2651,0.0276
					c-0.3039,0.0276-0.4856,0.2035-0.4346,0.4898c0.2621,1.5573,1.2074,4.657,2.5227,5.7153
					C67.5749,66.277,68.5654,63.4721,68.7965,61.8922C68.6048,61.8319,68.5654,63.4721,68.7965,61.8922 M61.2869,49.3011
					c1.616-1.2199,2.9456-2.9665,4.2366-4.5138c0.3039-0.3609,0.206-0.6104-0.252-0.6606
					c-1.5113-0.1624-3.0318-0.3374-4.5548-0.4396C59.29,43.59,60.829,48.7837,61.2869,49.3011
					C61.4737,49.1537,61.1697,49.1579,61.2869,49.3011 M74.1878,18.3627c-0.5585-0.6472-3.0854-1.0675-3.8055-1.2618
					c-2.1208-0.5819-2.6441,4.6302-2.7161,5.7664c0.0494,0.0285,0.1047,0.0561,0.1566,0.0745
					C69.9436,21.4355,72.1792,20.0079,74.1878,18.3627C73.8353,17.9558,74.0103,18.5059,74.1878,18.3627 M132.9232,23.0339
					c0.0561-0.2587,0.1189-0.3743,0.0954-0.4856c-0.2261-1.5565-0.6003-3.0862-1.1797-4.5414
					c-0.6003-1.5155-4.914-0.7435-5.3444,0.36C128.6178,19.9058,130.7177,21.4355,132.9232,23.0339
					C132.9792,22.7752,130.7177,21.4355,132.9232,23.0339 M120.9215,42.0611c0.525-1.765,0.7167-3.9001,0.6841-5.748
					c-0.0042-0.319-0.1775-0.5132-0.5325-0.4664c-1.5063,0.1892-2.8007,0.2076-4.3354,0.2537c-0.1264,0-0.2495,0.1206-0.3692,0.1758
					C116.5719,36.9278,120.1152,41.4466,120.9215,42.0611C120.9894,41.83,120.1152,41.4466,120.9215,42.0611 M74.8091,33.5041
					c0.535-0.2679,5.7019-5.0823,5.398-5.5813c-0.4647-0.772-2.8685-0.5593-3.5853-0.6707
					c-0.5794-0.0737-0.8155-0.0368-1.0508,0.458C74.7647,29.4517,74.2389,31.6185,74.8091,33.5041
					C75.0309,33.3978,74.5822,32.7832,74.8091,33.5041 M72.5668,24.6925c2.1443-1.2425,4.415-3.1976,6.2369-4.8788
					c0.4973-0.4714,0.3927-0.8507-0.2596-0.9754c-0.4814-0.0921-3.0695-0.8591-3.4848-0.4572
					c-0.3533,0.3416-0.8013,0.6656-0.9746,1.086C73.384,21.1768,72.8959,22.8865,72.5668,24.6925
					C72.8306,24.5351,72.6857,24.0135,72.5668,24.6925 M127.8827,24.6096c0.067-0.0327,0.1373-0.0745,0.2093-0.1063
					c-0.432-1.9266-0.8055-4.2743-2.1602-5.8174c-0.2663-0.3048-0.4697-0.3835-0.818-0.3232
					c-1.0717,0.1432-2.1367,0.273-3.1884,0.5174C120.7834,19.1388,127.1484,23.9993,127.8827,24.6096
					C127.9497,24.577,127.5972,24.3786,127.8827,24.6096 M125.8757,33.5962c1.0533-4.708-0.8716-7.43-5.6223-5.7337
					C122.2244,29.7472,123.6938,31.8915,125.8757,33.5962C125.9553,33.2362,123.6938,31.8915,125.8757,33.5962 M79.7423,42.0193
					c0.0703,0.0276,0.1423,0.0645,0.2177,0.1063c1.1931-1.8897,2.7982-3.5065,4.1086-5.3226
					c0.3383-0.4664,0.2403-0.6883-0.3081-0.7251c-1.1521-0.0561-3.6372-0.453-4.7231-0.1063
					c-0.0896,1.9542,0.4597,3.8297,0.535,5.7295C79.5765,41.8066,79.6795,41.9129,79.7423,42.0193
					C79.8127,42.0469,79.6795,41.9129,79.7423,42.0193 M96.4202,36.1608c0.6681,0.9378,1.6026,2.8183,2.9556,2.8828
					c0.556,0.0276,1.1136,0.0461,1.6511,0.1524c0.5886,0.1063,0.9461-0.134,1.2777-0.5677c0.638-0.8456,1.3497-1.6084,1.9316-2.5001
					c-0.252-0.1063-0.3927-0.2127-0.5601-0.2311c-2.2473-0.3048-4.5037-0.1105-6.751,0.0184
					C96.7894,35.9247,96.6655,36.036,96.4202,36.1608C96.6353,36.4564,96.6655,36.036,96.4202,36.1608 M91.1369,33.9152
					c1.3011-1.1504,2.2381-3.53,3.1164-5.027c0.7117-1.2199-4.8077-0.7443-5.6584-0.7067
					C87.8924,29.3269,90.4738,32.9724,91.1369,33.9152C91.2725,33.7904,90.941,33.6473,91.1369,33.9152 M112.12,28.2828
					c-1.4602-0.5451-3.6983-0.185-5.2305-0.1155c-0.6397,0.0276-0.7519,0.2403-0.4622,0.813
					c0.8599,1.6955,1.9274,3.3265,2.9874,4.8981C110.3257,33.4162,112.4633,29.0866,112.12,28.2828
					C112.0405,28.2594,112.2691,28.6428,112.12,28.2828 M142.2781,43.6135c0.8155,1.5113,3.962,4.5883,5.1016,4.9575
					c0.201-0.7711,1.06-6.0108,0.1516-5.9279c-0.6187,0.0603-1.2517,0.1298-1.8663,0.2361c-0.2989,0.18-0.556,0.4153-0.7686,0.6924
					c-0.5836,0.5174-0.633-0.36-1.2492-0.2997c-0.2989,0.0226-0.6121,0.0092-0.9018,0.0645
					C142.5728,43.3731,142.4255,43.5214,142.2781,43.6135C143.0936,45.1247,142.4255,43.5214,142.2781,43.6135 M53.5597,48.5668
					c0.4881-0.3559,5.9171-5.0597,4.2233-5.2447c-0.3433-0.0318-1.8244,0.3885-1.9341,0.3006
					c-0.8431-0.628-1.2216-0.8088-2.3075-0.9654c-0.7125-0.1022-0.8783,0.0226-0.8364,0.7343
					C52.7701,44.3436,52.4009,48.2059,53.5597,48.5668C53.7095,48.4555,53.1536,48.4421,53.5597,48.5668 M64.05,34.8622
					c-0.525,0.4898-0.6539,1.0491-0.6698,1.7047c-0.0327,1.2986-0.0469,2.583,0.1775,3.8582
					c0.1582,0.9754,5.1032-4.204,5.7245-4.837C68.6308,35.0933,66.7226,34.8438,64.05,34.8622
					C63.525,35.352,66.7226,34.8438,64.05,34.8622 M49.7174,38.8728c0.5702-0.3508,5.7345-4.662,5.4398-5.341
					c-0.4178-0.9746-3.6271-1.0307-4.4518-1.1923c-0.5066-0.1013-0.6146-0.0511-0.7778,0.4345
					C49.4562,34.2384,49.2008,37.4452,49.7174,38.8728C49.9275,38.748,49.6429,38.6927,49.7174,38.8728 M136.9873,40.9199
					c0.2386-1.6955,0.3173-3.211,0.2713-4.9257c-0.0092-0.3508-0.2947-0.7527-0.5702-1.0165
					c-0.6514-0.6054-4.5598,0.0645-5.2531,0.4856C132.1009,36.9696,135.4643,40.2727,136.9873,40.9199
					C137.0384,40.5406,136.768,40.832,136.9873,40.9199 M170.7474,98.3709c0.0234-0.0511,0.0377-0.1021,0.0611-0.1482
					c-1.703-1.3078-6.211-4.9534-8.4281-4.5741c-0.1281,0.0226-4.1387,0.8364-2.9171,1.4418
					C162.542,96.6059,167.2903,98.3709,170.7474,98.3709C170.7708,98.3198,170.6025,98.3709,170.7474,98.3709 M71.4834,41.8811
					c0.0745,0.0318,0.1398,0.0553,0.2093,0.0737c1.8136-1.9408,3.4781-4.0014,5.1811-6.0393
					c-0.4714-0.7577-5.4281-0.9193-5.4658,0.0971C71.3519,38.0045,71.2121,39.9127,71.4834,41.8811
					C71.5579,41.9129,71.413,41.3545,71.4834,41.8811 M41.5489,94.799c-0.808-0.6564-1.9643-0.8733-2.964-1.1186
					c-2.3293-0.5769-7.2551,3.4563-8.8995,4.6436C32.9575,98.6664,38.9332,96.7122,41.5489,94.799
					C41.332,94.6282,41.322,94.9564,41.5489,94.799 M150.851,35.4215c0.0461,0,0.098-0.005,0.1465-0.0142
					c-0.0628-0.8172-0.0812-1.631-0.2026-2.444c-0.2194-1.4879-4.1278,0.0645-4.9006,0.2453
					c-0.5191,0.2261-0.5493,0.5174-0.0795,0.8917c1.5699,1.4644,2.9991,3.2336,4.7348,4.5556
					C151.6004,39.4597,150.8787,35.671,150.851,35.4215C150.8971,35.4215,150.944,36.3827,150.851,35.4215 M128.9729,41.9406
					c0.0728-0.0184,0.1423-0.0461,0.2127-0.0687c0.1448-1.1002,0.9955-6.1457-0.5258-6.4044
					c-0.8289-0.1289-4.3907-0.4479-4.8772,0.4572C125.5065,37.9392,127.1208,40.0416,128.9729,41.9406
					C129.0457,41.9221,127.1208,40.0416,128.9729,41.9406 M28.0854,106.8819c3.041-0.3056,7.0139-1.1136,9.6748-2.6475
					c-1.6185-0.9202-3.0996-1.7189-4.77-2.3427c-1.4435,1.6863-3.0109,3.031-4.6905,4.5046
					C28.2084,106.4791,28.1875,106.6457,28.0854,106.8819C28.4538,106.8442,28.1875,106.6457,28.0854,106.8819 M163.0109,104.2293
					c0.8339,0.772,8.449,2.7538,9.519,2.5043c-0.8105-1.5666-3.2796-3.2436-4.5757-4.533c-0.2294-0.2261-0.4463-0.3182-0.7971-0.134
					C165.856,102.7323,164.1019,103.2589,163.0109,104.2293C163.8448,105.0013,163.1423,104.1188,163.0109,104.2293
					 M43.9971,105.1026c0.0486,0.0419,0.098,0.0879,0.1423,0.1289c2.7379-0.2864,6.0058-3.4186,7.7926-5.2858
					c0.2612-0.2721,0.252-0.5174-0.0469-0.6698c-0.7594-0.4019-1.5163-0.7896-2.2942-1.1546
					c-0.4153-0.1901-0.5367-0.1063-0.787,0.2864C47.2926,100.7362,45.4029,102.6586,43.9971,105.1026
					C44.0456,105.1445,44.5321,104.1783,43.9971,105.1026 M148.4614,99.6502c1.4946,1.5339,5.8158,6.1088,8.1191,5.5311
					c0-0.0929,0.0092-0.1524-0.0092-0.1892c-0.4488-0.8783-4.1722-7.518-5.4658-6.8758c-0.8456,0.4111-1.6821,0.8691-2.5252,1.3028
					C148.5427,99.4376,148.5334,99.5029,148.4614,99.6502C148.6624,99.8587,148.5334,99.5029,148.4614,99.6502 M153.8385,66.3875
					c0.6347-1.765,0.4906-3.7745,0.9152-5.6048c0.2244-1.0022,0.2152-1.0441-0.808-0.7711
					c-1.9199,0.5174-4.0056,0.7854-5.8585,1.4694C149.9351,63.1121,151.7411,65.0713,153.8385,66.3875
					C154.1047,65.644,153.5789,66.2217,153.8385,66.3875 M52.4946,61.43c-2.228-0.5359-4.4334-1.0491-6.7736-1.6076
					c0.4228,2.1485,0.4764,4.5138,1.086,6.5978C48.1123,65.5377,52.1212,62.876,52.4946,61.43
					C50.2666,60.8941,52.4461,61.615,52.4946,61.43 M54.4681,61.8093c0.7644,1.9492,1.6193,3.6958,2.4248,5.5813
					c1.7658-0.9612,4.3405-3.53,4.9333-5.4666C59.3553,61.8829,57.0051,61.8461,54.4681,61.8093
					C55.2326,63.7585,57.0051,61.8461,54.4681,61.8093 M138.7975,61.924c0.0846,0.2964,0.0846,0.4345,0.1524,0.5225
					c1.3078,1.6863,2.6835,3.3039,4.3045,4.708c0.1264,0.1063,0.3366,0.134,0.5325,0.2177c0.8197-1.8713,1.6118-3.664,2.4482-5.5629
					C143.6981,61.8461,141.3085,61.8829,138.7975,61.924C138.8821,62.2204,141.3085,61.8829,138.7975,61.924 M139.8651,70.0699
					c0.0092,0.4948,0.2897,0.7117,0.5752,0.911c0.8381,0.6045,5.1685,4.6151,5.7547,2.9983
					c0.5425-1.4878,1.8387-2.9204,2.1819-4.4267C145.4874,69.5525,142.675,69.8388,139.8651,70.0699
					C139.8743,70.5647,140.7291,70.0012,139.8651,70.0699 M52.1932,69.5433c0.2964,1.4786,1.7993,3.2394,2.4013,4.7131
					c0.1449,0.3374,0.3718,0.3835,0.6707,0.2169c1.7801-0.9562,3.4965-2.3603,5.0781-3.6129
					c0.2378-0.1892,0.4479-0.3877,0.4178-0.818C57.9788,69.7702,55.0358,69.5433,52.1932,69.5433
					C52.2376,69.7467,52.4762,69.5433,52.1932,69.5433 M67.2199,32.9406c0.0494,0.0276,0.0938,0.0645,0.1423,0.0921
					c2.3687-1.4971,4.4853-3.5903,6.5643-5.4616c0.1348-0.1197,0.2989-0.3927,0.2428-0.4898
					c-0.0846-0.1616-0.3224-0.3048-0.5166-0.3416c-1.4552-0.2177-2.7605-0.3927-4.1789-0.767
					c-0.3224-0.0837-0.5233,0.041-0.6255,0.3651C68.1451,28.5181,67.4468,30.6389,67.2199,32.9406
					C67.2693,32.9682,67.2693,32.4734,67.2199,32.9406 M133.3594,33.0419c0.4211-1.8989-0.7494-4.3614-1.3145-6.0988
					c-0.4136-1.2618-0.3039-1.0031-1.5632-0.8549c-1.2333,0.1474-3.0343,0.4337-4.1764,0.9512
					C127.9221,28.9669,131.0334,32.0765,133.3594,33.0419C133.4532,32.6258,133.1961,32.9867,133.3594,33.0419 M158.8228,67.8477
					c-1.3782-0.494-6.7879,0.9286-8.1309,1.5481c0.7335,0.8498,5.7505,3.6497,6.7971,3.8255
					C158.2509,71.7847,158.7182,69.4553,158.8228,67.8477C158.6855,67.7925,158.8069,68.037,158.8228,67.8477 M49.9275,69.5483
					c-0.0092-0.0695-0.0092-0.1482-0.0092-0.2219c-1.8571-0.5635-6.211-2.0145-8.1241-1.4828
					c0.2989,1.5381,0.6941,3.0536,1.0374,4.5925C43.2686,74.4506,49.045,70.2784,49.9275,69.5483
					C49.9183,69.4788,49.776,69.673,49.9275,69.5483 M100.2842,12.4255v0.0603c0.5442,0.1105,1.0558,0.0553,1.5322-0.1666
					c0.9696-1.0349,1.544-5.7203-0.664-5.6508c-0.5342,0.0226-2.0547-0.2956-2.4708,0.4345
					c-0.787,1.3765-0.6707,2.4298-0.535,3.9545C98.2588,12.2957,99.3054,12.4255,100.2842,12.4255
					C100.2842,12.4439,100.0858,12.4255,100.2842,12.4255 M139.0521,31.4017c0-1.7516,0.2336-5.5537-1.158-6.9444
					c-0.201-0.1993-0.3977-0.3332-0.664-0.2637c-1.3338,0.324-5.4072,0.9193-3.4546,2.7312
					C135.3379,28.3749,137.0526,30.5008,139.0521,31.4017C139.0521,30.8792,138.1578,30.9998,139.0521,31.4017 M61.7558,31.3649
					c0.8088-0.4488,6.7024-5.48,5.5855-5.8308c-1.1446-0.3558-2.2397-0.8507-3.3893-1.2015
					C61.6118,23.63,60.9621,30.1726,61.7558,31.3649C61.9526,31.2493,61.4695,30.9261,61.7558,31.3649 M168.573,114.2926
					c2.6584,0.5593,6.2135,1.5799,8.8811,1.3773c1.0575-0.0879-3.3969-4.5004-3.7535-5.0647
					c-0.1917-0.3048-0.4772-0.2587-0.7201-0.0594C171.5395,111.682,169.6237,112.7822,168.573,114.2926
					C169.0218,114.3806,168.7597,114.0289,168.573,114.2926 M154.9688,47.5545c1.0391-1.1873,1.0349-5.2992,0.2947-6.5283
					c-0.7996-1.3313-6.2369,1.1044-5.4758,1.7876C151.5234,44.3578,153.3662,45.8733,154.9688,47.5545
					C155.3916,47.0739,154.6607,47.2263,154.9688,47.5545 M22.6681,115.5494c2.4063,0.5266,7.1663-0.5451,9.4981-1.2894
					c-1.2785-1.3489-2.8225-2.4206-4.2919-3.5526c-0.5668-0.4438-0.6891-0.4069-1.1462,0.1658
					C25.4546,112.4632,23.7122,113.8171,22.6681,115.5494C23.8596,115.8039,22.8272,115.2907,22.6681,115.5494 M45.6088,47.5545
					c0.7661-0.5777,6.2763-5.2071,5.0873-5.614c-1.4276-0.4848-2.8828-0.9143-4.312-1.3765
					c-0.5886-0.1892-0.71-0.1022-1.0022,0.4345C44.5832,42.4488,44.728,46.0993,45.6088,47.5545
					C45.7604,47.4348,45.3141,47.0647,45.6088,47.5545 M100.1017,13.5115v0.0276c-0.432,0-2.7279-0.4806-2.5437,0.7343
					c0.206,1.2986,0.458,2.578,0.808,3.8398c0.0938,0.3466,0.3299,0.4714,0.6589,0.5032c0.7293,0.0787,1.4502,0.1758,2.1744,0.2403
					c0.715,0.0653,0.8088,0.005,1.0583-0.6698c0.4764-1.307,0.6213-2.6977,0.818-4.07c0.0578-0.4119-0.0795-0.5777-0.566-0.5961
					C101.7093,13.4838,100.903,13.5115,100.1017,13.5115C100.1017,13.5207,100.903,13.5115,100.1017,13.5115 M144.3169,41.0263
					c0.3743-1.9735-0.2989-4.0064-0.0092-5.8911c0.1315-0.8457-0.5811-1.456-1.4242-1.3263
					c-0.9905-0.0737-1.8897,0.1758-2.6793,0.7393c-0.8205,1.086-1.0768-0.8314-1.9157,0.1289
					c-0.2386,0.2679-0.1357,0.5082,0.098,0.7167C140.3766,37.2141,142.1308,39.4363,144.3169,41.0263
					C144.3964,40.6009,144.0138,40.8044,144.3169,41.0263 M56.3235,41.0907c0.6681-0.5359,6.7619-5.6508,6.0803-6.3943
					c-0.0846-0.0929-4.5322-0.8549-4.8127-0.9059c-0.4789-0.1013-0.7778,0.0787-1.0064,0.4438
					C55.6386,35.7497,55.9895,39.515,56.3235,41.0907C56.702,40.786,56.0874,39.9771,56.3235,41.0907 M37.6647,63.6798
					c1.3824,0.0469,7.1336-4.209,5.7479-4.9944c-1.3614-0.7527-2.8962-1.2434-4.3606-1.7884
					c-0.3198-0.1147-0.54,0.0142-0.6564,0.3148c-0.8532,2.2456-0.8247,4.0106-0.7736,6.4086
					C37.622,63.6479,37.6454,63.6664,37.6647,63.6798C38.054,63.694,37.6454,63.6664,37.6647,63.6798 M163.067,63.689
					c0-2.2548,0.1147-4.1119-0.6958-6.2369c-0.2596-0.6799-0.3759-0.7117-1.0818-0.4714c-1.4452,0.494-2.8216,1.3631-4.2601,1.8161
					C156.8284,58.8612,161.1705,64.1654,163.067,63.689C163.067,63.4445,162.6023,63.8045,163.067,63.689 M67.451,59.5444
					c0.0728,0.005,0.1423,0.005,0.206,0.005c0.6841-0.9562,5.048-6.247,4.4049-7.0415c-0.7569-0.9378-4.6804-0.3927-5.7714-0.4203
					c-0.463-0.005-0.5442,0.0695-0.6405,0.5451C65.2481,54.5551,66.746,57.7845,67.451,59.5444
					C67.5239,59.5494,67.3765,59.351,67.451,59.5444 M133.1074,59.711c0.9068-1.9777,1.9643-4.7315,1.9015-6.9394
					c-0.0209-0.592-0.1658-0.6891-0.736-0.6841c-1.6771,0.0368-3.7025-0.2085-5.3393,0.18
					C127.8124,52.5355,132.5397,58.9022,133.1074,59.711C133.2614,59.3745,132.7708,59.2263,133.1074,59.711 M54.3844,31.5675
					c0.0703,0.0234,0.1356,0.0653,0.2076,0.0929c2.4532-1.765,5.2163-4.8378,6.7694-7.4158
					c0.6983-1.1504-1.6277-1.7516-2.4172-2.1627c-0.5375-0.2863-0.7544-0.2127-1.1287,0.2956
					C56.1762,24.577,54.2136,28.8371,54.3844,31.5675C54.4547,31.5909,54.3702,31.3556,54.3844,31.5675 M146.3172,31.5775
					c-0.0988-1.1462-2.6684-10.5305-4.4334-9.6061c-0.7971,0.4111-1.6009,0.8314-2.3737,1.2752
					c-0.5744,0.3416-0.6045,0.4664-0.2453,0.998C140.1991,25.6303,144.4576,31.8731,146.3172,31.5775
					C146.2887,31.2769,145.7679,31.6604,146.3172,31.5775 M152.5742,50.1283c1.3087,1.9869,3.7895,5.0639,6.041,6.0251
					c0.7075-1.811,0.885-4.9165,0.3784-6.8012c-0.2504-0.9059-0.4999-1.0307-1.425-0.7812
					C155.9124,49.024,154.0838,49.2643,152.5742,50.1283C152.7969,50.47,153.6074,49.5322,152.5742,50.1283 M48.0797,50.0086
					c-1.7725-0.5869-3.5476-1.0818-5.372-1.5113c-0.4814-0.1105-0.7268-0.0092-0.8992,0.4387
					c-0.7569,2.0195-0.1315,4.7181,0.0092,6.7971c0.098,0.4622,0.3265,0.54,0.6933,0.2311
					C44.4618,54.2453,46.8723,52.3413,48.0797,50.0086C47.3094,49.7541,47.9072,50.3452,48.0797,50.0086 M63.9219,52.0273
					c-1.9366-0.5911-4.2634-0.5225-6.2763-0.6933c-1.3715-0.1155,0.5534,7.4995,0.89,8.3862
					C59.7338,58.5238,64.3213,53.7923,63.9219,52.0273C63.7393,51.967,64.055,52.6092,63.9219,52.0273 M142.0612,59.6976
					c1.0952-2.0472,1.5674-5.5679,1.6419-7.8319c0.0143-0.3517-0.1775-0.5593-0.5559-0.5543
					c-1.981,0.0318-4.1328,0.1934-6.0762,0.5819C136.1978,52.0692,141.4768,59.0688,142.0612,59.6976
					C142.2153,59.4063,141.8553,59.48,142.0612,59.6976 M150.1176,58.852c0.2545-1.4971,2.4315-8.7605,0.4061-8.4741
					c-1.698,0.2261-3.3801,0.4387-5.0756,0.638c-0.6447,0.0829-0.715,0.2303-0.4488,0.8314
					C146.2184,54.5919,148.0478,56.7169,150.1176,58.852C150.239,58.1537,149.5214,58.2374,150.1176,58.852 M50.589,58.718
					c0.072-0.0368,0.1817-0.0461,0.2428-0.1063c1.9383-2.0656,3.6974-4.1538,4.816-6.7736
					c0.2663-0.6288,0.2529-0.7025-0.4153-0.7946c-1.7616-0.2269-3.5342-0.5082-5.2983-0.7025
					C48.4539,50.1794,49.9183,57.9553,50.589,58.718C50.661,58.6812,50.5329,58.6435,50.589,58.718 M97.656,28.2133v0.0645
					c-0.1775,0-0.35-0.0092-0.5275,0c-0.6054,0.0142-0.7402,0.1666-0.5467,0.7259c0.5208,1.5615,1.3623,3.0494,1.976,4.5833
					c0.1775,0.4345,0.458,0.6656,0.9788,0.638c0.5442-0.0184,1.0952,0.0502,1.6511,0.0779
					c0.3299,0.0234,0.5844-0.0645,0.7318-0.3927c0.6933-1.6402,1.5741-3.2244,2.1719-4.9065
					c0.1825-0.5174,0.0846-0.6841-0.4856-0.7117C101.6247,28.1815,99.6437,28.2133,97.656,28.2133
					C97.656,28.2368,98.7654,28.2133,97.656,28.2133 M156.45,108.0549c0.9947,2.2138,7.909,3.3357,9.9553,3.9185
					c0.36,0.1063,0.7385,0.1432,1.1211-0.0737c-0.3826-0.9478-5.7044-7.1856-6.3701-6.7971
					C159.8225,105.8696,157.4405,106.8216,156.45,108.0549C156.6785,108.5497,156.7999,107.6254,156.45,108.0549 M44.2843,108.2123
					c-0.8155-1.2291-3.2302-2.2414-4.4426-2.9573c-0.6121-0.36-0.736-0.3098-1.2074,0.2403
					c-1.5866,1.8437-4.5414,4.163-5.4616,6.4086C35.4292,113.0685,42.3409,109.3259,44.2843,108.2123
					C43.8639,107.5835,43.8522,108.4568,44.2843,108.2123 M97.8151,19.9979c-2.6676-0.0092,0.1097,4.6628,0.5417,5.8961
					c0.1524,0.4387,0.4136,0.6656,0.8549,0.7067c0.6774,0.0511,1.3547,0.1114,2.0304,0.139
					c0.6774,0.0368,0.7569-0.0276,0.983-0.6698c0.3642-0.9939,3.2051-6.3073,0.6866-6.2193
					C101.2094,19.915,99.5206,19.8966,97.8151,19.9979C96.6563,19.9937,98.7562,19.9385,97.8151,19.9979 M48.15,76.1461
					c-3.854-1.0952-7.9349-1.5012-11.8517-2.3427c-0.7477-0.1524-0.9235-0.0553-1.0114,0.6698
					c-0.1825,1.5347-0.1733,3.2997-0.0218,4.847c0.0444,0.4764,0.1356,0.5827,0.6028,0.5685
					C39.4305,79.8335,45.3376,78.3272,48.15,76.1461C47.7364,76.0213,47.8134,76.4048,48.15,76.1461 M152.7173,76.1235
					c-0.0142,0.0645-0.0234,0.1289-0.0352,0.1934c2.4926,1.6453,9.7962,4.3807,12.6555,3.4747
					c0.2336-1.7189,0.3274-3.6547,0.0419-5.3645C165.1577,73.1243,154.1282,75.5181,152.7173,76.1235
					C152.7031,76.1879,152.8639,76.054,152.7173,76.1235 M130.2815,65.7596c-0.4228-17.5486-19.337-27.843-35.6992-24.6504
					c-4.0951,0.7946-8.1267,2.0606-11.7588,4.1169c-2.0396,1.1555-7.6059,4.2325-7.9023,6.8523
					c-0.1917,1.6721-2.2749,3.5484-2.9297,5.1794c-0.7937,1.9961-1.3053,4.1864-1.415,6.3391
					c-0.1867,3.8908-0.3617,8.7144,1.8872,12.1105c0.7569,1.1546,0.7829,2.3653,0.1423,3.5434
					c-1.1655,2.1585-10.2475,6.3257-7.5774,8.4884c4.7817,3.8398,9.9226,7.286,14.7253,11.1769
					c5.4474,4.4217,10.3572,7.0231,17.603,6.3483c0.1959-0.0226,0.5191-0.1708,0.5375-0.3048
					c0.5702-3.2713-11.7965-4.8604-13.4175-6.4035c-0.3944-0.3793-0.5258-0.8323-0.5116-1.3547
					c0.0142-0.5032,0.1356-0.6422,0.6095-0.8172c1.6612-0.6054,3.3223-0.3282,4.8847,0.2261
					c4.0056,1.4184,7.5707,5.0229,12.2001,4.1119c3.3918-0.674,6.1482-2.5361,9.2386-3.9545
					c1.6235-0.7351,3.3282-0.9244,5.0731-0.4203c0.5233,0.1474,0.7477,0.4387,0.7477,0.9746c0,0.6188-0.3223,1.0952-0.7762,1.4786
					c-3.1783,2.6609-10.8026,1.492-13.1755,5.6182c-0.2244,0.3927-0.0611,0.7167,0.4061,0.818
					c6.262,1.3212,12.1515-1.6076,16.7197-5.5353c2.4859-2.1351,4.9994-4.2274,7.5355-6.298
					c2.5319-2.0513,5.9916-3.4789,8.2715-5.7287c0.9696-0.957,0.8549-2.0195-0.3274-2.7128
					c-2.6927-1.5892-5.8183-2.8367-7.3254-5.7521c-0.5903-1.1462-0.5861-2.2916,0.108-3.4052
					C130.0153,72.7827,130.0035,69.1966,130.2815,65.7596C130.2154,63.2645,130.1576,67.3538,130.2815,65.7596 M81.8565,107.5006
					c-3.7979-1.9818-6.8255-4.5423-10.3547-6.9771c-1.7081-1.1822-3.5208-1.2241-5.3352-0.2445
					c-5.5428,2.9707-8.295,10.5941-13.5154,14.4247c-5.9748,4.3899-14.4197,6.0209-21.6463,6.7041
					c-10.6402,1.0031-33.5407-3.7284-30.7751-18.7953c0.0745-0.3977,0.355-0.6707,0.7594-0.7443
					c3.1741-0.6146,6.8649,0.3466,10.1093,0.4622c3.8055,0.1432,8.0965-1.8856,11.4666-3.4329
					c3.6748-1.6913,7.2015-3.6229,10.7474-5.5587c2.4064-1.3212,8.295-2.9891,9.7217-5.0965
					c0.6263-0.9143,0.1449-1.5615-0.7452-1.7784c-7.2525-1.7742-16.7147-4.163-21.581-10.2994
					c-1.2074-1.5247-1.4644-3.3316-0.7259-5.115c0.6698-1.631,1.9668-2.439,3.5526-2.9615
					c1.0114-0.3416,2.4851-0.2445,3.5718-0.4345c1.3472-0.2353,3.7016-2.4532,4.5079-3.4563
					c3.7301-4.5967,5.1526-11.2966,7.7926-16.4576c3.3215-6.4781,7.4652-12.4655,10.8403-18.8698
					c2.7429-5.2163,7.7223-8.3954,10.8972-13.085c1.6185-2.3704,12.0719-11.1727,14.8885-9.6941
					c1.4594-1.9726,6.8883-3.5811,9.2662-3.9361c4.9659-0.7586,9.6003-2.1995,14.7018-2.1535
					c7.0801,0.041,19.0959,0.9746,24.6061,6.0293c2.5972-0.679,7.0005,3.3642,8.9464,4.796
					c2.7773,2.043,5.1953,4.3664,7.5941,6.7276c4.9986,4.9257,8.7429,10.322,12.4286,16.2784
					c3.9294,6.3617,6.9729,13.0432,10.4275,19.6368c2.3268,4.4401,3.6464,12.9645,9.6748,14.2171
					c1.8387,0.3835,3.5786,0.2956,5.2464,1.2702c1.4368,0.8364,2.0698,2.1954,2.182,3.7293
					c0.0887,1.1546-0.1867,2.3243-1.0022,3.2805c-5.1485,6.0896-14.0128,8.6215-21.4763,10.4417
					c-0.7979,0.1943-1.2166,0.458-1.2727,0.9662c-0.2194,1.9082,15.9193,9.3424,17.9371,10.1696
					c3.7443,1.5289,7.1571,3.2294,11.1166,4.2919c4.4192,1.1923,9.3692-1.2383,13.5179,0.1482
					c2.2933,0.767-0.0846,6.7644-0.6145,7.9517c-1.1655,2.6383-3.6983,4.3338-5.933,6.0067
					c-5.3561,3.9922-14.0948,5.9464-20.8056,5.6692c-7.9374-0.3324-15.7225-2.0421-22.6979-5.9003
					c-2.9431-1.626-5.0965-3.6966-7.2835-6.2285c-2.5127-2.9104-4.6176-7.3044-8.0773-9.1992
					c-1.8471-1.0022-3.6924-0.9612-5.4005,0.2637c-2.8099,2.0237-5.3678,4.5833-8.5512,6.0477
					c-5.8141,4.0198-13.7934,5.7756-20.3711,2.5696c-1.2216-0.0092-2.794,0.813-4.0851,0.9143
					C91.2583,110.4805,86.3343,109.2288,81.8565,107.5006C81.0853,107.0937,94.1637,112.2597,81.8565,107.5006"/>
				<path id="XMLID_2828_" d="M123.7625,57.1573c-0.7988,0.8825-0.8666,4.0709-0.0611,4.8747
					c0.3157,0.3232,0.7268,0.3416,1.1211,0.2495c0.4421-0.0971,0.3692-0.499,0.3784-0.7996
					C125.2503,59.8509,124.6383,58.4836,123.7625,57.1573C123.384,57.5919,123.9961,57.5132,123.7625,57.1573 M76.5716,57.2452
					c-0.1524,0.1105-0.2504,0.1574-0.2972,0.2261c-0.7309,1.086-1.0768,2.2925-1.2216,3.5626
					c-0.0327,0.2914,0.0042,0.5961,0.0745,0.8875c0.0327,0.1432,0.1867,0.3048,0.3182,0.3558
					c0.7427,0.2537,1.5649-0.3751,1.5481-1.1554C76.9709,60.0175,77.2297,58.2198,76.5716,57.2452
					C76.4192,57.3558,76.8814,57.7074,76.5716,57.2452 M79.1964,62.1752c2.1845,0.5593,5.2841,1.8253,7.5188,1.7374
					c-0.7259-1.5105-1.9802-2.7815-3.0084-4.1027c-0.2403-0.3098-0.5233-0.3609-0.8524-0.1666
					C81.6053,60.3641,80.2288,61.1637,79.1964,62.1752C80.1258,62.4113,79.4183,61.9675,79.1964,62.1752 M121.1133,62.166
					c-1.1027-0.9009-2.3586-1.7558-3.5995-2.4583c-0.5258-0.2956-0.6489-0.2771-1.0232,0.1758
					c-1.0114,1.2844-2.2489,2.5646-2.8895,4.0658C115.9791,63.8062,118.7773,62.7621,121.1133,62.166
					C120.8236,61.9349,120.1488,62.4155,121.1133,62.166 M97.8695,74.8583c0.4647-0.7117,2.7471-7.0784,1.1186-7.0047
					c-0.3877,0.0276-5.1618,0.3701-4.0617,1.6034C96.1522,70.8435,96.977,73.2549,97.8695,74.8583
					C98.0445,74.5862,97.5379,74.253,97.8695,74.8583 M105.678,68.9814c-1.2333-0.679-2.6349-0.998-4.0457-1.1002
					c-0.8549-0.0687-1.0818,0.1666-1.0014,1.0072c0.1842,1.9735,1.0106,4.1588,1.6863,6.0159
					C103.697,73.0707,104.3074,70.8059,105.678,68.9814C105.4025,68.829,105.4377,69.2996,105.678,68.9814 M120.9944,54.5098
					c-2.4365-3.8766-14.3284-9.7493-18.9393-8.0722c-0.0142,0.1114-0.0494,0.1624-0.0327,0.2035
					c1.3572,2.1351,5.9707,4.4912,6.3232,6.9587c1.4971,0.5082,3.9637,0.0603,5.5596,0.1708
					C116.2646,53.9371,118.6299,54.5098,120.9944,54.5098C120.842,54.2695,120.59,54.5098,120.9944,54.5098 M79.2902,54.3809
					c0.0301,0.0594,0.0628,0.1197,0.0837,0.175c4.0391-0.2905,7.9885-0.7711,12.051-0.8867
					c0.2403-0.005,0.4622-0.0092,0.5509-0.2771c0.8298-2.7404,5.0078-4.3112,6.3349-6.9494
					C92.207,45.597,83.3242,50.0923,79.2902,54.3809C79.3204,54.4403,79.5213,54.1356,79.2902,54.3809 M85.209,58.7833
					c3.4638,1.9735,7.0918,4.4359,10.6821,6.0996c0.787,0.3692,0.9369,0.2721,1.0977-0.5685
					c0.5719-2.938,1.5372-5.9229,1.7842-8.9079C98.9697,53.1007,86.6474,57.7484,85.209,58.7833
					C85.5456,58.9776,85.5171,58.5623,85.209,58.7833 M115.038,58.7515c-3.5643-2.6333-8.6826-3.6874-13.0457-4.0709
					c-0.432-0.041-0.5325,0.1021-0.4906,0.5359c0.2805,3.1515,1.1328,6.298,1.8219,9.3709c0.108,0.4898,0.2847,0.5961,0.7519,0.4061
					C107.4137,63.668,112.1879,60.9092,115.038,58.7515C114.8203,58.5899,114.8094,58.9181,115.038,58.7515 M100.9457,44.2062
					c5.8325-0.3835,12.8866,1.7508,17.5796,5.2029c3.3751,2.4809,12.1423,9.3742,8.2991,14.2681
					c-0.1867,0.2353-0.5233,0.3558-0.8105,0.499c-1.9735,0.9327-5.1761-0.2822-7.4275,0.0594
					c-3.0578,0.4764-6.4446,1.9224-9.005,3.6137c-6.7301,4.4401-6.7979,12.0041-8.7295,18.9619
					c-0.1423,0.5359-0.3994,0.7209-0.7636,0.6841c-0.4413-0.0419-0.633-0.36-0.7259-0.7485
					c-1.703-7.564-2.4717-15.4185-9.8925-19.6837c-2.285-1.307-5.0153-2.2498-7.5891-2.7907
					c-2.4834-0.5174-7.7717,1.6268-8.8978-1.4368c-0.0142-0.0276-0.0142-0.0502-0.0234-0.0695
					c-0.6489-1.3949-0.2796-2.7538,0.2897-4.0474C77.8233,48.2771,90.3993,44.2942,100.9457,44.2062
					C103.3236,44.0447,98.1006,44.2247,100.9457,44.2062"/>
				<path id="XMLID_2827_" d="M75.3704,80.6155c0.0276-0.319,0.0611-0.6472,0.0837-0.9704c0.026-0.3927,0.2663-0.628,0.6003-0.7854
					c3.5652-1.6955,3.4111,10.6921,7.0734,11.7219c5.7789,1.6218,11.1417,2.3293,16.461,5.3042
					c0.355,0.1993,0.7075,0.2177,1.0767,0.005c3.1767-1.7558,6.3374-3.0862,9.8992-3.8909
					c2.0488-0.4479,6.6078-0.4337,7.7876-2.5453c0.607-1.086,2.0229-2.5319,2.3503-3.7661c0.5652-2.1393,0.098-4.1998,1.2635-6.2562
					c0.4345-0.7711,1.8688-0.993,2.537-0.3877c3.0787,2.7764-3.1256,11.5001-5.0078,13.3714
					c-1.9509,1.9224-7.0223,1.9316-9.6011,2.5922c-3.0126,0.7619-5.8886,1.8345-8.6684,3.2294
					c-2.2891,1.1462-7.9182-2.4491-10.3798-3.0636c-2.8267-0.6975-8.3184-0.767-10.2994-3.0025
					c-3.1674-3.5492-4.5364-6.9771-5.2322-11.547C75.3285,80.6206,75.352,80.6155,75.3704,80.6155
					C75.398,80.2965,75.352,80.6155,75.3704,80.6155"/>
				<path id="XMLID_2826_" d="M87.1782,86.636c4.3748-0.1247,8.8576,2.9246,12.4295,5.1007
					c0.4153,0.2453,0.6648,0.2085,1.0717-0.0368c4.1881-2.5453,8.902-5.4105,14.0035-5.027
					c0.8013,0.0603,1.4058,0.7443,1.5138,1.5389c0.0695,0.5216-0.0988,0.9746-0.53,1.2425
					c-4.4476,2.6843-10.4208,1.7466-15.0016,4.8144c-0.4228,0.2872-0.6095,0.3098-1.0181,0.005
					c-2.6232-1.9266-6.2905-2.7865-9.4203-3.4421c-0.3994-0.0837-9.6706-1.6545-5.3025-3.895
					C85.6485,86.6402,86.3978,86.5439,87.1782,86.636C88.7523,86.59,86.7553,86.636,87.1782,86.636"/>
				<path id="XMLID_2788_" d="M115.7831,70.8248c-0.0888-0.947,0.4295-1.7139,1.0491-2.3561
					c1.9592-2.0195,4.5992-2.0103,6.7008-0.5133c2.5236,1.8018,1.7968,5.5353-0.8055,6.9218
					c-1.5465,0.8172-3.0879,0.6054-4.5063-0.0837C116.6681,74.0266,115.83,72.645,115.7831,70.8248
					C115.6943,69.8778,115.83,72.645,115.7831,70.8248"/>
				<path id="XMLID_2787_" d="M79.3529,75.4082c-2.3494-0.2261-4.0525-2.0932-4.2299-4.4083
					c-0.0653-0.7619,0.1959-1.441,0.6631-2.0832c1.0114-1.3999,2.4624-1.9366,4.0926-2.0329
					c1.1119-0.0653,2.1141,0.3927,2.9899,1.0809c0.2939,0.2219,0.5442,0.5032,0.7962,0.7854
					c1.0022,1.1178,0.9838,2.3796,0.5049,3.71c-0.3391,0.9193-1.0073,1.5942-1.7876,2.1485
					C81.5114,75.2232,80.4606,75.2743,79.3529,75.4082C78.1781,75.2927,80.4606,75.2743,79.3529,75.4082"/>
				<path id="XMLID_2785_" d="M88.7297,78.5132c3.8381-0.1105,7.7767,2.578,10.9165,4.477
					c0.3592,0.2269,0.5836,0.1943,0.9361-0.0226c3.6857-2.2364,7.8202-4.7591,12.3055-4.4125
					c0.7025,0.0511,1.2325,0.6514,1.3254,1.3581c0.0703,0.4438-0.0862,0.8457-0.4689,1.0809
					c-3.9009,2.3569-9.149,1.5389-13.1671,4.2325c-0.3709,0.2495-0.5392,0.2679-0.8984,0.0092
					c-2.3017-1.7005-5.5261-2.4574-8.2757-3.0259c-0.3508-0.0745-8.4909-1.456-4.6578-3.4287
					C87.3808,78.5224,88.0431,78.4303,88.7297,78.5132C90.112,78.4764,88.3562,78.5132,88.7297,78.5132"/>
				<path id="XMLID_2784_" d="M68.6635,152.7443c-0.1708,0.1105-0.273,0.1758-0.3617,0.2353
					c-0.0745,0.0603-0.1591,0.1155-0.1917,0.1901c-0.0862,0.1524-0.0184,0.3416-0.2428,0.4848
					c-0.4463,0.3048-0.8992,0.2822-1.3715,0.1432c-0.1959-0.0645-0.3692-0.185-0.5534-0.2629
					c-0.2286-0.1021-0.4438-0.2127-0.7335-0.1616c-0.2219,0.041-0.4789-0.0695-0.7217-0.1114
					c-0.6891-0.1105-1.3782-0.2035-2.0698-0.3098c-0.2939-0.0368-0.5819-0.1013-0.8758-0.1474
					c-0.0561-0.0184-0.1189-0.0276-0.1825-0.0276c-0.5275,0.0461-1.065,0.0779-1.5858,0.1197
					c-0.4697,0.0461-0.9411,0.0879-1.4083,0.1616c-0.4111,0.0603-0.8155,0.1616-1.2216,0.2269
					c-0.1289,0.0226-0.2805-0.0368-0.4228-0.0511c-0.1449-0.0142-0.2947-0.0234-0.4396-0.0419
					c-0.0327-0.0092-0.0929,0.0184-0.1164-0.0092c-0.2663-0.2353-0.561-0.1155-0.8507-0.0594
					c-0.2847,0.0502-0.7377-0.2085-0.8758-0.4898c-0.0494-0.1155-0.103-0.2403-0.1867-0.319
					c-0.1959-0.18-0.3081-0.3701-0.2847-0.6656c0.0159-0.1616-0.1289-0.3324-0.1892-0.5082
					c-0.1591-0.4898-0.3324-0.9838-0.4722-1.4828c-0.0276-0.1298,0.0837-0.3048,0.1398-0.4622
					c0.0519-0.1206,0.1968-0.2637,0.1733-0.3651c-0.1683-0.5133,0.0603-0.9378,0.2612-1.3723
					c0.0636-0.1432,0.0285-0.3282,0.077-0.4806c0.0938-0.2629,0.2009-0.5267,0.3157-0.7854
					c0.1382-0.3232,0.2989-0.6472,0.4463-0.9746c0.1281-0.2872,0.257-0.5685,0.3835-0.8549
					c0.0209-0.0511,0.0553-0.0971,0.0511-0.1432c-0.1197-1.0173,0.103-2.0522-0.2194-3.0728
					c-0.2663-0.8507-0.3785-1.7508-0.54-2.6291c-0.0586-0.2637-0.0628-0.5501-0.0862-0.818
					c-0.005-0.0829,0.0092-0.1616-0.0209-0.2127c-0.257-0.3374-0.0795-0.6648,0-0.9888c0.0888-0.355,0.3291-0.6003,0.6472-0.7854
					c0.1189-0.0553,0.1934-0.1658,0.2872-0.2587c0.6238-0.6556,2.0907-0.494,2.511,0.2587
					c0.3784,0.7025,0.5811,1.4184,0.4806,2.2322c-0.0812,0.5677-0.0678,1.1546-0.0913,1.7323
					c-0.0159,0.9193-0.0368,1.8295-0.0653,2.7396c0,0.0837-0.0092,0.1901-0.0578,0.2319c-0.2311,0.1934-0.1683,0.4061-0.1055,0.6321
					c0.026,0.0879,0.0352,0.185,0.026,0.2679c-0.0745,0.6104-0.1474,1.2291-0.252,1.8395
					c-0.0678,0.3651-0.2102,0.7293-0.2947,1.0901c-0.1172,0.5501-0.2152,1.1136-0.3366,1.6679
					c-0.0511,0.2361-0.1348,0.4714-0.2286,0.6975c-0.1708,0.4253-0.0494,0.6891,0.36,0.8825
					c0.9034,0.4211,1.8914,0.4714,2.8585,0.6104c0.2219,0.0276,0.4345,0.1013,0.6564,0.1432
					c0.3274,0.0511,0.6422,0.134,0.9671,0.134c0.6238,0,1.2291,0.0921,1.827,0.2679c0.3014,0.0921,0.633,0.0511,0.9411,0.139
					c0.6288,0.1658,1.2501,0.3784,1.883,0.5677c0.1917,0.0603,0.3927,0.1114,0.5928,0.1716
					C67.5474,151.9313,68.0448,152.3558,68.6635,152.7443"/>
				<path id="XMLID_2783_" d="M43.6675,137.7972c-0.1398,0.5132-0.3408,1.0767-0.4488,1.6494
					c-0.1633,0.8641-0.2663,1.7374-0.3902,2.6106c-0.0134,0.1155-0.0226,0.2353-0.0226,0.36
					c0.0134,0.4346,0.1114,0.5367,0.5576,0.5593c0.309,0.005,0.6171,0.0142,0.9252,0.0142c1.1261-0.0142,2.2171,0.1156,3.2796,0.494
					c0.3642,0.1197,0.7569,0.1574,1.2241,0.2453c-0.0469,0.1934-0.0327,0.3927-0.1289,0.5124
					c-0.2353,0.3098-0.4923,0.6146-0.9085,0.6975c-0.4647,0.0879-0.9344,0.1716-1.4016,0.2637
					c-1.3129,0.2545-2.6249,0.499-3.9963,0.7669c-0.0419,0.3692-0.1214,0.7067-0.1264,1.0441c0,0.7946,0.0427,1.59,0.0427,2.3888
					c0.0042,0.2311,0.0887,0.3743,0.2612,0.5174c0.4672,0.3835,1.0156,0.5359,1.5833,0.6422c1.3011,0.2269,2.614,0.458,3.9227,0.633
					c0.5417,0.0745,1.1044,0.0511,1.6511-0.0226c0.6146-0.0879,1.0299,0.2127,1.4225,0.5635
					c0.1164,0.1063,0.1264,0.4345,0.0561,0.6187c-0.103,0.2545-0.3039,0.4806-0.4957,0.6933
					c-0.2378,0.273-0.4973,0.5409-0.7678,0.7904c-0.1641,0.1382-0.3651,0.2914-0.561,0.3282
					c-1.3053,0.2403-2.5998,0.5082-3.9403,0.3743c-1.1848-0.1206-2.3737-0.2311-3.5601-0.3701
					c-0.8783-0.0971-1.4694-0.6933-2.0622-1.2568c-0.1641-0.1708-0.2855-0.3651-0.4672-0.494
					c-0.6003-0.4488-0.7829-1.0633-0.8339-1.77c-0.0561-0.7896-0.0963-1.58-0.1683-2.3796c-0.1055-1.127,0.0184-2.2364,0.103-3.3542
					c0.0578-0.7067,0.1072-1.4234,0.1557-2.13c0.0352-0.5451,0.0728-1.1002,0.1105-1.6494
					c0.1114-1.5021,0.2194-3.0033,0.3358-4.5054c0.0611-0.767,0.2529-1.4694,0.736-2.1024
					c0.3274-0.4295,0.8666-0.7619,1.5071-0.5543c0.3642,0.1248,0.7519,0.2269,1.0809,0.4253c0.252,0.1432,0.432,0.0327,0.633-0.0234
					c0.715-0.18,1.4318-0.0042,2.1418-0.041c1.1965-0.0745,2.3921-0.0511,3.5861,0.1105c0.3969,0.0645,0.7661,0.1616,1.0717,0.4387
					c0.4111,0.3609,0.5308,0.9428,0.206,1.3631c-0.2805,0.3651-0.6213,0.6564-1.096,0.7485
					c-0.8524,0.1708-1.693,0.4069-2.5453,0.5359C45.4869,137.6724,44.6179,137.7,43.6675,137.7972"/>
				<path id="XMLID_2775_" d="M108.352,138.1992c-0.1516,0.5225-0.3366,1.0809-0.4488,1.6545
					c-0.1633,0.8641-0.2637,1.7415-0.3918,2.6056c-0.0234,0.1248-0.0327,0.2403-0.0285,0.3692
					c0.0193,0.4253,0.1122,0.5317,0.556,0.5501c0.3182,0.0234,0.6196,0.0276,0.9369,0.0234
					c1.1236-0.0234,2.2146,0.1105,3.2796,0.494c0.3617,0.1206,0.7502,0.1524,1.2166,0.2403
					c-0.0419,0.1942-0.0368,0.3927-0.1256,0.5225c-0.2386,0.3048-0.4906,0.6095-0.911,0.6924
					c-0.4655,0.0879-0.9319,0.1716-1.3991,0.2596c-1.3129,0.2537-2.619,0.5074-4.0014,0.767
					c-0.0444,0.3642-0.1189,0.7159-0.1189,1.0441c0,0.7946,0.0368,1.5892,0.0461,2.393c0,0.2269,0.0728,0.3743,0.2545,0.5132
					c0.4672,0.3835,1.019,0.5493,1.5866,0.6464c1.3053,0.2219,2.6014,0.453,3.9168,0.6288
					c0.5375,0.0737,1.1119,0.0553,1.6561-0.0235c0.6054-0.0829,1.0206,0.2127,1.4133,0.5735
					c0.1164,0.0963,0.1281,0.4295,0.0586,0.6095c-0.103,0.2637-0.2972,0.4756-0.4881,0.6974
					c-0.2386,0.2729-0.5007,0.5409-0.7711,0.7854c-0.1658,0.139-0.3617,0.2964-0.5677,0.3332
					c-1.2961,0.2353-2.5973,0.499-3.9285,0.3743c-1.1915-0.1206-2.3804-0.2269-3.5643-0.3743
					c-0.8766-0.0971-1.4694-0.6841-2.0656-1.2618c-0.1591-0.1566-0.2847-0.36-0.4622-0.4898
					c-0.6079-0.4438-0.7946-1.0675-0.8339-1.76c-0.0611-0.7996-0.1072-1.5942-0.1775-2.3846
					c-0.103-1.1228,0.0209-2.2406,0.1122-3.3592c0.0511-0.7067,0.1005-1.4184,0.149-2.125
					c0.0419-0.5501,0.0753-1.1044,0.1122-1.6586c0.1122-1.5021,0.2219-2.9991,0.3299-4.5054
					c0.0603-0.7619,0.2562-1.4694,0.7427-2.0974c0.329-0.4253,0.8708-0.7628,1.5038-0.5543
					c0.3692,0.1197,0.7569,0.2261,1.0818,0.4203c0.2545,0.1524,0.4412,0.0368,0.6397-0.0142c0.7108-0.18,1.4225-0.0042,2.1426-0.046
					c1.1931-0.0603,2.3913-0.0502,3.5735,0.1247c0.4019,0.0461,0.7661,0.1482,1.0793,0.4203
					c0.4086,0.3701,0.5258,0.9478,0.2035,1.3681c-0.2713,0.3651-0.6196,0.6556-1.091,0.7485
					c-0.8574,0.175-1.6863,0.4061-2.5462,0.5401C110.1647,138.0794,109.3031,138.1163,108.352,138.1992"/>
				<path id="XMLID_2774_" d="M148.1295,150.0044c-0.2545,0.2956-0.4178,0.494-0.5953,0.6841
					c-0.2152,0.2219-0.4346,0.36-0.7711,0.4153c-0.432,0.0695-0.8197,0.3374-1.2283,0.5132
					c-0.2453,0.1063-0.4906,0.1892-0.7334,0.3006c-0.3575,0.1616-0.7594,0.2353-0.9512,0.674
					c-0.1072,0.2361-0.4203,0.3651-0.6933,0.5827c-0.206-0.1021-0.4814-0.1666-0.6682-0.3332
					c-0.4304-0.3784-0.9746-0.4572-1.451-0.3692c-0.6096,0.1063-1.0952-0.1022-1.5925-0.314
					c-1.3413-0.5961-2.3687-1.6084-3.3826-2.6291c-0.1825-0.185-0.2805-0.453-0.4069-0.6841
					c-0.4781-0.9336-0.8942-1.8713-1.2023-2.8836c-0.2428-0.7577-0.3717-1.4971-0.3902-2.2732
					c-0.0184-0.5819-0.0285-1.173,0.1959-1.7415c0.098-0.2587,0.026-0.5727,0.0938-0.8498
					c0.1817-0.7485,0.4036-1.4602,0.7686-2.1627c0.3357-0.6514,0.787-1.1136,1.3145-1.5523
					c0.1449-0.1248,0.2663-0.3332,0.2897-0.5082c0.0302-0.2864,0.1867-0.4346,0.4136-0.5643c0.556-0.309,0.983-0.7896,1.6051-1.0257
					c0.2194-0.0779,0.4412-0.2537,0.5668-0.4429c0.2177-0.3232,0.5024-0.4898,0.8557-0.5367
					c0.7167-0.1013,1.3145-0.5258,2.0011-0.7293c0.6196-0.1901,1.2199-0.2872,1.8738-0.1432
					c0.4998,0.1055,1.0064,0.129,1.5322,0.1934c0.3734,0.9704,0.1633,1.8948-0.2102,2.8417
					c-0.813,0.0327-1.4854,0.453-2.2121,0.7209c-0.2662,0.1013-0.561,0.1574-0.8456,0.1616
					c-0.6891,0.0142-1.2961,0.2127-1.8336,0.6472c-0.5208,0.4295-1.1002,0.7988-1.5557,1.2886
					c-0.4111,0.4304-0.8925,0.8641-0.9369,1.5297c-0.0042,0.0787-0.0628,0.1482-0.098,0.2169
					c-0.3265,0.5869-0.4346,1.2199-0.4999,1.8805c-0.0703,0.7117-0.1147,1.4091-0.0561,2.1259
					c0.0745,1.0575,0.5417,1.9216,1.1211,2.7488c0.432,0.6104,0.9135,1.1923,1.528,1.6494c0.0469,0.0368,0.0745,0.1022,0.098,0.1574
					c0.257,0.5409,0.257,0.5409,0.8222,0.5174c0.525-0.0419,1.0064,0.134,1.4904,0.2914c1.0349,0.314,2.0932,0.3182,3.1557,0.0779
					c0.715-0.1658,1.4225-0.3458,2.1376-0.5032C147.7862,149.9533,147.9051,149.986,148.1295,150.0044"/>
				<path id="XMLID_2764_" d="M122.9609,142.9909c0.0184,0.0318,0.0276,0.0502,0.0444,0.0686
					c0.201-0.0318,0.432-0.0318,0.607-0.1197c0.7243-0.36,1.446-0.7209,2.1401-1.1186c0.2989-0.1658,0.6305-0.3182,0.7469-0.7343
					c0.0938-0.3232,0.3081-0.6556,0.5702-0.8591c0.4279-0.3425,0.633-0.7812,0.6045-1.266
					c-0.0327-0.5827-0.098-1.2015-0.5693-1.6494c-0.2855-0.2729-0.5677-0.5827-0.911-0.7586
					c-0.7125-0.3642-1.5096-0.4295-2.3008-0.4429c-0.1306,0-0.3416,0.0787-0.3626,0.1616
					c-0.1725,0.5777-0.7142,0.9838-0.7242,1.6218c-0.3918,0.36-0.4664,0.8683-0.633,1.3263
					c-0.072,0.2118-0.1583,0.4245-0.1725,0.6372c-0.0234,0.4069,0.0251,0.818-0.3316,1.1228
					c-0.0377,0.0276-0.0285,0.1105-0.0327,0.1758c-0.0234,0.134-0.0234,0.2771-0.0703,0.4111
					c-0.1633,0.4572-0.1264,0.8733,0.2621,1.2149c0.0904,0.0787,0.1817,0.1666,0.2663,0.2545
					C122.3489,143.3049,122.7407,143.2815,122.9609,142.9909 M118.0553,141.1933c0.0444-0.6882,0.0795-1.3212,0.1474-1.9408
					c0.0486-0.4387,0.1331-0.8683,0.2353-1.2844c0.0636-0.2721,0.1917-0.5359,0.103-0.8314c-0.0394-0.1063,0-0.2587,0.0536-0.3559
					c0.2713-0.3885,0.031-0.7443-0.0486-1.1186c-0.0678-0.2905-0.2504-0.5493-0.0678-0.9193
					c0.2102-0.3877,0.2152-0.8641,0.3224-1.3254c0.1867,0.0645,0.4044,0.1474,0.4111-0.185c0-0.0234,0.1072-0.0553,0.1658-0.0553
					c0.2244,0,0.4463,0.0134,0.6732,0.0134c0.0787,0,0.1633-0.0134,0.2311-0.0461c0.2353-0.1206,0.5459-0.0368,0.6673,0.1892
					c0.0754,0.1298,0.1381,0.3466,0.2437,0.3743c0.2755,0.0603,0.5794,0.0419,0.8733,0.0603c0.077,0,0.206-0.0327,0.2361,0.0042
					c0.2621,0.2964,0.5978,0.3374,0.9528,0.3701c0.1733,0.0276,0.3341,0.1013,0.5024,0.1197
					c0.1264,0.0276,0.257-0.0092,0.3826-0.0042c0.4069,0.0042,0.8013,0.0276,1.2082,0.0511
					c0.1917,0.0134,0.3784,0.0871,0.5602,0.1105c0.1432,0.0234,0.2855,0.0234,0.4278,0.0553
					c0.1633,0.0184,0.3366,0.0511,0.5601,0.0929c0.0988,0.0276,0.2453,0.0594,0.3952,0.1063
					c0.1825,0.0318,0.3734,0.0871,0.556,0.1147c0.6749,0.1063,1.2266,0.4212,1.6704,0.952
					c0.2102,0.2453,0.4597,0.4806,0.6656,0.7351c0.1306,0.1566,0.2336,0.3416,0.3224,0.5216
					c0.2897,0.5827,0.6095,1.1412,0.6723,1.8018c0.0067,0.1482-0.0159,0.2914-0.0259,0.4396
					c-0.0226,0.2863-0.0536,0.5677-0.093,0.8498c-0.0142,0.134-0.0377,0.2729-0.103,0.3885
					c-0.3391,0.628-0.6095,1.3162-1.0575,1.8805c-0.381,0.4706-0.7971,0.9654-1.3807,1.266
					c-0.3433,0.175-0.633,0.4613-0.9511,0.6975c-0.0695,0.0553-0.1591,0.0787-0.2428,0.1155
					c-0.2713,0.1432-0.5392,0.2721-0.8105,0.4161c-0.0938,0.0318-0.206,0.0871-0.2897,0.0645
					c-0.2269-0.0461-0.453-0.1298-0.6682-0.2127c-0.0745-0.0184-0.1239-0.1155-0.1934-0.134
					c-0.1172-0.0419-0.2671-0.0971-0.3743-0.0645c-0.17,0.0829-0.1449,0.2403-0.0327,0.3651
					c0.2311,0.2219,0.4488,0.4572,0.7125,0.628c0.7519,0.5132,1.5255,0.9796,2.2866,1.4879
					c0.3877,0.2587,0.7636,0.5451,1.1094,0.8691c0.566,0.5216,1.1052,1.0759,1.6377,1.631c0.3969,0.4153,0.7502,0.854,1.1287,1.2794
					c0.0745,0.0787,0.1842,0.1298,0.247,0.2127c0.1474,0.1942,0.2972,0.36,0.2972,0.6372c0,0.2177,0.1674,0.4304,0.2637,0.6338
					c0.0394,0.0779,0.077,0.1524,0.0628,0.2905c-0.257-0.1382-0.5208-0.2813-0.8708-0.4664
					c0.0695,0.4438,0.1231,0.7946,0.1842,1.2291c-0.2453-0.1114-0.4697-0.1616-0.633-0.2956
					c-0.5183-0.4212-1.0073-0.8733-1.5163-1.3036c-0.4856-0.3927-1.0533-0.7108-1.4552-1.173
					c-0.4086-0.4714-1.0064-0.6053-1.4502-0.998c-0.3625-0.3282-0.8532-0.499-1.276-0.7577
					c-0.2704-0.1708-0.5091-0.3793-0.7728-0.5459c-0.1708-0.1105-0.36-0.18-0.556-0.2487
					c-0.4253-0.1532-0.8549-0.2822-1.2777-0.4304c-0.0929-0.0276-0.1775-0.1105-0.2663-0.1524
					c-0.0603-0.0368-0.1398-0.0829-0.1867-0.0645c-0.3969,0.1616-0.7753,0.0368-1.1521-0.0419
					c-0.4245-0.0971-0.7912,0.0879-1.1136,0.2956c-0.1591,0.0971-0.2244,0.3609-0.3081,0.5643
					c-0.1775,0.4245-0.3483,0.8457-0.2805,1.3304c0.0184,0.185-0.0846,0.4019-0.1331,0.5911
					c-0.0092,0.0603-0.0586,0.1298-0.0536,0.1758c0.1072,0.5819-0.108,1.1278-0.211,1.6821
					c-0.0536,0.3048-0.2076,0.6003-0.3567,0.8775c-0.0561,0.1105-0.2102,0.1942-0.3458,0.2311
					c-0.3877,0.1114-0.3952,0.4346-0.458,0.7444c-0.0209,0.1197-0.0888,0.2353-0.1423,0.3743
					c-0.1356-0.4304-0.2386-0.7996-0.3642-1.1554c-0.0142-0.0553-0.1264-0.1289-0.1448-0.1155
					c-0.4605,0.314-0.4982-0.2169-0.5375-0.3508c-0.098-0.458-0.2269-0.9202-0.0846-1.4234
					c0.0846-0.2956,0.1289-0.633,0.0444-0.9888c-0.0653-0.2914,0.0586-0.6238,0.0795-0.947c0.0193-0.3651,0-0.7351,0.01-1.1044
					c0-0.139,0.0184-0.2822,0.0343-0.4161c0.0101-0.1289,0.0377-0.2587,0.0494-0.3835c0.005-0.2537-0.026-0.5082,0.005-0.7527
					c0.0486-0.3793,0.1423-0.7577,0.2001-1.1462c0.0402-0.3466,0.0402-0.7025,0.103-1.0533
					c0.0402-0.2771,0.1382-0.5451,0.1942-0.8272c0.0184-0.1289,0.0092-0.2771-0.0377-0.4061
					c-0.1306-0.319-0.0795-0.5735,0.1264-0.8457c0.098-0.134,0.1356-0.3701,0.0929-0.5317
					C117.7472,141.4152,117.8401,141.2628,118.0553,141.1933"/>
				<path id="XMLID_2761_" d="M152.6121,149.2791c0.3249,0.0921,0.5953,0.1574,0.8758,0.2311
					c0.3224,0.0921,0.6422,0.2311,0.9696,0.2721c0.4597,0.0511,0.9227,0.0419,1.3807,0.0377
					c0.2194-0.005,0.4412-0.0142,0.6464-0.0929c0.4814-0.1566,0.9394-0.3558,1.4184-0.5308
					c0.1072-0.0327,0.2336-0.0561,0.3525-0.0469c0.2169,0.0184,0.5911-0.2219,0.6564-0.4337
					c0.0745-0.2453,0.1289-0.5359,0.2872-0.7117c0.3692-0.3793,0.4622-0.8783,0.659-1.3262
					c0.1356-0.3006,0.3684-0.6238,0.2261-1.0114c-0.0159-0.0469,0.0142-0.1206,0.0494-0.1716
					c0.1474-0.1842,0.329-0.3692,0.0469-0.5861c-0.0235-0.0193,0.0067-0.1021,0.0159-0.144c0.0301-0.1248,0.1197-0.2587,0.0754-0.36
					c-0.1331-0.3927-0.1775-0.7812-0.1331-1.1965c0.0327-0.3374-0.0988-0.679-0.0938-1.0257
					c0.0092-0.4898,0.0745-1.0123-0.3039-1.3815c-0.3223-0.319-0.257-0.8364-0.6606-1.086c-0.01-0.005-0.005-0.0419-0.01-0.0645
					c-0.1423-0.3332-0.2353-0.6974-0.4203-0.998c-0.2755-0.4345-0.602-0.8415-0.9453-1.2249
					c-0.2478-0.2679-0.5978-0.4295-0.8415-0.6975c-0.2009-0.2311-0.3291-0.4664-0.6891-0.2679
					c-0.0511,0.0276-0.1541-0.0327-0.2428-0.0461c-0.0929-0.0184-0.2101-0.0653-0.2922-0.0327
					c-0.427,0.1666-0.8641,0.3374-1.2727,0.5359c-0.2637,0.1206-0.5141,0.2956-0.7569,0.453
					c-0.1449,0.0921-0.2847,0.2035-0.4111,0.3232c-0.1423,0.139-0.257,0.3006-0.3852,0.458
					c-0.2897,0.3324-0.6263,0.628-0.8549,1.0022c-0.1524,0.2495-0.2646,0.5174-0.5308,0.6749
					c-0.0536,0.0276-0.0979,0.1105-0.1021,0.175c0.0134,0.8833-0.5258,1.5942-0.7335,2.4122
					c-0.1566,0.6422-0.3927,1.312-0.3625,1.9726c0.0327,0.7444,0.3132,1.4786,0.4814,2.218
					c0.0184,0.0561,0.0536,0.1155,0.0888,0.1666c0.1842,0.3374,0.3341,0.7025,0.5702,1.0072
					c0.2679,0.3374,0.432,0.7762,0.8783,0.9796C152.4673,148.8629,152.6917,149.0112,152.6121,149.2791 M156.6436,152.8091
					c-0.2169,0.1206-0.432,0.2219-0.6188,0.3416c-0.2219,0.1524-0.4094,0.2127-0.5024-0.0645
					c-0.3039,0.005-0.5978,0.0276-0.8783,0.0092c-0.3734-0.0226-0.4488-0.0511-0.5275-0.1524
					c-0.1968,0.0184-0.4002,0.0461-0.6012,0.0787c-0.0134-0.0234-0.0184-0.0645-0.0327-0.0829
					c0.3274-0.3282,0.8549-0.3098,1.2082-0.592c-0.1306-0.2905-0.2989-0.3416-0.5794-0.1666
					c-0.1189,0.0795-0.3391,0.0469-0.4974,0.005c-0.2596-0.0737-0.5216-0.1758-0.7544-0.3098
					c-0.1783-0.1013-0.2972-0.2905-0.4488-0.4429c-0.1122,0.0645-0.2478,0.1382-0.4186,0.2303
					c0.005-0.4061-0.2261-0.4019-0.4898-0.3274c-0.005-0.0235-0.005-0.0603-0.01-0.0837c0.0728-0.0318,0.1499-0.0829,0.2244-0.0829
					c0.2361-0.0184,0.4747,0.005,0.7083-0.0134c0.0887,0,0.1725-0.0603,0.2562-0.0787c0.0678-0.0234,0.1474-0.0561,0.2152-0.0419
					c0.5769,0.1616,1.1303,0.3651,1.7474,0.1432c0.1683-0.0553,0.35-0.0327,0.5141-0.1616
					c0.1633-0.1206,0.3198-0.0695,0.3383,0.1013c0.0887-0.1013,0.206-0.2219,0.3106-0.3508c0.031-0.0419,0.077-0.1114,0.0678-0.1524
					c-0.0092-0.0235-0.0938-0.0645-0.1398-0.0645c-0.1984,0.0226-0.4044,0.1013-0.6003,0.0779
					c-0.3039-0.0318-0.5911-0.134-0.8858-0.2077c-0.0745-0.0142-0.1775-0.0368-0.2428-0.0092
					c-0.2143,0.0921-0.4153,0.1942-0.6774,0.1197c-0.175-0.0368-0.3876-0.0368-0.5392,0.0234
					c-0.1566,0.0645-0.252,0.2495-0.3835,0.4806c-0.2051-0.0921-0.427-0.1616-0.6003-0.3006
					c-0.3433-0.2771-0.7703-0.494-0.8942-0.9704c-0.0209-0.0779-0.2219-0.0829-0.2897-0.1616
					c-0.3927-0.4622-0.7661-0.9428-1.1446-1.4091c-0.0209-0.0226-0.0402-0.0511-0.0611-0.0787
					c-0.2989-0.628-0.6748-1.2333-0.88-1.8898c-0.1591-0.5216-0.4438-1.0441-0.2989-1.6352
					c0.0368-0.1574-0.0377-0.3425-0.082-0.5082c-0.1423-0.504-0.1775-1.0215-0.005-1.4929c0.1172-0.3282,0-0.5961,0-0.8867
					c-0.0117-0.633,0.1959-1.1831,0.638-1.636c0.0302-0.0318,0.0888-0.1063,0.0745-0.129c-0.247-0.3793,0.3483-0.6422,0.1474-1.0164
					c-0.0142-0.0235,0.0352-0.0837,0.0628-0.1248c0.1423-0.1943,0.2922-0.3793,0.432-0.5735c0.3508-0.494,0.664-1.0257,1.0583-1.492
					c0.257-0.2863,0.6497-0.453,0.9629-0.6882c0.0929-0.0787,0.1281-0.2269,0.1909-0.3374c0.0117-0.0368,0.005-0.0971,0.026-0.1206
					c0.2495-0.2813,0.4948-0.5677,0.7477-0.8448c0.0419-0.0419,0.1072-0.0745,0.1608-0.0879
					c0.4672-0.0837,0.6447-0.458,0.8976-0.7904c0.1398-0.18,0.2704-0.3466,0.35-0.5727c0.021-0.0787,0.1683-0.1248,0.2612-0.185
					c0.4697-0.3048,0.9696-0.2035,1.446-0.0603c0.2972,0.0879,0.5635,0.273,0.8389,0.4111
					c0.0302,0.0142,0.0703,0.0787,0.0888,0.0745c0.4739-0.1708,0.7025,0.4203,1.1563,0.3692
					c0.0628-0.0042,0.1516,0.185,0.2361,0.2863c0.1214,0.1616,0.2495,0.3332,0.3918,0.4856c0.453,0.453,0.9093,0.8959,1.3757,1.3396
					c0.0703,0.0695,0.1122,0.1758,0.1968,0.2269c0.6539,0.4429,1.0298,1.1035,1.3572,1.7834
					c0.324,0.6832,0.6447,1.3631,0.9645,2.0463c0.0142,0.0368,0.0368,0.0553,0.0469,0.0837
					c0.1449,0.5635,0.3056,1.127,0.4245,1.7047c0.0728,0.3743,0.134,0.7577,0.1264,1.1362
					c-0.0235,0.7536,0.0745,1.5155-0.1474,2.2548c-0.0276,0.1155,0.0209,0.2453,0.0075,0.3651
					c-0.0611,0.4714,0.0628,0.9662-0.1641,1.4234c-0.0276,0.0511-0.0486,0.1105-0.0276,0.1482
					c0.3433,0.6422-0.098,1.132-0.2964,1.6679c-0.082,0.2035-0.1876,0.3282-0.4413,0.3374c-0.134,0.0042-0.2922,0.1616-0.391,0.2813
					c-0.247,0.2863-0.4622,0.5961-0.6958,0.8825c-0.0653,0.0695-0.1775,0.0971-0.2612,0.1482
					c-0.0678,0.041-0.1867,0.0921-0.2085,0.1524c-0.1398,0.4806-0.4906,0.6656-0.9453,0.7301
					c-0.3207,0.0511-0.5233,0.2076-0.6313,0.5308c-0.0653,0.2219-0.149,0.4211-0.5091,0.3927
					c-0.4605-0.0368-0.9411,0.0511-1.4058,0.1348C156.4452,152.4809,156.5733,152.6609,156.6436,152.8091"/>
				<path id="XMLID_2696_" d="M93.6456,154.3984c0-0.0787,0.0209-0.1708-0.0184-0.2261c-0.0452-0.0837-0.1172-0.1524-0.206-0.185
					c-0.0352-0.0226-0.1147,0.0553-0.1775,0.1063c-0.103,0.0787-0.2152,0.1524-0.3131,0.2311
					c-0.0929,0.0829-0.1817,0.18-0.2562,0.2813c-0.0661,0.0837-0.1105,0.185-0.1691,0.278c-0.0276,0-0.0486-0.005-0.0745-0.005
					c-0.0678-0.3232-0.1072-0.6564-0.175-0.9746c-0.098-0.4396-0.2169-0.8641-0.329-1.3078
					c-0.0494-0.1942-0.1147-0.3885-0.1289-0.5911c-0.0653-0.7443-0.1817-1.4837-0.2755-2.2322
					c-0.0888-0.8038-0.1164-1.6034-0.1708-2.4114c-0.0486-0.6196,0.103-1.2475,0.1968-1.8713
					c0.0117-0.1155,0.2026-0.2035,0.3198-0.3056c0-0.0184,0.0092-0.0461-0.005-0.0502c-0.3642-0.2495-0.2847-0.5543-0.1817-0.9152
					c0.1072-0.3743,0.0628-0.7946,0.201-1.1647c0.1566-0.4153-0.1172-0.8406,0.1398-1.2609
					c0.1005-0.1616-0.0276-0.4664-0.0511-0.7067c-0.005-0.0377-0.0235-0.0695-0.005-0.0929
					c0.1516-0.3048,0.1733-0.6464,0.1733-0.9888c-0.0025-0.0971,0.1398-0.2127,0.2545-0.3651
					c-0.0209-0.2587-0.0795-0.5819-0.0754-0.9101c0-0.1566,0.1499-0.314,0.1499-0.4714c0-0.5082-0.0117-1.0207-0.0561-1.5289
					c-0.0092-0.0645-0.206-0.1758-0.2989-0.1616c-0.6497,0.0276-1.3078,0.0971-1.9626,0.1382
					c-0.1423,0.005-0.2897-0.0645-0.427-0.0921c-0.0444-0.0184-0.098-0.0461-0.1381-0.0419
					c-0.8549,0.1298-1.7148,0.2361-2.5763,0.0511c-0.3366-0.0695-0.633-0.1708-0.9269-0.3885
					c-0.2663-0.1984-0.6497-0.2771-0.9838-0.4019c-0.3785-0.134-0.7611-0.2629-1.1395-0.3927
					c-0.1733-0.0603-0.3533-0.1155-0.5308-0.1666c-0.1633-0.0594-0.2755-0.1382-0.2428-0.3324
					c0.0377-0.1984,0.0795-0.3466,0.3316-0.3651c0.1314-0.0226,0.2688-0.1197,0.3784-0.1984
					c0.0234-0.0184-0.0251-0.1524-0.0653-0.2169c-0.0184-0.0419-0.0913-0.0469-0.1256-0.0745
					c-0.0561-0.0368-0.1055-0.0829-0.1591-0.134c0.4488-0.3374,1.7842-0.3098,2.1024,0.0461
					c0.2244-0.2956,0.4597-0.2863,0.8431-0.2311c0.4999,0.0653,1.0466-0.1147,1.5674-0.2118
					c0.3224-0.0511,0.6003-0.2822,0.9553-0.1616c0.0653,0.0276,0.149-0.0511,0.2286-0.0745
					c0.0561-0.0184,0.1331-0.0695,0.1733-0.0461c0.3341,0.2127,0.6564,0.139,0.9671-0.0419
					c0.0536-0.0368,0.1465-0.0226,0.1984,0.005c0.1817,0.1013,0.35,0.2956,0.5325,0.319c0.2169,0.0184,0.4974-0.0368,0.6841-0.1616
					c0.2529-0.1532,0.5652-0.2311,0.8574-0.1256c0.1356,0.0419,0.2897,0.0419,0.4346,0.0234
					c0.2713-0.0419,0.5417-0.1063,0.813-0.1574c0.0301-0.0042,0.077-0.0092,0.0862,0.005c0.2386,0.3977,0.5417,0.0368,0.8088,0.0695
					c0.3031,0.0368,0.5953,0.0971,0.8942,0.0829c0.7963-0.0368,1.595-0.1155,2.3963-0.1382c0.1775-0.01,0.36,0.134,0.5518,0.18
					c0.1331,0.0184,0.2897,0,0.4228-0.0142c0.1114-0.0092,0.2093-0.041,0.3148-0.0553v0.3374c0.278-0.005,0.5467,0,0.8247-0.0235
					c0.2361-0.0134,0.4739-0.0645,0.5442,0.273c0.0025,0.0461,0.1005,0.0921,0.1633,0.1105c0.6849,0.18,1.2149,0.6238,1.8035,0.9704
					c0.026,0.0092,0.0327,0.0553,0.0419,0.0921c-0.0511,0.0327-0.0938,0.0469-0.1356,0.0603
					c-0.3223,0.1156-0.3433,0.2035-0.1541,0.4622c0.1407,0.1942,0.1407,0.5727-0.0209,0.7251
					c-0.0536,0.0561-0.1683,0.0653-0.257,0.0561c-0.3919-0.0368-0.7427,0.0184-1.0767,0.2679
					c-0.1658,0.1247-0.4555,0.1063-0.6824,0.0879c-0.2612-0.0142-0.4714,0-0.6908,0.1708c-0.2922,0.2169-1.1772,0.134-1.5188-0.0971
					c-0.0888-0.0553-0.2143-0.0787-0.3265-0.1063c-0.1541-0.0368-0.3039-0.0787-0.4555-0.1155
					c-0.0301-0.005-0.0536-0.0327-0.0795-0.0327c-0.4111,0.0092-0.8314,0.005-1.2333,0.0419
					c-0.0938,0.005-0.1867,0.1574-0.2504,0.2587c-0.0837,0.1155-0.1021,0.2679-0.2001,0.3701
					c-0.4672,0.5267-0.4161,1.2057-0.5049,1.8336c-0.077,0.5551,0.0117,1.132-0.0142,1.7005
					c-0.0142,0.6012-0.0887,1.1965-0.103,1.8018c-0.0276,1.1555-0.0326,2.3243-0.0444,3.489c0,0.0829,0.0117,0.1842-0.0251,0.2353
					c-0.278,0.4019-0.2244,0.8641-0.2637,1.2986c-0.0754,0.9286-0.206,1.8387-0.2989,2.763
					c-0.0938,0.8365-0.1499,1.6771-0.2478,2.5269c-0.0092,0.1482-0.0846,0.3006-0.1407,0.4396
					c-0.0159,0.0594-0.0795,0.1013-0.0888,0.1616c-0.0251,0.2537-0.0352,0.5032-0.0837,0.7485
					c-0.0092,0.0921-0.103,0.1658-0.1516,0.2537C93.6808,154.4168,93.6573,154.4076,93.6456,154.3984"/>
			</g>
			<g id="XMLID_83_">
				<path id="XMLID_2688_" fill-rule="evenodd" clip-rule="evenodd" d="M73.4029,167.0025
					c0.4077-0.3312,0.8361-0.4936,1.3122-0.5753c0.2183-0.0425,0.4378-0.1563,0.6395-0.2712
					c0.3581-0.2111,0.7316-0.3829,1.1259-0.504c0.2545-0.0776,0.4926-0.0569,0.7431,0.0549
					c0.2079,0.0931,0.4543,0.1086,0.6685,0.1749c0.3622,0.117,0.714,0.2588,1.0732,0.383c0.0756,0.0237,0.1625,0.0237,0.2897,0.0393
					c0.2163,0.2793,0.4533,0.6053,0.6944,0.9189c0.3902,0.5031,0.476,1.1001,0.5474,1.7003
					c0.0508,0.4099,0.0601,0.8228,0.087,1.2325c0.0061,0.0994-0.0092,0.2019-0.0092,0.2981c0,0.3136-0.0302,0.6302,0.006,0.9344
					c0.0828,0.6365-0.0269,1.2449-0.1779,1.8483c-0.0384,0.1593-0.1035,0.3166-0.1563,0.4698
					c-0.0424,0.1118-0.1325,0.1273-0.2173,0.0755c-0.0704-0.0456-0.1168-0.1262-0.18-0.1904
					c-0.1148-0.1169-0.2194-0.2649-0.3591-0.3373c-0.4035-0.2163-0.597-0.5578-0.6602-0.9821
					c-0.0508-0.3167-0.0786-0.6395-0.1056-0.9594c-0.0538-0.6747-0.1025-1.3525-0.145-2.0314
					c-0.0207-0.3136-0.0869-0.6146-0.2183-0.9034c-0.1387-0.2991-0.208-0.6271-0.3829-0.9169
					c-0.1097-0.1843-0.2173-0.3311-0.4098-0.413c-0.592-0.2504-1.1954-0.3405-1.8225-0.1262
					c-0.1687,0.0569-0.3466,0.0806-0.5184,0.1293c-0.1035,0.0332-0.2091,0.0755-0.3073,0.1294
					c-0.1988,0.1118-0.3974,0.2349-0.5973,0.3591c-0.0869,0.0538-0.1718,0.1055-0.2494,0.1718
					c-0.1325,0.1086-0.1904,0.238-0.1118,0.4129c0.0425,0.0932,0.0662,0.1894,0.1025,0.2836
					c0.2049,0.5153,0.3136,1.0452,0.3012,1.5999c-0.0083,0.2349-0.0114,0.4708,0.0031,0.7027
					c0.0135,0.1987,0.03,0.4035,0.0932,0.5878c0.1707,0.4615,0.0188,0.8744-0.1501,1.2873c-0.0031,0.0113-0.0063,0.0269-0.0155,0.03
					c-0.3343,0.1811-0.208,0.4699-0.1802,0.7379c0.0332,0.3084-0.0817,0.4078-0.3848,0.3353
					c-0.1036-0.0269-0.2154-0.0517-0.3251-0.0486c-0.1872,0.0031-0.3218-0.0693-0.4015-0.238
					c-0.1004-0.2049-0.2587-0.3767-0.1831-0.651c0.0341-0.1262-0.0807-0.2928-0.1139-0.4418
					c-0.1024-0.4471-0.2224-0.8849-0.298-1.334c-0.0725-0.4492-0.1055-0.9046-0.1563-1.3557
					c-0.0589-0.4254-0.2235-0.8082-0.4884-1.1487c-0.1676-0.2267-0.3394-0.4315-0.596-0.5672
					c-0.2123-0.1117-0.4203-0.2018-0.6655-0.1687c-0.294,0.0425-0.5961,0.0756-0.8942,0.1325
					c-0.2225,0.0456-0.2804,0.1325-0.3105,0.3715c-0.1149,1.0338-0.1594,2.0646-0.1686,3.1057
					c-0.0062,0.6313-0.1046,1.2615-0.1522,1.8979c-0.0154,0.1926-0.0093,0.3974-0.0093,0.5961
					c-0.0031,0.091,0.0197,0.1811,0.0063,0.2691c-0.0165,0.2194-0.1066,0.2981-0.326,0.2742
					c-0.0725-0.0062-0.1553-0.0393-0.2297-0.0362c-0.4254,0.0238-0.6271-0.2411-0.7265-0.6002
					c-0.1086-0.3829-0.2111-0.772-0.2628-1.1694c-0.0901-0.7172-0.1366-1.4374-0.1987-2.1618
					c-0.0041-0.0932,0.0393-0.1956,0.0361-0.2981c-0.0185-0.5092-0.0185-1.0215-0.0723-1.5285
					c-0.085-0.7679-0.1927-1.5275-0.1812-2.2995c0.0072-0.2897-0.0373-0.5754,0.0413-0.8589
					c0.0332-0.1181,0.0766-0.2349,0.0911-0.3529c0.0228-0.1294,0.0548-0.2712,0.0196-0.386
					c-0.1417-0.4129,0.0104-0.7533,0.2577-1.0484c0.2018-0.2411,0.4977-0.2204,0.7709-0.1718
					c0.1522,0.0301,0.296,0.0963,0.4409,0.1626c0.5153,0.2348,0.7699,0.6964,0.742,1.338
					c-0.0062,0.1263-0.0301,0.2443-0.0352,0.3706c-0.0073,0.2535,0.0496,0.3104,0.3093,0.3197
					c0.1676,0.0031,0.3374,0.0093,0.5032-0.0061c0.7511-0.0662,1.4601,0.1334,2.1629,0.3497
					c0.3176,0.1025,0.5773,0.2836,0.7615,0.5702C73.1649,166.7169,73.2787,166.84,73.4029,167.0025"/>
				<path id="XMLID_2334_" fill-rule="evenodd" clip-rule="evenodd" d="M132.4733,172.7688
					c-0.089,0.0249-0.1646,0.0425-0.2536,0.0662c-0.06-0.0662-0.1294-0.1438-0.2245-0.2524
					c-0.1987,0.3436,0.0362,0.624,0.1046,0.9344c-0.2609-0.0549-0.3426-0.2328-0.4182-0.3767
					c-0.0932-0.1872-0.153-0.3859-0.2836-0.5577c-0.0797-0.1087-0.0993-0.2712-0.1262-0.413
					c-0.0961-0.5277-0.1625-1.0638-0.2256-1.6009c-0.0414-0.3374,0.0311-0.6571-0.0186-0.9852
					c-0.0124-0.0786-0.0456-0.1574-0.0693-0.2328c-0.0104-0.0301-0.0507-0.057-0.0507-0.0838
					c0.0082-0.2505,0.0279-0.5009,0.0445-0.7503c0.0092-0.1211,0.0466-0.2422,0.0299-0.3622
					c-0.0496-0.3343,0.026-0.6479,0.1471-0.948c0.1262-0.3146,0.1759-0.6406,0.2027-0.9718c0.0124-0.1242,0.03-0.2567,0.0911-0.3529
					c0.1262-0.2048,0.1355-0.4315,0.1386-0.6478c0.0011-0.4078,0.1201-0.7906,0.2288-1.1756
					c0.03-0.1149,0.0569-0.2328,0.0724-0.3529c0.0362-0.2473,0.0931-0.4977,0.1231-0.7451c0.0424-0.3281,0.0818-0.6686-0.1107-0.979
					c-0.0331-0.0486-0.0517-0.1118-0.0816-0.178c0.0485-0.0156,0.0816-0.03,0.1116-0.0269c0.2742,0.0393,0.295,0.0269,0.3633-0.2349
					c0.0341-0.1386,0.0693-0.2773,0.1066-0.416c0.2443,0.0114,0.2794,0.2163,0.3892,0.3674c0.0475-0.0155,0.093-0.03,0.1561-0.0548
					c0.0518,0.058,0.0994,0.1304,0.1635,0.1842c0.1025,0.0817,0.1263,0.1718,0.1107,0.296
					c-0.0176,0.1201-0.0083,0.2443-0.0176,0.3674c-0.0124,0.1842,0.0726,0.3042,0.2225,0.4067
					c0.4046,0.2742,0.6024,0.8558,0.4491,1.3329c-0.091,0.0144-0.1863,0.0269-0.3156,0.0393
					c-0.0414,0.2525-0.089,0.5123-0.1211,0.774c-0.0372,0.2536-0.0632,0.503-0.0817,0.7596c-0.0083,0.1626,0,0.3291-0.0041,0.4916
					c-0.0135,0.3974-0.026,0.7989-0.0466,1.1963c-0.0299,0.5754-0.0632,1.155-0.1118,1.7272
					c-0.0207,0.2536-0.0724,0.5009-0.1086,0.7533c-0.0176,0.1087-0.0538,0.2236-0.0393,0.3291
					c0.0486,0.2919-0.0632,0.5661-0.0838,0.8528c-0.0156,0.1594-0.0549,0.3342-0.2411,0.4098
					c-0.026,0.0124-0.0725,0.0517-0.0662,0.0632c0.0724,0.2204-0.1811,0.389-0.0829,0.6333
					c0.0538,0.1355-0.0217,0.3229-0.0383,0.4853C132.5012,172.6156,132.4847,172.6912,132.4733,172.7688"/>
				<path id="XMLID_1137_" fill-rule="evenodd" clip-rule="evenodd" d="M85.9073,167.2984
					c-0.0361,0.0694-0.0569,0.1501-0.1055,0.2019c-0.2918,0.3466-0.4223,0.7564-0.4885,1.19
					c-0.0599,0.3715-0.1499,0.7513-0.1427,1.1249c0.0103,0.5309-0.1407,1.067,0.0228,1.5948
					c0.1562,0.4936,0.325,0.9821,0.744,1.3205c0.3012,0.2432,0.6209,0.4667,0.9407,0.6892c0.1728,0.1211,0.357,0.2235,0.5247,0.3746
					c-0.1707-0.0311-0.3404-0.061-0.5152-0.091c-0.0094,0.0217-0.0125,0.0363-0.0188,0.058
					c0.1574,0.0662,0.3293,0.1138,0.4709,0.2048c0.3321,0.2132,0.6788,0.2163,1.0545,0.1718
					c0.2256-0.0269,0.4584,0.0238,0.6912,0.0363c0.1615,0.0031,0.3218,0,0.4905-0.0517c-0.356-0.0476-0.7088-0.0931-1.0638-0.1449
					c0-0.0114-0.0031-0.0269-0.0062-0.0414c0.3736-0.1303,0.7472-0.2867,1.1363-0.3746c0.3922-0.0901,0.714-0.3249,1.097-0.446
					c-0.1325,0.3105-0.3974,0.4408-0.7327,0.5702c0.0848,0.0476,0.1273,0.09,0.1779,0.1025c0.1956,0.0393,0.3933,0.06,0.59,0.0962
					c0.1923,0.0331,0.3641,0.1117,0.5825,0.0517c0.1418-0.0393,0.3321,0.0777,0.5247,0.1355
					c-0.0662,0.0901-0.1118,0.1439-0.1926,0.2525c0.176,0.0249,0.3085,0.0456,0.4668,0.0632
					c-0.1924,0.2059-0.3767,0.3922-0.5578,0.5764c-0.0093,0.0083-0.0176,0.0208-0.0299,0.0208
					c-0.1812,0.03-0.4203,0.0031-0.5279,0.1086c-0.149,0.1542-0.3011,0.1594-0.4739,0.178
					c-0.5081,0.0569-1.0225,0.0962-1.5244,0.1842c-0.7016,0.1231-1.3733,0.0414-2.0408-0.1749
					c-0.2224-0.0725-0.4543-0.1149-0.6643-0.2173c-0.9024-0.4223-1.5865-1.0856-2.1339-1.9114
					c-0.1749-0.2742-0.387-0.5185-0.4956-0.829c-0.0601-0.1624-0.1636-0.3186-0.1988-0.4884
					c-0.1573-0.6778-0.3363-1.3526-0.2825-2.049c0.0405-0.5071,0.1646-1.0069,0.2908-1.5047
					c0.1874-0.7472,0.476-1.4612,0.7813-2.1702c0.1325-0.3104,0.2888-0.5909,0.5185-0.8402
					c0.1159-0.1273,0.1863-0.3022,0.2525-0.4647c0.1055-0.2619,0.299-0.386,0.5433-0.2742
					c0.2287,0.1055,0.4181,0.0869,0.6374-0.0063c0.3385-0.1417,0.6944-0.238,1.0401-0.3705
					c0.5992-0.2266,1.1942-0.1987,1.7985-0.0092c0.3033,0.088,0.6106,0.2048,0.9459,0.1355
					c0.0445-0.0114,0.1107,0.0124,0.1563,0.0362c0.476,0.268,1.0007,0.4367,1.4231,0.7957
					c0.0599,0.0549,0.1261,0.0963,0.1778,0.1542c0.7607,0.8621,1.4107,1.7873,1.6517,2.9411
					c0.1119,0.5402,0.0962,1.0856,0.0104,1.6279c-0.0466,0.2804-0.1842,0.446-0.4977,0.4915
					c-0.328,0.0456-0.6385,0.1956-0.9676,0.2536c-0.3602,0.0662-0.7276,0.0776-1.0939,0.1138
					c-0.4832,0.0517-0.9355-0.1438-1.4105-0.1956c-0.4202-0.0455-0.8299-0.1479-1.2584-0.0361
					c-0.0994,0.0269-0.2235-0.0032-0.3228-0.0362c-0.3199-0.1025-0.6324-0.2287-0.9491-0.3342
					c-0.1666-0.0518-0.3436-0.0818-0.5153-0.1211c-0.0621-0.0145-0.1335-0.0145-0.1967-0.0476
					c-0.4336-0.208-0.6902-1.0308-0.4491-1.5131h0.6241c0.0031-0.0248,0.0092-0.0455,0.0124-0.0641
					c-0.1294-0.0632-0.2629-0.1231-0.415-0.1987c0.1303-0.1718,0.2793-0.2805,0.4656-0.3281
					c0.0725-0.0187,0.1552-0.03,0.2299-0.0155c0.2225,0.0569,0.4366,0.1325,0.6436,0.1935
					c0.2991-0.2411,0.6075-0.1573,0.8631-0.0124c0.4584,0.2587,0.9479,0.3466,1.4602,0.4274
					c0.6013,0.0973,1.184,0.3022,1.7738,0.4584c0.1573,0.0456,0.3104,0.0942,0.4904,0.148c0.0508-0.2173,0-0.3767-0.0817-0.5185
					c-0.3539-0.6209-0.7038-1.2377-1.2429-1.7303c-0.2473-0.2256-0.4915-0.446-0.7813-0.6147
					c-0.5877-0.3498-1.2491-0.3798-1.8958-0.4678c-0.0766-0.0052-0.1686-0.0031-0.2319,0.0321
					c-0.3922,0.2215-0.8558,0.3177-1.1723,0.6768c-0.0198,0.0176-0.0518,0.0331-0.1057,0.0693
					c0.0093-0.1263,0.0166-0.2287,0.0289-0.3622c-0.4057,0.1303-0.7047,0.3436-0.9334,0.6509
					c-0.1842,0.2391-0.3529,0.4885-0.5516,0.7689c-0.0436-0.1056-0.0756-0.1749-0.1098-0.2556
					c-0.5846,0.385-0.6541,1.0152-0.8008,1.603c0.1024-0.4884,0.5007-0.7741,0.7977-1.2263
					c0.0538,0.2194,0.0829,0.3549-0.0383,0.4905c-0.0362,0.0341-0.0859,0.0921-0.0714,0.1303
					c0.0714,0.3798-0.1646,0.684-0.2369,1.0276c-0.0797,0.383-0.1427,0.7441-0.0714,1.1363
					c0.0517,0.2597-0.0114,0.5309-0.0268,0.8228c0.0413-0.0083,0.0848-0.0176,0.151-0.0332
					c0.1449,0.3985,0.2877,0.7989,0.4584,1.2574c0.0413-0.1057,0.091-0.1656,0.0828-0.2112c-0.0497-0.238-0.1118-0.476-0.1707-0.714
					c-0.0197-0.0756-0.0632-0.1479-0.0632-0.2235c0.0031-0.5817-0.1718-1.1694-0.0362-1.7748
					c-0.0849,0.1355-0.1738,0.2763-0.2608,0.415c-0.0165-0.0052-0.0299-0.0115-0.0424-0.0115
					c0.0693-0.299,0.119-0.6033,0.2215-0.8889c0.1273-0.3416,0.3166-0.6572,0.446-0.9987c0.1387-0.355,0.4026-0.5785,0.712-0.7617
					L85.9073,167.2984z M83.9017,170.5118c-0.0185,0.0476-0.0321,0.0693-0.0289,0.0869c0.1117,0.4491,0.2183,0.9014,0.3497,1.3442
					c0.0528,0.1873,0.119,0.3954,0.3778,0.5216c-0.0838-0.1718-0.1728-0.2919-0.2049-0.4253
					c-0.0724-0.3074-0.149-0.623-0.1614-0.9428C84.2224,170.8336,84.1138,170.668,83.9017,170.5118 M85.304,172.6912
					c-0.057,0.2132,0.1242,0.2556,0.2143,0.355c0.092,0.0993,0.181,0.2328,0.3662,0.238
					C85.6868,173.0762,85.5036,172.893,85.304,172.6912 M90.0912,174.0562c0.3074,0.1149,0.5526,0.0993,0.7658,0H90.0912z
					 M92.3597,169.5379c-0.0228-0.0237-0.0486-0.0424-0.0777-0.0662c-0.0724,0.0962-0.147,0.1863-0.2215,0.2836
					c0.0166,0.0113,0.029,0.0238,0.0425,0.0363C92.1878,169.7036,92.2768,169.6248,92.3597,169.5379 M91.5681,174.2373
					c-0.1626-0.0962-0.1895-0.0031-0.2681,0.1386C91.4293,174.3129,91.5018,174.2735,91.5681,174.2373 M86.6348,173.8575
					c-0.0104,0.0113-0.0134,0.0269-0.0248,0.0445c0.0341,0.0279,0.0693,0.0517,0.0994,0.0786
					c0.0175-0.0207,0.0361-0.0445,0.0475-0.0662C86.7186,173.8968,86.6793,173.8751,86.6348,173.8575 M84.7192,171.7981
					c-0.0332-0.0269-0.058-0.0445-0.0797-0.063c-0.0104,0.0155-0.0362,0.0361-0.0332,0.0486
					c0.0104,0.0268,0.0332,0.0506,0.0466,0.0786C84.6726,171.8436,84.6892,171.8291,84.7192,171.7981"/>
				<path id="XMLID_136_" fill-rule="evenodd" clip-rule="evenodd" d="M103.9896,168.5642c0.0301-0.1025,0.058-0.1843,0.0848-0.2773
					c-0.0547-0.0063-0.0952-0.0238-0.1117-0.0125c-0.1976,0.1118-0.413,0.2112-0.5858,0.3561
					c-0.1903,0.1655-0.3963,0.2845-0.6322,0.359c-0.0477,0.0114-0.093,0.0477-0.1656,0.087
					c0.0601,0.0517,0.0994,0.0848,0.1418,0.1242c-0.0176,0.0237-0.03,0.0569-0.0508,0.0724
					c-0.2172,0.1355-0.4326,0.2619-0.6437,0.4067c-0.0548,0.0362-0.0641,0.1366-0.1086,0.1924
					c-0.2432,0.2836-0.5413,0.4792-0.8942,0.6003c-0.0693,0.0237-0.1366,0.0569-0.1894,0.1024
					c-0.2039,0.1563-0.3994,0.3198-0.5971,0.4823c-0.0734,0.0601-0.181,0.1025-0.1231,0.2556c0.3778-0.03,0.7637-0.06,1.1508-0.0869
					c0.2297-0.0145,0.4626-0.03,0.6975-0.03c0.2276,0,0.4471,0.0207,0.6768-0.0217c0.2774-0.0508,0.5701,0.0061,0.8507,0.0124
					c0.1365,0.0093,0.272-0.0031,0.3974,0.0248c0.1054,0.0269,0.2038,0.0932,0.3362,0.1563
					c0.1883-0.1118,0.4151-0.2287,0.6871-0.1231c0.2235,0.0869,0.4647,0.1531,0.6768,0.2649
					c0.2245,0.1169,0.3042,0.3529,0.3529,0.6333c-0.0911,0.03-0.1883,0.0683-0.2865,0.0962
					c-0.178,0.0477-0.3613,0.0901-0.5414,0.1356c-0.1199,0.03-0.2183,0.1749-0.3663,0.0806
					c-0.0176-0.0113-0.0507-0.0083-0.0661,0.0093c-0.178,0.1904-0.4398,0.0528-0.6293,0.148
					c-0.2236,0.1086-0.4471,0.1055-0.6799,0.1149c-0.0983,0-0.1884,0.0538-0.2877,0.0745
					c-0.2566,0.0486-0.5009,0.1418-0.7782,0.1025c-0.1625-0.0238-0.3394,0.0724-0.506,0.121
					c-0.5548,0.1532-1.1362,0.1149-1.6931,0.238c-0.0858,0.0208-0.179,0.0394-0.2515,0.089
					c-0.12,0.0704-0.2256,0.1398-0.3529,0.0104c-0.0176-0.0176-0.0662-0.0207-0.0962-0.0104
					c-0.3363,0.0829-0.6551-0.0465-0.9821-0.0858c-0.0445-0.0062-0.0973-0.0124-0.1303,0.0061
					c-0.4067,0.2173-0.8621,0.1894-1.2916,0.2681c-0.3032,0.06-0.5857,0.2018-0.863,0.3342
					c-0.2536,0.119-0.4875,0.2691-0.6592,0.3684c-0.3084-0.0662-0.5526-0.118-0.803-0.1686c0-0.0186,0.0238-0.0942-0.0031-0.1387
					c-0.0807-0.1387-0.0093-0.2235,0.0725-0.3197c0.1356-0.1574,0.1024-0.3891-0.0694-0.5206
					c-0.0486-0.0403-0.1179-0.0579-0.1625-0.119c0.235-0.1262,0.3405-0.2556,0.3705-0.4822
					c0.0155-0.1057,0.1749-0.1956,0.2866-0.2774c0.0869-0.1624-0.0817-0.3974,0.1438-0.5329
					c0.4088,0.1987,0.7752,0.1325,1.1157-0.1449c0.0724-0.0662,0.1573-0.1387,0.2473-0.1563
					c0.2111-0.0362,0.3373-0.121,0.2711-0.3529c0.1274-0.0362,0.2204-0.0393,0.3158-0.088c0.4004-0.1831,0.7305-0.4636,1.0803-0.714
					c0.0828-0.0601,0.2009-0.0693,0.3477-0.1149c0.115-0.2473,0.3767-0.3798,0.6707-0.476c0.0663-0.0176,0.121-0.0756,0.18-0.1231
					c0.0611-0.0518,0.1221-0.1149,0.1852-0.1698c0.0445-0.0331,0.1097-0.0538,0.1262-0.0962
					c0.1542-0.3943,0.5144-0.5692,0.8279-0.7958c0.3632-0.2587,0.6582-0.5723,0.9355-0.9159
					c0.2246-0.2773,0.2473-0.6426,0.5184-0.9199c-0.1033-0.0207-0.1738-0.0538-0.24-0.0538
					c-0.4078,0.0186-0.8124-0.0176-1.2087,0.1242c-0.1832,0.0662-0.4006,0.0269-0.593,0.0682
					c-0.3518,0.088-0.7192,0.088-1.0566,0.236c-0.1045,0.0476-0.2504,0.0062-0.4315,0.0062
					c-0.1666,0.1562-0.4223,0.1987-0.6996,0.1076c-0.2451-0.0838-0.4864-0.0693-0.7315,0.0818
					c-0.0809-0.0994-0.1554-0.1811-0.2236-0.264c-0.0994-0.1252-0.2112-0.2276-0.383-0.2452
					c-0.06-0.0063-0.1262-0.0424-0.1655-0.0817c-0.3042-0.3312-0.6085-0.6716-0.9075-1.0101
					c-0.1428-0.1562-0.0829-0.5236,0.1045-0.6261c0.089-0.0456,0.1863-0.1086,0.2773-0.1118c0.417-0.0061,0.833-0.151,1.2491,0.0093
					c0.0352,0.0145,0.0828,0.0021,0.1262-0.0031c0.533-0.0849,1.0629-0.1666,1.6072-0.1749
					c0.4192-0.0125,0.8322-0.145,1.2543-0.1998c0.3487-0.0476,0.7203-0.1304,1.0577-0.0777
					c0.3197,0.0538,0.6271-0.0361,0.9386,0.0032c0.327,0.0445,0.6592,0.0962,0.9842,0.1469
					c0.1751,0.0301,0.3602,0.0456,0.5216,0.1025c0.2505,0.0828,0.5029,0.178,0.7307,0.3105
					c0.1779,0.1025,0.1045,0.3021,0.0621,0.4584c-0.0425,0.1625-0.0725,0.3105-0.0538,0.4884
					c0.03,0.2205,0.1086,0.3891,0.3001,0.4885c0.1521,0.0807,0.1924,0.1779,0.1242,0.3529
					c-0.0693,0.1894-0.0961,0.3881-0.2318,0.5692c-0.0869,0.1179-0.0807,0.3136-0.1263,0.476
					c-0.0632,0.236-0.1294,0.4709-0.1976,0.7058C104.1892,168.6159,104.1087,168.6211,103.9896,168.5642 M104.7233,171.9616
					c0.0445,0.1357,0.0837,0.2412,0.1376,0.3881c0.1459-0.177,0.2515-0.3125,0.4191-0.5091
					C105.0648,171.886,104.9271,171.9161,104.7233,171.9616 M105.3722,171.9709c0.1666-0.0641,0.2876-0.1118,0.4294-0.1666
					C105.5273,171.6656,105.5046,171.6749,105.3722,171.9709"/>
				<path id="XMLID_119_" fill-rule="evenodd" clip-rule="evenodd" d="M129.1835,173.7613
					c-0.1998,0.0113-0.3829,0.0176-0.564,0.0361c-0.0983,0.0115-0.2019,0.0363-0.2877,0.0807
					c-0.3126,0.1811-0.5878,0.058-0.8445-0.1086c-0.4927-0.3136-0.8993-0.7234-1.3049-1.1425
					c-0.178-0.1863-0.2877-0.4036-0.3198-0.6447c-0.0341-0.2619-0.1863-0.4399-0.3281-0.6934
					c-0.1107,0.0693-0.2039,0.1325-0.3021,0.1935c-0.1304,0.0745-0.2691,0.1438-0.3964,0.2287
					c-0.0993,0.06-0.2079,0.1262-0.2949,0.205c-0.123,0.1086-0.2183,0.1718-0.4119,0.1086
					c-0.2463-0.0849-0.5225-0.1179-0.7844-0.1118c-0.2276,0.0032-0.4647,0.058-0.5796,0.3198
					c-0.0465,0.1118-0.1501,0.1924-0.207,0.3012c-0.1738,0.3705-0.4884,0.329-0.7979,0.2743
					c-0.4171-0.0725-0.8248-0.1656-1.2315-0.2743c-0.1263-0.0362-0.238-0.145-0.3529-0.2288
					c-0.117-0.0817-0.2194-0.2018-0.3476-0.2442c-0.2278-0.0755-0.412-0.208-0.6014-0.3405
					c-0.4067-0.2773-0.651-0.6634-0.8652-1.1031c-0.2039-0.4191-0.2576-0.8569-0.3105-1.2874
					c-0.0569-0.4159,0.0269-0.8444,0.2018-1.2387c0.4191-0.9614,1.0401-1.7852,1.7365-2.5531
					c0.3643-0.4036,0.7596-0.7844,1.1405-1.1694c0.1117-0.1087,0.2412-0.1935,0.3601-0.3022
					c0.2101-0.1894,0.4223-0.3798,0.6241-0.5785c0.3021-0.2804,0.6592-0.2556,1.0059-0.1718
					c0.1976,0.0518,0.4356,0.0725,0.5433,0.3322c0.0487,0.1045,0.2194,0.1687,0.3425,0.2349
					c0.1708,0.0931,0.3478,0.2018,0.5309,0.2442c0.3219,0.087,0.5496,0.2918,0.7761,0.5061
					c0.1107,0.1055,0.1987,0.2411,0.3798,0.2473c0.0569,0.0061,0.1253,0.0558,0.1635,0.1086
					c0.2722,0.3498,0.6376,0.6293,0.7948,1.0638c0.0301,0.0725,0.0994,0.1532,0.1718,0.1863
					c0.4812,0.2504,0.5154,0.6964,0.5196,1.1487c0.0031,0.178-0.0103,0.3529-0.0249,0.5309
					c-0.0288,0.2617-0.058,0.5298-0.0858,0.7958c-0.0476,0.4522-0.1077,0.9045-0.1501,1.3556
					c-0.0404,0.4016-0.0373,0.7958,0.0393,1.1943c0.1025,0.5329,0.3426,0.9769,0.7782,1.3112
					c0.3167,0.2411,0.6478,0.4254,1.0628,0.4336c0.2268,0.0031,0.2587,0.0641,0.2525,0.296
					C129.2113,173.4384,129.2,173.5708,129.1835,173.7613 M121.8153,170.8222c0.1096,0.0393,0.2234,0.0838,0.3383,0.117
					c0.057,0.0217,0.1294,0.0456,0.1874,0.03c0.3746-0.0869,0.7492-0.1718,1.1145-0.2888c0.3653-0.1117,0.6955-0.2928,0.9739-0.564
					c0.4377-0.4129,0.7564-0.9045,1.0068-1.4374c0.2536-0.534,0.1936-1.0763-0.0869-1.5772
					c-0.266-0.4792-0.6727-0.831-1.1414-1.1031c-0.5113-0.2918-1.0236-0.5299-1.5896-0.0694
					c-0.3923,0.3229-0.829,0.5878-1.2377,0.89c-0.2577,0.1956-0.4615,0.4606-0.8029,0.5236c-0.0426,0.0093-0.085,0.0704-0.115,0.118
					c-0.1263,0.1759-0.268,0.3529-0.3735,0.5484c-0.1594,0.2805-0.2929,0.5785-0.2868,0.9138
					c0.0084,0.4854-0.0661,0.9708,0.0663,1.4612c0.0331,0.1181,0.0806,0.2029,0.1449,0.3074
					c0.1779,0.2773,0.4947,0.3136,0.7327,0.4802c0.0953,0.0662,0.2142,0.117,0.326,0.1355
					C121.4633,171.3552,121.6341,171.2413,121.8153,170.8222"/>
				<path id="XMLID_103_" fill-rule="evenodd" clip-rule="evenodd" d="M116.1689,171.9036
					c0.1428,0.1357,0.1398,0.2567,0.0921,0.3923c-0.1179,0.3312-0.3166,0.6085-0.6725,0.6695
					c-0.3158,0.0538-0.5621,0.2473-0.8653,0.3136c-0.2319,0.0476-0.4699,0.0901-0.7079,0.1407
					c-0.0725,0.0156-0.151,0.0311-0.2235,0.058c-0.3809,0.1387-0.7741,0.1387-1.1963,0.03c-0.0508,0.0838-0.1057,0.178-0.178,0.2949
					c-0.4667,0.0456-0.9511,0.1055-1.3981-0.177c-0.0756-0.0486-0.175-0.0973-0.2505-0.0848
					c-0.2287,0.0486-0.3839-0.0756-0.5392-0.2019c-0.2691-0.2298-0.5733-0.4222-0.7812-0.7203
					c-0.2588-0.3683-0.4171-0.7657-0.4803-1.2242c-0.0952-0.6996-0.0289-1.3806,0.1459-2.0501
					c0.1055-0.4036,0.2173-0.8041,0.3312-1.2087c0.0156-0.0538,0.0332-0.1077,0.061-0.1594
					c0.2256-0.4098,0.4098-0.8527,0.6851-1.2232c0.2939-0.3922,0.6437-0.7544,1.0804-1.0193
					c0.4057-0.2443,0.7876-0.5278,1.1756-0.7959c0.1935-0.1325,0.3787-0.2773,0.5733-0.4036
					c0.238-0.1542,0.5133-0.1842,0.7928-0.1903c0.2142-0.0032,0.4274-0.0332,0.6478,0.0061
					c0.2649,0.0424,0.4699,0.2143,0.6634,0.3498c0.1418,0.1055,0.1863,0.3705,0.2318,0.5723
					c0.0456,0.1904,0.0725,0.3891-0.033,0.5847c-0.1026,0.1966-0.2257,0.3415-0.4617,0.4078
					c-0.2711,0.0724-0.535,0.2472-0.8133,0.2742c-0.3374,0.0301-0.6179,0.1626-0.8818,0.3312
					c-0.4202,0.2629-0.8578,0.5309-1.2098,0.8776c-0.3456,0.3466-0.6043,0.7833-0.8982,1.187
					c-0.0332,0.0517-0.0332,0.1273-0.0549,0.1904c-0.0228,0.0756-0.0331,0.1594-0.0817,0.2142
					c-0.4399,0.4667-0.5464,1.0514-0.6045,1.6547c-0.0051,0.0787-0.0051,0.1563,0.0197,0.2256
					c0.0673,0.2039,0.178,0.386,0.2204,0.5847c0.0786,0.356,0.3105,0.5277,0.6209,0.6365c0.3571,0.1325,0.7203,0.2111,1.1094,0.2111
					c0.2049,0,0.4088,0.0176,0.6178,0.0725c0.178,0.0444,0.4006-0.0611,0.6055-0.0973c0.3921-0.0601,0.7875-0.1387,1.1838-0.1719
					c0.1864-0.0176,0.3705-0.0041,0.535-0.1106c0.0145-0.0156,0.0362-0.028,0.06-0.028
					C115.6112,172.2421,115.9443,172.1935,116.1689,171.9036"/>
			</g>
		</g>
	</g>
	<g id="XMLID_716_">
		<path id="XMLID_908_" d="M179.3872,52.2644c0.6035,0.2549,1.1279,0.6089,1.5713,1.061c0.4443,0.4521,0.793,0.9824,1.0459,1.5913
			s0.3799,1.2627,0.3799,1.9609c0,0.7075-0.127,1.3633-0.3799,1.9678s-0.6016,1.1304-1.0459,1.5781
			c-0.4434,0.4478-0.9678,0.7993-1.5713,1.0542c-0.6045,0.2554-1.2568,0.3828-1.958,0.3828c-0.7021,0-1.3545-0.1274-1.959-0.3828
			c-0.6035-0.2549-1.1279-0.6064-1.5713-1.0542c-0.4443-0.4478-0.793-0.9736-1.0459-1.5781s-0.3799-1.2603-0.3799-1.9678
			c0-0.6982,0.127-1.3521,0.3799-1.9609s0.6016-1.1392,1.0459-1.5913c0.4434-0.4521,0.9678-0.8062,1.5713-1.061
			c0.6045-0.2554,1.2568-0.3828,1.959-0.3828C178.1304,51.8816,178.7827,52.009,179.3872,52.2644z M175.7573,52.9289
			c-0.5117,0.2241-0.9531,0.5283-1.3262,0.9136c-0.373,0.3848-0.6641,0.8374-0.8721,1.3564
			c-0.209,0.519-0.3135,1.0791-0.3135,1.6787c0,0.6001,0.1045,1.1597,0.3135,1.6792c0.208,0.519,0.499,0.9717,0.8721,1.3564
			s0.8145,0.6895,1.3262,0.9131c0.5098,0.2241,1.0674,0.3359,1.6719,0.3359c0.5947,0,1.1475-0.1118,1.6582-0.3359
			c0.5107-0.2236,0.9521-0.5283,1.3252-0.9131s0.666-0.8374,0.8789-1.3564c0.2139-0.5195,0.3203-1.0791,0.3203-1.6792
			c0-0.5996-0.1064-1.1597-0.3203-1.6787c-0.2129-0.519-0.5059-0.9717-0.8789-1.3564c-0.373-0.3853-0.8145-0.6895-1.3252-0.9136
			c-0.5107-0.2236-1.0635-0.3359-1.6582-0.3359C176.8247,52.593,176.2671,52.7053,175.7573,52.9289z M175.6304,59.7654V53.99h2.1982
			c0.6475,0,1.1211,0.1367,1.4189,0.4097c0.2969,0.2734,0.4463,0.6694,0.4463,1.1885c0,0.251-0.0381,0.4702-0.1133,0.6582
			c-0.0762,0.1885-0.1807,0.3472-0.3135,0.4771s-0.2861,0.2329-0.46,0.3091c-0.1729,0.0762-0.3574,0.1318-0.5527,0.1675
			l1.7051,2.5654h-0.8252l-1.6123-2.5654h-1.1855v2.5654H175.6304z M177.9019,56.5754c0.208-0.0132,0.3926-0.0513,0.5527-0.1143
			c0.1602-0.0625,0.2881-0.1631,0.3857-0.3018s0.1475-0.3291,0.1475-0.5713c0-0.2056-0.0381-0.3711-0.1133-0.4966
			c-0.0762-0.1255-0.1777-0.2261-0.3066-0.3022s-0.2734-0.1279-0.4336-0.1543c-0.1592-0.0273-0.3281-0.0405-0.5059-0.0405h-1.292
			v2.0015h0.9326C177.4819,56.5959,177.6929,56.5891,177.9019,56.5754z"/>
	</g>
</g>
</svg>
