<?xml version="1.0" encoding="utf-8"?>
<!-- Generator: Adobe Illustrator 19.0.0, SVG Export Plug-In . SVG Version: 6.00 Build 0)  -->
<svg version="1.1" id="visa" xmlns="http://www.w3.org/2000/svg" xmlns:xlink="http://www.w3.org/1999/xlink" x="0px" y="0px"
	 viewBox="0 0 105.9488 22.0942" enable-background="new 0 0 105.9488 22.0942" xml:space="preserve">
<g id="XMLID_2385_">
	<g id="XMLID_3975_">
		<path id="XMLID_5098_" fill="#727A82" d="M83.8559,11.0471C83.8559,4.9448,88.8005,0,94.903,0
			c6.1023,0,11.0458,4.9448,11.0458,11.0471c0,6.0998-4.9435,11.0471-11.0458,11.0471
			C88.8005,22.0942,83.8559,17.1469,83.8559,11.0471L83.8559,11.0471z"/>
		<path id="XMLID_5097_" fill="#A1A6AC" d="M87.5022,2.8227c0.0051,0-0.5774,0.5052-0.9684,1.0001h1.9647
			c0,0,0.6727,0.726,0.9215,1.2743H85.578c0,0-0.3718,0.5851-0.6206,1.08h5.0819c0,0,0.4645,0.8695,0.566,1.3263h-6.1784
			c0,0-0.2133,0.6042-0.3007,1.0458l6.7635-0.0075c0.1852,0.8478,0.6371,3.3176-0.2919,6.0464l-6.1443,0.0077
			c0.0977,0.3262,0.2653,0.771,0.4252,1.0959h5.276c-0.212,0.4437-0.5229,1.0009-0.6993,1.28l-3.8697,0.0051
			c0.2043,0.3097,0.5331,0.7971,0.7438,1.0179l2.3823-0.0013c-0.4468,0.6181-1.2045,1.2553-1.2045,1.2553h-0.0177l0.024,0.0101
			c-1.9572,1.7616-4.5488,2.8353-7.3892,2.8353c-6.1024,0-11.0471-4.9473-11.0471-11.0471C69.0773,4.9448,74.022,0,80.1244,0
			C82.9598,0,85.5463,1.0661,87.5022,2.8227L87.5022,2.8227z"/>
		<path id="XMLID_5092_" fill="#FFFFFF" d="M82.2668,9.3184l-0.179,0.9938l-0.9684-0.0253c0,0-0.4849,0.1255-0.4849,0.3312
			c0,0.2031,0.3568,0.4594,0.8923,0.6873c0.5368,0.2317,0.5609,0.8657,0.5089,1.2997c-0.0508,0.4347-0.127,1.3333-1.6818,1.3791
			c-0.8922,0.0253-1.3758-0.1523-1.3758-0.1523l0.2018-1.0205c0,0,1.1499,0.3059,1.4038,0.127
			c0.2538-0.1796,0.5609-0.4843,0.0762-0.6879c-0.4836-0.2043-1.2743-0.5356-1.2743-1.3516c0-0.8136,0.33-1.273,0.8402-1.5041
			C80.7362,9.1649,81.6284,9.1916,82.2668,9.3184L82.2668,9.3184z"/>
		<polygon id="XMLID_5087_" fill="#FFFFFF" points="74.6059,13.8661 73.4813,13.8661 74.1362,9.9937 72.7428,13.8432 
			71.9659,13.8432 71.7781,9.8375 71.0953,13.8661 70.0292,13.8661 71.0344,7.9553 72.3276,7.9553 72.7808,11.3588 74.2835,7.9553 
			75.6111,7.9553 74.6059,13.8661 		"/>
		<path id="XMLID_5074_" fill="#FFFFFF" d="M83.2732,13.9491c-0.3668,0-0.6283-0.083-0.7856-0.238
			c-0.1599-0.1638-0.236-0.415-0.236-0.7335c0-0.0825,0.0075-0.1664,0.0178-0.2374c0.0075-0.0817,0.0253-0.177,0.0342-0.2842
			L82.98,8.6763h1.0573l-0.1536,0.733h0.9875l-0.1649,0.9372h-0.9875l-0.2716,1.6133c-0.0178,0.1053-0.033,0.2113-0.0533,0.3306
			c-0.0152,0.1072-0.0242,0.2138-0.0242,0.2849c0,0.1649,0.0242,0.2716,0.0953,0.33c0.0608,0.061,0.1649,0.0964,0.3058,0.0964
			c0.0521,0,0.1219-0.0126,0.2095-0.0355c0.0888-0.0363,0.1662-0.061,0.2182-0.0953h0.0876l-0.1662,0.9481
			c-0.1219,0.047-0.2437,0.0711-0.3744,0.0927C83.6122,13.9383,83.4573,13.9491,83.2732,13.9491L83.2732,13.9491z"/>
		<path id="XMLID_5061_" fill="#FFFFFF" d="M90.8541,10.6555c-0.2297-0.177-0.7437-0.1389-0.8504,0.2254l-0.5076,2.9852h-1.056
			l0.759-4.4568h1.0573l-0.0216,0.361c0.2005-0.2005,0.4238-0.37,0.99-0.3529C91.2603,9.4175,90.8821,10.08,90.8541,10.6555
			L90.8541,10.6555z"/>
		<path id="XMLID_4738_" fill="#FFFFFF" d="M92.8494,13.9841c-0.5838,0-1.0471-0.1987-1.3606-0.5941
			c-0.3236-0.3883-0.4797-0.9569-0.4797-1.6931c0-0.58,0.0698-1.1011,0.2081-1.5738c0.1396-0.4748,0.3414-0.8783,0.5851-1.221
			c0.245-0.3325,0.5343-0.5915,0.8745-0.7812c0.33-0.1896,0.6904-0.2849,1.0635-0.2849c0.2983,0,0.5787,0.0482,0.8402,0.1294
			c0.127,0.0431,0.3707,0.16,0.3707,0.16l-0.2463,1.4036c-0.1218-0.1548-0.2437-0.2779-0.3705-0.3648
			c-0.1829-0.12-0.4011-0.1923-0.6448-0.1923c-0.4392,0-0.7958,0.2373-1.0751,0.7121c-0.2881,0.4753-0.4277,1.0795-0.4277,1.8124
			c0,0.4746,0.0788,0.82,0.2361,1.0331c0.1573,0.1981,0.3833,0.3046,0.6802,0.3046c0.2716,0,0.5241-0.0711,0.7615-0.212
			c0.1118-0.0736,0.2208-0.151,0.3275-0.2398l-0.2463,1.3428c0,0-0.1268,0.0608-0.1878,0.0812
			c-0.1472,0.0597-0.278,0.0938-0.3909,0.1319C93.2428,13.9612,93.0702,13.9841,92.8494,13.9841L92.8494,13.9841z"/>
		<path id="XMLID_4501_" fill="#FFFFFF" d="M77.2077,13.7111c-0.0431,0.0368-0.0876,0.0597-0.1218,0.0825
			c-0.1142,0.061-0.2095,0.1066-0.3072,0.1447c-0.0938,0.0229-0.2259,0.0457-0.4011,0.0457c-0.2703,0-0.4975-0.1067-0.6624-0.3072
			c-0.1752-0.2157-0.2615-0.4867-0.2615-0.8174c0-0.3553,0.0597-0.6523,0.1827-0.8998c0.1219-0.2386,0.3046-0.4405,0.5509-0.5826
			c0.2259-0.1396,0.4975-0.236,0.8033-0.2944l0.217-0.0356c0.2538-0.0482,0.5153-0.0832,0.8047-0.0964
			c0-0.0229,0-0.0457,0.0075-0.0838c0.009-0.033,0.009-0.0685,0.009-0.1167c0-0.1904-0.0622-0.3198-0.1917-0.4037
			c-0.132-0.0703-0.3224-0.1033-0.5763-0.1033h-0.0533c-0.1574,0.0095-0.3313,0.045-0.5229,0.1148
			c-0.2107,0.0851-0.3681,0.1435-0.4748,0.2018h-0.0938l0.1574-1.0527c0.1218-0.0464,0.3148-0.0977,0.5686-0.1404
			c0.1218-0.0381,0.2437-0.0494,0.3655-0.0608c0.132-0.0255,0.2703-0.0255,0.4037-0.0255c0.5153,0,0.8885,0.0971,1.1346,0.2729
			c0.2437,0.1777,0.3566,0.4632,0.3566,0.8541c0,0.0457,0,0.1175-0.0075,0.2005c-0.0101,0.0838-0.0178,0.1556-0.0266,0.2259
			l-0.5153,3.0322h-1.0484l0.0788-0.4761c-0.0623,0.061-0.1473,0.132-0.2361,0.2159C77.294,13.6389,77.2509,13.6768,77.2077,13.7111
			L77.2077,13.7111z M77.2077,11.8645c-0.1142,0.0229-0.2107,0.061-0.2868,0.0953c-0.1231,0.0571-0.2107,0.1409-0.2716,0.2475
			c-0.0711,0.1092-0.0964,0.2488-0.0964,0.4251c0,0.1562,0.0458,0.2628,0.1219,0.3218c0.0875,0.0577,0.2017,0.0958,0.3681,0.0958
			c0.0507,0,0.104-0.012,0.1649-0.0381c0.0533-0.0101,0.1041-0.0342,0.1662-0.0577c0.1131-0.0717,0.2273-0.1548,0.3313-0.2494
			l0.1574-0.9468c-0.1827,0.0235-0.3681,0.0482-0.5229,0.0837C77.294,11.8416,77.2509,11.853,77.2077,11.8645L77.2077,11.8645z"/>
		<path id="XMLID_4494_" fill="#FFFFFF" d="M86.3421,10.1822c-0.1396,0.0235-0.2703,0.094-0.3756,0.2131
			c-0.1472,0.1644-0.2628,0.3801-0.3401,0.6632h0.7157h0.7083c0-0.0469,0.0088-0.085,0.0088-0.1307
			c0-0.0348,0.0077-0.0837,0.0077-0.118c0-0.2139-0.0521-0.3668-0.1473-0.4861c-0.0964-0.1041-0.2285-0.1644-0.4112-0.1644
			C86.4552,10.1593,86.3942,10.1714,86.3421,10.1822L86.3421,10.1822z M86.3421,12.9776h0.1562
			c0.2283,0,0.4454-0.0477,0.6574-0.1567c0.1992-0.1048,0.3833-0.2228,0.5318-0.3535h0.1218l-0.2005,1.1486
			c-0.2017,0.1218-0.4187,0.2157-0.6459,0.2741c-0.193,0.059-0.4024,0.0819-0.6207,0.094H86.247
			c-0.5686,0-0.9976-0.1651-1.3023-0.5089c-0.3045-0.3326-0.4544-0.7933-0.4544-1.3848c0-0.4035,0.0534-0.7817,0.1499-1.1168
			c0.0938-0.3427,0.2437-0.6384,0.4264-0.9005c0.1827-0.2468,0.4011-0.4347,0.6727-0.5895c0.1929-0.094,0.3934-0.1662,0.6028-0.2031
			c0.0953-0.0101,0.1917-0.0101,0.2881-0.0101c0.49,0,0.8554,0.1301,1.1093,0.4011c0.2437,0.2615,0.3681,0.6639,0.3681,1.188
			c0,0.1745-0.0088,0.3529-0.0355,0.5305c-0.0253,0.1675-0.061,0.3439-0.1041,0.5089h-1.6259H85.521v0.0469v0.0482
			c0,0.3078,0.0889,0.5446,0.2463,0.7222C85.8967,12.8595,86.0896,12.9541,86.3421,12.9776L86.3421,12.9776z"/>
		<path id="XMLID_4470_" fill="#FFFFFF" d="M96.2407,13.7111c-0.0433,0.0368-0.0876,0.0597-0.1308,0.0825
			c-0.1054,0.061-0.2095,0.1066-0.3046,0.1447c-0.0977,0.0229-0.2285,0.0457-0.3934,0.0457c-0.2806,0-0.4988-0.1067-0.6727-0.3072
			c-0.1752-0.2157-0.2551-0.4867-0.2551-0.8174c0-0.3553,0.061-0.6523,0.1853-0.8998c0.1218-0.2386,0.3045-0.4405,0.5407-0.5826
			c0.2285-0.1396,0.4975-0.236,0.8123-0.2944c0.0711-0.0127,0.1396-0.0242,0.2183-0.0356c0.2449-0.0482,0.5152-0.0832,0.7958-0.0964
			c0.0088-0.0229,0.0088-0.0457,0.0165-0.0838c0-0.033,0.0088-0.0685,0.0088-0.1167c0-0.1904-0.0698-0.3198-0.1942-0.4037
			c-0.1294-0.0703-0.3224-0.1033-0.5737-0.1033h-0.0533c-0.1664,0.0095-0.3403,0.045-0.5243,0.1148
			c-0.2094,0.0851-0.3668,0.1435-0.4709,0.2018h-0.0964l0.1497-1.0527c0.1219-0.0464,0.3123-0.0977,0.5763-0.1404
			c0.1219-0.0381,0.2437-0.0494,0.3656-0.0608c0.1319-0.0255,0.2614-0.0255,0.4009-0.0255c0.5179,0,0.891,0.0971,1.1372,0.2729
			c0.2348,0.1777,0.3579,0.4632,0.3579,0.8541c0,0.0457,0,0.1175-0.0088,0.2005c-0.0088,0.0838-0.0178,0.1556-0.0279,0.2259
			l-0.514,3.0322h-1.0496l0.0812-0.4761c-0.0724,0.061-0.1486,0.132-0.245,0.2159L96.2407,13.7111L96.2407,13.7111z
			 M96.2407,11.8645c-0.1131,0.0229-0.2108,0.061-0.2971,0.0953c-0.1116,0.0571-0.2094,0.1409-0.269,0.2475
			c-0.0634,0.1092-0.0977,0.2488-0.0977,0.4251c0,0.1562,0.0444,0.2628,0.1307,0.3218c0.0786,0.0577,0.2005,0.0958,0.3579,0.0958
			c0.0533,0,0.1142-0.012,0.1752-0.0381c0.0533-0.0101,0.1066-0.0342,0.1573-0.0577c0.1219-0.0717,0.226-0.1548,0.3326-0.2494
			l0.1651-0.9468c-0.1917,0.0235-0.3669,0.0482-0.5331,0.0837C96.3193,11.8416,96.2762,11.853,96.2407,11.8645L96.2407,11.8645z"/>
		<path id="XMLID_4469_" fill="#FFFFFF" d="M100.698,10.6555c-0.2309-0.177-0.745-0.1389-0.8504,0.2254L99.34,13.8661h-1.056
			l0.759-4.4568h1.056l-0.0216,0.361c0.1992-0.2005,0.4251-0.37,0.9912-0.3529C101.1041,9.4175,100.7259,10.08,100.698,10.6555
			L100.698,10.6555z"/>
		<path id="XMLID_4381_" fill-rule="evenodd" clip-rule="evenodd" fill="#FFFFFF" d="M102.7732,10.3579
			c-0.052,0.0242-0.1028,0.061-0.1484,0.0953c-0.1409,0.0964-0.254,0.2386-0.3491,0.4061
			c-0.0786,0.1625-0.1486,0.3529-0.1917,0.6016c-0.0533,0.236-0.0786,0.4753-0.0786,0.698c0,0.2741,0.0533,0.4632,0.1371,0.5812
			c0.0989,0.1307,0.2386,0.1897,0.4213,0.1897c0.0711,0,0.1409-0.012,0.2094-0.0476c0.0343-0.0114,0.0623-0.0229,0.0964-0.0482
			c0.1041-0.0584,0.1994-0.118,0.2958-0.2018l0.3756-2.1893c-0.0608-0.0356-0.1306-0.0737-0.2259-0.0966
			c-0.0888-0.0342-0.1649-0.0456-0.2373-0.0456C102.9649,10.3008,102.8696,10.3237,102.7732,10.3579L102.7732,10.3579z
			 M102.7732,13.6299c-0.0799,0.0724-0.1662,0.1409-0.2627,0.2018c-0.0863,0.0456-0.1726,0.0914-0.2514,0.1174
			c-0.0901,0.0229-0.1929,0.035-0.3071,0.035c-0.3236,0-0.5763-0.1422-0.7691-0.4138c-0.1827-0.2842-0.2793-0.6879-0.2793-1.1982
			c0-0.4264,0.0431-0.8293,0.1498-1.1949c0.0938-0.3674,0.2347-0.6987,0.4099-0.9829c0.1739-0.2857,0.3744-0.4988,0.6105-0.6652
			c0.2285-0.1517,0.4544-0.2347,0.6993-0.2488h0.0343c0.1827,0,0.3427,0.0255,0.4722,0.0711
			c0.1307,0.0489,0.2716,0.132,0.4099,0.2373l0.2348-1.5515h1.056l-0.9672,5.8288h-1.056l0.0775-0.4633
			C102.9394,13.4866,102.8506,13.5582,102.7732,13.6299L102.7732,13.6299z"/>
	</g>
	<g id="XMLID_2388_">
		<g id="XMLID_2391_">
			<polygon id="XMLID_3974_" fill="#FFFFFF" points="16.3941,17.1901 18.7498,3.3685 22.518,3.3685 20.1599,17.1901 			"/>
			<path id="XMLID_3443_" fill="#FFFFFF" d="M33.8266,3.7086c-0.7476-0.2805-1.9165-0.5812-3.3773-0.5812
				c-3.7239,0-6.346,1.8758-6.3675,4.5614c-0.0216,1.9851,1.8707,3.0944,3.3011,3.7569c1.4659,0.6776,1.9596,1.1093,1.9533,1.7133
				c-0.0101,0.9265-1.1714,1.3511-2.254,1.3511c-1.5092,0-2.31-0.2102-3.5474-0.7266l-0.4862-0.2203l-0.5292,3.0963
				c0.8821,0.3852,2.5092,0.7196,4.1972,0.7374c3.9612,0,6.5326-1.8544,6.5617-4.7227c0.0153-1.5739-0.99-2.7707-3.1628-3.7569
				c-1.3173-0.6396-2.1245-1.0661-2.1144-1.7133c0-0.575,0.6828-1.1905,2.1576-1.1905c1.2312-0.0178,2.1247,0.2512,2.8203,0.5317
				l0.3375,0.1587L33.8266,3.7086"/>
			<path id="XMLID_2640_" fill="#FFFFFF" d="M43.4877,3.3812h-2.9115c-0.9012,0-1.5764,0.2462-1.9737,1.1447l-5.5946,12.6692h3.9562
				c0,0,0.6472-1.7033,0.7945-2.0765c0.4315,0,4.2747,0.0064,4.8255,0.0064c0.1116,0.4836,0.457,2.0701,0.457,2.0701h3.4979
				L43.4877,3.3812 M38.8425,12.2909c0.3122-0.7969,1.5002-3.8647,1.5002-3.8647c-0.0216,0.0368,0.3097-0.8008,0.5001-1.3199
				l0.255,1.1931c0,0,0.7222,3.2985,0.8719,3.9915H38.8425z"/>
			<path id="XMLID_2636_" fill="#FFFFFF" d="M13.2326,3.3792L9.5443,12.805l-0.3934-1.9178
				C8.4654,8.6787,6.3257,6.2876,3.9344,5.0895l3.3722,12.0892l3.9866-0.0032l5.9323-13.7961H13.2326"/>
			<path id="XMLID_2392_" fill="#A1A6AC" d="M6.1225,3.3685H0.0469L0,3.6553c4.7265,1.1449,7.8537,3.9117,9.1509,7.2319
				L7.8309,4.5355C7.6025,3.661,6.9412,3.3983,6.1225,3.3685"/>
		</g>
	</g>
</g>
</svg>
