<svg xmlns="http://www.w3.org/2000/svg" viewBox="0 0 138.94 5.73"><defs><style>.cls-1{fill:#fff;}</style></defs><title>line0</title><g id="Capa_2" data-name="Capa 2"><g id="Layer_1" data-name="Layer 1"><path id="_Trazado_" data-name="&lt;Trazado&gt;" class="cls-1" d="M0,4.59a49.34,49.34,0,0,0,7.5,0C7.45,4.15,8.79,4.51,9,4c-3.32,0,12.47-.22,9.84-.45l-.8.21.85-.5c1.58.14,3.72.56,4.81.27.29.17-13.51-.06-13,.09-1.19-.59,18.51-.45,19-.71l.2.31c2.47-.31,4.06-.75,6.13-1l.45.37a14.26,14.26,0,0,0-3.48.28c2.67-.06,3.15.18,5.19.11-.05-.48-1.74-.24.84-.5.73.21-1,.73,1.29.64,2.77.15,2.25-.57,4.67-.6l-1.62-.19a13.75,13.75,0,0,1,3.4.15c-1,0-3.59.22-3.54.71,1-.11,3.29.09,4.18.07l-.56.34c1,.32,1.55-.16,2.77.14,1.17-.18-.68-.49,0-.63a10,10,0,0,0,3.29.1c-.52-.72-2.7.2-4.11-.5L51,2.89c1.37-.69-3.43,0-2.71-.57,1.64-.72,3.32.72,4.86-.2-1-.18-4.16-.22-3.74-.47,1.11.27,1.93-.23,3.48-.31l1.85.34c.8-.22.16-.22-.45-.37,2.73.43,7.37,0,11.22.49,2.3-.09.3-.31,1.36-.56,1.2.44,3.28.1,4.55.11.37,0,1.07-.39.72-.56L68.89,1c.16-.23-.29-.6-1.44-.56C68.21,1.32,63,0,62.7.89l.06-.43-4.1.27.12.06c0-.15-3.47.27-5.73.08.66-.14,4.44.05,2.23-.44C57,.2,60,.6,63,.43L62.43.14c3.23-.39,7.46.17,11,.09L72.38.62a11.68,11.68,0,0,0,4,.16C74.89.79,75.68.57,76,.4,78,.19,81,.45,83.84.31c0,0-.14.08,0,.14l3-.22A8.24,8.24,0,0,1,89.48.8c.51-.06,1.78,0,1.31-.28a4.7,4.7,0,0,0-.73,0c1.5-.43,1,.13,2.91-.13-1.45.36.43.52.24.89,2.19-.15.23-.65.51-.82,2.63.22,3,.54,5.61.62C99.49.84,97.46.9,97.24.64A5.72,5.72,0,0,0,99,.6L97.4.42a52.39,52.39,0,0,0,8.47.19L105.63.5l1.9,0-.69.42c1-.11,2.11.27,2.67-.06l-.37,0,1.28-.13-1.33.42c1.63.19,3.91-.68,6.56-.6.55.58-4.59.19-5,.93a9,9,0,0,0,2.91.05c-.1-.2-.74-.2-1.37-.21,2.34-.38,5.8.25,7.29-.39L117.79.67c2-.07,3.32.71,4,.29l-1.62.73c2.08-.35,4.73-.27,6.67-.54.06-.43-2.79,0-2.65-.08l.93-.31c3,.26.85.27,4.49.53l0-.29c1.21.44,4.49-.39,3.25.37l-1-.18.08.35,4.22-.22c-.42.25,1.62.18,1.06.52l1.57-.3c.69.49-2.87.57-3,.94,0,.23.78.2,1.14.17-1.88.35-2.78-.5-4.64-.51l-.94.3.06-.42a4.43,4.43,0,0,0-1.72.52c-1.82-.58-3.82.11-6.59,0,2.31-.23-1.47-.41-1.07-.52-1.27,0-4.42.73-5.49.2-.73-.2,1.57-.29-.19-.4-1.15.05-2,.27-1.21.48-2.56.12-5.59,0-8.38,0l.68-.28a10.08,10.08,0,0,0-4.38.44c-.24-.12-.38,0-.1-.2-2.21-.48-2.88.57-6.54.45.2.4,1.84.45,3,.26l-.32.45c3.17,0,6.73,0,9.31-.31l-1.19.33c2.2.62,1.61-.58,3.67.12,1.54-.16-1.11-.24.06-.43,1.08.14-.31.79,1.52.82-6.87.21-14.67.14-21.86.18-.13.09.24.12.62.15-2.51.61-22.42-1.14-23.11,0C67.79,4.14,69,4,67.43,4c-.14.09-.54.2-.18.37-3.84-.67-9,0-13.64-.46.09.2-.94.3-1,.45-1.57-.48-4.31,0-5.79-.27l.47.23-4.7,0c-.14.08.49.09.87.12-1,.11-1.25-.15-1.34-.35L40,4.51c-6.08-.86-13.78.39-20.8-.19a10.67,10.67,0,0,1-3.78.59l.87.12c-1.84.32-.1-.2-1.65,0-1.06.25-.35.6,1.08.39.88.14.33.27-.31.36A105,105,0,0,1,0,4.59"/></g></g></svg>