<svg xmlns="http://www.w3.org/2000/svg" viewBox="0 0 178.64 156.06"><defs><style>.cls-1{fill:#fff;}.cls-2{fill-rule:evenodd;}</style></defs><title>Recurso 40</title><g id="Capa_2" data-name="Capa 2"><g id="Layer_1" data-name="Layer 1"><g id="_Grupo_" data-name="&lt;Grupo&gt;"><path id="_Trazado_compuesto_" data-name="&lt;Trazado compuesto&gt;" class="cls-1" d="M72.78,95.59c-3.37-1.77-6.07-4-9.2-6.21a4.28,4.28,0,0,0-4.75-.22c-4.93,2.65-7.37,9.42-12,12.83-5.32,3.9-12.83,5.35-19.25,6-9.46.89-29.82-3.31-27.37-16.71a.81.81,0,0,1,.68-.66c2.82-.55,6.1.31,9,.41,3.38.13,7.2-1.68,10.19-3,3.27-1.51,6.41-3.23,9.56-5,2.14-1.17,7.38-2.65,8.64-4.53.56-.81.13-1.39-.66-1.58-6.45-1.58-14.86-3.7-19.19-9.16a4.36,4.36,0,0,1-.64-4.55,4.65,4.65,0,0,1,3.16-2.63,25,25,0,0,1,3.17-.39c1.2-.2,3.29-2.18,4-3.07C31.43,53,32.69,47,35,42.45c3-5.76,6.64-11.09,9.64-16.78C47.12,21,51.54,18.2,54.37,14,55.81,11.93,65.1,4.1,67.61,5.42c1.29-1.76,6.12-3.19,8.23-3.5C80.26,1.24,84.38,0,88.92,0c6.29,0,17,.87,21.88,5.36,2.31-.6,6.22,3,8,4.27a61.34,61.34,0,0,1,6.75,6,74.43,74.43,0,0,1,11.05,14.47c3.5,5.66,6.2,11.6,9.28,17.46,2.06,4,3.24,11.53,8.6,12.64,1.63.34,3.18.27,4.66,1.13A4,4,0,0,1,161,64.63a3.91,3.91,0,0,1-.89,2.92c-4.58,5.41-12.46,7.66-19.09,9.28-.71.17-1.09.41-1.14.86-.19,1.7,14.16,8.31,16,9a83.18,83.18,0,0,0,9.89,3.82c3.93,1.06,8.33-1.1,12,.13,2,.68-.08,6-.55,7.07-1,2.35-3.29,3.85-5.27,5.34-4.77,3.55-12.54,5.29-18.5,5a45.2,45.2,0,0,1-20.19-5.24,23.37,23.37,0,0,1-6.47-5.54c-2.24-2.59-4.11-6.5-7.18-8.18a4.27,4.27,0,0,0-4.81.23c-2.49,1.8-4.77,4.08-7.6,5.38-5.17,3.57-12.26,5.14-18.11,2.28-1.09,0-2.49.73-3.63.82a29.35,29.35,0,0,1-12.68-2.29c-.68-.37,11,4.23,0,0"/><g id="_Grupo_2" data-name="&lt;Grupo&gt;"><g id="_Grupo_3" data-name="&lt;Grupo&gt;"><g id="_Grupo_4" data-name="&lt;Grupo&gt;"><path id="_Trazado_compuesto_2" data-name="&lt;Trazado compuesto&gt;" d="M174.58,98.85c.48.16.48.16.56-.29l-.56.29M86.65,3.32a3.64,3.64,0,0,0-1.09,1c-.29.42.94-.09,1.09-1-.5.34-.1.64,0,0m5.27.05-.15.12c.07.88.43,1.28,1.09,1.19,0-.14,0-.32,0-.39-.28-.33-.61-.62-.92-.92,0,0,.31.3,0,0m14.61,3.09a.54.54,0,0,0-.07.13A3.69,3.69,0,0,0,109,7.81c-.09-.16-.14-.37-.26-.43-.72-.33-1.46-.62-2.18-.92,0,0,.72.3,0,0M69.44,7.79l.15.15A6.44,6.44,0,0,0,72,6.56a8.69,8.69,0,0,0-2.38.86c-.1,0-.14.24-.21.37s.07-.13,0,0M97.52,2.26a5.77,5.77,0,0,0,2.17,1.09c.53.21.85.07,1.22-.45a16.71,16.71,0,0,0-3.39-.64c.17.17,1.24.17,0,0M77.48,3a1,1,0,0,0,1.27.39,5.52,5.52,0,0,0,2-1,9.56,9.56,0,0,0-3.3.65c.36.47.5-.3,0,0M119.4,67.21c.49,1,2,1.73,2.65.48a8.32,8.32,0,0,0-2.65-.48c.26.5.89.08,0,0m-60.26.08L59,67.1c-.78.15-1.57.28-2.35.44-.27.06-.33.29-.17.51.72,1,2.07-.34,2.62-.76,0-.06-.29.22,0,0M87.16,2A6.19,6.19,0,0,0,83.6,4.51a1.16,1.16,0,0,0,1.5-.31c.62-.78,1.38-1.48,2.06-2.21-.74.12-.32.33,0,0m7.66,2.52c-.13-.22-.18-.4-.31-.5-.92-.7-2-1.89-3.25-2,.65.74,1.4,1.4,2,2.17a1.19,1.19,0,0,0,1.53.33c-.13-.22-.68.24,0,0M169.14,93.7A9.87,9.87,0,0,0,173,92.61c-1.89-.46-2.92-.24-3.89,1.09M97,4a6.62,6.62,0,0,0-3.56-1.7c.87.81,2.32,2.75,3.56,1.7-.51-.68-.63.53,0,0m-12-1.63-.06-.14A14,14,0,0,0,81.7,3.72c-.72.39.53,1,1.24.42a16.53,16.53,0,0,0,2-1.74s-.05.07,0,0M5.42,92.66a12.47,12.47,0,0,0,3.82,1.11c-.6-1.36-2.32-1.69-3.82-1.11M84.93,6.15c-.91.32-3.27,3.56-2.78,4.31,1.06-.65,2.87-3.41,2.78-4.31-.57.21.09.9,0,0m11.4,4.33a1.24,1.24,0,0,0,0-.45c-.32-.51-2.13-4.18-2.83-3.8-.06.86,1.82,3.68,2.86,4.25,0-.18-1-.57,0,0m-11.66-.12c.39-.55,2.71-3.5,1.88-4.17-.21-.17-.42,0-.57.17-.76.85-1.66,2.86-1.31,4,.25-.35-.24-.77,0,0m9-.13.19-.07c0-.53-1-4.64-2-4-.82.56,1.49,3.58,1.81,4,.06,0-.2-.29,0,0M83.34,5.92c-1.65-.52-3,2.31-3.54,3.51a1.54,1.54,0,0,0-.09.43c1-.25,3.32-2.78,3.63-3.94-.48-.14-.31,1.16,0,0m15.43,4a13.66,13.66,0,0,0-2.36-3.68c-.4-.51-.64-.57-1.3-.23.17,1,2.65,3.65,3.66,3.91-.07-.2-1-.26,0,0m11.12,31.92c.11-.09.19-.12.22-.16.25-.54.52-1.08.76-1.62.1-.27,0-.43-.37-.48-.81-.09-1.64-.15-2.46-.19a1.36,1.36,0,0,0-.52.21,6.3,6.3,0,0,0,2.37,2.24c.11-.09-.35-.23,0,0m-41.48,0a9.46,9.46,0,0,0,2.66-2.24,7.58,7.58,0,0,0-3.48,0c0,.15-.08.27,0,.36.28.61.56,1.22.87,1.87,1.09-.53-.31-.65,0,0M96.29,12.1a15.09,15.09,0,0,0,3.11,3.48.87.87,0,0,0,.08-.61c-.29-.9-.57-1.81-.88-2.7-.24-.71-1.88-.22-2.31-.17.16.33.68-.07,0,0m-14.18,0c-.57-.06-2.1-.57-2.36.35s-.6,1.84-.86,2.77a.83.83,0,0,0,0,.34c.1,0,.16,0,.18,0a15.26,15.26,0,0,0,3-3.44c-.71-.07-.2.38,0,0M72.83,8.23a21.14,21.14,0,0,0,5.48-2.9c.76-.67-1.09-.82-1.46-.52-.71.54-4.19,2.44-4,3.42.18-.08-.06-.33,0,0m32.77-.16c-.1-1.06-3.31-2.71-4.11-3.31a1.19,1.19,0,0,0-1.33,0c-.81.41,4.8,3.87,5.44,3.36,0-.39-.23.18,0,0M37.81,81.33a.94.94,0,0,1,0,.16c2.26-.18,4.46-.79,6.72-1a.32.32,0,0,0,.27-.16.29.29,0,0,0-.07-.28,2.06,2.06,0,0,0-1.85-.54,35.15,35.15,0,0,0-5.11,1.79s1.65-.74,0,0m95.73-1.11c0,.07,0,.13,0,.2,1.5.35,5.72,1.64,7.06,1-1.31-1-3.56-1.44-5.12-1.84a1.92,1.92,0,0,0-2,.67c0,.07.53-.54,0,0M89.12,1.41A4.46,4.46,0,0,0,87.9,4.23c-.18.76,1.79.45,1.94.47.56.08.77-.06.65-.63-.16-.82-.38-2.37-1.37-2.66-.9.75.53.16,0,0m13.32,7.87a1.14,1.14,0,0,0,.15-.17c-.48-.67-3.16-4-4-3.87a2.31,2.31,0,0,0-1.43.49c1.49,1.52,3.5,2.45,5.3,3.55.06-.06-.37-.23,0,0m-26.59-.1L76,9.3c1.56-1,3.94-1.85,5.12-3.3.18-.22.15-.43-.13-.52a1.31,1.31,0,0,0-1.34-.13c-1.26,1.09-3.1,2.24-3.77,3.83,0,0,.22-.51,0,0m32.77,5.87.16-.18c-.69-.94-2.61-4.32-4-4.25a5.4,5.4,0,0,0-2,.57.58.58,0,0,0,.06.16,57.7,57.7,0,0,0,5.76,3.7c.06-.07-.2-.12,0,0m-33-3.73V11.1c-.52-.13-1.75-.75-2.27-.38-1.17.79-3.42,3-3.65,4.41,2.09-1.18,3.62-3,5.92-3.81,0-.07-.26.09,0,0M18.12,93.82c-1.79-1.44-4.4-2.55-6.51-1.07a21.5,21.5,0,0,0,5.58,1.37.85.85,0,0,0,.93-.3c-.54-.43-.3.4,0,0m142.18,0c.42.32.42.33.92.29a21.22,21.22,0,0,0,5.21-1.21,1.57,1.57,0,0,0,.31-.26,11.18,11.18,0,0,0-3-.77,14.32,14.32,0,0,0-3.42,2c.42.32.49-.44,0,0M130,82.62a30.85,30.85,0,0,0,5,1.17c.07,0,.16-.05.29-.1-.67-1-2.47-1.79-2.74-2.92a9.51,9.51,0,0,0-2.6,1.85c.4.14.8-.82,0,0M43.15,83.69a13.67,13.67,0,0,0,5.21-1.22,12.8,12.8,0,0,0-2.48-1.71c-.3,1.24-2.13,1.76-2.73,2.93.75.18.39-.76,0,0M76,4.09C76,4,76,3.89,75.9,3.85a1.24,1.24,0,0,0-1-.3,41.45,41.45,0,0,0-7,2.86c-1,.43.75.43,1.12.26,2.15-1,4.66-1.3,6.76-2.33A1.94,1.94,0,0,0,76,4.09c-.06-.09-.09.09,0,0m27.35-.56c-.19,0-1,.17-1,.53.15.76,6.66,2.59,7.65,3l.63-.16-.31-.5a42.23,42.23,0,0,0-7-2.82c-.09,0,.52.14,0,0M131.54,87c.18-.27,0-.41-.12-.56-.24-.3-2.31-3.42-2.91-3s-1.37.91-1.53,1.81c.43.44,1.55.86,4.56,1.7.18-.27-3-.84,0,0m-80.1-1.58c-.09-1-.82-1.36-1.38-1.84-.35-.3-.54-.23-.81.16s-2.91,2.81-2.33,3.27a35.06,35.06,0,0,0,4.52-1.59c-.09-1-1.43.69,0,0m66.4-23.11c.42.73,2.51,3.87,3.42,2.49a10.54,10.54,0,0,0,1.37-2.42,36.21,36.21,0,0,0-4.79-.07c.16.28,1.68-.12,0,0m-57.39.13a12.67,12.67,0,0,0-4.63.05,7.77,7.77,0,0,0,1.87,2.79,7.94,7.94,0,0,0,2.76-2.84c-.69-.28-.28.78,0,0M85.61,12.09c-1,0-3.09-.38-3.1,1.22,0,.43-.37,3.76.7,3,.87-.61,2.6-3,2.4-4.24-.33,0,.1.62,0,0m10,4.62c.88-3.22.41-4.63-2.85-4.63-.16,1.61,1.83,3.6,2.85,4.63.1-.35-.28-.29,0,0m-43,67.89c2.27-.25,4.49-.67,6.76-.86,1.07-.09-.41-1.85-1.08-1.72a16.58,16.58,0,0,0-4.67,1.56,2.12,2.12,0,0,0-1,1c.4,0,.27-.55,0,0m65.81-1c2.33.28,5,1,7.31.89a3.27,3.27,0,0,0-.29-.4c-1.32-1.38-3.56-1.7-5.33-2.11a.77.77,0,0,0-.84.4,6.83,6.83,0,0,0-.85,1.22c.42,0,.18-.29,0,0m-61.65-3c0-.06,0-.13.05-.2a4.56,4.56,0,0,0-2.42-1.27c-1.69,0-5.86,0-6.91,1.73,3,.09,6.21-.26,9.28-.26,0-.06-.44,0,0,0m64.75-.19.07.14a90.94,90.94,0,0,1,9.19.33c0-.37-.27-.41-.46-.5-3-1.46-6-1.69-8.8,0,0,0,.84-.53,0,0M71.94,10.29a1.46,1.46,0,0,0,0-.2c-.69-.23-2.48-1.33-3.12-.38-.84,1.22-1.72,2.42-2.53,3.66-.1.16-.33.34-.07.65a51.7,51.7,0,0,0,5.77-3.73c0-.07-.14.13,0,0M112.34,14l.1-.14a25.22,25.22,0,0,0-2.69-4c-.72-1-2.48-.15-3.24.37,0,.07,0,.18.09.22,1.82,1.18,3.72,2.75,5.74,3.55,0-.05-.17-.07,0,0m-28.12,4.1c-.92-.1-1.83-.1-2.75-.13s-.93.11-1,.89a6.64,6.64,0,0,0,.74,2.87c.08.21.24.5.42.55.76.19,2.32-3.58,2.56-4.18-.32,0-.12.28,0,0m12.43,4.28c.15-.08.2-.08.22-.12a6.07,6.07,0,0,0,1-3.7c0-.44-.17-.59-.63-.59Q96,18,94.71,18c-.47,0-.55.18-.32.59a42.06,42.06,0,0,0,2.26,3.76c.15-.08-.14-.19,0,0m7-6.36.19,0a2.67,2.67,0,0,0,.07-.55,6.46,6.46,0,0,0-1.18-3.28,3.77,3.77,0,0,0-.88-.8c-.54-.43-2.28.3-2.78.6,1.57,1.4,3.08,2.72,4.58,4.06.07,0-1.5-1.34,0,0m-29,.1c.86-.61,4.69-3.19,4.63-4.26,0-.31-2.34-.72-2.59-.52a4.45,4.45,0,0,0-1,.91,6,6,0,0,0-1.07,3.87c.29-.21,0-.38,0,0m.7,6.66.17.06a25.26,25.26,0,0,0,3.67-3.92c.17-.21.45-.49.25-.76a3.56,3.56,0,0,0-2-.37c-.79,0-1,0-1.19.76a20,20,0,0,0-.86,4.23c.06,0,0-.29,0,0m27.66,0,.15-.07a11,11,0,0,0-1-4.54c-.35-.84-2.14-.34-2.75-.27-1.23.15,3.07,4.43,3.55,4.88,0,0-.2-.19,0,0m-74.78,42,.05-.17c-.55-.61-4-2.23-4.93-1.75a12.77,12.77,0,0,0-2.87,2c.1.1.15.18.2.18,2.52,0,5-.07,7.55-.27,0-.06-.84.07,0,0M158,65s0-.1,0-.12a7.22,7.22,0,0,0-3-2c-1.06-.37-3.6,1.15-4.49,1.56-.11,0-.18.17-.27.27A32.24,32.24,0,0,0,158,65s-.67.28,0,0M101.09,32.49l-5.7-.36a.77.77,0,0,0,.23.86c.84.93,1.65,1.87,2.57,2.73a17.28,17.28,0,0,0,2.9-3.23c-2-.12-.79,1.33,0,0m-23.75,0a15.94,15.94,0,0,0,2.44,2.82c.39.41.52.42.92,0,.75-.79,1.48-1.61,2.2-2.43.13-.15.13-.42.23-.75l-5.79.36c.17.28,2-.12,0,0m-4.51-2.71A14.93,14.93,0,0,0,77,25.29c.29-.58-3.16-.54-3.42-.55-.49,0-.58.09-.61.57-.07,1.49-.12,3-.12,4.46.25-.15,0-.81,0,0m32.69,0a28.68,28.68,0,0,0-.06-4c0-1.44-2.5-.82-3.62-.89a.59.59,0,0,0-.44.22c-.29.32,3.65,4.42,4.12,4.71,0-.26-.2-.13,0,0m67.86,65.89a55.89,55.89,0,0,0-5.64-.44.85.85,0,0,0-.54.2c-.5.51-2.09,1.95-2.23,2.7a34.25,34.25,0,0,0,8.41-2.46c-.4-.06-.87.66,0,0M5,95.7c1.22.82,7,3,8.42,2.4,0-.08,0-.15,0-.16a19.08,19.08,0,0,1-2.17-2.49.69.69,0,0,0-.72-.25c-1.78.25-3.81-.07-5.53.5.19.12.19-.07,0,0m56.19-52c.17-.06.27-.06.33-.11,1.29-1.07,3.56-2.41,4.42-3.83-.56-.7-5.43-.76-5.28.44s.34,2.31.53,3.5c.17-.06-.19-1.19,0,0m51.21-4c0,.13,0,.22.06.26l4.37,3.71s.13,0,.18,0,.1-.07.1-.1c.2-1.11.43-2.22.58-3.33.09-.7,0-.79-.78-.82a17.44,17.44,0,0,0-4.51.25c0,.13.16,0,0,0M50,68.47c-.56-.79-4.53-.53-5.46-.64-1.91-.22-.08,2.34.29,3.15.23.51.3.53.79.25A35.9,35.9,0,0,0,50,68.47c-.22-.31-.22.17,0,0m83.3,3c.46-1.07.92-2.08,1.34-3.09.23-.56.13-.65-.47-.61-.81.07-5.1-.15-5.82.65a.85.85,0,0,0,.09.19,30.5,30.5,0,0,0,4.86,2.86c.46-1.07-.25-.09,0,0M61.17,12.4l.15.13c2-.85,4.11-3.12,6.32-3.33.52,0,.61-.41.23-.8a3.12,3.12,0,0,0-1.74-.92.79.79,0,0,0-.46.07,10.22,10.22,0,0,0-4.5,4.85s.08-.21,0,0M14.13,97a23.76,23.76,0,0,0,8.45,0c-.51-1-2.11-1.86-3.12-2.33-1.31,1.41-3.84.83-5.33,2.29,2.9.48.57-.55,0,0m141.66,0a23.09,23.09,0,0,0,8.41,0c-1.12-1.19-4.6-1-5.19-2.26a9.66,9.66,0,0,0-3.22,2.3c2.83.53.33-.59,0,0M70.51,23a40,40,0,0,0,4.43-4.85c.42-.52-3.27-1.77-3.61-.3-.42,1.71-1.1,3.38-.82,5.15.23-.21-.06-.32,0,0m37.36,0c.58-1.41-.39-3.48-.71-4.85-.2-.85-.46-1-1.32-.85s-1.42.12-2.15.24c-.38.06-.46.32-.2.64A40,40,0,0,0,107.87,23c.08-.21-.2-.19,0,0M143.57,89c-1-1.2-2.59-2.35-3.2-3.75-.22-.51-.36-.62-.83-.44-.94.38-1.85.78-2.77,1.19-.1,0-.16.17-.24.26,1.92,1.41,5.85,3,7,2.74-.23-.29-1.19.22,0,0m-108.74,0c1.27.22,6.19-1.78,7-2.84-.54-.6-3.37-2-3.79-1-.64,1.46-2.26,2.58-3.25,3.85,1.27.22.21-.27,0,0M18.31,102.83l.12-.21c-.86-.82-1.79-1.57-2.62-2.41a1.31,1.31,0,0,0-1.33-.36c-2.05.35-4.11.64-6.18.9,3.29,1,6.71,1.23,10,2.08,0-.07-3.3-.85,0,0M143.75,59.47c.09.11.12.19.17.22A18.14,18.14,0,0,0,150,61.83a24.25,24.25,0,0,0-1.25-3.53c-.3-.62-.47-.67-1.12-.44a19.9,19.9,0,0,0-3.86,1.61c.09.11.19-.12,0,0m16.31,31.64c-1.36-.5-5.17-3-6.51-2.46a9.62,9.62,0,0,0-3,1.43c1.53.87,8,1.59,9.48,1-.39-.15-1.44.56,0,0M160,102.65l.11.19c3.29-.89,6.73-1,10-2.06-.69-.4-6.48-1.5-7.29-.75s-1.95,1.67-2.81,2.62c0,.06.15-.18,0,0M28,90.15c-3-2.3-6.64-.93-9.52,1,.05.07.08.12.11.13,2.75.81,6.75-.29,9.41-1.1-.29-.22-.83.25,0,0m.48-28.38a19.11,19.11,0,0,0,6.25-2.32,41,41,0,0,0-3.83-1.57c-1.6-.59-2.12,2.92-2.42,3.89.94.07.18-.58,0,0m26.29-43c.15,0,.23,0,.27-.05,1.2-.89,5.43-2.71,5.85-4.1-.38-.22-2.51-2-3.1-1.31-1,1.27-3.37,3.66-3,5.46.15,0-.11-.57,0,0m64.49,41.81a13.86,13.86,0,0,0,2.2-5.44,16,16,0,0,0-3.78-.26c-.32,0-.42.22-.36.52a15,15,0,0,0,1.94,5.18c.16-.24-.07-.09,0,0M124,43.87a24.87,24.87,0,0,0,1-4.57c0-.42-.11-.46-.52-.46a18.7,18.7,0,0,0-4.47.51c.55,1.6,2.65,3.57,4,4.52.29-1.15-.21-.15,0,0M61.17,55a9.31,9.31,0,0,0-3.79,0c-.27,0-.43.18-.39.43.24,1.39,1.08,4.14,2.25,5.08A21.35,21.35,0,0,0,61.17,55c-.17-.05-.2,1.41,0,0M54.49,43.84a24.78,24.78,0,0,0,3.77-4c.27-.32.18-.54-.22-.58-1.35-.15-2.7-.3-4-.4s.1,4.54.5,5c.17-.13-.1-.13,0,0M66,16.33c-.49-.58-2.74-.95-3.38-1.12-1.88-.52-2.35,4.11-2.41,5.12a.61.61,0,0,0,.14.07c1.88-1.34,3.87-2.61,5.65-4.07-.31-.36-.15.12,0,0M107.52,37.4a17.58,17.58,0,0,0,.61-5.11.38.38,0,0,0-.48-.42,37.89,37.89,0,0,1-3.85.23c-.11,0-.22.11-.33.16a32.74,32.74,0,0,0,4,5.14c.06-.21-.72-.55,0,0m-41-7.61c.47-.24,5.07-4.52,4.8-5-.42-.69-2.55-.5-3.19-.6s-.73,0-.94.41a7.56,7.56,0,0,0-.67,5.15c.19-.09-.2-.64,0,0m-2-7.83a34.71,34.71,0,0,0,5.55-4.34c.44-.42.35-.76-.23-.87s-2.73-.76-3.1-.41a3.75,3.75,0,0,0-.87,1A23.57,23.57,0,0,0,64.52,22c.24-.14.11-.61,0,0m49.19-.08.18-.09c-.38-1.72-.71-3.8-1.92-5.18a.65.65,0,0,0-.72-.28,27.09,27.09,0,0,0-2.84.46c-1,.23,4.65,4.55,5.3,5.09.06,0-.26-.2,0,0m-1.79,8c.94-4.18-.77-6.6-5-5.1,1.76,1.68,3.06,3.59,5,5.1.07-.32-1.94-1.51,0,0m-41,7.49.2.1c1.06-1.68,2.49-3.12,3.65-4.74.3-.41.21-.61-.27-.64-1,0-3.24-.4-4.2-.1-.08,1.74.41,3.41.47,5.1a1,1,0,0,0,.15.28c.07,0-.05-.09,0,0m14.83-5.21c.6.84,1.43,2.51,2.63,2.57a10.17,10.17,0,0,1,1.47.13,1.08,1.08,0,0,0,1.14-.5c.56-.76,1.2-1.43,1.71-2.23a2,2,0,0,0-.5-.2,31.65,31.65,0,0,0-6,0c-.12,0-.23.11-.45.22.19.27.22-.11,0,0m-4.69-2c1.15-1,2-3.14,2.77-4.47.63-1.09-4.28-.67-5-.63-.63,1,1.67,4.26,2.26,5.1.12-.11-.18-.24,0,0m18.65-5c-1.3-.49-3.29-.17-4.65-.1-.57,0-.67.21-.41.72a40.13,40.13,0,0,0,2.66,4.35c.81-.41,2.71-4.26,2.4-5-.07,0,.14.32,0,0m26.82,13.63c.72,1.34,3.52,4.08,4.53,4.41.18-.69,1-5.35.14-5.27-.55,0-1.11.11-1.66.21a2.48,2.48,0,0,0-.68.61c-.52.46-.57-.32-1.11-.26a7.19,7.19,0,0,0-.81.05,1.73,1.73,0,0,0-.41.25c.72,1.34.13-.08,0,0m-78.89,4.4c.44-.31,5.26-4.5,3.76-4.66-.31,0-1.62.35-1.72.27a3.6,3.6,0,0,0-2-.86c-.64-.09-.78,0-.75.65.06.85-.27,4.28.76,4.6.14-.1-.36-.11,0,0M57,31a1.9,1.9,0,0,0-.59,1.51,17,17,0,0,0,.15,3.43c.14.87,4.54-3.73,5.09-4.3C61,31.2,59.33,31,57,31c-.47.43,2.38,0,0,0M44.21,34.56c.5-.31,5.1-4.14,4.83-4.74-.37-.87-3.22-.92-3.95-1.07-.46-.09-.55,0-.7.39a11.32,11.32,0,0,0-.18,5.42c.18-.11-.07-.16,0,0m77.59,1.82a24.6,24.6,0,0,0,.25-4.38,1.56,1.56,0,0,0-.51-.9c-.58-.54-4.06.06-4.67.43a14.94,14.94,0,0,0,4.93,4.85c0-.33-.19-.07,0,0m30,51.09.06-.13c-1.52-1.17-5.53-4.41-7.5-4.07-.11,0-3.68.74-2.59,1.28,2.74,1.35,7,2.92,10,2.92,0,0-.13,0,0,0M63.56,37.24a.7.7,0,0,0,.19.06c1.61-1.72,3.09-3.55,4.6-5.37-.42-.67-4.82-.81-4.86.09a31.35,31.35,0,0,0,.07,5.22c.07,0-.06-.47,0,0M36.94,84.29a6.65,6.65,0,0,0-2.63-1c-2.07-.52-6.45,3.07-7.91,4.13,2.9.3,8.22-1.44,10.54-3.14-.19-.15-.2.14,0,0M134.13,31.5l.13,0c0-.72-.07-1.45-.18-2.17-.19-1.32-3.67.06-4.36.22-.46.2-.48.46-.07.79,1.4,1.3,2.67,2.88,4.21,4,.94.72.3-2.65.27-2.87,0,0,.08.85,0,0m-19.45,5.79.19-.06c.13-1,.88-5.46-.47-5.69-.74-.12-3.9-.4-4.34.4,1.54,1.79,3,3.66,4.62,5.35.06,0-1.65-1.69,0,0M25,95a23.39,23.39,0,0,0,8.6-2.36,27.7,27.7,0,0,0-4.24-2.08,38.51,38.51,0,0,1-4.17,4A1.75,1.75,0,0,0,25,95c.33,0,.09-.21,0,0m120-2.36c.74.68,7.52,2.45,8.47,2.22-.72-1.39-2.92-2.88-4.07-4a.53.53,0,0,0-.71-.12,17.72,17.72,0,0,0-3.69,1.93c.74.68.12-.1,0,0m-105.82.77.13.12c2.43-.26,5.34-3,6.93-4.7.23-.24.22-.46,0-.6-.67-.35-1.34-.7-2-1-.36-.17-.47-.1-.7.25-1.34,2.07-3,3.78-4.27,6,0,0,.48-.82,0,0M132,88.61c1.33,1.36,5.17,5.43,7.22,4.91a.76.76,0,0,0,0-.17c-.4-.78-3.71-6.68-4.86-6.11-.75.37-1.5.77-2.25,1.16,0,0,0,.07-.1.21.17.18.06-.14,0,0M136.79,59c.56-1.57.43-3.36.81-5,.2-.9.19-.93-.72-.69-1.7.46-3.56.7-5.21,1.31A42.43,42.43,0,0,0,136.79,59c.23-.66-.23-.15,0,0M46.68,54.62c-2-.48-4-.93-6-1.43.38,1.91.43,4,1,5.87,1.16-.79,4.72-3.15,5.06-4.44-2-.48,0,.17,0,0m1.75.34c.68,1.73,1.44,3.28,2.16,5,1.57-.85,3.86-3.14,4.38-4.86L48.43,55c.68,1.73,2.26,0,0,0m75,.1c.08.26.08.39.14.46a28.14,28.14,0,0,0,3.83,4.19,1.71,1.71,0,0,0,.47.19L130,55l-6.62.1c.08.26,2.24,0,0,0m1,7.24a.94.94,0,0,0,.51.81c.75.54,4.6,4.11,5.12,2.67s1.64-2.6,1.94-3.94c-2.57,0-5.07.26-7.57.46,0,.44.77-.06,0,0m-77.95-.46c.26,1.31,1.6,2.88,2.13,4.19.13.3.33.34.6.19A32.36,32.36,0,0,0,53.65,63a.78.78,0,0,0,.38-.73c-2.48-.24-5.09-.44-7.62-.44,0,.18.25,0,0,0M59.77,29.29a1.48,1.48,0,0,0,.13.08,46.43,46.43,0,0,0,5.83-4.85c.12-.11.27-.35.22-.44a.74.74,0,0,0-.46-.3,33.37,33.37,0,0,1-3.72-.69.41.41,0,0,0-.55.33,27.54,27.54,0,0,0-1.45,5.87s0-.42,0,0m81.45,31c-1.23-.44-6,.82-7.23,1.37a24.42,24.42,0,0,0,6,3.41,13.4,13.4,0,0,0,1.19-4.78c-.12,0,0,.17,0,0M44.39,61.84v-.2c-1.66-.5-5.53-1.79-7.23-1.32.27,1.37.62,2.72.92,4.09.39,1.79,5.53-1.92,6.31-2.57,0-.06-.13.11,0,0M89.17,11.05v0A2.1,2.1,0,0,0,90.53,11c.86-.92,1.37-5.08-.59-5-.47,0-1.83-.26-2.2.39a5.19,5.19,0,0,0-.47,3.51c.1,1.1,1,1.22,1.9,1.22h0M54.91,27.89c.72-.4,6-4.87,5-5.19s-2-.75-3-1.06c-2.08-.63-2.65,5.19-2,6.25.18-.1-.25-.39,0,0m95,73.73c2.36.5,5.52,1.41,7.9,1.23.94-.08-3-4-3.34-4.5-.17-.28-.43-.23-.64-.06-1.28,1-3,2-3.92,3.33.4.08.16-.23,0,0m-12.1-59.34c.93-1.05.92-4.71.26-5.8s-5.54,1-4.86,1.59c1.54,1.37,3.18,2.72,4.6,4.21.38-.42-.27-.29,0,0M20.16,102.74c2.14.47,6.37-.48,8.44-1.14a31.26,31.26,0,0,0-3.82-3.16c-.5-.4-.61-.37-1,.14-1.14,1.42-2.69,2.62-3.61,4.16,1.06.23.14-.23,0,0M40.55,42.28c.68-.51,5.58-4.63,4.53-5-1.27-.43-2.57-.81-3.84-1.22-.52-.17-.63-.09-.89.38a7.9,7.9,0,0,0,.2,5.83c.14-.1-.26-.43,0,0M89,12v0c-.39,0-2.43-.43-2.27.65a33,33,0,0,0,.72,3.42.6.6,0,0,0,.59.44c.65.07,1.29.16,1.93.22s.72,0,.94-.6a17.09,17.09,0,0,0,.73-3.62c0-.36-.07-.51-.5-.53-.71,0-1.43,0-2.14,0h0m39.31,24.47c.33-1.76-.26-3.56,0-5.24a1,1,0,0,0-1.26-1.18,3.61,3.61,0,0,0-2.39.66c-.73,1-1-.74-1.7.11-.21.24-.12.46.09.64,1.77,1.62,3.33,3.6,5.27,5,.07-.38-.27-.2,0,0m-78.24.06c.59-.48,6-5,5.41-5.69-.08-.08-4-.76-4.28-.8a.78.78,0,0,0-.9.39c-.84,1.35-.53,4.7-.23,6.1.34-.27-.21-1,0,0M33.49,56.62c1.23,0,6.34-3.74,5.11-4.44a28.7,28.7,0,0,0-3.88-1.59.41.41,0,0,0-.58.28,13.72,13.72,0,0,0-.69,5.7.07.07,0,0,0,0,0c.35,0,0,0,0,0m111.5,0a14.4,14.4,0,0,0-.62-5.55c-.23-.6-.33-.63-1-.41-1.28.43-2.51,1.21-3.79,1.61-.17.06,3.69,4.77,5.37,4.35,0-.22-.41.1,0,0M60,52.94h.19c.61-.85,4.49-5.56,3.91-6.26s-4.16-.35-5.13-.38c-.41,0-.48.07-.57.49-.35,1.71,1,4.58,1.6,6.14.07,0-.06-.17,0,0m58.38.15A15.42,15.42,0,0,0,120,46.92c0-.52-.14-.61-.65-.61a25.08,25.08,0,0,0-4.75.16c-1,.24,3.21,5.9,3.71,6.62.14-.3-.3-.43,0,0m-70-25,.18.08a24.88,24.88,0,0,0,6-6.59c.62-1-1.45-1.56-2.15-1.93-.48-.25-.67-.18-1,.27-1.46,2-3.21,5.74-3,8.17.06,0,0-.19,0,0m87.3,16.5c1.17,1.77,3.37,4.5,5.37,5.36a11.51,11.51,0,0,0,.34-6c-.22-.8-.44-.91-1.27-.69a18.6,18.6,0,0,0-4.44,1.38c.2.31.92-.53,0,0m-92.91-.1c-1.58-.53-3.15-1-4.78-1.35-.42-.1-.64,0-.8.39-.67,1.8-.11,4.2,0,6.05.09.41.29.48.62.2,1.73-1.53,3.88-3.22,5-5.29-.68-.23-.15.3,0,0m14.09,1.79a28.9,28.9,0,0,0-5.58-.62c-1.22-.1.49,6.67.79,7.46,1.06-1.06,5.14-5.27,4.79-6.84-.17,0,.12.52,0,0m69.48,6.82a18.5,18.5,0,0,0,1.46-7,.44.44,0,0,0-.5-.5,31.56,31.56,0,0,0-5.4.52c-.78.16,3.92,6.38,4.44,6.94.13-.26-.19-.19,0,0m7.16-.75c.23-1.33,2.16-7.79.36-7.54-1.51.21-3,.39-4.51.57-.58.08-.64.21-.4.74a21.46,21.46,0,0,0,4.55,6.23c.11-.62-.53-.55,0,0M45,52.21a.85.85,0,0,0,.22-.09,20.9,20.9,0,0,0,4.28-6c.24-.56.22-.62-.37-.7-1.57-.21-3.14-.46-4.71-.63-1.32-.14,0,6.77.58,7.45.07,0,0-.07,0,0M86.83,25.09v.05h-.47c-.54,0-.66.15-.48.65.46,1.39,1.21,2.71,1.75,4.07a.8.8,0,0,0,.87.57c.49,0,1,.05,1.47.07a.58.58,0,0,0,.65-.35c.62-1.46,1.4-2.87,1.93-4.36.17-.46.08-.61-.43-.63-1.76-.1-3.52-.07-5.29-.07,0,0,1,0,0,0m52.28,71c.88,2,7,3,8.85,3.48a1.21,1.21,0,0,0,1-.06c-.34-.85-5.07-6.39-5.67-6-1.18.69-3.3,1.53-4.18,2.63.2.44.31-.38,0,0m-99.73.14c-.73-1.09-2.88-2-4-2.63-.55-.32-.66-.28-1.08.21-1.41,1.64-4,3.7-4.85,5.7,2,1,8.15-2.29,9.88-3.28-.38-.56-.39.22,0,0M87,17.78c-2.37,0,.1,4.15.49,5.24a.81.81,0,0,0,.76.63c.6.05,1.2.1,1.8.13s.67,0,.87-.6c.33-.88,2.85-5.61.62-5.53-1.52.06-3,0-4.54.13-1,0,.84-.05,0,0M42.81,67.71c-3.42-1-7.05-1.34-10.53-2.09-.67-.13-.83-.05-.9.6a20,20,0,0,0,0,4.31c0,.42.12.52.53.5,3.17,0,8.42-1.38,10.92-3.32-.36-.11-.3.23,0,0m93,0,0,.17C138,69.32,144.47,71.75,147,71a16.58,16.58,0,0,0,0-4.77c-.2-1.16-10,1-11.26,1.51,0,0,.13-.07,0,0m-19.95-9.22c-.37-15.6-17.19-24.76-31.74-21.92a34.55,34.55,0,0,0-10.46,3.66c-1.81,1-6.76,3.77-7,6.1-.17,1.48-2,3.15-2.61,4.6a18.18,18.18,0,0,0-1.26,5.64c-.16,3.46-.32,7.75,1.68,10.77a2.88,2.88,0,0,1,.13,3.15c-1,1.92-9.11,5.62-6.74,7.54,4.25,3.42,8.82,6.48,13.09,9.94,4.85,3.93,9.21,6.25,15.66,5.65.17,0,.46-.15.47-.27.51-2.91-10.48-4.33-11.93-5.7a1.51,1.51,0,0,1-.45-1.2c0-.45.12-.57.54-.73a6.28,6.28,0,0,1,4.34.2c3.57,1.26,6.74,4.47,10.85,3.66,3-.6,5.47-2.26,8.22-3.52a6.38,6.38,0,0,1,4.51-.37.79.79,0,0,1,.66.86,1.69,1.69,0,0,1-.69,1.32c-2.82,2.37-9.6,1.33-11.71,5-.2.35-.06.64.36.73,5.57,1.18,10.8-1.43,14.86-4.92q3.32-2.85,6.7-5.6c2.26-1.82,5.33-3.09,7.36-5.09a1.39,1.39,0,0,0-.29-2.42c-2.4-1.41-5.17-2.52-6.51-5.11a2.88,2.88,0,0,1,.09-3c1.65-2.68,1.64-5.87,1.89-8.93-.06-2.22-.11,1.42,0,0m1.33-45.94.14-.15c-.61-1.3-3.12-5.2-5-4.91a3,3,0,0,0-1.88,1.06,1.68,1.68,0,0,0-.19.5c2.56.72,4.43,2.61,6.9,3.5,0,0-.2-.07,0,0m6.41,6.3.15-.06a11.42,11.42,0,0,0-2.78-5.1c-.55-.63-.66-.66-1.4-.21.79-.48-2,1-1.9,1.25a1.32,1.32,0,0,0,.43.55c1.61,1.35,3.79,2.25,5.5,3.57,0,0-.48-.37,0,0m-5.39,1.65c0-.23.11-.33.09-.43a18.62,18.62,0,0,0-1-4c-.54-1.35-4.37-.66-4.76.32l5.72,4.15c0-.23-2-1.42,0,0m.39,8.9c.37-1.69-.67-3.88-1.17-5.42-.37-1.13-.27-.9-1.39-.76a14.18,14.18,0,0,0-3.71.84c1.43,1.72,4.2,4.48,6.27,5.34.08-.37-.15-.05,0,0m5.06-1.46c0-1.56.21-4.94-1-6.17a.6.6,0,0,0-.59-.24c-1.19.29-4.81.82-3.07,2.43,1.39,1.29,2.91,3.18,4.69,4,0-.46-.8-.36,0,0m6.46.16c-.09-1-2.37-9.37-3.94-8.54-.71.36-1.43.74-2.11,1.13-.51.3-.54.41-.22.89.83,1.23,4.62,6.78,6.27,6.52,0-.27-.49.07,0,0M72.78,95.59c-3.37-1.77-6.07-4-9.2-6.21a4.28,4.28,0,0,0-4.75-.22c-4.93,2.65-7.37,9.42-12,12.83-5.32,3.9-12.83,5.35-19.25,6-9.46.89-29.82-3.31-27.37-16.71a.81.81,0,0,1,.68-.66c2.82-.55,6.1.31,9,.41,3.38.13,7.2-1.68,10.19-3,3.27-1.51,6.41-3.23,9.56-5,2.14-1.17,7.38-2.65,8.64-4.53.56-.81.13-1.39-.66-1.58-6.45-1.58-14.86-3.7-19.19-9.16a4.36,4.36,0,0,1-.64-4.55,4.65,4.65,0,0,1,3.16-2.63,25,25,0,0,1,3.17-.39c1.2-.2,3.29-2.18,4-3.07C31.43,53,32.69,47,35,42.45c3-5.76,6.64-11.09,9.64-16.78C47.12,21,51.54,18.2,54.37,14,55.81,11.93,65.1,4.1,67.61,5.42c1.29-1.76,6.12-3.19,8.23-3.5C80.26,1.24,84.38,0,88.92,0c6.29,0,17,.87,21.88,5.36,2.31-.6,6.22,3,8,4.27a61.34,61.34,0,0,1,6.75,6,74.43,74.43,0,0,1,11.05,14.47c3.5,5.66,6.2,11.6,9.28,17.46,2.06,4,3.24,11.53,8.6,12.64,1.63.34,3.18.27,4.66,1.13A4,4,0,0,1,161,64.63a3.91,3.91,0,0,1-.89,2.92c-4.58,5.41-12.46,7.66-19.09,9.28-.71.17-1.09.41-1.14.86-.19,1.7,14.16,8.31,16,9a83.18,83.18,0,0,0,9.89,3.82c3.93,1.06,8.33-1.1,12,.13,2,.68-.08,6-.55,7.07-1,2.35-3.29,3.85-5.27,5.34-4.77,3.55-12.54,5.29-18.5,5a45.2,45.2,0,0,1-20.19-5.24,23.37,23.37,0,0,1-6.47-5.54c-2.24-2.59-4.11-6.5-7.18-8.18a4.27,4.27,0,0,0-4.81.23c-2.49,1.8-4.77,4.08-7.6,5.38-5.17,3.57-12.26,5.14-18.11,2.28-1.09,0-2.49.73-3.63.82a29.35,29.35,0,0,1-12.68-2.29c-.68-.37,11,4.23,0,0"/><path id="_Trazado_compuesto_3" data-name="&lt;Trazado compuesto&gt;" d="M110,50.82c-.71.79-.77,3.62-.05,4.34a1,1,0,0,0,1,.22c.39-.09.33-.45.33-.71A6.45,6.45,0,0,0,110,50.82c-.33.39.21.32,0,0m-42,.08a1.48,1.48,0,0,0-.26.2,7,7,0,0,0-1.09,3.17,2.36,2.36,0,0,0,.07.79.51.51,0,0,0,.28.31,1.08,1.08,0,0,0,1.38-1c0-1,.21-2.58-.38-3.45-.13.1.28.41,0,0m2.34,4.38c1.94.5,4.7,1.63,6.68,1.55a21.88,21.88,0,0,0-2.67-3.65.53.53,0,0,0-.76-.15,16.24,16.24,0,0,0-3.25,2.25c.82.21.2-.18,0,0m37.27,0a22.36,22.36,0,0,0-3.2-2.19c-.47-.26-.58-.25-.91.16A17.34,17.34,0,0,0,101,56.86a39.72,39.72,0,0,0,6.68-1.58c-.26-.21-.86.22,0,0M87,66.56c.41-.63,2.44-6.29,1-6.23-.35,0-4.59.33-3.62,1.43s1.83,3.38,2.62,4.8c.16-.24-.29-.54,0,0M94,61.34a8.59,8.59,0,0,0-3.59-1c-.76-.06-1,.15-.89.89A22.78,22.78,0,0,0,91,66.6C92.2,65,92.75,63,94,61.34c-.24-.14-.21.28,0,0m13.62-12.87C105.42,45,94.84,39.8,90.74,41.29c0,.1,0,.14,0,.18,1.21,1.9,5.31,4,5.63,6.19,1.33.45,3.52.05,4.94.15,2.1.15,4.2.66,6.3.66-.13-.22-.36,0,0,0M70.5,48.35c0,.06.06.11.08.16,3.59-.26,7.1-.69,10.71-.79.22,0,.41,0,.49-.25.74-2.43,4.45-3.83,5.63-6.18C82,40.54,74.09,44.54,70.5,48.35c0,.06.21-.21,0,0m5.26,3.92c3.08,1.75,6.31,3.94,9.5,5.42.7.33.84.24,1-.5a75,75,0,0,0,1.59-7.92c.17-2.05-10.79,2.08-12.07,3,.3.17.28-.2,0,0m26.53,0c-3.17-2.34-7.72-3.28-11.6-3.62-.39,0-.48.09-.44.48a65.52,65.52,0,0,0,1.62,8.33c.1.43.25.53.67.36a49.18,49.18,0,0,0,9.75-5.55c-.2-.14-.21.15,0,0M89.76,39.31a25.56,25.56,0,0,1,15.63,4.62c3,2.21,10.79,8.34,7.38,12.69a2,2,0,0,1-.72.44c-1.76.83-4.61-.25-6.61.06a21.39,21.39,0,0,0-8,3.21c-6,4-6,10.67-7.77,16.86-.12.48-.35.64-.68.61s-.56-.32-.64-.67c-1.52-6.72-2.2-13.71-8.8-17.5a23.87,23.87,0,0,0-6.74-2.48c-2.21-.46-6.92,1.45-7.92-1.28,0,0,0,0,0-.06a4.21,4.21,0,0,1,.26-3.6c4.07-9.28,15.25-12.83,24.63-12.9,2.11-.15-2.53,0,0,0"/><path id="_Trazado_" data-name="&lt;Trazado&gt;" d="M67,71.68c0-.28,0-.58.07-.86a.82.82,0,0,1,.53-.7c3.17-1.51,3,9.51,6.29,10.42,5.14,1.44,9.91,2.07,14.64,4.72a.9.9,0,0,0,1,0,32.93,32.93,0,0,1,8.8-3.46c1.82-.4,5.88-.38,6.92-2.26.54-1,1.8-2.25,2.09-3.35.51-1.9.09-3.73,1.13-5.56a1.63,1.63,0,0,1,2.25-.35c2.74,2.47-2.78,10.23-4.45,11.89s-6.24,1.72-8.54,2.31A37.75,37.75,0,0,0,90,87.35c-2,1-7-2.18-9.23-2.72-2.52-.62-7.4-.69-9.16-2.67A18.28,18.28,0,0,1,67,71.69h0c0-.28,0,0,0,0"/><path id="_Trazado_2" data-name="&lt;Trazado&gt;" d="M77.52,77c3.89-.11,7.87,2.6,11,4.54a.78.78,0,0,0,1,0c3.72-2.27,7.92-4.81,12.45-4.47a1.54,1.54,0,0,1,1.35,1.36,1.07,1.07,0,0,1-.47,1.11c-4,2.39-9.27,1.55-13.34,4.28-.38.26-.54.28-.91,0-2.33-1.71-5.59-2.47-8.37-3.06-.36-.07-8.6-1.47-4.72-3.46a4.05,4.05,0,0,1,2-.27c1.4,0-.38,0,0,0"/><path id="_Trazado_3" data-name="&lt;Trazado&gt;" d="M103,63a2.67,2.67,0,0,1,.93-2.09,4.39,4.39,0,0,1,6-.46c2.24,1.61,1.6,4.93-.72,6.16a4.23,4.23,0,0,1-4-.08A3.81,3.81,0,0,1,103,63c-.08-.84,0,1.62,0,0"/><path id="_Trazado_4" data-name="&lt;Trazado&gt;" d="M70.56,67.05a4.16,4.16,0,0,1-3.76-3.92,2.65,2.65,0,0,1,.59-1.85A4.53,4.53,0,0,1,71,59.47a3.92,3.92,0,0,1,2.65,1,5.21,5.21,0,0,1,.71.7,3,3,0,0,1,.45,3.3,4.13,4.13,0,0,1-1.59,1.91,5.58,5.58,0,0,1-2.69.71c-1-.1,1-.12,0,0"/><path id="_Trazado_5" data-name="&lt;Trazado&gt;" d="M78.89,69.81c3.42-.1,6.92,2.29,9.71,4a.66.66,0,0,0,.83,0c3.28-2,7-4.23,10.95-3.92a1.33,1.33,0,0,1,1.17,1.21.9.9,0,0,1-.41,1c-3.47,2.09-8.14,1.37-11.71,3.76-.33.22-.48.24-.8,0-2-1.51-4.91-2.19-7.36-2.69-.31-.07-7.55-1.3-4.14-3a3.53,3.53,0,0,1,1.76-.24c1.23,0-.33,0,0,0"/><path id="_Trazado_6" data-name="&lt;Trazado&gt;" d="M61.05,135.81l-.32.21c-.06.06-.14.11-.17.17s0,.31-.22.43a1.34,1.34,0,0,1-1.21.13c-.18-.06-.33-.16-.5-.23a1.08,1.08,0,0,0-.65-.15,1.85,1.85,0,0,1-.64-.1L55.5,136c-.26,0-.52-.09-.78-.13a.45.45,0,0,0-.16,0l-1.41.11c-.42,0-.84.08-1.25.14s-.73.15-1.09.21a1.81,1.81,0,0,1-.38-.05l-.39,0s-.08,0-.1,0c-.24-.2-.5-.1-.76,0a.88.88,0,0,1-.78-.43.81.81,0,0,0-.16-.29.63.63,0,0,1-.25-.59c0-.14-.12-.29-.17-.45-.14-.44-.3-.88-.42-1.32,0-.12.07-.27.12-.41s.18-.24.16-.33a1.59,1.59,0,0,1,.23-1.22c.05-.12,0-.29.07-.42a6,6,0,0,1,.28-.7c.12-.29.26-.58.39-.87s.23-.5.34-.76a.29.29,0,0,0,0-.13,14,14,0,0,0-.2-2.73,22,22,0,0,1-.48-2.34,5.66,5.66,0,0,1-.07-.72c0-.08,0-.15,0-.19-.23-.3-.07-.59,0-.88a1.13,1.13,0,0,1,.57-.7,1,1,0,0,0,.26-.23,1.56,1.56,0,0,1,2.23.23,3.21,3.21,0,0,1,.43,2c-.07.5-.06,1-.08,1.54q0,1.22-.06,2.43a.33.33,0,0,1,0,.21c-.21.17-.15.36-.09.56a.65.65,0,0,1,0,.24c-.07.54-.13,1.09-.23,1.63-.06.33-.18.65-.26,1-.1.49-.19,1-.3,1.49a3.45,3.45,0,0,1-.2.62.54.54,0,0,0,.32.78,8.48,8.48,0,0,0,2.54.54c.2,0,.39.09.59.13a5.08,5.08,0,0,0,.86.12,5.58,5.58,0,0,1,1.62.24c.27.08.56,0,.84.12.56.15,1.11.34,1.67.51l.53.15a6,6,0,0,1,1.57.87"/><path id="_Trazado_7" data-name="&lt;Trazado&gt;" d="M38.83,122.52a15,15,0,0,0-.4,1.47c-.15.77-.24,1.55-.35,2.32,0,.1,0,.21,0,.32,0,.39.1.48.5.5h.82a8.29,8.29,0,0,1,2.92.44,8.53,8.53,0,0,0,1.08.22c0,.17,0,.35-.11.45a1.42,1.42,0,0,1-.81.63l-1.24.23-3.56.68c0,.33-.11.63-.11.93,0,.71,0,1.41,0,2.12a.54.54,0,0,0,.23.46,3.07,3.07,0,0,0,1.41.58c1.15.2,2.32.4,3.49.56a6,6,0,0,0,1.46,0,1.5,1.5,0,0,1,1.27.5.64.64,0,0,1,0,.55,2.2,2.2,0,0,1-.44.62,9,9,0,0,1-.68.7,1.28,1.28,0,0,1-.5.29,12.57,12.57,0,0,1-3.51.33c-1-.1-2.11-.2-3.16-.33A3.24,3.24,0,0,1,35.37,136a2.48,2.48,0,0,0-.41-.44,2,2,0,0,1-.74-1.58c0-.7-.09-1.4-.15-2.11a16.61,16.61,0,0,1,.09-3c.05-.62.09-1.26.14-1.89,0-.48.06-1,.1-1.47.09-1.33.19-2.67.29-4a3.44,3.44,0,0,1,.66-1.87,1.19,1.19,0,0,1,1.34-.49,5.3,5.3,0,0,1,1,.37c.22.13.38,0,.56,0a9.39,9.39,0,0,1,1.91,0,15.5,15.5,0,0,1,3.19.1,1.67,1.67,0,0,1,.95.39.89.89,0,0,1,.18,1.21,1.62,1.62,0,0,1-1,.66c-.76.15-1.51.36-2.27.48s-1.53.15-2.37.23"/><path id="_Trazado_8" data-name="&lt;Trazado&gt;" d="M96.34,122.88c-.13.47-.3,1-.4,1.47-.14.77-.23,1.55-.35,2.32a1.77,1.77,0,0,0,0,.33c0,.38.1.47.49.49s.55,0,.84,0a8,8,0,0,1,2.91.44,10.93,10.93,0,0,0,1.08.21,1.3,1.3,0,0,1-.11.47,1.36,1.36,0,0,1-.81.61l-1.24.23-3.56.68a8.21,8.21,0,0,0-.1.93c0,.71,0,1.41,0,2.13a.53.53,0,0,0,.22.46,3,3,0,0,0,1.41.57c1.16.2,2.32.4,3.49.56a5.18,5.18,0,0,0,1.47,0,1.5,1.5,0,0,1,1.26.51c.1.08.11.38.05.54a2.2,2.2,0,0,1-.44.62,9,9,0,0,1-.68.7,1.32,1.32,0,0,1-.51.3,13.21,13.21,0,0,1-3.49.33c-1.06-.11-2.12-.2-3.17-.33a3.22,3.22,0,0,1-1.84-1.13,3.35,3.35,0,0,0-.41-.43,1.94,1.94,0,0,1-.74-1.57c0-.71-.09-1.41-.16-2.12a17.44,17.44,0,0,1,.1-3c0-.63.09-1.27.14-1.89s.06-1,.1-1.48c.1-1.33.19-2.66.29-4a3.37,3.37,0,0,1,.66-1.87,1.19,1.19,0,0,1,1.34-.49,4.44,4.44,0,0,1,1,.37c.22.14.39,0,.57,0a10,10,0,0,1,1.9,0,15.37,15.37,0,0,1,3.18.11,1.68,1.68,0,0,1,1,.37.9.9,0,0,1,.18,1.22,1.59,1.59,0,0,1-1,.66c-.76.16-1.5.37-2.26.49s-1.53.15-2.38.22"/><path id="_Trazado_9" data-name="&lt;Trazado&gt;" d="M131.71,133.38c-.23.26-.37.44-.53.61a1.17,1.17,0,0,1-.68.37,5.2,5.2,0,0,0-1.1.45c-.21.1-.43.17-.65.27s-.67.21-.84.6c-.1.21-.38.32-.62.52a2.35,2.35,0,0,1-.59-.3,1.5,1.5,0,0,0-1.29-.33,2.34,2.34,0,0,1-1.42-.28,10.36,10.36,0,0,1-3-2.33,2.88,2.88,0,0,1-.36-.61,14.83,14.83,0,0,1-1.07-2.57,7,7,0,0,1-.35-2,3.91,3.91,0,0,1,.18-1.55,6.14,6.14,0,0,0,.08-.75,8.53,8.53,0,0,1,.68-1.93,4.48,4.48,0,0,1,1.17-1.38.77.77,0,0,0,.26-.45.64.64,0,0,1,.37-.5,10.87,10.87,0,0,1,1.43-.91,1.09,1.09,0,0,0,.5-.4,1,1,0,0,1,.76-.47,12.64,12.64,0,0,0,1.78-.65,3.16,3.16,0,0,1,1.67-.13,11.75,11.75,0,0,0,1.36.17,3.37,3.37,0,0,1-.19,2.53,6.36,6.36,0,0,0-2,.64,2.44,2.44,0,0,1-.76.15,2.55,2.55,0,0,0-1.63.57,12.74,12.74,0,0,0-1.38,1.15,2.21,2.21,0,0,0-.83,1.36.66.66,0,0,1-.09.19,4.19,4.19,0,0,0-.45,1.67,9.93,9.93,0,0,0,0,1.89,4.82,4.82,0,0,0,1,2.45,6.28,6.28,0,0,0,1.36,1.46.42.42,0,0,1,.09.14c.23.48.23.48.73.46a3.49,3.49,0,0,1,1.32.26,5.46,5.46,0,0,0,2.81.07c.64-.15,1.26-.31,1.9-.45a1.6,1.6,0,0,1,.4,0"/><path id="_Trazado_compuesto_4" data-name="&lt;Trazado compuesto&gt;" d="M109.33,127.14l0,.06a2.25,2.25,0,0,0,.54-.1c.65-.32,1.29-.64,1.9-1,.27-.15.56-.28.67-.65a1.47,1.47,0,0,1,.51-.76,1.31,1.31,0,0,0,.53-1.13,2,2,0,0,0-.5-1.47,3.9,3.9,0,0,0-.81-.67,4.66,4.66,0,0,0-2-.4c-.12,0-.3.07-.32.15-.15.51-.64.87-.65,1.44a2.74,2.74,0,0,0-.56,1.18,2.4,2.4,0,0,0-.15.57c0,.36,0,.72-.3,1,0,0,0,.1,0,.16a2.38,2.38,0,0,1-.06.37.92.92,0,0,0,.23,1.08,1.7,1.7,0,0,1,.24.22.49.49,0,0,0,.77,0m-4.36-1.6c0-.61.07-1.17.13-1.72a8.49,8.49,0,0,1,.21-1.14,1.35,1.35,0,0,0,.09-.74.45.45,0,0,1,0-.32c.24-.35,0-.66,0-1s-.23-.49-.06-.82a4.85,4.85,0,0,0,.28-1.18c.17.06.36.13.37-.16,0,0,.09,0,.15,0h.59a.49.49,0,0,0,.21,0,.44.44,0,0,1,.59.17c.07.11.13.3.22.33a4.87,4.87,0,0,0,.78,0c.06,0,.18,0,.21,0a1.11,1.11,0,0,0,.84.32c.16,0,.3.09.45.11a1.93,1.93,0,0,0,.34,0c.36,0,.71,0,1.07,0,.18,0,.34.08.5.1s.26,0,.38,0l.5.08.35.1.5.1a2.28,2.28,0,0,1,1.48.85c.19.21.41.42.59.65a2.22,2.22,0,0,1,.29.46,4.68,4.68,0,0,1,.6,1.61c0,.13,0,.25,0,.39s-.05.5-.09.75a.86.86,0,0,1-.09.35,10.52,10.52,0,0,1-.94,1.67,3.9,3.9,0,0,1-1.23,1.12,8.25,8.25,0,0,0-.84.62,1.13,1.13,0,0,1-.22.11l-.72.37a.5.5,0,0,1-.26.06,5.8,5.8,0,0,1-.59-.19c-.07,0-.11-.11-.17-.12a.6.6,0,0,0-.34-.06c-.15.07-.12.21,0,.32a3.72,3.72,0,0,0,.63.56c.67.46,1.36.87,2,1.33a7.3,7.3,0,0,1,1,.77c.5.46,1,.95,1.45,1.45s.67.76,1,1.14c.06.07.16.11.22.19a.89.89,0,0,1,.26.56,1.48,1.48,0,0,0,.24.57.36.36,0,0,1,0,.25l-.77-.41c.06.39.11.71.16,1.09a2.45,2.45,0,0,1-.56-.26c-.46-.38-.9-.78-1.35-1.16a9.46,9.46,0,0,1-1.29-1c-.37-.42-.9-.54-1.29-.89a7.11,7.11,0,0,0-1.14-.67c-.24-.16-.45-.34-.68-.49a2.24,2.24,0,0,0-.5-.22c-.38-.14-.76-.25-1.13-.38a1.88,1.88,0,0,1-.24-.14A.32.32,0,0,0,109,131a1.62,1.62,0,0,1-1,0,1.23,1.23,0,0,0-1,.26c-.14.09-.2.32-.28.5a2.29,2.29,0,0,0-.25,1.18,1.67,1.67,0,0,1-.11.53c0,.05-.06.11,0,.16a4.19,4.19,0,0,1-.19,1.49,2.52,2.52,0,0,1-.32.78.52.52,0,0,1-.3.21c-.35.1-.35.38-.41.66a1.73,1.73,0,0,1-.13.33c-.12-.38-.21-.71-.32-1,0,0-.11-.11-.13-.1-.41.28-.44-.19-.48-.31a2.58,2.58,0,0,1-.07-1.27,1.84,1.84,0,0,0,0-.88,3.11,3.11,0,0,1,.07-.84c0-.32,0-.65,0-1a2.31,2.31,0,0,1,0-.37c0-.11,0-.23,0-.34s0-.45,0-.67.12-.67.17-1,0-.62.09-.94.13-.48.18-.73a.73.73,0,0,0,0-.36.69.69,0,0,1,.12-.75.66.66,0,0,0,.08-.48c-.08-.26,0-.39.19-.46"/><path id="_Trazado_compuesto_5" data-name="&lt;Trazado compuesto&gt;" d="M135.7,132.73c.29.09.53.14.78.21a6.46,6.46,0,0,0,.86.24,8.42,8.42,0,0,0,1.23,0,1.58,1.58,0,0,0,.57-.08c.43-.14.84-.31,1.26-.47a.83.83,0,0,1,.31,0,.73.73,0,0,0,.59-.39,1.6,1.6,0,0,1,.25-.63,3.63,3.63,0,0,0,.59-1.18c.12-.27.33-.55.2-.9a.21.21,0,0,1,0-.15c.14-.17.3-.33.05-.52,0,0,0-.09,0-.13s.11-.23.07-.32a2.43,2.43,0,0,1-.12-1.07c0-.3-.09-.6-.08-.91a1.6,1.6,0,0,0-.27-1.23c-.29-.28-.23-.74-.59-1,0,0,0,0,0-.06a4.3,4.3,0,0,0-1.22-2c-.22-.24-.53-.39-.74-.63s-.3-.41-.62-.23c0,0-.13,0-.21,0a.48.48,0,0,0-.26,0c-.38.14-.77.3-1.13.47a5.84,5.84,0,0,0-.68.41,2.48,2.48,0,0,0-.36.28,4.35,4.35,0,0,0-.34.41,7,7,0,0,0-.76.89,1.56,1.56,0,0,1-.48.6.28.28,0,0,0-.09.16,8.14,8.14,0,0,1-.65,2.14,6.28,6.28,0,0,0-.32,1.76,11.58,11.58,0,0,0,.43,2,.37.37,0,0,0,.08.15,6,6,0,0,0,.5.89c.24.3.39.69.78.87.2.09.4.22.33.46m3.58,3.14c-.19.11-.38.2-.55.31s-.36.18-.45-.06c-.27,0-.53,0-.78,0s-.4,0-.47-.14l-.53.07a.49.49,0,0,0,0-.07c.29-.29.76-.28,1.08-.53-.12-.26-.27-.3-.52-.15a.66.66,0,0,1-.44,0,3.06,3.06,0,0,1-.67-.28,2.11,2.11,0,0,1-.4-.39l-.37.2c0-.36-.21-.35-.44-.29a.17.17,0,0,0,0-.07.56.56,0,0,1,.2-.08c.21,0,.42,0,.63,0a1,1,0,0,0,.23-.07.43.43,0,0,1,.19,0,2.36,2.36,0,0,0,1.55.13c.15,0,.31,0,.46-.14s.29-.06.3.09l.28-.31s.07-.1.06-.14a.23.23,0,0,0-.13-.06,2.41,2.41,0,0,1-.53.07,7,7,0,0,1-.79-.18.5.5,0,0,0-.21,0,.9.9,0,0,1-.61.11.79.79,0,0,0-.48,0c-.13,0-.22.22-.34.42A2.37,2.37,0,0,1,135,134c-.31-.25-.69-.44-.8-.87,0-.06-.19-.07-.25-.14-.35-.41-.68-.84-1-1.25l0-.07a14.21,14.21,0,0,1-.79-1.68,2.7,2.7,0,0,1-.26-1.46,1,1,0,0,0-.08-.45,2.23,2.23,0,0,1,0-1.33,2,2,0,0,0,0-.78,1.93,1.93,0,0,1,.57-1.46s.08-.09.06-.11c-.22-.34.31-.57.13-.91,0,0,0-.07.06-.11l.38-.51c.32-.44.59-.91.95-1.33a5.42,5.42,0,0,1,.85-.61,1,1,0,0,0,.17-.3s0-.08,0-.1c.23-.25.44-.51.67-.76a.37.37,0,0,1,.14-.07c.42-.08.58-.41.8-.71a1.74,1.74,0,0,0,.31-.51c0-.07.15-.11.23-.16a1.46,1.46,0,0,1,1.29,0,4.68,4.68,0,0,1,.75.36s.06.07.07.07c.43-.15.63.37,1,.33.06,0,.14.16.21.25a4.7,4.7,0,0,0,.35.43c.4.41.81.8,1.22,1.19.07.07.1.16.18.21a3.84,3.84,0,0,1,1.21,1.58c.28.61.57,1.21.85,1.82,0,0,0,0,0,.08.13.5.28,1,.38,1.51a4.28,4.28,0,0,1,.11,1,7.54,7.54,0,0,1-.13,2c0,.1,0,.21,0,.32a3.44,3.44,0,0,1-.15,1.27.15.15,0,0,0,0,.13c.31.57-.09,1-.26,1.48a.41.41,0,0,1-.4.3.59.59,0,0,0-.34.25c-.22.26-.41.53-.62.79-.06.06-.16.08-.23.13s-.17.08-.19.13a.89.89,0,0,1-.84.65.64.64,0,0,0-.56.47c-.06.2-.13.38-.45.35a5.3,5.3,0,0,0-1.25.12c-.22,0-.11.2-.05.33"/><path id="_Trazado_10" data-name="&lt;Trazado&gt;" d="M83.27,137.29a.47.47,0,0,0,0-.21.35.35,0,0,0-.18-.16s-.11.05-.16.09l-.28.21a1.84,1.84,0,0,0-.23.25,1.5,1.5,0,0,0-.15.25h-.06c-.06-.28-.1-.58-.16-.86s-.19-.77-.29-1.17a3,3,0,0,1-.12-.52c-.06-.66-.16-1.32-.24-2s-.11-1.42-.15-2.14a7.34,7.34,0,0,1,.17-1.67c0-.1.18-.18.29-.27s0,0,0,0c-.32-.22-.25-.49-.16-.82s.06-.7.18-1-.11-.75.12-1.12c.09-.15,0-.42,0-.63a.12.12,0,0,1,0-.08,1.89,1.89,0,0,0,.16-.88c0-.09.12-.19.22-.33a6.25,6.25,0,0,1-.06-.81c0-.14.13-.28.13-.42,0-.45,0-.9,0-1.35,0-.06-.18-.16-.27-.15l-1.74.12a1.23,1.23,0,0,1-.38-.08s-.09,0-.12,0a6.3,6.3,0,0,1-2.29,0,2,2,0,0,1-.83-.34,3.54,3.54,0,0,0-.87-.36l-1-.35c-.15-.06-.31-.1-.47-.15s-.24-.12-.21-.3.07-.3.29-.32a.93.93,0,0,0,.34-.18s0-.13-.06-.19-.08,0-.11-.07l-.14-.11a2,2,0,0,1,1.86,0c.2-.27.41-.26.75-.21a4.54,4.54,0,0,0,1.4-.19c.28,0,.53-.25.85-.14.06,0,.13,0,.2-.07s.12-.06.15,0a.75.75,0,0,0,.86,0,.19.19,0,0,1,.18,0c.16.09.31.26.47.28a1,1,0,0,0,.61-.14.88.88,0,0,1,.77-.11,1.2,1.2,0,0,0,.38,0l.72-.14h.08c.21.36.48,0,.72.06a4.34,4.34,0,0,0,.8.08c.7,0,1.41-.1,2.13-.12.15,0,.32.11.49.16a1.53,1.53,0,0,0,.37,0l.28-.05v.3c.25,0,.49,0,.74,0s.42,0,.48.25c0,0,.09.08.15.09a6.54,6.54,0,0,1,1.6.87s0,0,0,.08l-.12,0c-.29.1-.31.18-.14.41a.59.59,0,0,1,0,.65.3.3,0,0,1-.23,0,1.24,1.24,0,0,0-1,.24.92.92,0,0,1-.6.07.82.82,0,0,0-.62.16,1.61,1.61,0,0,1-1.35-.09.89.89,0,0,0-.29-.09l-.4-.11s0,0-.07,0c-.37,0-.74,0-1.1,0-.08,0-.17.14-.22.23s-.09.24-.18.33a2.78,2.78,0,0,0-.45,1.63c-.07.49,0,1,0,1.51s-.08,1.07-.09,1.6c0,1,0,2.07,0,3.11a.36.36,0,0,1,0,.21,2.18,2.18,0,0,0-.23,1.15c-.07.83-.18,1.64-.27,2.46s-.13,1.49-.22,2.24a1,1,0,0,1-.12.39c0,.06-.07.09-.08.15,0,.22,0,.45-.07.66s-.1.15-.14.23l0,0"/></g><g id="_Grupo_5" data-name="&lt;Grupo&gt;"><path id="_Trazado_11" data-name="&lt;Trazado&gt;" class="cls-2" d="M65.27,148.49a2.41,2.41,0,0,1,1.16-.51,2,2,0,0,0,.57-.24,4.72,4.72,0,0,1,1-.45.89.89,0,0,1,.66.05c.19.08.41.1.6.16s.63.23.95.34a1.56,1.56,0,0,0,.26,0c.19.25.4.54.62.82a2.93,2.93,0,0,1,.48,1.51c.05.36.06.73.08,1.1a2.26,2.26,0,0,1,0,.26,7.63,7.63,0,0,0,0,.83,4.36,4.36,0,0,1-.16,1.65,2.83,2.83,0,0,1-.14.41c0,.1-.12.12-.19.07a1.33,1.33,0,0,1-.16-.17,1.81,1.81,0,0,0-.32-.3,1.12,1.12,0,0,1-.59-.87c0-.28-.07-.57-.09-.86,0-.6-.09-1.2-.13-1.8a2.4,2.4,0,0,0-.19-.8c-.13-.27-.19-.56-.34-.82a.88.88,0,0,0-.37-.37,2.21,2.21,0,0,0-1.62-.11c-.15.05-.31.07-.46.12a.9.9,0,0,0-.27.11l-.53.32a1.82,1.82,0,0,0-.23.15.29.29,0,0,0-.1.37c0,.08.06.17.1.25a3.65,3.65,0,0,1,.26,1.42c0,.21,0,.42,0,.63a1.77,1.77,0,0,0,.08.52,1.49,1.49,0,0,1-.14,1.15s0,0,0,0c-.3.16-.18.42-.16.66s-.07.36-.34.3a.93.93,0,0,0-.29-.05.34.34,0,0,1-.36-.21c-.09-.18-.23-.33-.16-.58s-.07-.26-.1-.39c-.09-.4-.2-.79-.27-1.19s-.09-.8-.14-1.2a2,2,0,0,0-.43-1,1.62,1.62,0,0,0-.53-.51,1,1,0,0,0-.59-.15l-.8.12c-.19,0-.25.12-.27.33-.1.92-.14,1.84-.15,2.76,0,.56-.1,1.12-.14,1.69,0,.17,0,.35,0,.53a1.93,1.93,0,0,1,0,.24c0,.2-.1.27-.29.24l-.2,0a.61.61,0,0,1-.65-.53,6.24,6.24,0,0,1-.23-1c-.08-.64-.13-1.28-.18-1.92,0-.09,0-.18,0-.27,0-.45,0-.91-.06-1.36a15.57,15.57,0,0,1-.16-2,2.84,2.84,0,0,1,0-.77,1.77,1.77,0,0,0,.08-.31.8.8,0,0,0,0-.34,1,1,0,0,1,.23-.94.69.69,0,0,1,.69-.15,2.08,2.08,0,0,1,.39.15,1.14,1.14,0,0,1,.66,1.19c0,.11,0,.21,0,.33s0,.27.27.28a3.38,3.38,0,0,0,.45,0,5,5,0,0,1,1.92.32,1.22,1.22,0,0,1,.68.5,4.28,4.28,0,0,0,.29.38"/><path id="_Trazado_12" data-name="&lt;Trazado&gt;" class="cls-2" d="M117.79,153.62l-.23.06-.19-.23c-.18.31,0,.56.09.83a.48.48,0,0,1-.37-.33,3.4,3.4,0,0,0-.26-.5,1,1,0,0,1-.11-.36c-.08-.47-.14-1-.2-1.43,0-.3,0-.58,0-.87a1.66,1.66,0,0,0-.06-.21s0-.05,0-.07c0-.23,0-.45,0-.67a1.17,1.17,0,0,0,0-.32,1.75,1.75,0,0,1,.13-.85,2.89,2.89,0,0,0,.19-.86.62.62,0,0,1,.08-.31,1.1,1.1,0,0,0,.12-.58,4.24,4.24,0,0,1,.2-1,2.82,2.82,0,0,0,.07-.31c0-.22.08-.44.11-.66a1.31,1.31,0,0,0-.1-.87.77.77,0,0,1-.07-.16s.07,0,.09,0c.25,0,.27,0,.33-.21l.09-.37c.22,0,.25.19.35.32l.14-.05a1.15,1.15,0,0,0,.14.17.24.24,0,0,1,.1.26c0,.11,0,.22,0,.33a.37.37,0,0,0,.19.36,1.07,1.07,0,0,1,.4,1.18l-.28,0c0,.22-.08.46-.11.69s-.05.45-.07.67,0,.3,0,.44c0,.35,0,.71,0,1.06,0,.52-.06,1-.1,1.54,0,.23-.07.45-.1.67a1,1,0,0,0,0,.29,3.22,3.22,0,0,1-.08.76.4.4,0,0,1-.21.37s-.07,0-.06,0c.06.2-.16.35-.08.56a1,1,0,0,1,0,.44l0,.2"/><path id="_Trazado_compuesto_6" data-name="&lt;Trazado compuesto&gt;" class="cls-2" d="M76.39,148.76a1.28,1.28,0,0,1-.1.17,2.1,2.1,0,0,0-.43,1.06,4.9,4.9,0,0,0-.13,1,5.19,5.19,0,0,0,0,1.42,2.36,2.36,0,0,0,.66,1.18c.27.21.55.41.84.61s.32.2.47.33l-.46-.08,0,.05a3.12,3.12,0,0,1,.42.18,1.33,1.33,0,0,0,.94.16,3.16,3.16,0,0,1,.61,0,1.35,1.35,0,0,0,.44-.05l-1-.13v0a8.56,8.56,0,0,1,1-.34c.35-.08.63-.28,1-.39a1,1,0,0,1-.65.5,1.21,1.21,0,0,0,.16.1l.52.08a1.13,1.13,0,0,0,.52,0c.13,0,.3.07.47.12l-.17.22.41.06-.49.51,0,0c-.16,0-.37,0-.47.1a.58.58,0,0,1-.42.15c-.45,0-.91.09-1.36.17a5.47,5.47,0,0,1-2.4-.35,4.66,4.66,0,0,1-1.9-1.7,3.44,3.44,0,0,1-.44-.74,3.25,3.25,0,0,1-.18-.43A5.93,5.93,0,0,1,74,151a8.81,8.81,0,0,1,.26-1.34A13,13,0,0,1,75,147.7a2.44,2.44,0,0,1,.47-.75,1.47,1.47,0,0,0,.22-.41c.09-.23.27-.34.48-.25a.64.64,0,0,0,.57,0c.3-.13.62-.21.92-.33a2.38,2.38,0,0,1,1.6,0,1.75,1.75,0,0,0,.85.12.22.22,0,0,1,.13,0,7.51,7.51,0,0,1,1.27.71l.16.14a5.91,5.91,0,0,1,1.47,2.61,4.15,4.15,0,0,1,0,1.45.48.48,0,0,1-.45.44c-.29,0-.56.17-.86.22s-.64.07-1,.11a5.89,5.89,0,0,1-1.25-.18,3,3,0,0,0-1.12,0,.58.58,0,0,1-.29,0l-.84-.3c-.15-.05-.31-.07-.46-.11a.58.58,0,0,1-.18,0,1.16,1.16,0,0,1-.4-1.35h.56a.43.43,0,0,1,0-.05l-.37-.18a.76.76,0,0,1,.41-.29.38.38,0,0,1,.21,0l.57.17a.63.63,0,0,1,.77,0,3.9,3.9,0,0,0,1.3.38c.53.08,1.05.27,1.57.4l.44.14a.6.6,0,0,0-.07-.47,6,6,0,0,0-1.11-1.53,4.07,4.07,0,0,0-.69-.55,4.34,4.34,0,0,0-1.69-.42.42.42,0,0,0-.2,0,3.54,3.54,0,0,0-1,.6s0,0-.09.07c0-.12,0-.21,0-.33a1.67,1.67,0,0,0-.83.58c-.16.21-.31.44-.49.69a1.85,1.85,0,0,0-.09-.23c-.52.34-.58.9-.72,1.42.1-.43.45-.68.71-1.09,0,.2.08.32,0,.44s-.08.08-.06.12c.06.33-.15.6-.21.91a2.64,2.64,0,0,0-.07,1,3,3,0,0,1,0,.73l.13,0,.41,1.12c0-.09.08-.15.07-.19,0-.21-.1-.42-.15-.63a.73.73,0,0,1,0-.2,6.93,6.93,0,0,1,0-1.58l-.23.37h0c.07-.27.11-.54.2-.79s.28-.59.4-.89a1.43,1.43,0,0,1,.63-.68Zm-1.79,2.85s0,.06,0,.08c.1.4.19.8.31,1.2a.61.61,0,0,0,.33.46A2.52,2.52,0,0,1,75,153a4.6,4.6,0,0,1-.14-.84.64.64,0,0,0-.3-.52m1.25,1.94c0,.19.11.23.19.32a.49.49,0,0,0,.33.21l-.52-.53m4.26,1.21a.8.8,0,0,0,.68,0Zm2-4-.07-.06c-.06.08-.13.16-.19.25l0,0,.23-.22m-.7,4.18c-.15-.09-.17,0-.24.12l.24-.12M77,154.59s0,0,0,0l.09.07,0-.06-.11,0m-1.7-1.83-.07-.06s0,0,0,0a.43.43,0,0,0,0,.07l.06-.05"/><path id="_Trazado_compuesto_7" data-name="&lt;Trazado compuesto&gt;" class="cls-2" d="M92.46,149.88a2.41,2.41,0,0,0,.08-.25c-.05,0-.09,0-.1,0a3,3,0,0,0-.52.32,1.57,1.57,0,0,1-.56.32.44.44,0,0,0-.15.08l.13.11s0,.05,0,.06l-.57.36s-.06.12-.1.17a1.73,1.73,0,0,1-.79.54.39.39,0,0,0-.17.09c-.18.14-.36.28-.53.43s-.16.09-.11.22l1-.07c.2,0,.41,0,.62,0a3,3,0,0,0,.6,0,4.82,4.82,0,0,1,.76,0c.12,0,.24,0,.35,0s.18.09.3.14a.68.68,0,0,1,.61-.11,5.36,5.36,0,0,1,.6.24.71.71,0,0,1,.32.56l-.26.09-.48.12c-.1,0-.19.15-.32.07s0,0-.06,0c-.16.17-.39.05-.56.13a1.43,1.43,0,0,1-.61.1,1.36,1.36,0,0,0-.25.07,2.3,2.3,0,0,1-.69.09,1,1,0,0,0-.45.11c-.5.13-1,.1-1.51.21a.53.53,0,0,0-.22.08c-.11.06-.2.12-.32,0s-.06,0-.08,0a2.38,2.38,0,0,1-.88-.08s-.08,0-.11,0a3.81,3.81,0,0,1-1.15.24,3.58,3.58,0,0,0-.77.29c-.22.11-.43.24-.58.33l-.72-.15s0-.08,0-.12,0-.2.06-.29a.32.32,0,0,0-.06-.46s-.1,0-.14-.11a.52.52,0,0,0,.33-.42c0-.1.15-.18.25-.25s-.07-.35.13-.47a.88.88,0,0,0,1-.13.48.48,0,0,1,.22-.14c.19,0,.3-.11.24-.32a1.42,1.42,0,0,0,.28-.07,6.41,6.41,0,0,0,1-.64,1.41,1.41,0,0,1,.31-.1,1,1,0,0,1,.6-.43.39.39,0,0,0,.16-.1l.16-.16s.1,0,.12-.08c.13-.35.45-.51.73-.71a4,4,0,0,0,.83-.81c.2-.25.22-.57.47-.82a1.56,1.56,0,0,0-.22-.05,3.86,3.86,0,0,0-1.07.11,3.19,3.19,0,0,1-.53.06,6.08,6.08,0,0,0-.94.21,1.14,1.14,0,0,1-.38,0,.62.62,0,0,1-.63.09.73.73,0,0,0-.65.08l-.19-.24a.52.52,0,0,0-.35-.22.19.19,0,0,1-.14-.07l-.81-.9a.41.41,0,0,1,.09-.55.66.66,0,0,1,.25-.1,2.77,2.77,0,0,1,1.11,0,.14.14,0,0,0,.11,0,9.91,9.91,0,0,1,1.43-.15,11.32,11.32,0,0,0,1.12-.18,3.34,3.34,0,0,1,.94-.07c.28,0,.56,0,.83,0l.88.13a3.4,3.4,0,0,1,.46.09,3.75,3.75,0,0,1,.65.28c.16.09.09.27.06.41a1,1,0,0,0,0,.43.49.49,0,0,0,.27.44.21.21,0,0,1,.11.31,2,2,0,0,1-.21.51c-.08.1-.07.28-.11.42l-.18.63c0,.1-.1.1-.21,0m.66,3c0,.12.07.22.12.35l.37-.46-.49.11m.57,0,.38-.15c-.24-.12-.26-.11-.38.15"/><path id="_Trazado_compuesto_8" data-name="&lt;Trazado compuesto&gt;" class="cls-2" d="M114.86,154.5l-.5,0a.73.73,0,0,0-.25.08.67.67,0,0,1-.75-.1,6.24,6.24,0,0,1-1.16-1,1,1,0,0,1-.29-.57,1.74,1.74,0,0,0-.29-.62l-.27.18a3.12,3.12,0,0,0-.35.2,1.2,1.2,0,0,0-.26.18.33.33,0,0,1-.37.1,1.83,1.83,0,0,0-.7-.1.5.5,0,0,0-.51.28c0,.1-.14.17-.19.27-.15.33-.43.29-.71.24a10.08,10.08,0,0,1-1.09-.24,1.17,1.17,0,0,1-.31-.2,1.48,1.48,0,0,0-.31-.22,2,2,0,0,1-.54-.3,2.39,2.39,0,0,1-.77-1,3.44,3.44,0,0,1-.27-1.15,2,2,0,0,1,.18-1.1,8.35,8.35,0,0,1,1.54-2.27c.32-.36.68-.7,1-1,.1-.1.22-.17.32-.27l.56-.51a.91.91,0,0,1,.89-.16c.18,0,.39.07.49.3s.19.15.3.21a2.23,2.23,0,0,0,.47.22,1.54,1.54,0,0,1,.69.45c.1.09.18.21.34.22a.27.27,0,0,1,.15.09,3.65,3.65,0,0,1,.7,1,.35.35,0,0,0,.16.16c.42.23.45.62.46,1,0,.15,0,.31,0,.47s-.06.47-.08.71c0,.4-.1.8-.13,1.2a3.42,3.42,0,0,0,0,1.06,1.87,1.87,0,0,0,.69,1.17,1.57,1.57,0,0,0,1,.38c.2,0,.23.06.22.27a3.43,3.43,0,0,1,0,.4m-6.55-2.61.3.1a.34.34,0,0,0,.17,0c.33-.08.67-.15,1-.26a2.11,2.11,0,0,0,.87-.5,4,4,0,0,0,.89-1.28,1.45,1.45,0,0,0-.07-1.4,2.6,2.6,0,0,0-1-1c-.45-.26-.91-.47-1.41-.06-.35.29-.74.52-1.1.79s-.41.41-.72.46c0,0-.07.07-.1.11a4.2,4.2,0,0,0-.33.49,1.65,1.65,0,0,0-.26.81,5.18,5.18,0,0,0,.06,1.3,1,1,0,0,0,.13.27c.16.25.44.28.65.43a.81.81,0,0,0,.29.12c.35,0,.5-.06.66-.43"/><path id="_Trazado_13" data-name="&lt;Trazado&gt;" class="cls-2" d="M103.29,152.85a.28.28,0,0,1,.08.35.79.79,0,0,1-.59.59c-.28.05-.5.22-.77.28l-.63.13-.2.05a1.82,1.82,0,0,1-1.06,0,2.47,2.47,0,0,0-.16.26,1.88,1.88,0,0,1-1.25-.16.31.31,0,0,0-.22-.07.57.57,0,0,1-.48-.18,3.83,3.83,0,0,1-.69-.64,2.48,2.48,0,0,1-.43-1.09,4.7,4.7,0,0,1,.13-1.83c.09-.35.19-.71.29-1.07a.59.59,0,0,1,.06-.14,8.24,8.24,0,0,1,.61-1.09,3.48,3.48,0,0,1,1-.91c.36-.21.7-.47,1-.7.18-.12.34-.25.51-.36a1.27,1.27,0,0,1,.71-.17,3.62,3.62,0,0,1,.57,0,1.45,1.45,0,0,1,.59.31.91.91,0,0,1,.21.51.67.67,0,0,1,0,.52.63.63,0,0,1-.41.37,5.07,5.07,0,0,1-.72.24,1.8,1.8,0,0,0-.79.29,7,7,0,0,0-1.07.78,8.41,8.41,0,0,0-.8,1.06.84.84,0,0,0,0,.17.54.54,0,0,1-.07.19,2.31,2.31,0,0,0-.54,1.47.65.65,0,0,0,0,.2,4.13,4.13,0,0,1,.19.52.76.76,0,0,0,.56.57,2.71,2.71,0,0,0,1,.19,2.06,2.06,0,0,1,.55.06,1.33,1.33,0,0,0,.54-.09c.35-.05.7-.12,1-.15a1,1,0,0,0,.48-.1l.05,0a1.22,1.22,0,0,0,.78-.37"/></g></g></g></g><g id="_Grupo_6" data-name="&lt;Grupo&gt;"><path id="_Trazado_compuesto_9" data-name="&lt;Trazado compuesto&gt;" d="M165.51,45.21a4.78,4.78,0,0,1,1.57,1.06,5,5,0,0,1,1,1.59,5.16,5.16,0,0,1,.38,2,5.07,5.07,0,0,1-.38,2,4.89,4.89,0,0,1-2.62,2.64,5.22,5.22,0,0,1-3.91,0A4.93,4.93,0,0,1,160,53.37a4.88,4.88,0,0,1-1-1.58,5.07,5.07,0,0,1-.38-2A5.06,5.06,0,0,1,160,46.27a4.93,4.93,0,0,1,1.58-1.06,5.22,5.22,0,0,1,3.91,0Zm-3.63.67a4.1,4.1,0,0,0-1.32.91,4.14,4.14,0,0,0-.88,1.36,4.64,4.64,0,0,0-.31,1.68,4.55,4.55,0,0,0,.31,1.67,4,4,0,0,0,.88,1.36,4,4,0,0,0,1.32.91,4,4,0,0,0,1.67.34,4,4,0,0,0,1.66-.34,4.09,4.09,0,0,0,1.33-.91,4.34,4.34,0,0,0,1.2-3,4.34,4.34,0,0,0-1.2-3,4.25,4.25,0,0,0-1.33-.91,4,4,0,0,0-1.66-.34A4,4,0,0,0,161.88,45.88Zm-.12,6.83V46.94H164a2,2,0,0,1,1.42.41,1.52,1.52,0,0,1,.45,1.19,1.8,1.8,0,0,1-.11.65,1.35,1.35,0,0,1-.32.48,1.49,1.49,0,0,1-.46.31,2.35,2.35,0,0,1-.55.17l1.7,2.56h-.82l-1.61-2.56h-1.19v2.56ZM164,49.52a1.79,1.79,0,0,0,.55-.11.83.83,0,0,0,.39-.3,1,1,0,0,0,.14-.57A.91.91,0,0,0,165,48a.81.81,0,0,0-.31-.3,1.23,1.23,0,0,0-.43-.16,4.06,4.06,0,0,0-.51,0h-1.29v2h.93C163.61,49.54,163.82,49.54,164,49.52Z"/></g></g></g></svg>